<svg xmlns="http://www.w3.org/2000/svg" width="21" height="20" viewBox="0 0 21 20" fill="none">
  <path d="M4.44446 16.668V3.33677C4.4395 3.2779 4.45134 3.21883 4.47858 3.16642C4.50583 3.114 4.54737 3.07038 4.5984 3.04062C4.64943 3.01085 4.70785 2.99616 4.76688 2.99824C4.82592 3.00033 4.88316 3.0191 4.93196 3.05239L16.5538 9.68989C16.6075 9.71513 16.6529 9.75512 16.6847 9.8052C16.7165 9.85529 16.7334 9.91338 16.7334 9.9727C16.7334 10.032 16.7165 10.0901 16.6847 10.1402C16.6529 10.1903 16.6075 10.2303 16.5538 10.2555L4.93509 16.9524C4.88523 16.9808 4.82879 16.9957 4.77141 16.9955C4.71402 16.9952 4.65769 16.98 4.60804 16.9512C4.55839 16.9224 4.51716 16.8811 4.48845 16.8314C4.45975 16.7818 4.44458 16.7254 4.44446 16.668Z" stroke="black" stroke-width="1.25"/>
  <path d="M4.44531 3.33496L13.7297 11.8818" stroke="black" stroke-width="1.25"/>
  <path d="M4.44531 16.6637L13.4703 7.91992" stroke="black" stroke-width="1.25"/>
</svg>