<svg width="634" height="286" viewBox="0 0 634 286" fill="none" xmlns="http://www.w3.org/2000/svg">
<g class="card card-1" clip-path="url(#clip0_7212_25522)">
<path d="M0 16.1979C0 7.25203 7.25204 0 16.1979 0H136.302C145.248 0 152.5 7.25204 152.5 16.1979V269.802C152.5 278.748 145.248 286 136.302 286H16.1979C7.25204 286 0 278.748 0 269.802V16.1979Z" fill="#FF7300"/>

<style>
    .card {
      opacity: 0;
      transform: translateY(24px);
      animation: cardIn 0.8s ease-out forwards;
    }

    .card-1 { animation-delay: 0.1s; }
    .card-2 { animation-delay: 0.25s; }
    .card-3 { animation-delay: 0.4s; }
    .card-4 { animation-delay: 0.55s; }

    @keyframes cardIn {
      to {
        opacity: 1;
        transform: translateY(0);
      }
    }
  </style>
  
<path d="M246.277 74.0312C233.807 74.0312 223.04 87.4382 218.052 106.82C212.427 96.7623 204.739 90.5577 196.259 90.5577C183.789 90.5577 173.021 103.965 168.033 123.347C162.409 113.289 154.72 107.084 146.24 107.084C133.77 107.084 123.002 120.491 118.014 139.873C112.39 129.815 104.701 123.611 96.2216 123.611C83.7513 123.611 72.9839 137.018 67.9958 156.4C62.3713 146.342 54.6827 140.137 46.2029 140.137C33.7326 140.137 22.9652 153.544 17.9771 172.926C12.3526 162.868 4.66407 156.664 -3.8157 156.664C-21.0333 156.664 -35 182.205 -35 213.721C-35 245.237 -21.0333 270.778 -3.8157 270.778C8.65456 270.778 19.422 257.371 24.4101 237.989C30.0346 248.047 37.7231 254.251 46.2029 254.251C58.6732 254.251 69.4406 240.844 74.4287 221.462C80.0532 231.52 87.7418 237.725 96.2216 237.725C108.692 237.725 119.459 224.318 124.447 204.936C130.072 214.994 137.76 221.198 146.24 221.198C158.71 221.198 169.478 207.791 174.466 188.409C180.091 198.467 187.779 204.672 196.259 204.672C208.729 204.672 219.496 191.265 224.485 171.883C230.109 181.941 237.798 188.145 246.277 188.145C263.495 188.145 277.462 162.604 277.462 131.088C277.462 99.5722 263.512 74.0312 246.277 74.0312Z" fill="#EB6A00"/>
<path d="M270.277 202.031C257.807 202.031 247.04 215.438 242.052 234.82C236.427 224.762 228.739 218.558 220.259 218.558C207.789 218.558 197.021 231.965 192.033 251.347C186.409 241.289 178.72 235.084 170.24 235.084C157.77 235.084 147.002 248.491 142.014 267.873C136.39 257.815 128.701 251.611 120.222 251.611C107.751 251.611 96.9839 265.018 91.9958 284.4C86.3713 274.342 78.6827 268.137 70.2029 268.137C57.7326 268.137 46.9652 281.544 41.9771 300.926C36.3526 290.868 28.6641 284.664 20.1843 284.664C2.96674 284.664 -11 310.205 -11 341.721C-11 373.237 2.96674 398.778 20.1843 398.778C32.6546 398.778 43.422 385.371 48.4101 365.989C54.0346 376.047 61.7231 382.251 70.2029 382.251C82.6732 382.251 93.4406 368.844 98.4287 349.462C104.053 359.52 111.742 365.725 120.222 365.725C132.692 365.725 143.459 352.318 148.447 332.936C154.072 342.994 161.76 349.198 170.24 349.198C182.71 349.198 193.478 335.791 198.466 316.409C204.091 326.467 211.779 332.672 220.259 332.672C232.729 332.672 243.496 319.265 248.485 299.883C254.109 309.941 261.798 316.145 270.277 316.145C287.495 316.145 301.462 290.604 301.462 259.088C301.462 227.572 287.512 202.031 270.277 202.031Z" fill="#EB6A00"/>
<path d="M246.277 -69C233.807 -69 223.04 -55.593 218.052 -36.2108C212.427 -46.2689 204.739 -52.4735 196.259 -52.4735C183.789 -52.4735 173.021 -39.0665 168.033 -19.6843C162.409 -29.7424 154.72 -35.947 146.24 -35.947C133.77 -35.947 123.002 -22.5401 118.014 -3.15785C112.39 -13.216 104.701 -19.4206 96.2216 -19.4206C83.7513 -19.4206 72.9839 -6.01359 67.9958 13.3686C62.3713 3.31051 54.6827 -2.89407 46.2029 -2.89407C33.7326 -2.89407 22.9652 10.5129 17.9771 29.8951C12.3526 19.837 4.66407 13.6324 -3.8157 13.6324C-21.0333 13.6324 -35 39.1733 -35 70.6895C-35 102.206 -21.0333 127.747 -3.8157 127.747C8.65456 127.747 19.422 114.34 24.4101 94.9574C30.0346 105.015 37.7231 111.22 46.2029 111.22C58.6732 111.22 69.4406 97.8131 74.4287 78.4309C80.0532 88.489 87.7418 94.6936 96.2216 94.6936C108.692 94.6936 119.459 81.2866 124.447 61.9044C130.072 71.9625 137.76 78.1671 146.24 78.1671C158.71 78.1671 169.478 64.7601 174.466 45.3779C180.091 55.436 187.779 61.6406 196.259 61.6406C208.729 61.6406 219.496 48.2336 224.485 28.8514C230.109 38.9095 237.798 45.1141 246.277 45.1141C263.495 45.1141 277.462 19.5732 277.462 -11.9429C277.462 -43.4591 263.512 -69 246.277 -69Z" fill="#EB6A00"/>
</g>
<g class="card card-2">
<path d="M160.5 16.1979C160.5 7.25203 167.752 0 176.698 0H296.802C305.748 0 313 7.25204 313 16.1979V269.802C313 278.748 305.748 286 296.802 286H176.698C167.752 286 160.5 278.748 160.5 269.802V16.1979Z" fill="#0075FF"/>
</g>
<g class="card card-3">
<path d="M321 16.1979C321 7.25203 328.252 0 337.198 0H457.302C466.248 0 473.5 7.25204 473.5 16.1979V269.802C473.5 278.748 466.248 286 457.302 286H337.198C328.252 286 321 278.748 321 269.802V16.1979Z" fill="#00AB51"/>
</g>
<g class="card card-4" clip-path="url(#clip1_7212_25522)">
<path d="M481.5 16.1979C481.5 7.25203 488.752 0 497.698 0H617.802C626.748 0 634 7.25204 634 16.1979V269.802C634 278.748 626.748 286 617.802 286H497.698C488.752 286 481.5 278.748 481.5 269.802V16.1979Z" fill="#5C2588"/>
<path d="M396.79 888.109C391.214 885.156 386.621 844.81 385.309 838.905C376.781 801.839 368.908 764.773 359.068 728.034C344.307 673.583 331.514 618.475 321.017 563.04C312.16 516.789 303.632 477.098 316.753 431.503C323.313 408.542 336.106 373.443 362.348 365.899C396.79 356.058 422.376 401.653 435.496 425.927C435.496 425.927 453.866 566.648 468.955 580.097C484.044 593.546 510.941 601.418 527.67 524.661C544.071 449.216 540.135 369.507 568.017 296.686C582.122 260.276 606.067 226.162 640.51 206.481C724.483 158.261 705.458 340.641 689.713 374.427C675.608 404.605 655.271 442.984 661.831 477.754C665.439 496.123 678.888 513.18 697.585 517.773C756.301 531.549 791.071 445.28 811.409 405.589C865.532 299.311 950.162 201.232 1070.22 169.086C1109.91 158.589 1156.49 160.23 1145.66 214.353C1144.35 221.569 1142.05 228.786 1139.43 235.674C1113.52 307.183 1063.33 368.523 1009.21 420.678C958.034 470.21 879.965 509.244 863.236 584.689C861.268 593.874 860.284 603.386 863.892 611.915C874.717 637.5 911.127 630.612 932.449 627.332C970.499 621.427 1008.88 615.195 1047.58 613.883C1088.59 612.243 1166 614.211 1167.97 670.303C1171.25 757.556 923.264 792.655 878.325 797.575C833.058 802.495 752.693 797.575 779.591 839.561C806.489 881.548 926.872 895.653 878.325 998.98C828.794 1102.31 396.79 888.109 396.79 888.109Z" fill="#43007A"/>
<path d="M652.335 275.546C641.183 265.049 623.141 268.329 616.253 281.778C608.708 296.539 617.893 315.236 635.278 315.236C638.558 315.236 641.839 314.252 644.791 312.94C646.103 312.612 647.743 311.956 649.055 310.972C661.192 303.099 662.832 285.714 652.335 275.546Z" fill="#43007A"/>
<path d="M369 -378.4C371.601 -382.848 404.679 -385.206 409.542 -386.073C440.079 -391.755 470.593 -396.902 500.908 -403.667C545.845 -413.836 591.249 -422.376 636.842 -429.032C674.884 -434.666 707.563 -440.258 744.313 -427.982C762.822 -421.839 791.019 -410.192 796.271 -388.521C803.115 -360.08 765.031 -340.774 744.774 -330.904C744.774 -330.904 629.324 -320.761 617.831 -308.913C606.338 -297.064 598.988 -275.389 661.04 -259.096C722.033 -243.116 787.206 -243.584 845.662 -218.327C874.885 -205.564 901.895 -184.852 916.767 -156.072C953.219 -85.8954 805.066 -107.698 778.041 -121.708C753.903 -134.256 723.29 -152.171 694.694 -148.016C679.581 -145.704 665.201 -135.318 660.81 -120.221C647.548 -72.7872 716.74 -41.4469 748.424 -23.4865C833.277 24.3338 910.388 96.7624 932.483 195.826C939.681 228.572 936.739 266.521 892.95 255.825C887.108 254.506 881.298 252.384 875.768 250.006C818.315 226.4 769.994 183.339 729.302 137.382C690.65 93.9244 661.489 28.8817 600.508 12.6342C593.081 10.7121 585.354 9.58153 578.271 12.2319C557.022 20.1831 561.389 50.1286 563.331 67.6383C566.838 98.888 570.602 130.417 570.34 162.043C570.266 195.555 565.995 258.651 520.161 258.325C448.855 257.997 428.756 54.4519 426.289 17.6155C423.833 -19.4884 430.615 -84.8911 395.43 -64.3902C360.246 -43.8893 344.592 53.8494 261.957 10.6807C179.355 -33.2909 369 -378.4 369 -378.4Z" fill="#43007A"/>
<path d="M473.804 67.0782C478.844 68.3634 484.298 66.1804 486.71 59.8474C486.722 59.5797 487.001 59.3234 487.012 59.0558C496.921 46.6043 494.915 24.2659 480.801 15.6267C463.019 4.95595 446.694 23.3034 447.31 40.4889C446.002 46.0642 446.824 51.9976 450.089 57.2296C454.846 65.2058 464.602 69.103 473.804 67.0782Z" fill="#43007A"/>
<path d="M532.968 151.888C541.057 144.454 543.216 131.407 537.735 121.524C531.752 110.815 519.199 103.314 507.151 109.24C501.953 111.702 498.561 115.849 496.484 120.587C495.624 121.892 494.765 123.196 494.173 124.512C489.428 135.304 493.179 148.064 503.112 154.114C513.034 160.431 524.867 159.59 532.968 151.888Z" fill="#43007A"/>
<path d="M525.975 82.4172C530.035 81.516 533.65 78.4513 534.633 74.2029C535.617 69.9545 534.995 65.6383 531.919 62.2911C530.381 60.6175 528.82 59.4791 526.701 58.8535C524.851 58.2391 522.977 58.1601 520.825 58.3374C517.078 58.1793 512.984 59.8833 510.964 63.2836C509.512 65.9036 508.853 68.8251 509.532 71.803C509.754 72.8849 510.233 74.2455 510.734 75.0711C511.224 76.1642 511.982 77.2687 513.03 77.8491C514.836 79.534 515.884 80.1145 518.247 81.2867C520.867 82.7379 523.811 82.8621 525.975 82.4172Z" fill="#43007A"/>
<path d="M519.697 224.791C524.081 222.562 526.693 217.847 526.897 213.029C526.998 210.62 526.576 207.921 525.317 205.991C524.827 204.898 524.058 204.061 523.3 202.957C521.762 201.283 519.922 200.401 518.083 199.519C516.767 198.928 515.161 198.86 513.812 199.071C512.206 199.003 510.845 199.482 509.74 200.24C509.461 200.496 509.194 200.485 508.915 200.741C507.565 200.952 505.926 201.688 504.821 202.445C502.88 203.972 501.742 205.533 500.569 207.896C500.279 208.42 500.245 209.223 500.223 209.758C500.2 210.294 499.899 211.085 499.876 211.621C499.82 212.959 500.031 214.308 500.253 215.39C500.687 217.822 502.202 220.031 503.74 221.704C507.574 226.156 514.22 227.509 519.697 224.791Z" fill="#43007A"/>
</g>
<path d="M316.776 74.84C330.353 59.6603 350.166 50.0113 372.266 50.0113C413.059 50.0113 446.253 82.6868 446.253 122.87C446.253 163.042 418.13 204.097 372.261 188.409C372.261 188.409 327.731 170.418 335.273 195.729C342.815 221.041 338.053 226.94 335.273 232.156C332.493 237.372 302.972 239.114 298.285 232.156C293.599 225.198 306.145 182.384 300.811 165.064C295.477 147.744 294.569 131.494 298.285 122.87C307.708 101.009 281.688 86.438 261.292 86.438C240.896 86.438 228.244 92.4742 224.298 122.87C220.353 153.267 247.426 167.072 261.292 159.303C275.158 151.533 277.07 155.675 279.789 159.303C282.508 162.93 294.837 194.433 279.789 195.724C264.741 197.014 261.292 195.724 261.292 195.724C220.5 195.724 191.372 166.387 187.305 122.865C183.238 79.3421 220.488 50 261.292 50C283.393 50.0113 303.206 59.649 316.776 74.84ZM335.273 159.291C337.909 163.753 346.836 163.447 372.261 159.291C396.141 153.643 409.255 142.948 409.255 122.864C409.255 102.776 409.249 89.7576 372.261 86.4323C335.273 83.107 329.05 104.009 335.268 122.865C341.485 141.72 328.478 141.982 335.268 159.291H335.273Z" fill="white" style="mix-blend-mode:soft-light"/>
<defs>
<clipPath id="clip0_7212_25522">
<path d="M0 16.1979C0 7.25203 7.25204 0 16.1979 0H136.302C145.248 0 152.5 7.25204 152.5 16.1979V269.802C152.5 278.748 145.248 286 136.302 286H16.1979C7.25204 286 0 278.748 0 269.802V16.1979Z" fill="white"/>
</clipPath>
<clipPath id="clip1_7212_25522">
<path d="M481.5 16.1979C481.5 7.25203 488.752 0 497.698 0H617.802C626.748 0 634 7.25204 634 16.1979V269.802C634 278.748 626.748 286 617.802 286H497.698C488.752 286 481.5 278.748 481.5 269.802V16.1979Z" fill="white"/>
</clipPath>
</defs>
</svg>
