<svg width="26" height="25" viewBox="0 0 26 25" fill="none" xmlns="http://www.w3.org/2000/svg">
<path d="M0 1.0928C0 0.489262 0.489261 0 1.0928 0H11.611C12.2145 0 12.7038 0.489262 12.7038 1.0928V10.6092C12.7038 11.2128 12.2145 11.702 11.611 11.702H1.0928C0.489261 11.702 0 11.2128 0 10.6092V1.0928Z" fill="#FF7300"/>
<path d="M12.9668 1.0928C12.9668 0.489262 13.4561 0 14.0596 0H24.5778C25.1813 0 25.6706 0.489262 25.6706 1.0928V10.6092C25.6706 11.2128 25.1813 11.702 24.5778 11.702H14.0596C13.4561 11.702 12.9668 11.2128 12.9668 10.6092V1.0928Z" fill="#0075FF"/>
<path d="M0 13.7949C0 13.1914 0.489261 12.7021 1.0928 12.7021H11.611C12.2145 12.7021 12.7038 13.1914 12.7038 13.7949V23.3114C12.7038 23.9149 12.2145 24.4042 11.611 24.4042H1.0928C0.489261 24.4042 0 23.9149 0 23.3114V13.7949Z" fill="#5C2588"/>
<path d="M12.9668 13.7949C12.9668 13.1914 13.4561 12.7021 14.0596 12.7021H24.5778C25.1813 12.7021 25.6706 13.1914 25.6706 13.7949V23.3114C25.6706 23.9149 25.1813 24.4042 24.5778 24.4042H14.0596C13.4561 24.4042 12.9668 23.9149 12.9668 23.3114V13.7949Z" fill="#00AB51"/>
<path d="M12.898 7.12506C13.8139 6.10095 15.1506 5.44998 16.6417 5.44998C19.3937 5.44998 21.6332 7.65445 21.6332 10.3654C21.6332 13.0757 19.7359 15.8455 16.6413 14.787C16.6413 14.787 13.637 13.5732 14.1459 15.2809C14.6547 16.9886 14.3334 17.3865 14.1459 17.7384C13.9583 18.0904 11.9667 18.2079 11.6505 17.7384C11.3343 17.269 12.1807 14.3806 11.8209 13.212C11.461 12.0435 11.3997 10.9473 11.6505 10.3654C12.2862 8.89056 10.5307 7.90752 9.1547 7.90752C7.77869 7.90752 6.92513 8.31476 6.65893 10.3654C6.39273 12.4161 8.21927 13.3475 9.1547 12.8234C10.0902 12.2992 10.2192 12.5786 10.4026 12.8234C10.5861 13.0681 11.4178 15.1934 10.4026 15.2805C9.38737 15.3676 9.1547 15.2805 9.1547 15.2805C6.40264 15.2805 4.43756 13.3013 4.16315 10.3651C3.88874 7.42879 6.40187 5.44922 9.1547 5.44922C10.6458 5.44998 11.9824 6.10019 12.898 7.12506ZM14.1459 12.8226C14.3237 13.1236 14.926 13.103 16.6413 12.8226C18.2523 12.4415 19.1371 11.72 19.1371 10.365C19.1371 9.00976 19.1367 8.13148 16.6413 7.90714C14.1459 7.6828 13.726 9.09299 14.1455 10.3651C14.565 11.6371 13.6875 11.6548 14.1455 12.8226H14.1459Z" fill="white" style="mix-blend-mode:soft-light"/>
</svg>
