<svg width="65" height="60" viewBox="0 0 65 60" fill="none" xmlns="http://www.w3.org/2000/svg">
<g filter="url(#filter0_g_7212_22522)">
<path d="M2.42969 4.94812C2.42969 3.55696 3.55745 2.4292 4.94861 2.4292H29.1933C30.5844 2.4292 31.7122 3.55696 31.7122 4.94812V26.8838C31.7122 28.2749 30.5844 29.4027 29.1933 29.4027H4.94861C3.55745 29.4027 2.42969 28.2749 2.42969 26.8838V4.94812Z" fill="#FF7300"/>
<path d="M32.3203 4.94812C32.3203 3.55696 33.4481 2.4292 34.8392 2.4292H59.0839C60.475 2.4292 61.6028 3.55696 61.6028 4.94812V26.8838C61.6028 28.2749 60.475 29.4027 59.0839 29.4027H34.8392C33.4481 29.4027 32.3203 28.2749 32.3203 26.8838V4.94812Z" fill="#0075FF"/>
<path d="M2.42969 32.9218C2.42969 31.5306 3.55745 30.4028 4.94861 30.4028H29.1933C30.5844 30.4028 31.7122 31.5306 31.7122 32.9218V54.8574C31.7122 56.2486 30.5844 57.3763 29.1933 57.3763H4.94861C3.55745 57.3763 2.42969 56.2486 2.42969 54.8574V32.9218Z" fill="#5C2588"/>
<path d="M32.3203 32.9218C32.3203 31.5306 33.4481 30.4028 34.8392 30.4028H59.0839C60.475 30.4028 61.6028 31.5306 61.6028 32.9218V54.8574C61.6028 56.2486 60.475 57.3763 59.0839 57.3763H34.8392C33.4481 57.3763 32.3203 56.2486 32.3203 54.8574V32.9218Z" fill="#00AB51"/>
<path d="M32.1619 18.8545C34.2732 16.494 37.3543 14.9935 40.7912 14.9935C47.1348 14.9935 52.2968 20.0748 52.2968 26.3237C52.2968 32.5709 47.9234 38.9553 40.7903 36.5156C40.7903 36.5156 33.8654 33.7178 35.0383 37.654C36.2112 41.5902 35.4706 42.5075 35.0383 43.3187C34.606 44.1299 30.0152 44.4007 29.2864 43.3187C28.5576 42.2367 30.5086 35.5787 29.6792 32.8852C28.8497 30.1918 28.7084 27.6648 29.2864 26.3237C30.7517 22.9241 26.7054 20.6582 23.5335 20.6582C20.3618 20.6582 18.3943 21.5968 17.7807 26.3237C17.1671 31.0506 21.3773 33.1975 23.5335 31.9893C25.6898 30.781 25.9872 31.4252 26.41 31.9893C26.8328 32.5535 28.7501 37.4524 26.41 37.6531C24.0699 37.8538 23.5335 37.6531 23.5335 37.6531C17.19 37.6531 12.6604 33.091 12.0279 26.3229C11.3954 19.5547 17.1882 14.9917 23.5335 14.9917C26.9705 14.9935 30.0516 16.4922 32.1619 18.8545ZM35.0383 31.9876C35.4483 32.6814 36.8365 32.6338 40.7903 31.9876C44.5038 31.1091 46.5432 29.446 46.5432 26.3228C46.5432 23.1989 46.5423 21.1744 40.7903 20.6573C35.0383 20.1402 34.0706 23.3907 35.0375 26.3229C36.0043 29.255 33.9817 29.2957 35.0375 31.9876H35.0383Z" fill="white" style="mix-blend-mode:soft-light"/>
</g>
<defs>
<filter id="filter0_g_7212_22522" x="0.000568628" y="8.03471e-05" width="64.2" height="59.8055" filterUnits="userSpaceOnUse" color-interpolation-filters="sRGB">
<feFlood flood-opacity="0" result="BackgroundImageFix"/>
<feBlend mode="normal" in="SourceGraphic" in2="BackgroundImageFix" result="shape"/>
<feTurbulence type="fractalNoise" baseFrequency="3.2933752536773682 3.2933752536773682" numOctaves="3" seed="7663" />
<feDisplacementMap in="shape" scale="4.8582377433776855" xChannelSelector="R" yChannelSelector="G" result="displacedImage" width="100%" height="100%" />
<feMerge result="effect1_texture_7212_22522">
<feMergeNode in="displacedImage"/>
</feMerge>
</filter>
</defs>
</svg>
