<svg width="600" height="322" viewBox="0 0 600 322" fill="none" xmlns="http://www.w3.org/2000/svg">
<path d="M-7 322.159V241.372C-7 236.596 -5.34046 231.969 -2.30535 228.282L149.813 43.494C171.962 16.5882 204.985 1 239.835 1H586.405C597.779 1 607 10.2209 607 21.5954V322.159H-7Z" fill="#F5F7FA" stroke="#F0F1F4"/>
<path d="M38.6958 322.159V301.728C38.6958 296.266 40.8657 291.027 44.7281 287.165L228.32 103.573C232.182 99.7109 237.421 97.541 242.883 97.541H607V322.159H38.6958Z" fill="#F2F5F8" stroke="#EDEFF2"/>
<g filter="url(#filter0_i_2876_27758)">
<!-- #7 -->
<path d="M155.722 80.658C154.713 79.6711 153.098 79.6798 152.101 80.6775L140.939 91.8394C139.926 92.8525 139.935 94.4976 140.958 95.4997L167.528 121.504C168.536 122.491 170.151 122.482 171.149 121.484L182.311 110.323C183.324 109.309 183.315 107.664 182.291 106.662L155.722 80.658Z" fill="#CACFD8"/>
<!-- #6 -->
<path d="M137.057 105.115C136.049 104.128 134.434 104.137 133.436 105.135L122.274 116.296C121.261 117.309 121.27 118.955 122.294 119.957L146.891 144.03C147.899 145.017 149.514 145.008 150.512 144.011L161.674 132.849C162.687 131.836 162.678 130.191 161.654 129.188L137.057 105.115Z" fill="#CACFD8"/>
<!-- #5 -->
<path d="M119.036 129.572C118.028 128.585 116.413 128.594 115.415 129.592L104.253 140.753C103.24 141.767 103.249 143.412 104.273 144.414L125.694 165.379C126.702 166.366 128.317 166.357 129.315 165.359L140.477 154.197C141.49 153.184 141.481 151.539 140.457 150.537L119.036 129.572Z" fill="#CACFD8"/>
<!-- #4 -->
<path d="M99.728 154.029C98.7196 153.042 97.1046 153.051 96.1069 154.049L84.945 165.211C83.9319 166.224 83.9408 167.869 84.9646 168.871L103.167 186.686C104.176 187.673 105.791 187.664 106.788 186.667L117.95 175.505C118.963 174.492 118.955 172.847 117.931 171.844L99.728 154.029Z" fill="#CACFD8"/>
<!-- #3 -->
<path d="M81.707 178.486C80.6986 177.499 79.0837 177.508 78.0859 178.506L66.924 189.668C65.911 190.681 65.9198 192.326 66.9437 193.328L82.3341 208.391C83.3425 209.378 84.9574 209.369 85.9552 208.371L97.1171 197.209C98.1301 196.196 98.1213 194.551 97.0974 193.549L81.707 178.486Z" fill="#CACFD8"/>
<!-- #2 -->
<path d="M63.6861 202.943C62.6777 201.956 61.0627 201.965 60.065 202.963L48.903 214.125C47.89 215.138 47.8988 216.783 48.9227 217.785L61.0251 229.63C62.0335 230.617 63.6485 230.608 64.6462 229.61L75.8082 218.448C76.8212 217.435 76.8123 215.79 75.7885 214.788L63.6861 202.943Z" fill="#CACFD8"/>
<!-- #9 -->
<path d="M231.134 25.891C231.134 24.5538 230.11 23.4321 228.774 23.3807C207.267 22.5543 189.225 35.473 181.284 43.6334C180.334 44.6085 180.403 46.1523 181.374 47.1056L213.552 78.699C214.421 79.5525 215.765 79.6704 216.822 79.0632C221.171 76.5627 225.732 75.2624 228.775 74.6986C230.097 74.4535 231.134 73.3326 231.134 71.9873V25.891Z" fill="#CACFD8"/>
<!-- #15 -->
<path d="M416.493 26.1009C416.493 24.6791 415.34 23.5265 413.918 23.5265H397.185C395.763 23.5265 394.61 24.6791 394.61 26.1009V71.7969C394.61 73.2187 395.763 74.3713 397.185 74.3713H413.918C415.34 74.3713 416.493 73.2187 416.493 71.7969V26.1009Z" fill="#CACFD8"/>
<!-- #14 -->
<path d="M385.6 24.8137C385.6 23.3919 384.447 22.2393 383.025 22.2393H366.292C364.87 22.2393 363.717 23.3919 363.717 24.8137V70.5097C363.717 71.9315 364.87 73.0841 366.292 73.0841H383.025C384.447 73.0841 385.6 71.9315 385.6 70.5097V24.8137Z" fill="#CACFD8"/>
<!-- #13 -->
<path d="M355.994 24.8137C355.994 23.3919 354.841 22.2393 353.419 22.2393H336.686C335.264 22.2393 334.111 23.3919 334.111 24.8137V70.5097C334.111 71.9315 335.264 73.0841 336.686 73.0841H353.419C354.841 73.0841 355.994 71.9315 355.994 70.5097V24.8137Z" fill="#CACFD8"/>
<!-- #12 -->
<path d="M325.101 24.8137C325.101 23.3919 323.948 22.2393 322.526 22.2393H305.793C304.371 22.2393 303.218 23.3919 303.218 24.8137V70.5097C303.218 71.9315 304.371 73.0841 305.793 73.0841H322.526C323.948 73.0841 325.101 71.9315 325.101 70.5097V24.8137Z" fill="#CACFD8"/>
<!-- #11 -->
<path d="M294.208 24.8137C294.208 23.3919 293.055 22.2393 291.633 22.2393H274.899C273.478 22.2393 272.325 23.3919 272.325 24.8137V70.5097C272.325 71.9315 273.478 73.0841 274.899 73.0841H291.633C293.055 73.0841 294.208 71.9315 294.208 70.5097V24.8137Z" fill="#CACFD8"/>
<!-- #10 -->
<path d="M264.602 24.8137C264.602 23.3919 263.449 22.2393 262.027 22.2393H245.294C243.872 22.2393 242.719 23.3919 242.719 24.8137V70.5097C242.719 71.9315 243.872 73.0841 245.294 73.0841H262.027C263.449 73.0841 264.602 71.9315 264.602 70.5097V24.8137Z" fill="#CACFD8"/>
<!-- #8 -->
<path d="M193.069 100.852C192.056 101.864 190.413 101.857 189.41 100.835L159.628 70.48C158.609 69.4406 158.653 67.7631 159.726 66.7792L171.375 56.1014C172.398 55.1635 173.981 55.2056 174.953 56.1965L204.248 86.0668C205.237 87.075 205.229 88.6914 204.231 89.6899L193.069 100.852Z" fill="#CACFD8"/>
<!-- #1 -->
<path d="M30.9017 242.242C29.8779 241.24 29.869 239.595 30.8821 238.582L42.044 227.42C43.0417 226.422 44.6567 226.413 45.6651 227.4L54.2137 235.767C55.2376 236.769 55.2464 238.414 54.2334 239.427L43.0714 250.589C42.0737 251.587 40.4587 251.595 39.4503 250.609L30.9017 242.242Z" fill="#CACFD8"/>
</g>
<g filter="url(#filter1_i_2876_27758)">
<!-- #20 -->
<path d="M568.384 26.1008C568.384 24.679 567.231 23.5264 565.809 23.5264H549.075C547.654 23.5264 546.501 24.679 546.501 26.1008V71.7968C546.501 73.2186 547.654 74.3712 549.075 74.3712H565.809C567.231 74.3712 568.384 73.2186 568.384 71.7968V26.1008Z" fill="#FF7300"/>
</g>
<!-- #16 -->
<g filter="url(#filter2_i_2876_27758)">
<path d="M444.811 26.1008C444.811 24.679 443.659 23.5264 442.237 23.5264H425.503C424.081 23.5264 422.929 24.679 422.929 26.1008V71.7968C422.929 73.2186 424.081 74.3712 425.503 74.3712H442.237C443.659 74.3712 444.811 73.2186 444.811 71.7968V26.1008Z" fill="#FFE4C9"/>
</g>
<!-- #17 -->
<g filter="url(#filter3_i_2876_27758)">
<path d="M475.704 26.1008C475.704 24.679 474.552 23.5264 473.13 23.5264H456.396C454.974 23.5264 453.822 24.679 453.822 26.1008V71.7968C453.822 73.2186 454.974 74.3712 456.396 74.3712H473.13C474.552 74.3712 475.704 73.2186 475.704 71.7968V26.1008Z" fill="#FFC891"/>
</g>
<!-- #18 -->
<g filter="url(#filter4_i_2876_27758)">
<path d="M506.597 26.1008C506.597 24.679 505.445 23.5264 504.023 23.5264H487.289C485.867 23.5264 484.715 24.679 484.715 26.1008V71.7968C484.715 73.2186 485.867 74.3712 487.289 74.3712H504.023C505.445 74.3712 506.597 73.2186 506.597 71.7968V26.1008Z" fill="#FFAD56"/>
</g>
<!-- #19 -->
<g filter="url(#filter5_i_2876_27758)">
<path d="M537.491 26.1008C537.491 24.679 536.338 23.5264 534.916 23.5264H518.182C516.761 23.5264 515.608 24.679 515.608 26.1008V71.7968C515.608 73.2186 516.761 74.3712 518.182 74.3712H534.916C536.338 74.3712 537.491 73.2186 537.491 71.7968V26.1008Z" fill="#FF9100"/>
</g>
<path d="M188.335 123.607C187.801 123.074 186.937 123.074 186.404 123.607C185.871 124.14 185.871 125.005 186.404 125.538L188.335 127.469C188.868 128.002 189.732 128.002 190.265 127.469C190.799 126.936 190.799 126.071 190.265 125.538L188.335 123.607Z" fill="#99A0AE"/>
<path d="M165.808 144.203C165.275 143.67 164.411 143.67 163.878 144.203C163.344 144.736 163.344 145.6 163.878 146.134L165.808 148.064C166.342 148.598 167.206 148.598 167.739 148.064C168.272 147.531 168.272 146.667 167.739 146.134L165.808 144.203Z" fill="#99A0AE"/>
<path d="M143.926 166.085C143.393 165.552 142.528 165.552 141.995 166.085C141.462 166.618 141.462 167.483 141.995 168.016L143.926 169.947C144.459 170.48 145.323 170.48 145.857 169.947C146.39 169.414 146.39 168.549 145.857 168.016L143.926 166.085Z" fill="#99A0AE"/>
<path d="M123.33 187.968C122.797 187.435 121.933 187.435 121.4 187.968C120.866 188.501 120.866 189.366 121.4 189.899L123.33 191.83C123.864 192.363 124.728 192.363 125.261 191.83C125.794 191.296 125.794 190.432 125.261 189.899L123.33 187.968Z" fill="#99A0AE"/>
<path d="M101.448 209.85C100.915 209.317 100.05 209.317 99.517 209.85C98.9838 210.384 98.9838 211.248 99.517 211.781L101.448 213.712C101.981 214.245 102.845 214.245 103.379 213.712C103.912 213.179 103.912 212.314 103.379 211.781L101.448 209.85Z" fill="#99A0AE"/>
<path d="M80.8525 230.446C80.3193 229.913 79.4548 229.913 78.9216 230.446C78.3885 230.979 78.3885 231.844 78.9216 232.377L80.8525 234.308C81.3856 234.841 82.2501 234.841 82.7833 234.308C83.3165 233.774 83.3165 232.91 82.7833 232.377L80.8525 230.446Z" fill="#99A0AE"/>
<path d="M60.2571 252.328C59.7239 251.795 58.8594 251.795 58.3262 252.328C57.7931 252.862 57.7931 253.726 58.3262 254.259L60.2571 256.19C60.7902 256.723 61.6547 256.723 62.1879 256.19C62.7211 255.657 62.7211 254.792 62.1879 254.259L60.2571 252.328Z" fill="#99A0AE"/>
<path d="M558.086 84.6692C558.086 83.9582 557.51 83.3819 556.799 83.3819C556.088 83.3819 555.512 83.9582 555.512 84.6692V87.2436C555.512 87.9545 556.088 88.5308 556.799 88.5308C557.51 88.5308 558.086 87.9545 558.086 87.2436V84.6692Z" fill="#99A0AE"/>
<path d="M527.193 84.6692C527.193 83.9582 526.617 83.3819 525.906 83.3819C525.195 83.3819 524.619 83.9582 524.619 84.6692V87.2436C524.619 87.9545 525.195 88.5308 525.906 88.5308C526.617 88.5308 527.193 87.9545 527.193 87.2436V84.6692Z" fill="#99A0AE"/>
<path d="M496.3 84.6692C496.3 83.9582 495.724 83.3819 495.013 83.3819C494.302 83.3819 493.726 83.9582 493.726 84.6692V87.2436C493.726 87.9545 494.302 88.5308 495.013 88.5308C495.724 88.5308 496.3 87.9545 496.3 87.2436V84.6692Z" fill="#99A0AE"/>
<path d="M465.407 84.6692C465.407 83.9582 464.831 83.3819 464.12 83.3819C463.409 83.3819 462.833 83.9582 462.833 84.6692V87.2436C462.833 87.9545 463.409 88.5308 464.12 88.5308C464.831 88.5308 465.407 87.9545 465.407 87.2436V84.6692Z" fill="#99A0AE"/>
<path d="M434.514 84.6692C434.514 83.9582 433.938 83.3819 433.227 83.3819C432.516 83.3819 431.939 83.9582 431.939 84.6692V87.2436C431.939 87.9545 432.516 88.5308 433.227 88.5308C433.938 88.5308 434.514 87.9545 434.514 87.2436V84.6692Z" fill="#99A0AE"/>
<path d="M406.195 84.6692C406.195 83.9582 405.619 83.3819 404.908 83.3819C404.197 83.3819 403.621 83.9582 403.621 84.6692V87.2436C403.621 87.9545 404.197 88.5308 404.908 88.5308C405.619 88.5308 406.195 87.9545 406.195 87.2436V84.6692Z" fill="#99A0AE"/>
<path d="M375.302 83.3819C375.302 82.671 374.726 82.0947 374.015 82.0947C373.304 82.0947 372.728 82.671 372.728 83.3819V85.9564C372.728 86.6673 373.304 87.2436 374.015 87.2436C374.726 87.2436 375.302 86.6673 375.302 85.9564V83.3819Z" fill="#99A0AE"/>
<path d="M345.696 83.3819C345.696 82.671 345.12 82.0947 344.409 82.0947C343.698 82.0947 343.122 82.671 343.122 83.3819V85.9564C343.122 86.6673 343.698 87.2436 344.409 87.2436C345.12 87.2436 345.696 86.6673 345.696 85.9564V83.3819Z" fill="#99A0AE"/>
<path d="M314.803 83.3819C314.803 82.671 314.227 82.0947 313.516 82.0947C312.805 82.0947 312.229 82.671 312.229 83.3819V85.9564C312.229 86.6673 312.805 87.2436 313.516 87.2436C314.227 87.2436 314.803 86.6673 314.803 85.9564V83.3819Z" fill="#99A0AE"/>
<path d="M283.91 83.3819C283.91 82.671 283.334 82.0947 282.623 82.0947C281.912 82.0947 281.336 82.671 281.336 83.3819V85.9564C281.336 86.6673 281.912 87.2436 282.623 87.2436C283.334 87.2436 283.91 86.6673 283.91 85.9564V83.3819Z" fill="#99A0AE"/>
<path d="M254.304 83.3819C254.304 82.671 253.728 82.0947 253.017 82.0947C252.306 82.0947 251.73 82.671 251.73 83.3819V85.9564C251.73 86.6673 252.306 87.2436 253.017 87.2436C253.728 87.2436 254.304 86.6673 254.304 85.9564V83.3819Z" fill="#99A0AE"/>
<path d="M210.817 102.968C211.374 103.525 211.374 104.429 210.817 104.987C210.295 105.508 209.461 105.546 208.894 105.074L207.647 104.035C206.969 103.47 206.923 102.445 207.547 101.821C208.133 101.234 209.083 101.234 209.669 101.821L210.817 102.968Z" fill="#99A0AE"/>
<g filter="url(#filter6_i_2876_27758)">
<rect x="169.348" y="149.673" width="25.7442" height="25.7442" rx="2.57442" fill="#717784"/>
<path d="M178.726 170.561L180.185 169.032H183.682L185.056 170.561H178.726ZM178.302 163.609L179.831 165.081V168.55L178.302 169.938V163.609ZM179.944 164.118C179.614 163.854 179.279 163.594 178.939 163.34L179.944 162.589H183.81L184.801 163.34L183.81 164.118H179.944ZM178.712 156.175H185.041L183.64 157.704H180.171L178.712 156.175ZM185.466 156.784V163.113L183.937 161.74V158.242L185.466 156.784Z" fill="white"/>
</g>
<g filter="url(#filter7_i_2876_27758)">
<rect x="240.145" y="90.4614" width="25.7442" height="25.7442" rx="2.57442" fill="#717784"/>
<path d="M249.565 111.349L250.995 109.82H254.507L255.88 111.349H249.565ZM256.319 110.726L254.804 109.268V105.785L256.319 104.397V110.726ZM250.755 104.907C250.434 104.643 250.103 104.383 249.764 104.128L250.755 103.378H254.62L255.611 104.128L254.62 104.907H250.755ZM249.523 96.9636H255.866L254.479 98.4928H250.981L249.523 96.9636ZM256.277 97.5724V103.902L254.762 102.528V99.0308L256.277 97.5724Z" fill="white"/>
</g>
<g filter="url(#filter8_i_2876_27758)">
<rect x="331.537" y="90.4614" width="25.7442" height="25.7442" rx="2.57442" fill="#717784"/>
<path d="M347.697 110.726L346.168 109.268V105.785L347.697 104.397V110.726ZM342.133 104.907C341.802 104.643 341.467 104.383 341.127 104.128L342.133 103.378H345.998L346.989 104.128L345.998 104.907H342.133ZM340.448 103.902V97.5724L341.977 98.9459V102.457L340.448 103.902ZM347.655 97.5724V103.902L346.126 102.528V99.0308L347.655 97.5724Z" fill="white"/>
</g>
<g filter="url(#filter9_i_2876_27758)">
<rect x="422.929" y="90.4614" width="25.7442" height="25.7442" rx="2.57442" fill="#2B303B"/>
<path d="M432.307 111.349L433.765 109.82H437.263L438.636 111.349H432.307ZM439.089 110.726L437.56 109.268V105.785L439.089 104.397V110.726ZM433.525 104.907C433.194 104.643 432.859 104.383 432.519 104.128L433.525 103.378H437.39L438.381 104.128L437.39 104.907H433.525ZM432.293 96.9636H438.622L437.22 98.4928H433.751L432.293 96.9636ZM431.84 103.902V97.5724L433.369 98.9459V102.457L431.84 103.902Z" fill="white"/>
</g>
<g filter="url(#filter10_i_2876_27758)">
<rect x="513.034" y="90.4614" width="25.7442" height="25.7442" rx="2.57442" fill="#2B303B"/>
<path d="M522.412 111.349L523.87 109.82H527.368L528.741 111.349H522.412ZM521.987 104.397L523.516 105.87V109.339L521.987 110.726V104.397ZM529.194 110.726L527.665 109.268V105.785L529.194 104.397V110.726ZM523.63 104.907C523.299 104.643 522.964 104.383 522.624 104.128L523.63 103.378H527.495L528.486 104.128L527.495 104.907H523.63ZM522.398 96.9636H528.727L527.325 98.4928H523.856L522.398 96.9636ZM521.945 103.902V97.5724L523.474 98.9459V102.457L521.945 103.902Z" fill="white"/>
</g>
<g filter="url(#filter11_i_2876_27758)">
<rect x="106.274" y="212.746" width="25.7442" height="25.7442" rx="2.57442" fill="#717784"/>
<path d="M120.068 233.139L118.539 231.681V228.197L120.068 226.81V233.139ZM120.025 219.985V226.314L118.496 224.941V221.443L120.025 219.985Z" fill="white"/>
</g>
<g filter="url(#filter12_i_2876_27758)">
<rect x="59.9351" y="260.373" width="25.7442" height="25.7442" rx="2.57442" fill="#717784"/>
<path d="M69.3133 281.261L70.7717 279.732H74.2691L75.6426 281.261H69.3133ZM68.8886 274.309L70.4178 275.781V279.25L68.8886 280.638V274.309ZM76.0956 280.638L74.5664 279.18V275.696L76.0956 274.309V280.638ZM69.2992 266.875H75.6284L74.2266 268.404H70.7576L69.2992 266.875ZM68.8461 273.813V267.484L70.3753 268.857V272.369L68.8461 273.813ZM76.0532 267.484V273.813L74.524 272.44V268.942L76.0532 267.484Z" fill="white"/>
</g>
<path d="M312.177 227.174L304.464 219.749V202.017L312.177 194.952V227.174ZM277.577 157.108H309.87L302.806 164.893H285.001L277.577 157.108ZM311.961 160.208V192.429L304.248 185.437V167.633L311.961 160.208ZM335.013 230.346L342.438 222.561H360.243L367.235 230.346H335.013ZM332.851 194.952L340.636 202.449V220.11L332.851 227.174V194.952ZM369.542 227.174L361.757 219.749V202.017L369.542 194.952V227.174ZM341.213 197.547C339.531 196.202 337.825 194.88 336.095 193.583L341.213 189.762H360.892L365.937 193.583L360.892 197.547H341.213ZM334.941 157.108H367.163L360.027 164.893H342.366L334.941 157.108ZM332.635 192.429V160.208L340.42 167.2V185.077L332.635 192.429ZM369.325 160.208V192.429L361.54 185.437V167.633L369.325 160.208ZM392.883 230.346L400.163 222.561H418.04L425.032 230.346H392.883ZM427.267 227.174L419.554 219.749V202.017L427.267 194.952V227.174ZM398.938 197.547C397.304 196.202 395.622 194.88 393.892 193.583L398.938 189.762H418.617L423.662 193.583L418.617 197.547H398.938ZM392.666 157.108H424.96L417.896 164.893H400.091L392.666 157.108ZM427.05 160.208V192.429L419.337 185.437V167.633L427.05 160.208Z" fill="#0E121B"/>
<path d="M327.631 255.495L325.963 253.904V250.104L327.631 248.591V255.495ZM322.039 241.871C321.679 241.583 321.319 241.31 320.958 241.053L322.039 240.219H331.524L332.605 241.053L331.524 241.871H327.585V248.05L325.916 246.552V242.736L326.828 241.871H322.039ZM336.911 250.568V253.981L335.243 255.495V248.591L336.911 250.568ZM340.356 250.166L342.735 252.669L342.565 254.893C341.092 253.348 340.34 252.56 340.31 252.529C340.289 252.499 340.258 252.468 340.217 252.437C340.176 252.406 340.145 252.375 340.124 252.344L337.792 249.904L340.356 250.166ZM335.243 248.591L336.911 250.197V253.981L335.243 255.495V248.591ZM337.019 249.147C336.659 248.848 336.299 248.565 335.938 248.297L337.019 247.478H341.252L342.333 248.297L341.252 249.147H337.019ZM335.691 240.481H342.58L341.082 242.149H337.267L335.691 240.481ZM335.197 248.05V241.145L336.865 242.644V246.474L335.197 248.05ZM343.075 241.145V248.05L341.406 246.552V242.736L343.075 241.145ZM337.792 249.904H340.109C340.449 250.264 340.933 250.779 341.561 251.448C342.199 252.107 342.591 252.514 342.735 252.669L342.565 254.893C341.092 253.348 340.34 252.56 340.31 252.529C340.289 252.499 340.258 252.468 340.217 252.437C340.176 252.406 340.145 252.375 340.124 252.344L337.792 249.904ZM346.81 247.278V240.342L348.478 241.871V245.687L346.81 247.278ZM356.217 240.342V247.278L354.548 245.748V241.949L356.217 240.342ZM346.763 247.803L348.431 249.394V253.209L346.763 254.723V247.803ZM356.17 254.723L354.502 253.116V249.317L356.17 247.803V254.723ZM349.266 244.914V241.779L353.652 249.162V252.313L349.266 244.914ZM366.501 244.605L361.187 255.109V251.186L366.501 240.728V244.605ZM372.29 248.591L373.959 250.197V253.981L372.29 255.495V248.591ZM380.153 255.495L378.484 253.904V250.104L380.153 248.591V255.495ZM374.082 249.147C373.722 248.858 373.356 248.575 372.985 248.297L374.082 247.478H378.299L379.38 248.297L378.299 249.147H374.082ZM372.244 248.05V241.145L373.912 242.644V246.474L372.244 248.05ZM380.106 241.145V248.05L378.438 246.552V242.736L380.106 241.145Z" fill="#0E121B"/>
<path d="M237.81 292.987L239.136 291.597H242.316L243.577 292.987H237.81ZM237.437 286.667L238.814 288.006V291.16L237.437 292.421V286.667ZM237.798 279.909H243.539L242.29 281.299H239.111L237.798 279.909ZM237.399 286.217V280.463L238.776 281.711V284.904L237.399 286.217ZM247.913 292.987L249.238 291.597H252.418L253.666 292.987H247.913ZM247.526 286.667L248.917 288.006V291.16L247.526 292.421V286.667ZM254.078 292.421L252.688 291.095V287.929L254.078 286.667V292.421ZM247.488 286.217V280.463L248.878 281.711V284.904L247.488 286.217ZM254.04 280.463V286.217L252.649 284.968V281.789L254.04 280.463ZM259.225 288.315V291.16L257.834 292.421V286.667L259.225 288.315ZM262.095 287.98L264.077 290.065L263.936 291.919C262.709 290.632 262.082 289.975 262.056 289.95C262.039 289.924 262.014 289.898 261.979 289.872C261.945 289.847 261.919 289.821 261.902 289.795L259.958 287.761L262.095 287.98ZM257.834 286.667L259.225 288.006V291.16L257.834 292.421V286.667ZM259.315 287.131C259.014 286.882 258.714 286.646 258.414 286.423L259.315 285.74H262.842L263.743 286.423L262.842 287.131H259.315ZM258.208 279.909H263.949L262.7 281.299H259.521L258.208 279.909ZM257.796 286.217V280.463L259.186 281.711V284.904L257.796 286.217ZM264.361 280.463V286.217L262.97 284.968V281.789L264.361 280.463ZM259.958 287.761H261.889C262.172 288.062 262.576 288.491 263.099 289.048C263.631 289.598 263.957 289.937 264.077 290.065L263.936 291.919C262.709 290.632 262.082 289.975 262.056 289.95C262.039 289.924 262.014 289.898 261.979 289.872C261.945 289.847 261.919 289.821 261.902 289.795L259.958 287.761ZM269.52 288.315V291.16L268.13 292.421V286.667L269.52 288.315ZM272.39 287.98L274.373 290.065L274.231 291.919C273.004 290.632 272.377 289.975 272.352 289.95C272.334 289.924 272.309 289.898 272.274 289.872C272.24 289.847 272.214 289.821 272.197 289.795L270.253 287.761L272.39 287.98ZM268.13 286.667L269.52 288.006V291.16L268.13 292.421V286.667ZM269.61 287.131C269.31 286.882 269.009 286.646 268.709 286.423L269.61 285.74H273.137L274.038 286.423L273.137 287.131H269.61ZM268.503 279.909H274.244L272.995 281.299H269.816L268.503 279.909ZM268.091 286.217V280.463L269.481 281.711V284.904L268.091 286.217ZM274.656 280.463V286.217L273.266 284.968V281.789L274.656 280.463ZM270.253 287.761H272.184C272.467 288.062 272.871 288.491 273.394 289.048C273.926 289.598 274.252 289.937 274.373 290.065L274.231 291.919C273.004 290.632 272.377 289.975 272.352 289.95C272.334 289.924 272.309 289.898 272.274 289.872C272.24 289.847 272.214 289.821 272.197 289.795L270.253 287.761ZM278.991 292.987L280.317 291.597H283.496L284.758 292.987H278.991ZM278.618 286.667L279.995 288.006V291.16L278.618 292.421V286.667ZM280.098 287.131C279.781 286.882 279.48 286.646 279.197 286.423L280.098 285.74H283.612L284.513 286.423L283.612 287.131H280.098ZM278.978 279.909H284.719L283.471 281.299H280.291L278.978 279.909ZM278.579 286.217V280.463L279.957 281.711V284.904L278.579 286.217ZM288.063 285.573V279.793L289.454 281.068V284.247L288.063 285.573ZM295.903 279.793V285.573L294.512 284.299V281.132L295.903 279.793ZM288.025 286.011L289.415 287.337V290.516L288.025 291.777V286.011ZM295.864 291.777L294.474 290.439V287.272L295.864 286.011V291.777ZM290.11 283.604V280.991L293.766 287.143V289.769L290.11 283.604ZM299.582 292.987L300.907 291.597H304.087L305.348 292.987H299.582ZM299.208 286.667L300.586 288.006V291.16L299.208 292.421V286.667ZM299.569 279.909H305.31L304.061 281.299H300.882L299.569 279.909ZM299.17 286.217V280.463L300.547 281.711V284.904L299.17 286.217ZM315.412 282.587L309.696 291.983V289.602L312.245 285.419L312.837 286.049V284.453L315.412 280.231V282.587ZM312.245 285.419L312.837 284.453V283.681L309.696 280.231V282.703L312.245 285.419ZM329.888 286.667L331.278 288.006V291.16L329.888 292.421V286.667ZM336.44 292.421L335.05 291.095V287.929L336.44 286.667V292.421ZM331.381 287.131C331.081 286.89 330.776 286.654 330.467 286.423L331.381 285.74H334.895L335.796 286.423L334.895 287.131H331.381ZM330.261 279.909H336.015L334.741 281.299H331.587L330.261 279.909ZM329.849 286.217V280.463L331.239 281.711V284.904L329.849 286.217ZM336.401 280.463V286.217L335.011 284.968V281.789L336.401 280.463ZM348.486 283.346L344.057 292.099V288.83L348.486 280.115V283.346ZM338.394 283.346V280.115L342.822 288.83V292.099L338.394 283.346ZM350.478 286.667L351.868 288.006V291.16L350.478 292.421V286.667ZM357.03 292.421L355.64 291.095V287.929L357.03 286.667V292.421ZM351.971 287.131C351.671 286.89 351.366 286.654 351.057 286.423L351.971 285.74H355.485L356.386 286.423L355.485 287.131H351.971ZM350.851 279.909H356.605L355.331 281.299H352.177L350.851 279.909ZM350.44 286.217V280.463L351.83 281.711V284.904L350.44 286.217ZM356.991 280.463V286.217L355.601 284.968V281.789L356.991 280.463ZM364.738 292.421L363.348 291.095V287.929L364.738 286.667V292.421ZM364.712 280.463V286.217L363.322 284.968V281.789L364.712 280.463ZM371.648 292.987L372.974 291.597H376.153L377.414 292.987H371.648ZM371.274 286.667L372.652 288.006V291.16L371.274 292.421V286.667ZM371.236 286.217V280.463L372.613 281.711V284.904L371.236 286.217ZM381.364 286.667L382.754 288.006V291.16L381.364 292.421V286.667ZM387.916 292.421L386.525 291.095V287.929L387.916 286.667V292.421ZM382.857 287.131C382.557 286.89 382.252 286.654 381.943 286.423L382.857 285.74H386.371L387.272 286.423L386.371 287.131H382.857ZM381.737 279.909H387.491L386.216 281.299H383.063L381.737 279.909ZM381.325 286.217V280.463L382.715 281.711V284.904L381.325 286.217ZM387.877 280.463V286.217L386.487 284.968V281.789L387.877 280.463ZM392.045 292.987L393.371 291.597H396.55L397.799 292.987H392.045ZM391.659 286.667L393.049 288.006V291.16L391.659 292.421V286.667ZM398.211 292.421L396.821 291.095V287.929L398.211 286.667V292.421ZM393.152 287.131C392.852 286.89 392.547 286.654 392.238 286.423L393.152 285.74H396.666L397.567 286.423L396.666 287.131H393.152ZM392.032 279.909H397.786L396.512 281.299H393.358L392.032 279.909ZM391.62 286.217V280.463L393.01 281.711V284.904L391.62 286.217ZM398.172 280.463V286.217L396.782 284.968V281.789L398.172 280.463ZM402.533 292.987L403.859 291.597H407.039L408.3 292.987H402.533ZM402.16 286.667L403.537 288.006V291.16L402.16 292.421V286.667ZM402.121 286.217V280.463L403.499 281.711V284.904L402.121 286.217ZM412.829 292.987L414.154 291.597H417.334L418.595 292.987H412.829ZM412.455 286.667L413.833 288.006V291.16L412.455 292.421V286.667ZM413.936 287.131C413.618 286.882 413.318 286.646 413.034 286.423L413.936 285.74H417.45L418.351 286.423L417.45 287.131H413.936ZM412.816 279.909H418.557L417.308 281.299H414.129L412.816 279.909ZM412.417 286.217V280.463L413.794 281.711V284.904L412.417 286.217Z" fill="#525866"/>
<rect x="428.075" y="276.591" width="73.3711" height="19.3082" rx="1.93082" stroke="#FFAD56" stroke-width="1.28721"/>
<rect x="430.006" y="278.522" width="15.4465" height="15.4465" rx="1.28721" fill="#FFAD56"/>
<path d="M437.447 290.181V280.82H438.047V290.181H437.447ZM439.323 283.723C439.284 283.377 439.123 283.109 438.84 282.919C438.557 282.726 438.201 282.63 437.772 282.63C437.465 282.63 437.2 282.679 436.975 282.776C436.751 282.871 436.577 283.003 436.452 283.171C436.33 283.337 436.269 283.526 436.269 283.738C436.269 283.916 436.311 284.069 436.394 284.199C436.479 284.328 436.59 284.436 436.727 284.524C436.866 284.609 437.014 284.681 437.173 284.74C437.331 284.796 437.484 284.842 437.63 284.879L438.361 285.069C438.6 285.128 438.845 285.207 439.096 285.307C439.347 285.407 439.58 285.538 439.795 285.702C440.009 285.865 440.182 286.067 440.314 286.309C440.448 286.55 440.515 286.839 440.515 287.175C440.515 287.6 440.405 287.976 440.186 288.305C439.969 288.634 439.653 288.894 439.239 289.084C438.827 289.274 438.328 289.369 437.743 289.369C437.182 289.369 436.697 289.28 436.288 289.102C435.878 288.925 435.558 288.672 435.326 288.346C435.094 288.016 434.966 287.626 434.942 287.175H436.076C436.098 287.446 436.185 287.671 436.339 287.852C436.495 288.03 436.694 288.163 436.935 288.25C437.179 288.336 437.446 288.378 437.736 288.378C438.055 288.378 438.339 288.328 438.588 288.229C438.839 288.126 439.036 287.985 439.18 287.804C439.324 287.621 439.396 287.408 439.396 287.164C439.396 286.943 439.333 286.761 439.206 286.619C439.082 286.478 438.912 286.361 438.698 286.268C438.486 286.176 438.245 286.094 437.977 286.023L437.092 285.782C436.493 285.619 436.017 285.379 435.666 285.062C435.317 284.745 435.143 284.325 435.143 283.804C435.143 283.372 435.26 282.996 435.494 282.674C435.728 282.352 436.045 282.102 436.445 281.924C436.845 281.744 437.296 281.653 437.798 281.653C438.305 281.653 438.752 281.742 439.14 281.92C439.53 282.098 439.837 282.343 440.062 282.655C440.286 282.965 440.403 283.321 440.413 283.723H439.323Z" fill="#FFE4C9"/>
<rect x="448.027" y="278.522" width="15.4465" height="15.4465" rx="1.28721" fill="#FFAD56"/>
<path d="M457.721 284.382L457.374 285.135H452.565L452.839 284.382H457.721ZM457.066 285.866L456.712 286.627H452.565L452.839 285.866H457.066ZM458.613 282.396L458.182 283.321C458.045 283.204 457.897 283.098 457.736 283.003C457.575 282.908 457.402 282.832 457.216 282.776C457.031 282.718 456.832 282.688 456.62 282.688C456.23 282.688 455.883 282.793 455.578 283.003C455.273 283.213 455.033 283.527 454.858 283.946C454.685 284.363 454.598 284.882 454.598 285.504C454.598 286.126 454.685 286.645 454.858 287.062C455.033 287.479 455.273 287.792 455.578 288.002C455.883 288.209 456.23 288.313 456.62 288.313C456.835 288.313 457.035 288.285 457.22 288.229C457.408 288.172 457.578 288.099 457.732 288.009C457.888 287.916 458.028 287.819 458.153 287.717L458.595 288.638C458.337 288.872 458.037 289.049 457.695 289.168C457.354 289.288 456.996 289.348 456.62 289.348C456.008 289.348 455.466 289.193 454.993 288.883C454.523 288.573 454.153 288.132 453.885 287.559C453.617 286.984 453.483 286.299 453.483 285.504C453.483 284.707 453.617 284.021 453.885 283.445C454.153 282.87 454.523 282.428 454.993 282.118C455.466 281.808 456.008 281.653 456.62 281.653C457.01 281.653 457.374 281.718 457.71 281.847C458.047 281.974 458.348 282.157 458.613 282.396Z" fill="#FFE4C9"/>
<rect x="466.048" y="278.522" width="15.4465" height="15.4465" rx="1.28721" fill="#FFAD56"/>
<path d="M476.263 289.245H471.144V288.272H476.263V289.245ZM474.727 286.312H471.118V285.34H474.727V286.312ZM472.954 283.972L473.071 287.128C473.085 287.442 473.045 287.724 472.95 287.973C472.855 288.219 472.683 288.415 472.434 288.561L471.498 288.272C471.63 288.265 471.731 288.198 471.802 288.071C471.872 287.944 471.92 287.796 471.944 287.625C471.969 287.452 471.979 287.296 471.974 287.157L471.868 283.972C471.848 283.46 471.943 283.032 472.153 282.688C472.365 282.345 472.647 282.086 472.998 281.913C473.349 281.74 473.727 281.653 474.131 281.653C474.492 281.653 474.816 281.713 475.104 281.833C475.394 281.952 475.638 282.115 475.835 282.323C476.035 282.527 476.178 282.762 476.263 283.025C476.348 283.288 476.366 283.565 476.314 283.855L475.258 283.687C475.282 283.448 475.244 283.249 475.144 283.091C475.044 282.932 474.906 282.813 474.731 282.732C474.555 282.652 474.369 282.612 474.171 282.612C473.964 282.612 473.767 282.66 473.579 282.758C473.394 282.855 473.243 283.004 473.126 283.204C473.011 283.404 472.954 283.66 472.954 283.972Z" fill="#FFE4C9"/>
<rect x="484.069" y="278.522" width="15.4465" height="15.4465" rx="1.28721" fill="#FFAD56"/>
<path d="M495.522 284.491V285.223H488.062V284.491H495.522ZM495.522 286.071V286.802H488.062V286.071H495.522ZM494.816 281.756V289.245H493.774L489.967 283.753H489.901V289.245H488.768V281.756H489.817L493.624 287.256H493.694V281.756H494.816Z" fill="#FFE4C9"/>
<path d="M453.792 146.67L452.957 145.874V143.975L453.792 143.218V146.67ZM450.996 139.858C450.815 139.714 450.635 139.577 450.455 139.449L450.996 139.032H455.738L456.278 139.449L455.738 139.858H453.768V142.947L452.934 142.198V140.291L453.39 139.858H450.996ZM458.432 144.206V145.913L457.598 146.67V143.218L458.432 144.206ZM460.154 144.005L461.343 145.257L461.258 146.369C460.522 145.596 460.146 145.203 460.131 145.187C460.121 145.172 460.105 145.156 460.084 145.141C460.064 145.125 460.048 145.11 460.038 145.094L458.872 143.874L460.154 144.005ZM457.598 143.218L458.432 144.021V145.913L457.598 146.67V143.218ZM458.486 143.496C458.306 143.346 458.125 143.205 457.945 143.071L458.486 142.662H460.602L461.143 143.071L460.602 143.496H458.486ZM457.822 139.163H461.266L460.517 139.997H458.609L457.822 139.163ZM457.574 142.947V139.495L458.409 140.244V142.16L457.574 142.947ZM461.513 139.495V142.947L460.679 142.198V140.291L461.513 139.495ZM458.872 143.874H460.03C460.2 144.054 460.442 144.312 460.756 144.646C461.076 144.976 461.271 145.179 461.343 145.257L461.258 146.369C460.522 145.596 460.146 145.203 460.131 145.187C460.121 145.172 460.105 145.156 460.084 145.141C460.064 145.125 460.048 145.11 460.038 145.094L458.872 143.874ZM463.767 143.218L464.601 144.021V145.913L463.767 146.67V143.218ZM467.698 146.67L466.864 145.874V143.975L467.698 143.218V146.67ZM464.663 143.496C464.483 143.352 464.3 143.21 464.115 143.071L464.663 142.662H466.771L467.312 143.071L466.771 143.496H464.663ZM463.991 139.163H467.443L466.679 139.997H464.786L463.991 139.163ZM463.744 142.947V139.495L464.578 140.244V142.16L463.744 142.947ZM467.675 139.495V142.947L466.841 142.198V140.291L467.675 139.495ZM469.558 142.561V139.093L470.392 139.858V141.766L469.558 142.561ZM474.261 139.093V142.561L473.427 141.797V139.897L474.261 139.093ZM469.535 142.824L470.369 143.619V145.527L469.535 146.284V142.824ZM474.238 146.284L473.404 145.481V143.581L474.238 142.824V146.284ZM470.786 141.38V139.812L472.979 143.503V145.079L470.786 141.38ZM476.353 147.01L477.148 146.176H479.056L479.805 147.01H476.353ZM480.052 146.67L479.218 145.874V143.975L480.052 143.218V146.67ZM477.017 143.496C476.837 143.352 476.654 143.21 476.469 143.071L477.017 142.662H479.126L479.666 143.071L479.126 143.496H477.017ZM476.345 139.163H479.797L479.033 139.997H477.141L476.345 139.163ZM476.098 142.947V139.495L476.932 140.244V142.16L476.098 142.947ZM482.298 143.218L483.132 144.021V145.913L482.298 146.67V143.218ZM486.229 146.67L485.395 145.874V143.975L486.229 143.218V146.67ZM483.194 143.496C483.014 143.352 482.831 143.21 482.646 143.071L483.194 142.662H485.303L485.843 143.071L485.303 143.496H483.194ZM482.522 139.163H485.975L485.21 139.997H483.318L482.522 139.163ZM482.275 142.947V139.495L483.109 140.244V142.16L482.275 142.947ZM486.206 139.495V142.947L485.372 142.198V140.291L486.206 139.495ZM488.823 147.01L489.618 146.176H491.526L492.283 147.01H488.823ZM488.599 143.218L489.425 144.021V145.913L488.599 146.67V143.218ZM488.815 139.163H492.26L491.511 139.997H489.603L488.815 139.163ZM488.576 142.947V139.495L489.402 140.244V142.16L488.576 142.947ZM497.031 146.67L496.197 145.874V143.975L497.031 143.218V146.67ZM494.235 139.858C494.055 139.714 493.875 139.577 493.695 139.449L494.235 139.032H498.978L499.518 139.449L498.978 139.858H497.008V142.947L496.174 142.198V140.291L496.63 139.858H494.235ZM503.208 146.67L502.374 145.874V143.975L503.208 143.218V146.67ZM503.193 139.495V142.947L502.359 142.198V140.291L503.193 139.495ZM507.238 147.01L508.034 146.176H509.942L510.691 147.01H507.238ZM507.007 143.218L507.841 144.021V145.913L507.007 146.67V143.218ZM510.938 146.67L510.104 145.874V143.975L510.938 143.218V146.67ZM507.231 139.163H510.683L509.918 139.997H508.026L507.231 139.163ZM506.984 142.947V139.495L507.818 140.244V142.16L506.984 142.947ZM510.915 139.495V142.947L510.081 142.198V140.291L510.915 139.495ZM512.798 142.561V139.093L513.632 139.858V141.766L512.798 142.561ZM517.501 139.093V142.561L516.667 141.797V139.897L517.501 139.093ZM512.775 142.824L513.609 143.619V145.527L512.775 146.284V142.824ZM517.478 146.284L516.644 145.481V143.581L517.478 142.824V146.284ZM514.026 141.38V139.812L516.219 143.503V145.079L514.026 141.38ZM525.77 147.01L526.565 146.176H528.473L529.222 147.01H525.77ZM529.469 146.67L528.635 145.874V143.975L529.469 143.218V146.67ZM526.434 143.496C526.254 143.352 526.071 143.21 525.886 143.071L526.434 142.662H528.542L529.083 143.071L528.542 143.496H526.434ZM525.762 139.163H529.214L528.45 139.997H526.558L525.762 139.163ZM525.515 142.947V139.495L526.349 140.244V142.16L525.515 142.947ZM532.063 147.01L532.858 146.176H534.766L535.523 147.01H532.063ZM531.839 143.218L532.665 144.021V145.913L531.839 146.67V143.218ZM532.727 143.496C532.536 143.346 532.356 143.205 532.186 143.071L532.727 142.662H534.835L535.376 143.071L534.835 143.496H532.727ZM532.055 139.163H535.5L534.75 139.997H532.843L532.055 139.163ZM531.816 142.947V139.495L532.642 140.244V142.16L531.816 142.947ZM538.24 147.01L539.035 146.176H540.943L541.7 147.01H538.24ZM538.016 143.218L538.842 144.021V145.913L538.016 146.67V143.218ZM538.232 139.163H541.677L540.928 139.997H539.02L538.232 139.163ZM537.993 142.947V139.495L538.819 140.244V142.16L537.993 142.947ZM544.301 147.01L545.097 146.176H547.004L547.753 147.01H544.301ZM544.069 143.218L544.903 144.021V145.913L544.069 146.67V143.218ZM548.001 146.67L547.166 145.874V143.975L548.001 143.218V146.67ZM544.046 142.947V139.495L544.88 140.244V142.16L544.046 142.947ZM547.977 139.495V142.947L547.143 142.198V140.291L547.977 139.495ZM551.088 144.206V145.913L550.254 146.67V143.218L551.088 144.206ZM552.811 144.005L554 145.257L553.915 146.369C553.179 145.596 552.803 145.203 552.787 145.187C552.777 145.172 552.762 145.156 552.741 145.141C552.721 145.125 552.705 145.11 552.695 145.094L551.529 143.874L552.811 144.005ZM550.254 143.218L551.088 144.021V145.913L550.254 146.67V143.218ZM551.142 143.496C550.962 143.346 550.782 143.205 550.602 143.071L551.142 142.662H553.259L553.799 143.071L553.259 143.496H551.142ZM550.478 139.163H553.923L553.174 139.997H551.266L550.478 139.163ZM550.231 142.947V139.495L551.065 140.244V142.16L550.231 142.947ZM554.17 139.495V142.947L553.336 142.198V140.291L554.17 139.495ZM551.529 143.874H552.687C552.857 144.054 553.099 144.312 553.413 144.646C553.732 144.976 553.928 145.179 554 145.257L553.915 146.369C553.179 145.596 552.803 145.203 552.787 145.187C552.777 145.172 552.762 145.156 552.741 145.141C552.721 145.125 552.705 145.11 552.695 145.094L551.529 143.874ZM556.771 147.01L557.567 146.176H559.474L560.231 147.01H556.771ZM556.547 143.218L557.374 144.021V145.913L556.547 146.67V143.218ZM557.435 143.496C557.245 143.346 557.065 143.205 556.895 143.071L557.435 142.662H559.544L560.084 143.071L559.544 143.496H557.435ZM556.763 139.163H560.208L559.459 139.997H557.551L556.763 139.163ZM556.524 142.947V139.495L557.35 140.244V142.16L556.524 142.947ZM562.832 147.01L563.628 146.176H565.536L566.285 147.01H562.832ZM562.601 143.218L563.435 144.021V145.913L562.601 146.67V143.218ZM566.532 146.67L565.698 145.874V143.975L566.532 143.218V146.67ZM562.825 139.163H566.277L565.512 139.997H563.62L562.825 139.163ZM562.578 142.947V139.495L563.412 140.244V142.16L562.578 142.947ZM566.509 139.495V142.947L565.675 142.198V140.291L566.509 139.495Z" fill="#525866"/>
<defs>
<filter id="filter0_i_2876_27758" x="30.1279" y="22.2393" width="386.365" height="229.104" filterUnits="userSpaceOnUse" color-interpolation-filters="sRGB">
<feFlood flood-opacity="0" result="BackgroundImageFix"/>
<feBlend mode="normal" in="SourceGraphic" in2="BackgroundImageFix" result="shape"/>
<feColorMatrix in="SourceAlpha" type="matrix" values="0 0 0 0 0 0 0 0 0 0 0 0 0 0 0 0 0 0 127 0" result="hardAlpha"/>
<feOffset dx="0.643606" dy="0.643606"/>
<feComposite in2="hardAlpha" operator="arithmetic" k2="-1" k3="1"/>
<feColorMatrix type="matrix" values="0 0 0 0 0.601706 0 0 0 0 0.62802 0 0 0 0 0.680647 0 0 0 1 0"/>
<feBlend mode="normal" in2="shape" result="effect1_innerShadow_2876_27758"/>
</filter>
<filter id="filter1_i_2876_27758" x="546.501" y="23.5264" width="21.8828" height="50.8447" filterUnits="userSpaceOnUse" color-interpolation-filters="sRGB">
<feFlood flood-opacity="0" result="BackgroundImageFix"/>
<feBlend mode="normal" in="SourceGraphic" in2="BackgroundImageFix" result="shape"/>
<feColorMatrix in="SourceAlpha" type="matrix" values="0 0 0 0 0 0 0 0 0 0 0 0 0 0 0 0 0 0 127 0" result="hardAlpha"/>
<feOffset dx="-0.643606" dy="0.643606"/>
<feComposite in2="hardAlpha" operator="arithmetic" k2="-1" k3="1"/>
<feColorMatrix type="matrix" values="0 0 0 0 1 0 0 0 0 0.505882 0 0 0 0 0.1 0 0 0 1 0"/>
<feBlend mode="normal" in2="shape" result="effect1_innerShadow_2876_27758"/>
</filter>
<filter id="filter2_i_2876_27758" x="422.929" y="23.5264" width="21.8828" height="50.8447" filterUnits="userSpaceOnUse" color-interpolation-filters="sRGB">
<feFlood flood-opacity="0" result="BackgroundImageFix"/>
<feBlend mode="normal" in="SourceGraphic" in2="BackgroundImageFix" result="shape"/>
<feColorMatrix in="SourceAlpha" type="matrix" values="0 0 0 0 0 0 0 0 0 0 0 0 0 0 0 0 0 0 127 0" result="hardAlpha"/>
<feOffset dx="-0.643606" dy="0.643606"/>
<feComposite in2="hardAlpha" operator="arithmetic" k2="-1" k3="1"/>
<feColorMatrix type="matrix" values="0 0 0 0 1 0 0 0 0 0.93 0 0 0 0 0.86 0 0 0 1 0"/>
<feBlend mode="normal" in2="shape" result="effect1_innerShadow_2876_27758"/>
</filter>
<filter id="filter3_i_2876_27758" x="453.822" y="23.5264" width="21.8828" height="50.8447" filterUnits="userSpaceOnUse" color-interpolation-filters="sRGB">
<feFlood flood-opacity="0" result="BackgroundImageFix"/>
<feBlend mode="normal" in="SourceGraphic" in2="BackgroundImageFix" result="shape"/>
<feColorMatrix in="SourceAlpha" type="matrix" values="0 0 0 0 0 0 0 0 0 0 0 0 0 0 0 0 0 0 127 0" result="hardAlpha"/>
<feOffset dx="-0.643606" dy="0.643606"/>
<feComposite in2="hardAlpha" operator="arithmetic" k2="-1" k3="1"/>
<feColorMatrix type="matrix" values="0 0 0 0 1 0 0 0 0 0.83 0 0 0 0 0.66 0 0 0 1 0"/>
<feBlend mode="normal" in2="shape" result="effect1_innerShadow_2876_27758"/>
</filter>
<filter id="filter4_i_2876_27758" x="484.715" y="23.5264" width="21.8828" height="50.8447" filterUnits="userSpaceOnUse" color-interpolation-filters="sRGB">
<feFlood flood-opacity="0" result="BackgroundImageFix"/>
<feBlend mode="normal" in="SourceGraphic" in2="BackgroundImageFix" result="shape"/>
<feColorMatrix in="SourceAlpha" type="matrix" values="0 0 0 0 0 0 0 0 0 0 0 0 0 0 0 0 0 0 127 0" result="hardAlpha"/>
<feOffset dx="-0.643606" dy="0.643606"/>
<feComposite in2="hardAlpha" operator="arithmetic" k2="-1" k3="1"/>
<feColorMatrix type="matrix" values="0 0 0 0 1 0 0 0 0 0.728284 0 0 0 0 0.44 0 0 0 1 0"/>
<feBlend mode="normal" in2="shape" result="effect1_innerShadow_2876_27758"/>
</filter>
<filter id="filter5_i_2876_27758" x="515.608" y="23.5264" width="21.8828" height="50.8447" filterUnits="userSpaceOnUse" color-interpolation-filters="sRGB">
<feFlood flood-opacity="0" result="BackgroundImageFix"/>
<feBlend mode="normal" in="SourceGraphic" in2="BackgroundImageFix" result="shape"/>
<feColorMatrix in="SourceAlpha" type="matrix" values="0 0 0 0 0 0 0 0 0 0 0 0 0 0 0 0 0 0 127 0" result="hardAlpha"/>
<feOffset dx="-0.643606" dy="0.643606"/>
<feComposite in2="hardAlpha" operator="arithmetic" k2="-1" k3="1"/>
<feColorMatrix type="matrix" values="0 0 0 0 1 0 0 0 0 0.611765 0 0 0 0 0.1 0 0 0 1 0"/>
<feBlend mode="normal" in2="shape" result="effect1_innerShadow_2876_27758"/>
</filter>
<filter id="filter6_i_2876_27758" x="169.348" y="149.673" width="25.7441" height="25.7441" filterUnits="userSpaceOnUse" color-interpolation-filters="sRGB">
<feFlood flood-opacity="0" result="BackgroundImageFix"/>
<feBlend mode="normal" in="SourceGraphic" in2="BackgroundImageFix" result="shape"/>
<feColorMatrix in="SourceAlpha" type="matrix" values="0 0 0 0 0 0 0 0 0 0 0 0 0 0 0 0 0 0 127 0" result="hardAlpha"/>
<feOffset dx="-0.643606" dy="0.643606"/>
<feComposite in2="hardAlpha" operator="arithmetic" k2="-1" k3="1"/>
<feColorMatrix type="matrix" values="0 0 0 0 0.4 0 0 0 0 0.384314 0 0 0 0 0.372549 0 0 0 1 0"/>
<feBlend mode="normal" in2="shape" result="effect1_innerShadow_2876_27758"/>
</filter>
<filter id="filter7_i_2876_27758" x="240.145" y="90.4614" width="25.7441" height="25.7441" filterUnits="userSpaceOnUse" color-interpolation-filters="sRGB">
<feFlood flood-opacity="0" result="BackgroundImageFix"/>
<feBlend mode="normal" in="SourceGraphic" in2="BackgroundImageFix" result="shape"/>
<feColorMatrix in="SourceAlpha" type="matrix" values="0 0 0 0 0 0 0 0 0 0 0 0 0 0 0 0 0 0 127 0" result="hardAlpha"/>
<feOffset dx="-0.643606" dy="0.643606"/>
<feComposite in2="hardAlpha" operator="arithmetic" k2="-1" k3="1"/>
<feColorMatrix type="matrix" values="0 0 0 0 0.4 0 0 0 0 0.384314 0 0 0 0 0.372549 0 0 0 1 0"/>
<feBlend mode="normal" in2="shape" result="effect1_innerShadow_2876_27758"/>
</filter>
<filter id="filter8_i_2876_27758" x="331.537" y="90.4614" width="25.7441" height="25.7441" filterUnits="userSpaceOnUse" color-interpolation-filters="sRGB">
<feFlood flood-opacity="0" result="BackgroundImageFix"/>
<feBlend mode="normal" in="SourceGraphic" in2="BackgroundImageFix" result="shape"/>
<feColorMatrix in="SourceAlpha" type="matrix" values="0 0 0 0 0 0 0 0 0 0 0 0 0 0 0 0 0 0 127 0" result="hardAlpha"/>
<feOffset dx="-0.643606" dy="0.643606"/>
<feComposite in2="hardAlpha" operator="arithmetic" k2="-1" k3="1"/>
<feColorMatrix type="matrix" values="0 0 0 0 0.4 0 0 0 0 0.384314 0 0 0 0 0.372549 0 0 0 1 0"/>
<feBlend mode="normal" in2="shape" result="effect1_innerShadow_2876_27758"/>
</filter>
<filter id="filter9_i_2876_27758" x="422.929" y="90.4614" width="25.7441" height="25.7441" filterUnits="userSpaceOnUse" color-interpolation-filters="sRGB">
<feFlood flood-opacity="0" result="BackgroundImageFix"/>
<feBlend mode="normal" in="SourceGraphic" in2="BackgroundImageFix" result="shape"/>
<feColorMatrix in="SourceAlpha" type="matrix" values="0 0 0 0 0 0 0 0 0 0 0 0 0 0 0 0 0 0 127 0" result="hardAlpha"/>
<feOffset dx="-0.643606" dy="0.643606"/>
<feComposite in2="hardAlpha" operator="arithmetic" k2="-1" k3="1"/>
<feColorMatrix type="matrix" values="0 0 0 0 0.279594 0 0 0 0 0.268629 0 0 0 0 0.260406 0 0 0 1 0"/>
<feBlend mode="normal" in2="shape" result="effect1_innerShadow_2876_27758"/>
</filter>
<filter id="filter10_i_2876_27758" x="513.034" y="90.4614" width="25.7441" height="25.7441" filterUnits="userSpaceOnUse" color-interpolation-filters="sRGB">
<feFlood flood-opacity="0" result="BackgroundImageFix"/>
<feBlend mode="normal" in="SourceGraphic" in2="BackgroundImageFix" result="shape"/>
<feColorMatrix in="SourceAlpha" type="matrix" values="0 0 0 0 0 0 0 0 0 0 0 0 0 0 0 0 0 0 127 0" result="hardAlpha"/>
<feOffset dx="-0.643606" dy="0.643606"/>
<feComposite in2="hardAlpha" operator="arithmetic" k2="-1" k3="1"/>
<feColorMatrix type="matrix" values="0 0 0 0 0.279594 0 0 0 0 0.268629 0 0 0 0 0.260406 0 0 0 1 0"/>
<feBlend mode="normal" in2="shape" result="effect1_innerShadow_2876_27758"/>
</filter>
<filter id="filter11_i_2876_27758" x="106.274" y="212.746" width="25.7441" height="25.7441" filterUnits="userSpaceOnUse" color-interpolation-filters="sRGB">
<feFlood flood-opacity="0" result="BackgroundImageFix"/>
<feBlend mode="normal" in="SourceGraphic" in2="BackgroundImageFix" result="shape"/>
<feColorMatrix in="SourceAlpha" type="matrix" values="0 0 0 0 0 0 0 0 0 0 0 0 0 0 0 0 0 0 127 0" result="hardAlpha"/>
<feOffset dx="-0.643606" dy="0.643606"/>
<feComposite in2="hardAlpha" operator="arithmetic" k2="-1" k3="1"/>
<feColorMatrix type="matrix" values="0 0 0 0 0.4 0 0 0 0 0.384314 0 0 0 0 0.372549 0 0 0 1 0"/>
<feBlend mode="normal" in2="shape" result="effect1_innerShadow_2876_27758"/>
</filter>
<filter id="filter12_i_2876_27758" x="59.9351" y="260.373" width="25.7441" height="25.7441" filterUnits="userSpaceOnUse" color-interpolation-filters="sRGB">
<feFlood flood-opacity="0" result="BackgroundImageFix"/>
<feBlend mode="normal" in="SourceGraphic" in2="BackgroundImageFix" result="shape"/>
<feColorMatrix in="SourceAlpha" type="matrix" values="0 0 0 0 0 0 0 0 0 0 0 0 0 0 0 0 0 0 127 0" result="hardAlpha"/>
<feOffset dx="-0.643606" dy="0.643606"/>
<feComposite in2="hardAlpha" operator="arithmetic" k2="-1" k3="1"/>
<feColorMatrix type="matrix" values="0 0 0 0 0.4 0 0 0 0 0.384314 0 0 0 0 0.372549 0 0 0 1 0"/>
<feBlend mode="normal" in2="shape" result="effect1_innerShadow_2876_27758"/>
</filter>
</defs>
</svg>
