<svg width="228" height="116" viewBox="0 0 228 116" fill="none" xmlns="http://www.w3.org/2000/svg">
<g filter="url(#filter0_dd_7253_17880)">
<rect x="8" y="8" width="211.341" height="99.2935" rx="10" fill="white"/>
<rect x="12.1424" y="12.1424" width="203.056" height="44.2226" rx="5.85759" fill="#F5F7FA"/>
<rect x="12.1424" y="12.1424" width="203.056" height="44.2226" rx="5.85759" stroke="#E1E4EA" stroke-width="0.284826"/>
<g clip-path="url(#clip0_7253_17880)">
<g clip-path="url(#clip1_7253_17880)">
<path d="M27.9502 34.7843C31.7251 34.7843 34.7852 31.7241 34.7852 27.9493C34.7852 24.1744 31.7251 21.1143 27.9502 21.1143C24.1754 21.1143 21.1152 24.1744 21.1152 27.9493C21.1152 31.7241 24.1754 34.7843 27.9502 34.7843Z" fill="#F0F0F0"/>
<path d="M27.6543 27.95H34.7865C34.7865 27.3331 34.7042 26.7355 34.551 26.167H27.6543V27.95Z" fill="#D80027"/>
<path d="M27.6543 24.3836H33.7833C33.3649 23.7009 32.8299 23.0974 32.2061 22.6006H27.6543V24.3836Z" fill="#D80027"/>
<path d="M27.9519 34.7847C29.5605 34.7847 31.0391 34.2287 32.2066 33.2988H23.6973C24.8648 34.2287 26.3433 34.7847 27.9519 34.7847Z" fill="#D80027"/>
<path d="M22.1193 31.5155H33.7829C34.1188 30.9674 34.3793 30.3682 34.5506 29.7324H21.3516C21.5229 30.3682 21.7834 30.9674 22.1193 31.5155Z" fill="#D80027"/>
<path d="M24.2813 22.1816H24.9042L24.3248 22.6026L24.5461 23.2836L23.9668 22.8627L23.3874 23.2836L23.5786 22.6953C23.0685 23.1202 22.6214 23.618 22.2529 24.1727H22.4525L22.0837 24.4406C22.0263 24.5365 21.9712 24.6339 21.9183 24.7327L22.0945 25.2747L21.7659 25.036C21.6842 25.209 21.6095 25.3859 21.5424 25.5666L21.7364 26.1638H22.4525L21.8731 26.5847L22.0945 27.2658L21.5151 26.8448L21.1681 27.097C21.1333 27.3762 21.1152 27.6606 21.1152 27.9493H27.9502C27.9502 24.1744 27.9502 23.7294 27.9502 21.1143C26.6 21.1143 25.3413 21.5059 24.2813 22.1816ZM24.5461 27.2658L23.9668 26.8448L23.3874 27.2658L23.6088 26.5847L23.0294 26.1638H23.7455L23.9668 25.4827L24.1881 26.1638H24.9042L24.3248 26.5847L24.5461 27.2658ZM24.3248 24.5936L24.5461 25.2747L23.9668 24.8538L23.3874 25.2747L23.6088 24.5936L23.0294 24.1727H23.7455L23.9668 23.4916L24.1881 24.1727H24.9042L24.3248 24.5936ZM26.9978 27.2658L26.4185 26.8448L25.8391 27.2658L26.0604 26.5847L25.4811 26.1638H26.1972L26.4185 25.4827L26.6398 26.1638H27.3559L26.7765 26.5847L26.9978 27.2658ZM26.7765 24.5936L26.9978 25.2747L26.4185 24.8538L25.8391 25.2747L26.0604 24.5936L25.4811 24.1727H26.1972L26.4185 23.4916L26.6398 24.1727H27.3559L26.7765 24.5936ZM26.7765 22.6026L26.9978 23.2836L26.4185 22.8627L25.8391 23.2836L26.0604 22.6026L25.4811 22.1816H26.1972L26.4185 21.5006L26.6398 22.1816H27.3559L26.7765 22.6026Z" fill="#0052B4"/>
</g>
<path d="M43.7089 25.1491H44.5868V28.9639C44.5868 29.3699 44.4915 29.7295 44.3008 30.043C44.1101 30.3545 43.842 30.5999 43.4965 30.7793C43.1509 30.9568 42.746 31.0455 42.2815 31.0455C41.8189 31.0455 41.4149 30.9568 41.0694 30.7793C40.7238 30.5999 40.4557 30.3545 40.2651 30.043C40.0744 29.7295 39.979 29.3699 39.979 28.9639V25.1491H40.8541V28.8931C40.8541 29.1556 40.9117 29.3887 41.0269 29.5927C41.1439 29.7966 41.3091 29.957 41.5225 30.0741C41.7358 30.1893 41.9888 30.2469 42.2815 30.2469C42.576 30.2469 42.83 30.1893 43.0433 30.0741C43.2586 29.957 43.4228 29.7966 43.5361 29.5927C43.6513 29.3887 43.7089 29.1556 43.7089 28.8931V25.1491ZM48.9747 26.6728C48.9445 26.4047 48.8199 26.197 48.6009 26.0497C48.3818 25.9006 48.1062 25.826 47.7739 25.826C47.536 25.826 47.3302 25.8638 47.1565 25.9393C46.9828 26.0129 46.8478 26.1149 46.7515 26.2451C46.6571 26.3735 46.6099 26.5199 46.6099 26.6841C46.6099 26.8219 46.642 26.9409 46.7062 27.041C46.7723 27.141 46.8582 27.225 46.9639 27.293C47.0715 27.3591 47.1867 27.4148 47.3094 27.4601C47.4322 27.5035 47.5502 27.5394 47.6634 27.5677L48.2299 27.715C48.4149 27.7603 48.6046 27.8217 48.7991 27.8991C48.9936 27.9765 49.1739 28.0784 49.34 28.2049C49.5062 28.3314 49.6402 28.4881 49.7422 28.6751C49.846 28.862 49.8979 29.0857 49.8979 29.3463C49.8979 29.6748 49.813 29.9665 49.6431 30.2214C49.475 30.4763 49.2305 30.6773 48.9096 30.8246C48.5905 30.9719 48.2044 31.0455 47.7512 31.0455C47.317 31.0455 46.9413 30.9766 46.6241 30.8388C46.3069 30.7009 46.0586 30.5055 45.8792 30.2525C45.6999 29.9976 45.6007 29.6956 45.5819 29.3463H46.4598C46.4768 29.5558 46.5448 29.7305 46.6637 29.8702C46.7845 30.008 46.9384 30.1109 47.1253 30.1789C47.3141 30.245 47.5209 30.278 47.7456 30.278C47.9929 30.278 48.2129 30.2393 48.4054 30.1619C48.5999 30.0826 48.7528 29.9731 48.8642 29.8334C48.9756 29.6918 49.0313 29.5266 49.0313 29.3378C49.0313 29.166 48.9822 29.0253 48.8841 28.9158C48.7878 28.8063 48.6566 28.7157 48.4904 28.6439C48.3261 28.5722 48.1402 28.5089 47.9325 28.4542L47.2471 28.2672C46.7827 28.1407 46.4145 27.9548 46.1426 27.7093C45.8726 27.4639 45.7376 27.1391 45.7376 26.7351C45.7376 26.4009 45.8283 26.1092 46.0095 25.86C46.1908 25.6108 46.4362 25.4172 46.7458 25.2794C47.0555 25.1397 47.4048 25.0698 47.7937 25.0698C48.1864 25.0698 48.5329 25.1387 48.8331 25.2766C49.1352 25.4144 49.3731 25.6041 49.5468 25.8458C49.7205 26.0856 49.8111 26.3613 49.8186 26.6728H48.9747ZM52.7735 30.9492H50.8958V25.1491H52.833C53.4013 25.1491 53.8893 25.2652 54.2972 25.4975C54.705 25.7278 55.0175 26.0592 55.2346 26.4915C55.4536 26.922 55.5631 27.4384 55.5631 28.0407C55.5631 28.6449 55.4526 29.1641 55.2317 29.5983C55.0127 30.0326 54.6955 30.3668 54.2802 30.6009C53.8648 30.8331 53.3626 30.9492 52.7735 30.9492ZM51.7709 30.1846H52.7254C53.1672 30.1846 53.5344 30.1015 53.827 29.9353C54.1197 29.7673 54.3387 29.5247 54.4841 29.2075C54.6295 28.8884 54.7021 28.4995 54.7021 28.0407C54.7021 27.5857 54.6295 27.1996 54.4841 26.8824C54.3406 26.5652 54.1263 26.3244 53.8412 26.1602C53.5561 25.9959 53.2021 25.9138 52.7792 25.9138H51.7709V30.1846Z" fill="#0E121B"/>
<path d="M63.1779 28.4498L65.2928 26.335L65.8969 26.9391L63.1779 29.658L60.459 26.9391L61.0631 26.335L63.1779 28.4498Z" fill="#525866"/>
</g>
<path d="M21.7173 44.0625V39.091H23.4553C23.8017 39.091 24.0873 39.1509 24.3122 39.2706C24.5372 39.3888 24.7047 39.5482 24.8147 39.7488C24.9248 39.9479 24.9798 40.1688 24.9798 40.4116C24.9798 40.6252 24.9418 40.8016 24.8657 40.9407C24.7913 41.0799 24.6926 41.19 24.5696 41.2709C24.4482 41.3518 24.3163 41.4117 24.1739 41.4505V41.4991C24.326 41.5088 24.4789 41.5622 24.6327 41.6593C24.7864 41.7564 24.9151 41.8956 25.0186 42.0768C25.1222 42.2581 25.174 42.4798 25.174 42.7419C25.174 42.9912 25.1174 43.2153 25.0041 43.4144C24.8908 43.6134 24.712 43.7712 24.4676 43.8877C24.2232 44.0042 23.9052 44.0625 23.5136 44.0625H21.7173ZM22.3193 43.5285H23.5136C23.9069 43.5285 24.186 43.4524 24.3511 43.3003C24.5178 43.1465 24.6011 42.9604 24.6011 42.7419C24.6011 42.5736 24.5582 42.4183 24.4725 42.2759C24.3867 42.1318 24.2645 42.0169 24.1059 41.9312C23.9473 41.8438 23.7596 41.8001 23.5427 41.8001H22.3193V43.5285ZM22.3193 41.2757H23.4359C23.6172 41.2757 23.7806 41.2401 23.9263 41.1689C24.0735 41.0977 24.1901 40.9974 24.2758 40.8679C24.3632 40.7385 24.4069 40.5863 24.4069 40.4116C24.4069 40.1931 24.3309 40.0078 24.1787 39.8557C24.0266 39.7019 23.7855 39.625 23.4553 39.625H22.3193V41.2757ZM27.1828 44.1499C26.9465 44.1499 26.732 44.1054 26.5395 44.0164C26.3469 43.9258 26.194 43.7955 26.0807 43.6256C25.9674 43.454 25.9107 43.2469 25.9107 43.0041C25.9107 42.7905 25.9528 42.6173 26.037 42.4846C26.1211 42.3503 26.2336 42.2451 26.3744 42.1691C26.5152 42.093 26.6706 42.0364 26.8405 41.9991C27.012 41.9603 27.1844 41.9295 27.3575 41.9069C27.5841 41.8778 27.7678 41.8559 27.9086 41.8413C28.051 41.8252 28.1546 41.7985 28.2193 41.7612C28.2856 41.724 28.3188 41.6593 28.3188 41.567V41.5476C28.3188 41.3081 28.2533 41.122 28.1222 40.9893C27.9927 40.8566 27.7961 40.7902 27.5323 40.7902C27.2588 40.7902 27.0444 40.8501 26.889 40.9699C26.7337 41.0896 26.6244 41.2175 26.5613 41.3534L26.0176 41.1592C26.1147 40.9327 26.2441 40.7563 26.406 40.63C26.5694 40.5022 26.7474 40.4132 26.94 40.363C27.1342 40.3112 27.3252 40.2853 27.5129 40.2853C27.6326 40.2853 27.7702 40.2999 27.9256 40.329C28.0825 40.3565 28.2339 40.414 28.3795 40.5014C28.5268 40.5888 28.649 40.7207 28.7461 40.897C28.8432 41.0734 28.8917 41.3097 28.8917 41.6059V44.0625H28.3188V43.5576H28.2897C28.2509 43.6385 28.1861 43.7251 28.0955 43.8173C28.0049 43.9096 27.8843 43.9881 27.7338 44.0528C27.5833 44.1175 27.3996 44.1499 27.1828 44.1499ZM27.2701 43.6353C27.4967 43.6353 27.6877 43.5908 27.843 43.5017C28 43.4127 28.1181 43.2978 28.1974 43.157C28.2784 43.0163 28.3188 42.8682 28.3188 42.7128V42.1885C28.2945 42.2176 28.2411 42.2443 28.1586 42.2686C28.0777 42.2912 27.9838 42.3115 27.877 42.3293C27.7718 42.3455 27.6691 42.36 27.5687 42.373C27.47 42.3843 27.3899 42.394 27.3284 42.4021C27.1795 42.4215 27.0403 42.4531 26.9109 42.4968C26.783 42.5388 26.6795 42.6028 26.6002 42.6885C26.5225 42.7727 26.4836 42.8876 26.4836 43.0332C26.4836 43.2323 26.5573 43.3828 26.7045 43.4848C26.8534 43.5851 27.042 43.6353 27.2701 43.6353ZM30.5102 39.091V44.0625H29.9374V39.091H30.5102ZM32.6568 44.1499C32.4205 44.1499 32.206 44.1054 32.0135 44.0164C31.8209 43.9258 31.668 43.7955 31.5547 43.6256C31.4414 43.454 31.3847 43.2469 31.3847 43.0041C31.3847 42.7905 31.4268 42.6173 31.511 42.4846C31.5951 42.3503 31.7076 42.2451 31.8484 42.1691C31.9892 42.093 32.1445 42.0364 32.3145 41.9991C32.486 41.9603 32.6584 41.9295 32.8315 41.9069C33.0581 41.8778 33.2418 41.8559 33.3826 41.8413C33.525 41.8252 33.6286 41.7985 33.6933 41.7612C33.7596 41.724 33.7928 41.6593 33.7928 41.567V41.5476C33.7928 41.3081 33.7273 41.122 33.5962 40.9893C33.4667 40.8566 33.2701 40.7902 33.0063 40.7902C32.7328 40.7902 32.5184 40.8501 32.363 40.9699C32.2077 41.0896 32.0984 41.2175 32.0353 41.3534L31.4916 41.1592C31.5887 40.9327 31.7181 40.7563 31.88 40.63C32.0434 40.5022 32.2214 40.4132 32.414 40.363C32.6082 40.3112 32.7992 40.2853 32.9869 40.2853C33.1066 40.2853 33.2442 40.2999 33.3996 40.329C33.5565 40.3565 33.7079 40.414 33.8535 40.5014C34.0008 40.5888 34.123 40.7207 34.2201 40.897C34.3172 41.0734 34.3657 41.3097 34.3657 41.6059V44.0625H33.7928V43.5576H33.7637C33.7248 43.6385 33.6601 43.7251 33.5695 43.8173C33.4789 43.9096 33.3583 43.9881 33.2078 44.0528C33.0573 44.1175 32.8736 44.1499 32.6568 44.1499ZM32.7441 43.6353C32.9707 43.6353 33.1617 43.5908 33.317 43.5017C33.474 43.4127 33.5921 43.2978 33.6714 43.157C33.7524 43.0163 33.7928 42.8682 33.7928 42.7128V42.1885C33.7685 42.2176 33.7151 42.2443 33.6326 42.2686C33.5517 42.2912 33.4578 42.3115 33.351 42.3293C33.2458 42.3455 33.1431 42.36 33.0427 42.373C32.944 42.3843 32.8639 42.394 32.8024 42.4021C32.6535 42.4215 32.5143 42.4531 32.3849 42.4968C32.257 42.5388 32.1535 42.6028 32.0742 42.6885C31.9965 42.7727 31.9576 42.8876 31.9576 43.0332C31.9576 43.2323 32.0313 43.3828 32.1785 43.4848C32.3274 43.5851 32.516 43.6353 32.7441 43.6353ZM35.9842 41.8195V44.0625H35.4113V40.3339H35.9648V40.9165H36.0134C36.1008 40.7271 36.2335 40.575 36.4115 40.4601C36.5895 40.3436 36.8193 40.2853 37.1009 40.2853C37.3533 40.2853 37.5742 40.3371 37.7636 40.4407C37.9529 40.5426 38.1002 40.698 38.2054 40.9068C38.3106 41.1139 38.3632 41.3761 38.3632 41.6933V44.0625H37.7903V41.7321C37.7903 41.4392 37.7142 41.211 37.5621 41.0476C37.41 40.8825 37.2012 40.7999 36.9358 40.7999C36.7529 40.7999 36.5895 40.8396 36.4455 40.9189C36.303 40.9982 36.1906 41.1139 36.108 41.266C36.0255 41.4182 35.9842 41.6026 35.9842 41.8195ZM40.9248 44.1402C40.5752 44.1402 40.2742 44.0576 40.0218 43.8926C39.7693 43.7275 39.5751 43.5001 39.4392 43.2104C39.3032 42.9208 39.2353 42.5898 39.2353 42.2176C39.2353 41.8389 39.3048 41.5047 39.444 41.2151C39.5848 40.9238 39.7806 40.6964 40.0315 40.5329C40.2839 40.3679 40.5785 40.2853 40.9151 40.2853C41.1773 40.2853 41.4135 40.3339 41.6239 40.431C41.8343 40.5281 42.0066 40.664 42.141 40.8388C42.2753 41.0136 42.3586 41.2175 42.391 41.4505H41.8181C41.7744 41.2806 41.6773 41.1301 41.5268 40.999C41.3779 40.8663 41.1773 40.7999 40.9248 40.7999C40.7015 40.7999 40.5056 40.8582 40.3373 40.9747C40.1707 41.0896 40.0404 41.2523 39.9465 41.4627C39.8543 41.6714 39.8081 41.9166 39.8081 42.1982C39.8081 42.4862 39.8535 42.7371 39.9441 42.9507C40.0363 43.1643 40.1658 43.3302 40.3325 43.4483C40.5008 43.5665 40.6982 43.6256 40.9248 43.6256C41.0737 43.6256 41.2088 43.5997 41.3302 43.5479C41.4516 43.4961 41.5543 43.4216 41.6385 43.3245C41.7226 43.2274 41.7825 43.1109 41.8181 42.975H42.391C42.3586 43.1951 42.2785 43.3933 42.1507 43.5697C42.0244 43.7445 41.857 43.8837 41.6482 43.9872C41.441 44.0892 41.1999 44.1402 40.9248 44.1402ZM44.7918 44.1402C44.4325 44.1402 44.1226 44.0609 43.8621 43.9023C43.6031 43.7421 43.4033 43.5187 43.2625 43.2323C43.1233 42.9442 43.0537 42.6092 43.0537 42.2273C43.0537 41.8454 43.1233 41.5088 43.2625 41.2175C43.4033 40.9246 43.5991 40.6964 43.8499 40.5329C44.1024 40.3679 44.3969 40.2853 44.7335 40.2853C44.9277 40.2853 45.1195 40.3177 45.3088 40.3824C45.4982 40.4472 45.6705 40.5523 45.8259 40.698C45.9813 40.842 46.1051 41.033 46.1973 41.2709C46.2896 41.5088 46.3357 41.8017 46.3357 42.1496V42.3924H43.4615V41.8972H45.7531C45.7531 41.6868 45.711 41.4991 45.6268 41.334C45.5443 41.1689 45.4262 41.0387 45.2724 40.9432C45.1203 40.8477 44.9407 40.7999 44.7335 40.7999C44.5053 40.7999 44.3079 40.8566 44.1412 40.9699C43.9762 41.0815 43.8491 41.2272 43.7601 41.4068C43.6711 41.5865 43.6266 41.779 43.6266 41.9846V42.3147C43.6266 42.5963 43.6751 42.835 43.7722 43.0308C43.871 43.225 44.0077 43.3731 44.1825 43.475C44.3573 43.5754 44.5604 43.6256 44.7918 43.6256C44.9423 43.6256 45.0782 43.6045 45.1996 43.5624C45.3226 43.5187 45.4286 43.454 45.5176 43.3682C45.6066 43.2808 45.6754 43.1724 45.7239 43.043L46.2774 43.1983C46.2192 43.386 46.1212 43.5511 45.9837 43.6935C45.8461 43.8343 45.6762 43.9444 45.4739 44.0237C45.2716 44.1013 45.0442 44.1402 44.7918 44.1402ZM47.6247 44.1013C47.5049 44.1013 47.4022 44.0585 47.3164 43.9727C47.2306 43.8869 47.1877 43.7841 47.1877 43.6644C47.1877 43.5446 47.2306 43.4419 47.3164 43.3561C47.4022 43.2703 47.5049 43.2274 47.6247 43.2274C47.7444 43.2274 47.8472 43.2703 47.933 43.3561C48.0187 43.4419 48.0616 43.5446 48.0616 43.6644C48.0616 43.7437 48.0414 43.8165 48.0009 43.8829C47.9621 43.9492 47.9095 44.0026 47.8431 44.0431C47.7784 44.0819 47.7056 44.1013 47.6247 44.1013ZM47.6247 41.334C47.5049 41.334 47.4022 41.2911 47.3164 41.2053C47.2306 41.1196 47.1877 41.0168 47.1877 40.897C47.1877 40.7773 47.2306 40.6745 47.3164 40.5888C47.4022 40.503 47.5049 40.4601 47.6247 40.4601C47.7444 40.4601 47.8472 40.503 47.933 40.5888C48.0187 40.6745 48.0616 40.7773 48.0616 40.897C48.0616 40.9763 48.0414 41.0492 48.0009 41.1155C47.9621 41.1819 47.9095 41.2353 47.8431 41.2757C47.7784 41.3146 47.7056 41.334 47.6247 41.334ZM52.4687 44.6839V38.4696H52.8668V44.6839H52.4687ZM53.8087 40.3339C53.7796 40.0879 53.6614 39.8969 53.4543 39.761C53.2472 39.625 52.9931 39.5571 52.6921 39.5571C52.472 39.5571 52.2794 39.5927 52.1143 39.6639C51.9509 39.7351 51.823 39.833 51.7308 39.9576C51.6402 40.0822 51.5948 40.2238 51.5948 40.3824C51.5948 40.5151 51.6264 40.6292 51.6895 40.7247C51.7542 40.8186 51.8368 40.897 51.9371 40.9602C52.0375 41.0217 52.1426 41.0726 52.2527 41.1131C52.3627 41.1519 52.4639 41.1835 52.5561 41.2078L53.061 41.3437C53.1905 41.3777 53.3345 41.4246 53.4931 41.4845C53.6534 41.5444 53.8063 41.6261 53.9519 41.7297C54.0992 41.8316 54.2206 41.9627 54.3161 42.1229C54.4115 42.2831 54.4593 42.4798 54.4593 42.7128C54.4593 42.9815 54.3889 43.2242 54.2481 43.4411C54.1089 43.6579 53.905 43.8303 53.6364 43.9581C53.3693 44.086 53.0449 44.1499 52.6629 44.1499C52.3069 44.1499 51.9986 44.0924 51.7381 43.9775C51.4791 43.8626 51.2752 43.7024 51.1263 43.4969C50.9791 43.2914 50.8957 43.0527 50.8763 42.7808H51.4977C51.5139 42.9685 51.577 43.1239 51.6871 43.2469C51.7987 43.3682 51.9395 43.4589 52.1095 43.5187C52.281 43.577 52.4655 43.6061 52.6629 43.6061C52.8927 43.6061 53.0991 43.5689 53.2819 43.4945C53.4648 43.4184 53.6097 43.3132 53.7165 43.1789C53.8233 43.043 53.8767 42.8844 53.8767 42.7031C53.8767 42.538 53.8306 42.4037 53.7383 42.3001C53.6461 42.1966 53.5247 42.1124 53.3742 42.0477C53.2237 41.9829 53.061 41.9263 52.8863 41.8778L52.2745 41.703C51.8861 41.5913 51.5787 41.4319 51.3521 41.2248C51.1255 41.0176 51.0122 40.7465 51.0122 40.4116C51.0122 40.1332 51.0875 39.8904 51.238 39.6833C51.3901 39.4745 51.594 39.3127 51.8497 39.1978C52.107 39.0813 52.3943 39.023 52.7115 39.023C53.0319 39.023 53.3167 39.0805 53.566 39.1954C53.8152 39.3087 54.0126 39.464 54.1583 39.6615C54.3055 39.8589 54.3832 40.083 54.3913 40.3339H53.8087ZM55.3617 44.0625V43.6256L57.0027 41.8292C57.1953 41.6188 57.3539 41.436 57.4785 41.2806C57.6031 41.1236 57.6953 40.9763 57.7552 40.8388C57.8167 40.6996 57.8475 40.554 57.8475 40.4018C57.8475 40.2271 57.8054 40.0757 57.7212 39.9479C57.6387 39.8201 57.5254 39.7213 57.3814 39.6517C57.2373 39.5822 57.0755 39.5474 56.8959 39.5474C56.7049 39.5474 56.5382 39.587 56.3958 39.6663C56.255 39.744 56.1458 39.8532 56.0681 39.994C55.992 40.1348 55.954 40.2999 55.954 40.4892H55.3811C55.3811 40.1979 55.4483 39.9422 55.5826 39.7221C55.7169 39.502 55.8998 39.3305 56.1312 39.2075C56.3643 39.0845 56.6256 39.023 56.9153 39.023C57.2066 39.023 57.4647 39.0845 57.6897 39.2075C57.9146 39.3305 58.091 39.4964 58.2189 39.7051C58.3467 39.9139 58.4106 40.1461 58.4106 40.4018C58.4106 40.5847 58.3775 40.7635 58.3111 40.9383C58.2464 41.1115 58.1331 41.3049 57.9713 41.5185C57.811 41.7305 57.5885 41.9894 57.3037 42.2953L56.187 43.4896V43.5285H58.498V44.0625H55.3617ZM61.0542 44.1305C60.7693 44.1305 60.5128 44.0738 60.2847 43.9605C60.0565 43.8473 59.8736 43.6919 59.736 43.4945C59.5985 43.297 59.5232 43.0721 59.5103 42.8196H60.0929C60.1155 43.0446 60.2175 43.2307 60.3987 43.3779C60.5816 43.5236 60.8001 43.5964 61.0542 43.5964C61.2581 43.5964 61.4393 43.5487 61.5979 43.4532C61.7581 43.3577 61.8836 43.2266 61.9742 43.0599C62.0664 42.8916 62.1126 42.7015 62.1126 42.4895C62.1126 42.2726 62.0648 42.0792 61.9693 41.9093C61.8755 41.7378 61.746 41.6026 61.5809 41.5039C61.4159 41.4052 61.2273 41.355 61.0153 41.3534C60.8632 41.3518 60.707 41.3753 60.5468 41.4238C60.3866 41.4707 60.2547 41.5314 60.1511 41.6059L59.588 41.5379L59.889 39.091H62.4718V39.625H60.3939L60.2191 41.0912H60.2482C60.3502 41.0103 60.478 40.9432 60.6318 40.8898C60.7855 40.8364 60.9457 40.8097 61.1124 40.8097C61.4167 40.8097 61.6877 40.8825 61.9256 41.0281C62.1652 41.1722 62.3529 41.3696 62.4888 41.6204C62.6264 41.8713 62.6952 42.1577 62.6952 42.4798C62.6952 42.797 62.6239 43.0802 62.4815 43.3294C62.3407 43.577 62.1465 43.7728 61.8989 43.9169C61.6513 44.0593 61.3697 44.1305 61.0542 44.1305ZM64.3368 43.3828L64.2979 43.645C64.2704 43.8295 64.2283 44.0269 64.1717 44.2373C64.1167 44.4477 64.0592 44.6459 63.9993 44.832C63.9395 45.0181 63.8901 45.1662 63.8513 45.2762H63.4143C63.4353 45.1727 63.4629 45.0359 63.4968 44.866C63.5308 44.6961 63.5648 44.5059 63.5988 44.2955C63.6344 44.0868 63.6635 43.8732 63.6862 43.6547L63.7153 43.3828H64.3368ZM66.8365 44.1305C66.4707 44.1305 66.1592 44.0309 65.9019 43.8319C65.6446 43.6312 65.4479 43.3407 65.312 42.9604C65.1761 42.5785 65.1081 42.1173 65.1081 41.5767C65.1081 41.0395 65.1761 40.5807 65.312 40.2004C65.4496 39.8184 65.647 39.5271 65.9043 39.3265C66.1632 39.1242 66.474 39.023 66.8365 39.023C67.199 39.023 67.5089 39.1242 67.7662 39.3265C68.0251 39.5271 68.2226 39.8184 68.3585 40.2004C68.4961 40.5807 68.5648 41.0395 68.5648 41.5767C68.5648 42.1173 68.4969 42.5785 68.3609 42.9604C68.225 43.3407 68.0284 43.6312 67.771 43.8319C67.5137 44.0309 67.2022 44.1305 66.8365 44.1305ZM66.8365 43.5964C67.199 43.5964 67.4806 43.4216 67.6812 43.0721C67.8819 42.7225 67.9822 42.2241 67.9822 41.5767C67.9822 41.1463 67.9361 40.7797 67.8439 40.4771C67.7532 40.1745 67.6222 39.9439 67.4506 39.7853C67.2807 39.6267 67.076 39.5474 66.8365 39.5474C66.4772 39.5474 66.1964 39.7246 65.9941 40.079C65.7918 40.4318 65.6907 40.931 65.6907 41.5767C65.6907 42.0072 65.736 42.373 65.8266 42.674C65.9173 42.975 66.0475 43.204 66.2175 43.361C66.389 43.5179 66.5953 43.5964 66.8365 43.5964ZM71.1089 44.1305C70.7431 44.1305 70.4316 44.0309 70.1743 43.8319C69.917 43.6312 69.7203 43.3407 69.5844 42.9604C69.4484 42.5785 69.3805 42.1173 69.3805 41.5767C69.3805 41.0395 69.4484 40.5807 69.5844 40.2004C69.7219 39.8184 69.9194 39.5271 70.1767 39.3265C70.4356 39.1242 70.7463 39.023 71.1089 39.023C71.4714 39.023 71.7813 39.1242 72.0386 39.3265C72.2975 39.5271 72.4949 39.8184 72.6309 40.2004C72.7684 40.5807 72.8372 41.0395 72.8372 41.5767C72.8372 42.1173 72.7693 42.5785 72.6333 42.9604C72.4974 43.3407 72.3007 43.6312 72.0434 43.8319C71.7861 44.0309 71.4746 44.1305 71.1089 44.1305ZM71.1089 43.5964C71.4714 43.5964 71.7529 43.4216 71.9536 43.0721C72.1543 42.7225 72.2546 42.2241 72.2546 41.5767C72.2546 41.1463 72.2085 40.7797 72.1163 40.4771C72.0256 40.1745 71.8945 39.9439 71.723 39.7853C71.5531 39.6267 71.3484 39.5474 71.1089 39.5474C70.7496 39.5474 70.4688 39.7246 70.2665 40.079C70.0642 40.4318 69.9631 40.931 69.9631 41.5767C69.9631 42.0072 70.0084 42.373 70.099 42.674C70.1896 42.975 70.3199 43.204 70.4898 43.361C70.6614 43.5179 70.8677 43.5964 71.1089 43.5964ZM75.3812 44.1305C75.0155 44.1305 74.704 44.0309 74.4467 43.8319C74.1893 43.6312 73.9927 43.3407 73.8568 42.9604C73.7208 42.5785 73.6529 42.1173 73.6529 41.5767C73.6529 41.0395 73.7208 40.5807 73.8568 40.2004C73.9943 39.8184 74.1918 39.5271 74.4491 39.3265C74.708 39.1242 75.0187 39.023 75.3812 39.023C75.7437 39.023 76.0537 39.1242 76.311 39.3265C76.5699 39.5271 76.7673 39.8184 76.9033 40.2004C77.0408 40.5807 77.1096 41.0395 77.1096 41.5767C77.1096 42.1173 77.0416 42.5785 76.9057 42.9604C76.7698 43.3407 76.5731 43.6312 76.3158 43.8319C76.0585 44.0309 75.747 44.1305 75.3812 44.1305ZM75.3812 43.5964C75.7437 43.5964 76.0253 43.4216 76.226 43.0721C76.4267 42.7225 76.527 42.2241 76.527 41.5767C76.527 41.1463 76.4809 40.7797 76.3886 40.4771C76.298 40.1745 76.1669 39.9439 75.9954 39.7853C75.8255 39.6267 75.6208 39.5474 75.3812 39.5474C75.022 39.5474 74.7412 39.7246 74.5389 40.079C74.3366 40.4318 74.2355 40.931 74.2355 41.5767C74.2355 42.0072 74.2808 42.373 74.3714 42.674C74.462 42.975 74.5923 43.204 74.7622 43.361C74.9338 43.5179 75.1401 43.5964 75.3812 43.5964Z" fill="#99A0AE"/>
<path d="M189.17 31.2243C188.659 31.2221 188.222 31.0873 187.859 30.8197C187.497 30.5522 187.219 30.1627 187.027 29.6513C186.835 29.1399 186.739 28.5239 186.739 27.8032C186.739 27.0846 186.835 26.4707 187.027 25.9615C187.221 25.4523 187.5 25.0639 187.862 24.7963C188.227 24.5287 188.663 24.395 189.17 24.395C189.677 24.395 190.112 24.5298 190.474 24.7995C190.837 25.0671 191.114 25.4555 191.306 25.9647C191.5 26.4718 191.597 27.0846 191.597 27.8032C191.597 28.526 191.501 29.1431 191.309 29.6545C191.117 30.1638 190.84 30.5532 190.478 30.823C190.115 31.0905 189.679 31.2243 189.17 31.2243ZM189.17 30.3601C189.619 30.3601 189.969 30.1411 190.222 29.7031C190.476 29.265 190.604 28.6317 190.604 27.8032C190.604 27.2529 190.546 26.7879 190.429 26.4082C190.315 26.0262 190.15 25.7371 189.934 25.5407C189.72 25.3422 189.466 25.243 189.17 25.243C188.723 25.243 188.373 25.4631 188.118 25.9032C187.863 26.3434 187.735 26.9767 187.733 27.8032C187.733 28.3555 187.79 28.8227 187.904 29.2046C188.021 29.5844 188.186 29.8725 188.4 30.0688C188.613 30.263 188.87 30.3601 189.17 30.3601ZM193.056 31.1758C192.879 31.1758 192.727 31.1132 192.599 30.988C192.472 30.8607 192.408 30.7075 192.408 30.5284C192.408 30.3515 192.472 30.2004 192.599 30.0753C192.727 29.948 192.879 29.8843 193.056 29.8843C193.233 29.8843 193.385 29.948 193.512 30.0753C193.639 30.2004 193.703 30.3515 193.703 30.5284C193.703 30.6471 193.673 30.7561 193.612 30.8553C193.554 30.9524 193.476 31.0301 193.379 31.0884C193.282 31.1466 193.174 31.1758 193.056 31.1758ZM196.953 31.2243C196.442 31.2221 196.005 31.0873 195.643 30.8197C195.28 30.5522 195.003 30.1627 194.811 29.6513C194.619 29.1399 194.523 28.5239 194.523 27.8032C194.523 27.0846 194.619 26.4707 194.811 25.9615C195.005 25.4523 195.283 25.0639 195.646 24.7963C196.011 24.5287 196.446 24.395 196.953 24.395C197.461 24.395 197.895 24.5298 198.258 24.7995C198.62 25.0671 198.898 25.4555 199.09 25.9647C199.284 26.4718 199.381 27.0846 199.381 27.8032C199.381 28.526 199.285 29.1431 199.093 29.6545C198.901 30.1638 198.624 30.5532 198.261 30.823C197.899 31.0905 197.463 31.2243 196.953 31.2243ZM196.953 30.3601C197.402 30.3601 197.753 30.1411 198.005 29.7031C198.26 29.265 198.387 28.6317 198.387 27.8032C198.387 27.2529 198.329 26.7879 198.213 26.4082C198.098 26.0262 197.933 25.7371 197.717 25.5407C197.504 25.3422 197.249 25.243 196.953 25.243C196.507 25.243 196.156 25.4631 195.902 25.9032C195.647 26.3434 195.519 26.9767 195.516 27.8032C195.516 28.3555 195.574 28.8227 195.688 29.2046C195.804 29.5844 195.97 29.8725 196.183 30.0688C196.397 30.263 196.654 30.3601 196.953 30.3601ZM202.737 31.2243C202.225 31.2221 201.788 31.0873 201.426 30.8197C201.063 30.5522 200.786 30.1627 200.594 29.6513C200.402 29.1399 200.306 28.5239 200.306 27.8032C200.306 27.0846 200.402 26.4707 200.594 25.9615C200.788 25.4523 201.067 25.0639 201.429 24.7963C201.794 24.5287 202.23 24.395 202.737 24.395C203.244 24.395 203.679 24.5298 204.041 24.7995C204.404 25.0671 204.681 25.4555 204.873 25.9647C205.067 26.4718 205.164 27.0846 205.164 27.8032C205.164 28.526 205.068 29.1431 204.876 29.6545C204.684 30.1638 204.407 30.5532 204.044 30.823C203.682 31.0905 203.246 31.2243 202.737 31.2243ZM202.737 30.3601C203.185 30.3601 203.536 30.1411 203.789 29.7031C204.043 29.265 204.17 28.6317 204.17 27.8032C204.17 27.2529 204.112 26.7879 203.996 26.4082C203.881 26.0262 203.716 25.7371 203.501 25.5407C203.287 25.3422 203.032 25.243 202.737 25.243C202.29 25.243 201.939 25.4631 201.685 25.9032C201.43 26.3434 201.302 26.9767 201.3 27.8032C201.3 28.3555 201.357 28.8227 201.471 29.2046C201.588 29.5844 201.753 29.8725 201.966 30.0688C202.18 30.263 202.437 30.3601 202.737 30.3601Z" fill="#0E121B"/>
<path d="M190.205 45.014V38.7996H190.604V45.014H190.205ZM191.545 40.6639C191.516 40.418 191.398 40.227 191.191 40.0911C190.984 39.9551 190.73 39.8872 190.429 39.8872C190.209 39.8872 190.016 39.9228 189.851 39.994C189.688 40.0652 189.56 40.1631 189.467 40.2877C189.377 40.4123 189.332 40.5539 189.332 40.7125C189.332 40.8452 189.363 40.9593 189.426 41.0548C189.491 41.1486 189.573 41.2271 189.674 41.2902C189.774 41.3517 189.879 41.4027 189.989 41.4432C190.099 41.482 190.201 41.5136 190.293 41.5378L190.798 41.6738C190.927 41.7078 191.071 41.7547 191.23 41.8146C191.39 41.8745 191.543 41.9562 191.689 42.0598C191.836 42.1617 191.957 42.2928 192.053 42.453C192.148 42.6132 192.196 42.8099 192.196 43.0429C192.196 43.3115 192.126 43.5543 191.985 43.7711C191.846 43.988 191.642 44.1603 191.373 44.2882C191.106 44.416 190.782 44.48 190.4 44.48C190.044 44.48 189.735 44.4225 189.475 44.3076C189.216 44.1927 189.012 44.0325 188.863 43.827C188.716 43.6214 188.632 43.3827 188.613 43.1109H189.234C189.251 43.2986 189.314 43.4539 189.424 43.5769C189.535 43.6983 189.676 43.7889 189.846 43.8488C190.018 43.9071 190.202 43.9362 190.4 43.9362C190.629 43.9362 190.836 43.899 191.019 43.8245C191.202 43.7485 191.346 43.6433 191.453 43.509C191.56 43.373 191.613 43.2144 191.613 43.0332C191.613 42.8681 191.567 42.7338 191.475 42.6302C191.383 42.5266 191.261 42.4425 191.111 42.3778C190.96 42.313 190.798 42.2564 190.623 42.2078L190.011 42.0331C189.623 41.9214 189.315 41.762 189.089 41.5548C188.862 41.3477 188.749 41.0766 188.749 40.7416C188.749 40.4633 188.824 40.2205 188.975 40.0134C189.127 39.8046 189.331 39.6428 189.586 39.5279C189.844 39.4114 190.131 39.3531 190.448 39.3531C190.769 39.3531 191.053 39.4106 191.303 39.5255C191.552 39.6387 191.749 39.7941 191.895 39.9915C192.042 40.189 192.12 40.4131 192.128 40.6639H191.545ZM194.846 39.4211V44.3926H194.244V40.0522H194.215L193.001 40.8581V40.2464L194.244 39.4211H194.846ZM196.41 44.4314C196.29 44.4314 196.187 44.3885 196.101 44.3028C196.015 44.217 195.973 44.1142 195.973 43.9945C195.973 43.8747 196.015 43.7719 196.101 43.6862C196.187 43.6004 196.29 43.5575 196.41 43.5575C196.529 43.5575 196.632 43.6004 196.718 43.6862C196.804 43.7719 196.846 43.8747 196.846 43.9945C196.846 44.0738 196.826 44.1466 196.786 44.2129C196.747 44.2793 196.694 44.3327 196.628 44.3732C196.563 44.412 196.49 44.4314 196.41 44.4314ZM197.6 43.1497H198.212C198.23 43.318 198.287 43.4604 198.384 43.5769C198.483 43.6918 198.611 43.7792 198.768 43.8391C198.925 43.8974 199.099 43.9265 199.29 43.9265C199.497 43.9265 199.683 43.8917 199.848 43.8221C200.013 43.7525 200.144 43.649 200.241 43.5114C200.338 43.3722 200.387 43.1999 200.387 42.9943C200.387 42.8147 200.345 42.648 200.261 42.4943C200.177 42.3389 200.041 42.2135 199.855 42.118C199.669 42.0225 199.422 41.9748 199.115 41.9748H198.717V41.4893L199.96 39.994V39.9551H197.843V39.4211H200.785V39.858L199.455 41.4699V41.5087C199.668 41.5184 199.867 41.5621 200.052 41.6398C200.238 41.7175 200.4 41.8227 200.537 41.9554C200.677 42.0881 200.785 42.2426 200.863 42.419C200.94 42.5954 200.979 42.7872 200.979 42.9943C200.979 43.2775 200.906 43.53 200.761 43.7517C200.617 43.9718 200.417 44.145 200.161 44.2712C199.907 44.3974 199.613 44.4605 199.28 44.4605C198.985 44.4605 198.714 44.4088 198.467 44.3052C198.219 44.2016 198.018 44.0519 197.862 43.8561C197.707 43.6603 197.62 43.4248 197.6 43.1497ZM203.592 44.4605C203.226 44.4605 202.915 44.361 202.657 44.162C202.4 43.9613 202.203 43.6708 202.067 43.2905C201.931 42.9086 201.863 42.4473 201.863 41.9068C201.863 41.3695 201.931 40.9107 202.067 40.5304C202.205 40.1485 202.402 39.8572 202.66 39.6565C202.919 39.4542 203.229 39.3531 203.592 39.3531C203.954 39.3531 204.264 39.4542 204.522 39.6565C204.781 39.8572 204.978 40.1485 205.114 40.5304C205.251 40.9107 205.32 41.3695 205.32 41.9068C205.32 42.4473 205.252 42.9086 205.116 43.2905C204.98 43.6708 204.784 43.9613 204.526 44.162C204.269 44.361 203.958 44.4605 203.592 44.4605ZM203.592 43.9265C203.954 43.9265 204.236 43.7517 204.437 43.4022C204.637 43.0526 204.738 42.5542 204.738 41.9068C204.738 41.4763 204.692 41.1098 204.599 40.8072C204.509 40.5045 204.378 40.2739 204.206 40.1153C204.036 39.9567 203.831 39.8774 203.592 39.8774C203.233 39.8774 202.952 40.0546 202.75 40.4091C202.547 40.7619 202.446 41.2611 202.446 41.9068C202.446 42.3373 202.491 42.703 202.582 43.0041C202.673 43.3051 202.803 43.5341 202.973 43.691C203.144 43.848 203.351 43.9265 203.592 43.9265Z" fill="#99A0AE"/>
<rect x="12.1424" y="58.9285" width="203.056" height="44.2226" rx="5.85759" fill="#F5F7FA"/>
<rect x="12.1424" y="58.9285" width="203.056" height="44.2226" rx="5.85759" stroke="#E1E4EA" stroke-width="0.284826"/>
<g clip-path="url(#clip2_7253_17880)">
<g clip-path="url(#clip3_7253_17880)">
<path d="M27.9502 81.5704C31.7251 81.5704 34.7852 78.5103 34.7852 74.7354C34.7852 70.9605 31.7251 67.9004 27.9502 67.9004C24.1754 67.9004 21.1152 70.9605 21.1152 74.7354C21.1152 78.5103 24.1754 81.5704 27.9502 81.5704Z" fill="#F0F0F0"/>
<path d="M21.1152 74.735C21.1152 77.6739 22.9701 80.1792 25.5729 81.1449V68.3252C22.9701 69.2909 21.1152 71.7963 21.1152 74.735Z" fill="#6DA544"/>
<path d="M34.7857 74.735C34.7857 71.7963 32.9309 69.2909 30.3281 68.3252V81.145C32.9309 80.1792 34.7857 77.6739 34.7857 74.735Z" fill="#6DA544"/>
</g>
<path d="M44.6604 71.9353V77.7354H43.8561L40.9079 73.4816H40.8541V77.7354H39.979V71.9353H40.789L43.74 76.1947H43.7938V71.9353H44.6604ZM49.8144 73.7676C49.7596 73.5958 49.686 73.4419 49.5935 73.306C49.5029 73.1682 49.3943 73.0511 49.2678 72.9548C49.1413 72.8566 48.9969 72.7821 48.8345 72.7311C48.674 72.6801 48.4975 72.6546 48.3049 72.6546C47.9783 72.6546 47.6837 72.7386 47.4213 72.9067C47.1589 73.0747 46.9512 73.3211 46.7982 73.6458C46.6472 73.9687 46.5717 74.3642 46.5717 74.8325C46.5717 75.3026 46.6481 75.7 46.8011 76.0248C46.954 76.3495 47.1636 76.5959 47.4298 76.7639C47.696 76.932 47.999 77.016 48.3389 77.016C48.6542 77.016 48.9289 76.9518 49.163 76.8234C49.399 76.695 49.5812 76.5138 49.7096 76.2797C49.8399 76.0437 49.905 75.7661 49.905 75.447L50.1316 75.4895H48.472V74.7673H50.7518V75.4272C50.7518 75.9143 50.648 76.3373 50.4403 76.696C50.2345 77.0528 49.9494 77.3285 49.585 77.5229C49.2225 77.7174 48.8071 77.8146 48.3389 77.8146C47.814 77.8146 47.3533 77.6938 46.9568 77.4521C46.5622 77.2105 46.2545 76.8678 46.0336 76.4241C45.8127 75.9785 45.7022 75.4499 45.7022 74.8381C45.7022 74.3756 45.7664 73.9602 45.8948 73.592C46.0232 73.2239 46.2035 72.9114 46.4357 72.6546C46.6699 72.3959 46.9446 72.1986 47.2599 72.0627C47.5771 71.9249 47.9235 71.856 48.2992 71.856C48.6127 71.856 48.9044 71.9022 49.1743 71.9947C49.4462 72.0872 49.6879 72.2185 49.8994 72.3884C50.1127 72.5583 50.2892 72.7603 50.429 72.9945C50.5687 73.2267 50.6631 73.4844 50.7122 73.7676H49.8144ZM56.4963 71.9353V77.7354H55.692L52.7438 73.4816H52.69V77.7354H51.8148V71.9353H52.6248L55.5758 76.1947H55.6297V71.9353H56.4963Z" fill="#0E121B"/>
<path d="M64.1779 75.2359L66.2928 73.1211L66.8969 73.7252L64.1779 76.4442L61.459 73.7252L62.0631 73.1211L64.1779 75.2359Z" fill="#525866"/>
</g>
<path d="M21.7173 90.8486V85.8771H23.4553C23.8017 85.8771 24.0873 85.937 24.3122 86.0568C24.5372 86.1749 24.7047 86.3343 24.8147 86.535C24.9248 86.734 24.9798 86.9549 24.9798 87.1977C24.9798 87.4113 24.9418 87.5877 24.8657 87.7269C24.7913 87.8661 24.6926 87.9761 24.5696 88.057C24.4482 88.1379 24.3163 88.1978 24.1739 88.2367V88.2852C24.326 88.2949 24.4789 88.3483 24.6327 88.4454C24.7864 88.5425 24.9151 88.6817 25.0186 88.8629C25.1222 89.0442 25.174 89.2659 25.174 89.5281C25.174 89.7773 25.1174 90.0014 25.0041 90.2005C24.8908 90.3995 24.712 90.5573 24.4676 90.6739C24.2232 90.7904 23.9052 90.8486 23.5136 90.8486H21.7173ZM22.3193 90.3146H23.5136C23.9069 90.3146 24.186 90.2385 24.3511 90.0864C24.5178 89.9327 24.6011 89.7466 24.6011 89.5281C24.6011 89.3598 24.5582 89.2044 24.4725 89.062C24.3867 88.918 24.2645 88.8031 24.1059 88.7173C23.9473 88.6299 23.7596 88.5862 23.5427 88.5862H22.3193V90.3146ZM22.3193 88.0619H23.4359C23.6172 88.0619 23.7806 88.0263 23.9263 87.9551C24.0735 87.8839 24.1901 87.7835 24.2758 87.6541C24.3632 87.5246 24.4069 87.3725 24.4069 87.1977C24.4069 86.9792 24.3309 86.7939 24.1787 86.6418C24.0266 86.488 23.7855 86.4112 23.4553 86.4112H22.3193V88.0619ZM27.1828 90.936C26.9465 90.936 26.732 90.8915 26.5395 90.8025C26.3469 90.7119 26.194 90.5816 26.0807 90.4117C25.9674 90.2401 25.9107 90.033 25.9107 89.7902C25.9107 89.5766 25.9528 89.4035 26.037 89.2708C26.1211 89.1364 26.2336 89.0312 26.3744 88.9552C26.5152 88.8791 26.6706 88.8225 26.8405 88.7853C27.012 88.7464 27.1844 88.7157 27.3575 88.693C27.5841 88.6639 27.7678 88.642 27.9086 88.6275C28.051 88.6113 28.1546 88.5846 28.2193 88.5474C28.2856 88.5101 28.3188 88.4454 28.3188 88.3532V88.3337C28.3188 88.0942 28.2533 87.9081 28.1222 87.7754C27.9927 87.6427 27.7961 87.5764 27.5323 87.5764C27.2588 87.5764 27.0444 87.6363 26.889 87.756C26.7337 87.8758 26.6244 88.0036 26.5613 88.1396L26.0176 87.9454C26.1147 87.7188 26.2441 87.5424 26.406 87.4162C26.5694 87.2883 26.7474 87.1993 26.94 87.1491C27.1342 87.0973 27.3252 87.0715 27.5129 87.0715C27.6326 87.0715 27.7702 87.086 27.9256 87.1151C28.0825 87.1427 28.2339 87.2001 28.3795 87.2875C28.5268 87.3749 28.649 87.5068 28.7461 87.6832C28.8432 87.8596 28.8917 88.0959 28.8917 88.392V90.8486H28.3188V90.3437H28.2897C28.2509 90.4246 28.1861 90.5112 28.0955 90.6035C28.0049 90.6957 27.8843 90.7742 27.7338 90.8389C27.5833 90.9037 27.3996 90.936 27.1828 90.936ZM27.2701 90.4214C27.4967 90.4214 27.6877 90.3769 27.843 90.2879C28 90.1989 28.1181 90.084 28.1974 89.9432C28.2784 89.8024 28.3188 89.6543 28.3188 89.4989V88.9746C28.2945 89.0037 28.2411 89.0304 28.1586 89.0547C28.0777 89.0774 27.9838 89.0976 27.877 89.1154C27.7718 89.1316 27.6691 89.1462 27.5687 89.1591C27.47 89.1704 27.3899 89.1801 27.3284 89.1882C27.1795 89.2076 27.0403 89.2392 26.9109 89.2829C26.783 89.325 26.6795 89.3889 26.6002 89.4747C26.5225 89.5588 26.4836 89.6737 26.4836 89.8194C26.4836 90.0184 26.5573 90.1689 26.7045 90.2709C26.8534 90.3712 27.042 90.4214 27.2701 90.4214ZM30.5102 85.8771V90.8486H29.9374V85.8771H30.5102ZM32.6568 90.936C32.4205 90.936 32.206 90.8915 32.0135 90.8025C31.8209 90.7119 31.668 90.5816 31.5547 90.4117C31.4414 90.2401 31.3847 90.033 31.3847 89.7902C31.3847 89.5766 31.4268 89.4035 31.511 89.2708C31.5951 89.1364 31.7076 89.0312 31.8484 88.9552C31.9892 88.8791 32.1445 88.8225 32.3145 88.7853C32.486 88.7464 32.6584 88.7157 32.8315 88.693C33.0581 88.6639 33.2418 88.642 33.3826 88.6275C33.525 88.6113 33.6286 88.5846 33.6933 88.5474C33.7596 88.5101 33.7928 88.4454 33.7928 88.3532V88.3337C33.7928 88.0942 33.7273 87.9081 33.5962 87.7754C33.4667 87.6427 33.2701 87.5764 33.0063 87.5764C32.7328 87.5764 32.5184 87.6363 32.363 87.756C32.2077 87.8758 32.0984 88.0036 32.0353 88.1396L31.4916 87.9454C31.5887 87.7188 31.7181 87.5424 31.88 87.4162C32.0434 87.2883 32.2214 87.1993 32.414 87.1491C32.6082 87.0973 32.7992 87.0715 32.9869 87.0715C33.1066 87.0715 33.2442 87.086 33.3996 87.1151C33.5565 87.1427 33.7079 87.2001 33.8535 87.2875C34.0008 87.3749 34.123 87.5068 34.2201 87.6832C34.3172 87.8596 34.3657 88.0959 34.3657 88.392V90.8486H33.7928V90.3437H33.7637C33.7248 90.4246 33.6601 90.5112 33.5695 90.6035C33.4789 90.6957 33.3583 90.7742 33.2078 90.8389C33.0573 90.9037 32.8736 90.936 32.6568 90.936ZM32.7441 90.4214C32.9707 90.4214 33.1617 90.3769 33.317 90.2879C33.474 90.1989 33.5921 90.084 33.6714 89.9432C33.7524 89.8024 33.7928 89.6543 33.7928 89.4989V88.9746C33.7685 89.0037 33.7151 89.0304 33.6326 89.0547C33.5517 89.0774 33.4578 89.0976 33.351 89.1154C33.2458 89.1316 33.1431 89.1462 33.0427 89.1591C32.944 89.1704 32.8639 89.1801 32.8024 89.1882C32.6535 89.2076 32.5143 89.2392 32.3849 89.2829C32.257 89.325 32.1535 89.3889 32.0742 89.4747C31.9965 89.5588 31.9576 89.6737 31.9576 89.8194C31.9576 90.0184 32.0313 90.1689 32.1785 90.2709C32.3274 90.3712 32.516 90.4214 32.7441 90.4214ZM35.9842 88.6056V90.8486H35.4113V87.12H35.9648V87.7026H36.0134C36.1008 87.5133 36.2335 87.3611 36.4115 87.2462C36.5895 87.1297 36.8193 87.0715 37.1009 87.0715C37.3533 87.0715 37.5742 87.1232 37.7636 87.2268C37.9529 87.3288 38.1002 87.4841 38.2054 87.6929C38.3106 87.9 38.3632 88.1622 38.3632 88.4794V90.8486H37.7903V88.5182C37.7903 88.2253 37.7142 87.9971 37.5621 87.8337C37.41 87.6686 37.2012 87.5861 36.9358 87.5861C36.7529 87.5861 36.5895 87.6257 36.4455 87.705C36.303 87.7843 36.1906 87.9 36.108 88.0522C36.0255 88.2043 35.9842 88.3888 35.9842 88.6056ZM40.9248 90.9263C40.5752 90.9263 40.2742 90.8438 40.0218 90.6787C39.7693 90.5136 39.5751 90.2863 39.4392 89.9966C39.3032 89.7069 39.2353 89.376 39.2353 89.0037C39.2353 88.625 39.3048 88.2909 39.444 88.0012C39.5848 87.7099 39.7806 87.4825 40.0315 87.3191C40.2839 87.154 40.5785 87.0715 40.9151 87.0715C41.1773 87.0715 41.4135 87.12 41.6239 87.2171C41.8343 87.3142 42.0066 87.4501 42.141 87.6249C42.2753 87.7997 42.3586 88.0036 42.391 88.2367H41.8181C41.7744 88.0667 41.6773 87.9162 41.5268 87.7851C41.3779 87.6524 41.1773 87.5861 40.9248 87.5861C40.7015 87.5861 40.5056 87.6443 40.3373 87.7609C40.1707 87.8758 40.0404 88.0384 39.9465 88.2488C39.8543 88.4576 39.8081 88.7027 39.8081 88.9843C39.8081 89.2724 39.8535 89.5232 39.9441 89.7368C40.0363 89.9505 40.1658 90.1163 40.3325 90.2345C40.5008 90.3526 40.6982 90.4117 40.9248 90.4117C41.0737 90.4117 41.2088 90.3858 41.3302 90.334C41.4516 90.2822 41.5543 90.2078 41.6385 90.1107C41.7226 90.0136 41.7825 89.8971 41.8181 89.7611H42.391C42.3586 89.9812 42.2785 90.1795 42.1507 90.3559C42.0244 90.5306 41.857 90.6698 41.6482 90.7734C41.441 90.8753 41.1999 90.9263 40.9248 90.9263ZM44.7918 90.9263C44.4325 90.9263 44.1226 90.847 43.8621 90.6884C43.6031 90.5282 43.4033 90.3049 43.2625 90.0184C43.1233 89.7304 43.0537 89.3954 43.0537 89.0134C43.0537 88.6315 43.1233 88.2949 43.2625 88.0036C43.4033 87.7107 43.5991 87.4825 43.8499 87.3191C44.1024 87.154 44.3969 87.0715 44.7335 87.0715C44.9277 87.0715 45.1195 87.1038 45.3088 87.1686C45.4982 87.2333 45.6705 87.3385 45.8259 87.4841C45.9813 87.6282 46.1051 87.8191 46.1973 88.057C46.2896 88.2949 46.3357 88.5878 46.3357 88.9358V89.1785H43.4615V88.6833H45.7531C45.7531 88.4729 45.711 88.2852 45.6268 88.1201C45.5443 87.9551 45.4262 87.8248 45.2724 87.7293C45.1203 87.6338 44.9407 87.5861 44.7335 87.5861C44.5053 87.5861 44.3079 87.6427 44.1412 87.756C43.9762 87.8677 43.8491 88.0133 43.7601 88.193C43.6711 88.3726 43.6266 88.5652 43.6266 88.7707V89.1008C43.6266 89.3824 43.6751 89.6211 43.7722 89.8169C43.871 90.0111 44.0077 90.1592 44.1825 90.2612C44.3573 90.3615 44.5604 90.4117 44.7918 90.4117C44.9423 90.4117 45.0782 90.3906 45.1996 90.3486C45.3226 90.3049 45.4286 90.2401 45.5176 90.1544C45.6066 90.067 45.6754 89.9586 45.7239 89.8291L46.2774 89.9844C46.2192 90.1722 46.1212 90.3372 45.9837 90.4797C45.8461 90.6204 45.6762 90.7305 45.4739 90.8098C45.2716 90.8875 45.0442 90.9263 44.7918 90.9263ZM47.6247 90.8875C47.5049 90.8875 47.4022 90.8446 47.3164 90.7588C47.2306 90.673 47.1877 90.5703 47.1877 90.4505C47.1877 90.3308 47.2306 90.228 47.3164 90.1422C47.4022 90.0565 47.5049 90.0136 47.6247 90.0136C47.7444 90.0136 47.8472 90.0565 47.933 90.1422C48.0187 90.228 48.0616 90.3308 48.0616 90.4505C48.0616 90.5298 48.0414 90.6026 48.0009 90.669C47.9621 90.7353 47.9095 90.7888 47.8431 90.8292C47.7784 90.8681 47.7056 90.8875 47.6247 90.8875ZM47.6247 88.1201C47.5049 88.1201 47.4022 88.0772 47.3164 87.9915C47.2306 87.9057 47.1877 87.8029 47.1877 87.6832C47.1877 87.5634 47.2306 87.4607 47.3164 87.3749C47.4022 87.2891 47.5049 87.2462 47.6247 87.2462C47.7444 87.2462 47.8472 87.2891 47.933 87.3749C48.0187 87.4607 48.0616 87.5634 48.0616 87.6832C48.0616 87.7625 48.0414 87.8353 48.0009 87.9017C47.9621 87.968 47.9095 88.0214 47.8431 88.0619C47.7784 88.1007 47.7056 88.1201 47.6247 88.1201ZM52.6241 90.9166C52.2584 90.9166 51.9468 90.8171 51.6895 90.618C51.4322 90.4173 51.2356 90.1269 51.0996 89.7466C50.9637 89.3646 50.8957 88.9034 50.8957 88.3629C50.8957 87.8256 50.9637 87.3668 51.0996 86.9865C51.2372 86.6046 51.4346 86.3133 51.6919 86.1126C51.9509 85.9103 52.2616 85.8092 52.6241 85.8092C52.9866 85.8092 53.2965 85.9103 53.5538 86.1126C53.8128 86.3133 54.0102 86.6046 54.1461 86.9865C54.2837 87.3668 54.3525 87.8256 54.3525 88.3629C54.3525 88.9034 54.2845 89.3646 54.1486 89.7466C54.0126 90.1269 53.816 90.4173 53.5587 90.618C53.3014 90.8171 52.9898 90.9166 52.6241 90.9166ZM52.6241 90.3826C52.9866 90.3826 53.2682 90.2078 53.4689 89.8582C53.6695 89.5087 53.7699 89.0102 53.7699 88.3629C53.7699 87.9324 53.7238 87.5659 53.6315 87.2632C53.5409 86.9606 53.4098 86.73 53.2383 86.5714C53.0683 86.4128 52.8636 86.3335 52.6241 86.3335C52.2648 86.3335 51.984 86.5107 51.7818 86.8651C51.5795 87.2179 51.4783 87.7172 51.4783 88.3629C51.4783 88.7934 51.5236 89.1591 51.6143 89.4601C51.7049 89.7611 51.8352 89.9901 52.0051 90.1471C52.1766 90.3041 52.383 90.3826 52.6241 90.3826ZM55.5286 90.8875C55.4088 90.8875 55.3061 90.8446 55.2203 90.7588C55.1345 90.673 55.0916 90.5703 55.0916 90.4505C55.0916 90.3308 55.1345 90.228 55.2203 90.1422C55.3061 90.0565 55.4088 90.0136 55.5286 90.0136C55.6483 90.0136 55.7511 90.0565 55.8369 90.1422C55.9227 90.228 55.9655 90.3308 55.9655 90.4505C55.9655 90.5298 55.9453 90.6026 55.9049 90.669C55.866 90.7353 55.8134 90.7888 55.7471 90.8292C55.6823 90.8681 55.6095 90.8875 55.5286 90.8875ZM56.9839 90.8486V90.4117L58.6249 88.6153C58.8174 88.405 58.976 88.2221 59.1006 88.0667C59.2253 87.9097 59.3175 87.7625 59.3774 87.6249C59.4389 87.4857 59.4696 87.3401 59.4696 87.188C59.4696 87.0132 59.4276 86.8619 59.3434 86.734C59.2609 86.6062 59.1476 86.5075 59.0035 86.4379C58.8595 86.3683 58.6977 86.3335 58.5181 86.3335C58.3271 86.3335 58.1604 86.3731 58.018 86.4524C57.8772 86.5301 57.768 86.6394 57.6903 86.7802C57.6142 86.9209 57.5762 87.086 57.5762 87.2754H57.0033C57.0033 86.9841 57.0705 86.7284 57.2048 86.5083C57.3391 86.2882 57.522 86.1166 57.7534 85.9936C57.9864 85.8707 58.2478 85.8092 58.5375 85.8092C58.8288 85.8092 59.0869 85.8707 59.3118 85.9936C59.5368 86.1166 59.7132 86.2825 59.841 86.4913C59.9689 86.7 60.0328 86.9323 60.0328 87.188C60.0328 87.3708 59.9996 87.5497 59.9333 87.7244C59.8685 87.8976 59.7553 88.091 59.5934 88.3046C59.4332 88.5166 59.2107 88.7756 58.9259 89.0814L57.8092 90.2757V90.3146H60.1202V90.8486H56.9839ZM62.7443 90.9166C62.3786 90.9166 62.067 90.8171 61.8097 90.618C61.5524 90.4173 61.3558 90.1269 61.2198 89.7466C61.0839 89.3646 61.0159 88.9034 61.0159 88.3629C61.0159 87.8256 61.0839 87.3668 61.2198 86.9865C61.3574 86.6046 61.5548 86.3133 61.8122 86.1126C62.0711 85.9103 62.3818 85.8092 62.7443 85.8092C63.1068 85.8092 63.4167 85.9103 63.674 86.1126C63.933 86.3133 64.1304 86.6046 64.2664 86.9865C64.4039 87.3668 64.4727 87.8256 64.4727 88.3629C64.4727 88.9034 64.4047 89.3646 64.2688 89.7466C64.1328 90.1269 63.9362 90.4173 63.6789 90.618C63.4216 90.8171 63.1101 90.9166 62.7443 90.9166ZM62.7443 90.3826C63.1068 90.3826 63.3884 90.2078 63.5891 89.8582C63.7898 89.5087 63.8901 89.0102 63.8901 88.3629C63.8901 87.9324 63.844 87.5659 63.7517 87.2632C63.6611 86.9606 63.53 86.73 63.3585 86.5714C63.1885 86.4128 62.9838 86.3335 62.7443 86.3335C62.385 86.3335 62.1043 86.5107 61.902 86.8651C61.6997 87.2179 61.5985 87.7172 61.5985 88.3629C61.5985 88.7934 61.6439 89.1591 61.7345 89.4601C61.8251 89.7611 61.9554 89.9901 62.1253 90.1471C62.2968 90.3041 62.5032 90.3826 62.7443 90.3826ZM66.9779 85.8092C67.1818 85.8108 67.3857 85.8496 67.5896 85.9257C67.7935 86.0017 67.9796 86.128 68.1479 86.3044C68.3162 86.4791 68.4514 86.7178 68.5533 87.0205C68.6553 87.3231 68.7062 87.7026 68.7062 88.159C68.7062 88.6008 68.6642 88.9932 68.58 89.3363C68.4975 89.6778 68.3777 89.9658 68.2207 90.2005C68.0654 90.4351 67.876 90.6132 67.6527 90.7345C67.431 90.8559 67.1802 90.9166 66.9002 90.9166C66.6218 90.9166 66.3734 90.8616 66.1549 90.7515C65.9381 90.6399 65.7601 90.4853 65.6209 90.2879C65.4833 90.0888 65.3951 89.8582 65.3563 89.596H65.9486C66.002 89.8242 66.108 90.0128 66.2666 90.1617C66.4268 90.3089 66.638 90.3826 66.9002 90.3826C67.2837 90.3826 67.5864 90.2151 67.8081 89.8801C68.0314 89.5451 68.1431 89.0717 68.1431 88.46H68.1042C68.0136 88.5959 67.906 88.7132 67.7814 88.812C67.6568 88.9107 67.5184 88.9867 67.3663 89.0402C67.2141 89.0936 67.0523 89.1203 66.8808 89.1203C66.5959 89.1203 66.3346 89.0499 66.0967 88.9091C65.8604 88.7667 65.6711 88.5716 65.5286 88.324C65.3879 88.0748 65.3175 87.79 65.3175 87.4696C65.3175 87.1653 65.3854 86.887 65.5214 86.6345C65.6589 86.3804 65.8515 86.1781 66.0991 86.0276C66.3483 85.8771 66.6413 85.8043 66.9779 85.8092ZM66.9779 86.3432C66.774 86.3432 66.5903 86.3942 66.4268 86.4961C66.265 86.5965 66.1363 86.7324 66.0409 86.904C65.947 87.0739 65.9001 87.2624 65.9001 87.4696C65.9001 87.6767 65.9454 87.8652 66.036 88.0352C66.1282 88.2035 66.2537 88.3378 66.4123 88.4381C66.5725 88.5369 66.7545 88.5862 66.9584 88.5862C67.1122 88.5862 67.2554 88.5563 67.3881 88.4964C67.5208 88.4349 67.6365 88.3516 67.7352 88.2464C67.8356 88.1396 67.9141 88.019 67.9707 87.8847C68.0273 87.7487 68.0557 87.6071 68.0557 87.4599C68.0557 87.2657 68.0087 87.0836 67.9149 86.9137C67.8226 86.7437 67.6948 86.6062 67.5313 86.501C67.3695 86.3958 67.185 86.3432 66.9779 86.3432ZM73.0108 85.8771H73.6128V89.1688C73.6128 89.5087 73.5327 89.8121 73.3725 90.0791C73.2139 90.3445 72.9898 90.5541 72.7001 90.7078C72.4104 90.86 72.0705 90.936 71.6805 90.936C71.2905 90.936 70.9507 90.86 70.661 90.7078C70.3713 90.5541 70.1463 90.3445 69.9861 90.0791C69.8275 89.8121 69.7482 89.5087 69.7482 89.1688V85.8771H70.3503V89.1203C70.3503 89.363 70.4037 89.5791 70.5105 89.7684C70.6173 89.9561 70.7694 90.1042 70.9668 90.2126C71.1659 90.3194 71.4038 90.3728 71.6805 90.3728C71.9573 90.3728 72.1952 90.3194 72.3942 90.2126C72.5933 90.1042 72.7454 89.9561 72.8506 89.7684C72.9574 89.5791 73.0108 89.363 73.0108 89.1203V85.8771ZM77.5338 87.12C77.5047 86.874 77.3865 86.6831 77.1794 86.5471C76.9723 86.4112 76.7182 86.3432 76.4172 86.3432C76.1971 86.3432 76.0045 86.3788 75.8394 86.45C75.676 86.5212 75.5481 86.6191 75.4559 86.7437C75.3653 86.8684 75.3199 87.01 75.3199 87.1686C75.3199 87.3013 75.3515 87.4153 75.4146 87.5108C75.4793 87.6047 75.5619 87.6832 75.6622 87.7463C75.7626 87.8078 75.8677 87.8588 75.9778 87.8992C76.0878 87.9381 76.189 87.9696 76.2812 87.9939L76.7861 88.1298C76.9156 88.1638 77.0596 88.2108 77.2182 88.2706C77.3785 88.3305 77.5314 88.4122 77.677 88.5158C77.8243 88.6178 77.9457 88.7489 78.0412 88.9091C78.1366 89.0693 78.1844 89.2659 78.1844 89.4989C78.1844 89.7676 78.114 90.0103 77.9732 90.2272C77.834 90.4441 77.6301 90.6164 77.3615 90.7443C77.0944 90.8721 76.77 90.936 76.388 90.936C76.032 90.936 75.7237 90.8786 75.4632 90.7637C75.2042 90.6488 75.0003 90.4886 74.8514 90.283C74.7042 90.0775 74.6208 89.8388 74.6014 89.5669H75.2228C75.239 89.7546 75.3021 89.91 75.4122 90.033C75.5239 90.1544 75.6646 90.245 75.8346 90.3049C76.0061 90.3631 76.1906 90.3923 76.388 90.3923C76.6178 90.3923 76.8242 90.355 77.007 90.2806C77.1899 90.2045 77.3348 90.0993 77.4416 89.965C77.5484 89.8291 77.6018 89.6705 77.6018 89.4892C77.6018 89.3242 77.5557 89.1898 77.4634 89.0863C77.3712 88.9827 77.2498 88.8985 77.0993 88.8338C76.9488 88.7691 76.7861 88.7124 76.6114 88.6639L75.9996 88.4891C75.6112 88.3774 75.3038 88.218 75.0772 88.0109C74.8506 87.8037 74.7373 87.5327 74.7373 87.1977C74.7373 86.9193 74.8126 86.6766 74.9631 86.4694C75.1152 86.2607 75.3191 86.0988 75.5748 85.9839C75.8321 85.8674 76.1194 85.8092 76.4366 85.8092C76.757 85.8092 77.0418 85.8666 77.2911 85.9815C77.5403 86.0948 77.7377 86.2502 77.8834 86.4476C78.0306 86.645 78.1083 86.8692 78.1164 87.12H77.5338ZM80.7084 90.8486H79.1742V85.8771H80.7763C81.2586 85.8771 81.6713 85.9767 82.0144 86.1757C82.3574 86.3731 82.6204 86.6572 82.8033 87.0278C82.9862 87.3967 83.0776 87.8385 83.0776 88.3532C83.0776 88.871 82.9854 89.3169 82.8009 89.6907C82.6164 90.0629 82.3477 90.3494 81.9949 90.5501C81.6421 90.7491 81.2133 90.8486 80.7084 90.8486ZM79.7762 90.3146H80.6695C81.0806 90.3146 81.4212 90.2353 81.6915 90.0767C81.9618 89.9181 82.1632 89.6923 82.296 89.3994C82.4287 89.1065 82.495 88.7578 82.495 88.3532C82.495 87.9518 82.4295 87.6063 82.2984 87.3166C82.1673 87.0253 81.9715 86.802 81.7109 86.6466C81.4504 86.4897 81.1259 86.4112 80.7375 86.4112H79.7762V90.3146ZM83.6086 86.4112V85.8771H87.3372V86.4112H85.7739V90.8486H85.1719V86.4112H83.6086Z" fill="#99A0AE"/>
<path d="M162.17 78.0104C161.659 78.0083 161.222 77.8734 160.859 77.6059C160.497 77.3383 160.219 76.9488 160.027 76.4374C159.835 75.926 159.739 75.31 159.739 74.5893C159.739 73.8708 159.835 73.2569 160.027 72.7476C160.221 72.2384 160.5 71.85 160.862 71.5824C161.227 71.3149 161.663 71.1811 162.17 71.1811C162.677 71.1811 163.112 71.316 163.474 71.5857C163.837 71.8532 164.114 72.2416 164.306 72.7509C164.5 73.2579 164.597 73.8708 164.597 74.5893C164.597 75.3121 164.501 75.9293 164.309 76.4407C164.117 76.9499 163.84 77.3394 163.478 77.6091C163.115 77.8767 162.679 78.0104 162.17 78.0104ZM162.17 77.1462C162.619 77.1462 162.969 76.9272 163.222 76.4892C163.476 76.0512 163.604 75.4179 163.604 74.5893C163.604 74.0391 163.546 73.5741 163.429 73.1943C163.315 72.8124 163.15 72.5232 162.934 72.3269C162.72 72.1284 162.466 72.0291 162.17 72.0291C161.723 72.0291 161.373 72.2492 161.118 72.6894C160.863 73.1296 160.735 73.7629 160.733 74.5893C160.733 75.1417 160.79 75.6088 160.904 75.9908C161.021 76.3705 161.186 76.6586 161.4 76.855C161.613 77.0491 161.87 77.1462 162.17 77.1462ZM166.056 77.9619C165.879 77.9619 165.727 77.8993 165.599 77.7742C165.472 77.6469 165.408 77.4937 165.408 77.3146C165.408 77.1376 165.472 76.9866 165.599 76.8614C165.727 76.7341 165.879 76.6705 166.056 76.6705C166.233 76.6705 166.385 76.7341 166.512 76.8614C166.639 76.9866 166.703 77.1376 166.703 77.3146C166.703 77.4332 166.673 77.5422 166.612 77.6415C166.554 77.7386 166.476 77.8162 166.379 77.8745C166.282 77.9328 166.174 77.9619 166.056 77.9619ZM169.953 78.0104C169.442 78.0083 169.005 77.8734 168.643 77.6059C168.28 77.3383 168.003 76.9488 167.811 76.4374C167.619 75.926 167.523 75.31 167.523 74.5893C167.523 73.8708 167.619 73.2569 167.811 72.7476C168.005 72.2384 168.283 71.85 168.646 71.5824C169.011 71.3149 169.446 71.1811 169.953 71.1811C170.461 71.1811 170.895 71.316 171.258 71.5857C171.62 71.8532 171.898 72.2416 172.09 72.7509C172.284 73.2579 172.381 73.8708 172.381 74.5893C172.381 75.3121 172.285 75.9293 172.093 76.4407C171.901 76.9499 171.624 77.3394 171.261 77.6091C170.899 77.8767 170.463 78.0104 169.953 78.0104ZM169.953 77.1462C170.402 77.1462 170.753 76.9272 171.005 76.4892C171.26 76.0512 171.387 75.4179 171.387 74.5893C171.387 74.0391 171.329 73.5741 171.213 73.1943C171.098 72.8124 170.933 72.5232 170.717 72.3269C170.504 72.1284 170.249 72.0291 169.953 72.0291C169.507 72.0291 169.156 72.2492 168.902 72.6894C168.647 73.1296 168.519 73.7629 168.516 74.5893C168.516 75.1417 168.574 75.6088 168.688 75.9908C168.804 76.3705 168.97 76.6586 169.183 76.855C169.397 77.0491 169.654 77.1462 169.953 77.1462ZM175.737 78.0104C175.225 78.0083 174.788 77.8734 174.426 77.6059C174.063 77.3383 173.786 76.9488 173.594 76.4374C173.402 75.926 173.306 75.31 173.306 74.5893C173.306 73.8708 173.402 73.2569 173.594 72.7476C173.788 72.2384 174.067 71.85 174.429 71.5824C174.794 71.3149 175.23 71.1811 175.737 71.1811C176.244 71.1811 176.679 71.316 177.041 71.5857C177.404 71.8532 177.681 72.2416 177.873 72.7509C178.067 73.2579 178.164 73.8708 178.164 74.5893C178.164 75.3121 178.068 75.9293 177.876 76.4407C177.684 76.9499 177.407 77.3394 177.044 77.6091C176.682 77.8767 176.246 78.0104 175.737 78.0104ZM175.737 77.1462C176.185 77.1462 176.536 76.9272 176.789 76.4892C177.043 76.0512 177.17 75.4179 177.17 74.5893C177.17 74.0391 177.112 73.5741 176.996 73.1943C176.881 72.8124 176.716 72.5232 176.501 72.3269C176.287 72.1284 176.032 72.0291 175.737 72.0291C175.29 72.0291 174.939 72.2492 174.685 72.6894C174.43 73.1296 174.302 73.7629 174.3 74.5893C174.3 75.1417 174.357 75.6088 174.471 75.9908C174.588 76.3705 174.753 76.6586 174.966 76.855C175.18 77.0491 175.437 77.1462 175.737 77.1462ZM185.877 71.2717H186.881V75.6315C186.881 76.0954 186.772 76.5065 186.554 76.8647C186.336 77.2207 186.029 77.5012 185.635 77.7062C185.24 77.909 184.777 78.0104 184.246 78.0104C183.717 78.0104 183.256 77.909 182.861 77.7062C182.466 77.5012 182.159 77.2207 181.941 76.8647C181.724 76.5065 181.615 76.0954 181.615 75.6315V71.2717H182.615V75.5506C182.615 75.8505 182.681 76.117 182.812 76.35C182.946 76.5831 183.135 76.7665 183.379 76.9003C183.622 77.0319 183.912 77.0977 184.246 77.0977C184.583 77.0977 184.873 77.0319 185.117 76.9003C185.363 76.7665 185.55 76.5831 185.68 76.35C185.811 76.117 185.877 75.8505 185.877 75.5506V71.2717ZM191.85 73.013C191.815 72.7066 191.673 72.4693 191.423 72.301C191.172 72.1305 190.857 72.0453 190.477 72.0453C190.206 72.0453 189.97 72.0884 189.772 72.1747C189.573 72.2589 189.419 72.3754 189.309 72.5243C189.201 72.671 189.147 72.8383 189.147 73.026C189.147 73.1835 189.184 73.3194 189.257 73.4338C189.333 73.5482 189.431 73.6442 189.552 73.7219C189.675 73.7974 189.806 73.861 189.947 73.9128C190.087 73.9625 190.222 74.0035 190.351 74.0358L190.999 74.2041C191.21 74.2559 191.427 74.326 191.649 74.4145C191.871 74.503 192.077 74.6195 192.267 74.7641C192.457 74.9086 192.61 75.0877 192.727 75.3014C192.846 75.515 192.905 75.7707 192.905 76.0684C192.905 76.4439 192.808 76.7773 192.614 77.0686C192.422 77.3599 192.142 77.5897 191.775 77.758C191.411 77.9263 190.969 78.0104 190.452 78.0104C189.955 78.0104 189.526 77.9317 189.163 77.7742C188.801 77.6166 188.517 77.3933 188.312 77.1042C188.107 76.8129 187.994 76.4676 187.972 76.0684H188.976C188.995 76.308 189.073 76.5075 189.209 76.6672C189.347 76.8247 189.523 76.9423 189.736 77.02C189.952 77.0955 190.188 77.1333 190.445 77.1333C190.728 77.1333 190.979 77.0891 191.199 77.0006C191.421 76.91 191.596 76.7848 191.724 76.6251C191.851 76.4633 191.915 76.2745 191.915 76.0587C191.915 75.8624 191.858 75.7016 191.746 75.5765C191.636 75.4513 191.486 75.3477 191.296 75.2658C191.109 75.1838 190.896 75.1115 190.659 75.0489L189.875 74.8353C189.345 74.6907 188.924 74.4782 188.613 74.1977C188.305 73.9171 188.15 73.546 188.15 73.0842C188.15 72.7023 188.254 72.3689 188.461 72.0841C188.668 71.7993 188.949 71.5781 189.303 71.4206C189.656 71.2609 190.056 71.1811 190.5 71.1811C190.949 71.1811 191.345 71.2598 191.688 71.4174C192.033 71.5749 192.305 71.7917 192.504 72.0679C192.702 72.342 192.806 72.657 192.814 73.013H191.85ZM196.146 77.9004H194V71.2717H196.214C196.863 71.2717 197.421 71.4044 197.887 71.6698C198.353 71.9331 198.71 72.3118 198.958 72.8059C199.209 73.2979 199.334 73.888 199.334 74.5763C199.334 75.2668 199.208 75.8602 198.955 76.3565C198.705 76.8528 198.342 77.2347 197.868 77.5023C197.393 77.7677 196.819 77.9004 196.146 77.9004ZM195 77.0265H196.091C196.596 77.0265 197.015 76.9316 197.35 76.7417C197.684 76.5496 197.934 76.2724 198.101 75.9098C198.267 75.5452 198.35 75.1007 198.35 74.5763C198.35 74.0563 198.267 73.6151 198.101 73.2526C197.937 72.89 197.692 72.6149 197.366 72.4272C197.04 72.2395 196.636 72.1456 196.152 72.1456H195V77.0265ZM199.866 72.1327V71.2717H204.996V72.1327H202.927V77.9004H201.93V72.1327H199.866Z" fill="#99A0AE"/>
<path d="M190.205 91.8001V85.5858H190.604V91.8001H190.205ZM191.545 87.4501C191.516 87.2041 191.398 87.0131 191.191 86.8772C190.984 86.7413 190.73 86.6733 190.429 86.6733C190.209 86.6733 190.016 86.7089 189.851 86.7801C189.688 86.8513 189.56 86.9492 189.467 87.0738C189.377 87.1984 189.332 87.34 189.332 87.4986C189.332 87.6313 189.363 87.7454 189.426 87.8409C189.491 87.9348 189.573 88.0133 189.674 88.0764C189.774 88.1379 189.879 88.1888 189.989 88.2293C190.099 88.2681 190.201 88.2997 190.293 88.324L190.798 88.4599C190.927 88.4939 191.071 88.5408 191.23 88.6007C191.39 88.6606 191.543 88.7423 191.689 88.8459C191.836 88.9478 191.957 89.0789 192.053 89.2391C192.148 89.3994 192.196 89.596 192.196 89.829C192.196 90.0977 192.126 90.3404 191.985 90.5573C191.846 90.7741 191.642 90.9465 191.373 91.0743C191.106 91.2022 190.782 91.2661 190.4 91.2661C190.044 91.2661 189.735 91.2087 189.475 91.0937C189.216 90.9788 189.012 90.8186 188.863 90.6131C188.716 90.4076 188.632 90.1689 188.613 89.897H189.234C189.251 90.0847 189.314 90.2401 189.424 90.3631C189.535 90.4844 189.676 90.5751 189.846 90.635C190.018 90.6932 190.202 90.7223 190.4 90.7223C190.629 90.7223 190.836 90.6851 191.019 90.6107C191.202 90.5346 191.346 90.4294 191.453 90.2951C191.56 90.1592 191.613 90.0006 191.613 89.8193C191.613 89.6542 191.567 89.5199 191.475 89.4164C191.383 89.3128 191.261 89.2286 191.111 89.1639C190.96 89.0992 190.798 89.0425 190.623 88.994L190.011 88.8192C189.623 88.7075 189.315 88.5481 189.089 88.341C188.862 88.1338 188.749 87.8628 188.749 87.5278C188.749 87.2494 188.824 87.0067 188.975 86.7995C189.127 86.5907 189.331 86.4289 189.586 86.314C189.844 86.1975 190.131 86.1392 190.448 86.1392C190.769 86.1392 191.053 86.1967 191.303 86.3116C191.552 86.4249 191.749 86.5802 191.895 86.7777C192.042 86.9751 192.12 87.1992 192.128 87.4501H191.545ZM194.846 86.2072V91.1787H194.244V86.8384H194.215L193.001 87.6443V87.0326L194.244 86.2072H194.846ZM196.41 91.2176C196.29 91.2176 196.187 91.1747 196.101 91.0889C196.015 91.0031 195.973 90.9004 195.973 90.7806C195.973 90.6608 196.015 90.5581 196.101 90.4723C196.187 90.3865 196.29 90.3437 196.41 90.3437C196.529 90.3437 196.632 90.3865 196.718 90.4723C196.804 90.5581 196.846 90.6608 196.846 90.7806C196.846 90.8599 196.826 90.9327 196.786 90.9991C196.747 91.0654 196.694 91.1188 196.628 91.1593C196.563 91.1981 196.49 91.2176 196.41 91.2176ZM197.6 89.9358H198.212C198.23 90.1041 198.287 90.2466 198.384 90.3631C198.483 90.478 198.611 90.5654 198.768 90.6252C198.925 90.6835 199.099 90.7126 199.29 90.7126C199.497 90.7126 199.683 90.6778 199.848 90.6083C200.013 90.5387 200.144 90.4351 200.241 90.2975C200.338 90.1584 200.387 89.986 200.387 89.7805C200.387 89.6008 200.345 89.4342 200.261 89.2804C200.177 89.1251 200.041 88.9996 199.855 88.9041C199.669 88.8087 199.422 88.7609 199.115 88.7609H198.717V88.2754L199.96 86.7801V86.7413H197.843V86.2072H200.785V86.6442L199.455 88.256V88.2948C199.668 88.3046 199.867 88.3483 200.052 88.4259C200.238 88.5036 200.4 88.6088 200.537 88.7415C200.677 88.8742 200.785 89.0288 200.863 89.2052C200.94 89.3816 200.979 89.5733 200.979 89.7805C200.979 90.0637 200.906 90.3161 200.761 90.5379C200.617 90.7579 200.417 90.9311 200.161 91.0573C199.907 91.1836 199.613 91.2467 199.28 91.2467C198.985 91.2467 198.714 91.1949 198.467 91.0913C198.219 90.9877 198.018 90.8381 197.862 90.6422C197.707 90.4464 197.62 90.211 197.6 89.9358ZM203.592 91.2467C203.226 91.2467 202.915 91.1472 202.657 90.9481C202.4 90.7474 202.203 90.4569 202.067 90.0766C201.931 89.6947 201.863 89.2335 201.863 88.693C201.863 88.1557 201.931 87.6969 202.067 87.3166C202.205 86.9346 202.402 86.6433 202.66 86.4427C202.919 86.2404 203.229 86.1392 203.592 86.1392C203.954 86.1392 204.264 86.2404 204.522 86.4427C204.781 86.6433 204.978 86.9346 205.114 87.3166C205.251 87.6969 205.32 88.1557 205.32 88.693C205.32 89.2335 205.252 89.6947 205.116 90.0766C204.98 90.4569 204.784 90.7474 204.526 90.9481C204.269 91.1472 203.958 91.2467 203.592 91.2467ZM203.592 90.7126C203.954 90.7126 204.236 90.5379 204.437 90.1883C204.637 89.8387 204.738 89.3403 204.738 88.693C204.738 88.2625 204.692 87.8959 204.599 87.5933C204.509 87.2907 204.378 87.0601 204.206 86.9015C204.036 86.7429 203.831 86.6636 203.592 86.6636C203.233 86.6636 202.952 86.8408 202.75 87.1952C202.547 87.548 202.446 88.0472 202.446 88.693C202.446 89.1234 202.491 89.4892 202.582 89.7902C202.673 90.0912 202.803 90.3202 202.973 90.4772C203.144 90.6341 203.351 90.7126 203.592 90.7126Z" fill="#99A0AE"/>
<g clip-path="url(#clip4_7253_17880)">
<path d="M105.41 58.4354C105.41 53.7163 109.236 49.8906 113.955 49.8906C118.674 49.8906 122.5 53.7163 122.5 58.4354C122.5 63.1545 118.674 66.9802 113.955 66.9802C109.236 66.9802 105.41 63.1545 105.41 58.4354Z" fill="white"/>
<path d="M114.381 60.217L116.673 57.9252L117.277 58.5294L113.954 61.8524L110.631 58.5294L111.235 57.9252L113.527 60.217V55.0166H114.381V60.217Z" fill="#335CFF"/>
<rect x="119.937" y="57.5797" width="3.41791" height="1.70896" fill="white"/>
<rect x="119.937" y="57.5797" width="3.41791" height="1.70896" stroke="white" stroke-width="0.569652"/>
</g>
<path d="M113.955 50.0332C118.596 50.0333 122.357 53.7951 122.357 58.4355C122.357 63.0759 118.595 66.8378 113.955 66.8379C109.315 66.8379 105.553 63.076 105.553 58.4355C105.553 53.7951 109.315 50.0332 113.955 50.0332Z" stroke="#E1E4EA" stroke-width="0.284826"/>
</g>
<defs>
<filter id="filter0_dd_7253_17880" x="0" y="0" width="227.34" height="115.294" filterUnits="userSpaceOnUse" color-interpolation-filters="sRGB">
<feFlood flood-opacity="0" result="BackgroundImageFix"/>
<feColorMatrix in="SourceAlpha" type="matrix" values="0 0 0 0 0 0 0 0 0 0 0 0 0 0 0 0 0 0 127 0" result="hardAlpha"/>
<feMorphology radius="0.5" operator="dilate" in="SourceAlpha" result="effect1_dropShadow_7253_17880"/>
<feOffset/>
<feComposite in2="hardAlpha" operator="out"/>
<feColorMatrix type="matrix" values="0 0 0 0 0.884 0 0 0 0 0.893143 0 0 0 0 0.916 0 0 0 1 0"/>
<feBlend mode="normal" in2="BackgroundImageFix" result="effect1_dropShadow_7253_17880"/>
<feColorMatrix in="SourceAlpha" type="matrix" values="0 0 0 0 0 0 0 0 0 0 0 0 0 0 0 0 0 0 127 0" result="hardAlpha"/>
<feMorphology radius="2" operator="dilate" in="SourceAlpha" result="effect2_dropShadow_7253_17880"/>
<feOffset/>
<feGaussianBlur stdDeviation="3"/>
<feComposite in2="hardAlpha" operator="out"/>
<feColorMatrix type="matrix" values="0 0 0 0 0 0 0 0 0 0 0 0 0 0 0 0 0 0 0.05 0"/>
<feBlend mode="normal" in2="effect1_dropShadow_7253_17880" result="effect2_dropShadow_7253_17880"/>
<feBlend mode="normal" in="SourceGraphic" in2="effect2_dropShadow_7253_17880" result="shape"/>
</filter>
<clipPath id="clip0_7253_17880">
<rect width="47.7596" height="13.67" fill="white" transform="translate(21.1152 21.1143)"/>
</clipPath>
<clipPath id="clip1_7253_17880">
<rect width="13.67" height="13.67" fill="white" transform="translate(21.1152 21.1143)"/>
</clipPath>
<clipPath id="clip2_7253_17880">
<rect width="48.7596" height="13.67" fill="white" transform="translate(21.1152 67.9004)"/>
</clipPath>
<clipPath id="clip3_7253_17880">
<rect width="13.67" height="13.67" fill="white" transform="translate(21.1152 67.9004)"/>
</clipPath>
<clipPath id="clip4_7253_17880">
<path d="M105.41 58.4354C105.41 53.7163 109.236 49.8906 113.955 49.8906C118.674 49.8906 122.5 53.7163 122.5 58.4354C122.5 63.1545 118.674 66.9802 113.955 66.9802C109.236 66.9802 105.41 63.1545 105.41 58.4354Z" fill="white"/>
</clipPath>
</defs>
</svg>
