<svg width="228" height="116" viewBox="0 0 228 116" fill="none" xmlns="http://www.w3.org/2000/svg">
<g filter="url(#filter0_dd_7775_18276)">
<rect x="8" y="8" width="211.341" height="99.2935" rx="10" fill="white"/>
<rect x="12.1424" y="12.1424" width="203.056" height="44.2226" rx="5.85759" fill="#F5F7FA"/>
<rect x="12.1424" y="12.1424" width="203.056" height="44.2226" rx="5.85759" stroke="#E1E4EA" stroke-width="0.284826"/>
<g clip-path="url(#clip0_7775_18276)">
<g clip-path="url(#clip1_7775_18276)">
<path d="M27.9483 34.7843C31.7231 34.7843 34.7833 31.7241 34.7833 27.9493C34.7833 24.1744 31.7231 21.1143 27.9483 21.1143C24.1734 21.1143 21.1133 24.1744 21.1133 27.9493C21.1133 31.7241 24.1734 34.7843 27.9483 34.7843Z" fill="#F0F0F0"/>
<path d="M27.6484 27.95H34.7806C34.7806 27.3331 34.6984 26.7355 34.5451 26.167H27.6484V27.95Z" fill="#D80027"/>
<path d="M27.6484 24.3836H33.7774C33.359 23.7009 32.824 23.0974 32.2003 22.6006H27.6484V24.3836Z" fill="#D80027"/>
<path d="M27.9461 34.7847C29.5547 34.7847 31.0332 34.2287 32.2008 33.2988H23.6914C24.859 34.2287 26.3375 34.7847 27.9461 34.7847Z" fill="#D80027"/>
<path d="M22.1154 31.5155H33.779C34.1149 30.9674 34.3754 30.3682 34.5467 29.7324H21.3477C21.519 30.3682 21.7795 30.9674 22.1154 31.5155Z" fill="#D80027"/>
<path d="M24.2794 22.1816H24.9022L24.3229 22.6026L24.5442 23.2836L23.9648 22.8627L23.3855 23.2836L23.5767 22.6953C23.0665 23.1202 22.6194 23.618 22.251 24.1727H22.4506L22.0818 24.4406C22.0243 24.5365 21.9692 24.6339 21.9164 24.7327L22.0925 25.2747L21.7639 25.036C21.6823 25.209 21.6076 25.3859 21.5404 25.5666L21.7344 26.1638H22.4506L21.8712 26.5847L22.0925 27.2658L21.5132 26.8448L21.1661 27.097C21.1314 27.3762 21.1133 27.6606 21.1133 27.9493H27.9483C27.9483 24.1744 27.9483 23.7294 27.9483 21.1143C26.598 21.1143 25.3394 21.5059 24.2794 22.1816ZM24.5442 27.2658L23.9648 26.8448L23.3855 27.2658L23.6068 26.5847L23.0274 26.1638H23.7436L23.9648 25.4827L24.1861 26.1638H24.9022L24.3229 26.5847L24.5442 27.2658ZM24.3229 24.5936L24.5442 25.2747L23.9648 24.8538L23.3855 25.2747L23.6068 24.5936L23.0274 24.1727H23.7436L23.9648 23.4916L24.1861 24.1727H24.9022L24.3229 24.5936ZM26.9959 27.2658L26.4165 26.8448L25.8372 27.2658L26.0585 26.5847L25.4791 26.1638H26.1952L26.4165 25.4827L26.6378 26.1638H27.3539L26.7746 26.5847L26.9959 27.2658ZM26.7746 24.5936L26.9959 25.2747L26.4165 24.8538L25.8372 25.2747L26.0585 24.5936L25.4791 24.1727H26.1952L26.4165 23.4916L26.6378 24.1727H27.3539L26.7746 24.5936ZM26.7746 22.6026L26.9959 23.2836L26.4165 22.8627L25.8372 23.2836L26.0585 22.6026L25.4791 22.1816H26.1952L26.4165 21.5006L26.6378 22.1816H27.3539L26.7746 22.6026Z" fill="#0052B4"/>
</g>
<path d="M43.7069 25.1491H44.5848V28.9639C44.5848 29.3699 44.4895 29.7295 44.2988 30.043C44.1081 30.3545 43.84 30.5999 43.4945 30.7793C43.149 30.9568 42.744 31.0455 42.2795 31.0455C41.817 31.0455 41.4129 30.9568 41.0674 30.7793C40.7219 30.5999 40.4538 30.3545 40.2631 30.043C40.0724 29.7295 39.9771 29.3699 39.9771 28.9639V25.1491H40.8522V28.8931C40.8522 29.1556 40.9098 29.3887 41.0249 29.5927C41.142 29.7966 41.3072 29.957 41.5205 30.0741C41.7339 30.1893 41.9869 30.2469 42.2795 30.2469C42.5741 30.2469 42.828 30.1893 43.0414 30.0741C43.2566 29.957 43.4209 29.7966 43.5341 29.5927C43.6493 29.3887 43.7069 29.1556 43.7069 28.8931V25.1491ZM48.9727 26.6728C48.9425 26.4047 48.8179 26.197 48.5989 26.0497C48.3799 25.9006 48.1042 25.826 47.7719 25.826C47.534 25.826 47.3282 25.8638 47.1545 25.9393C46.9808 26.0129 46.8458 26.1149 46.7496 26.2451C46.6552 26.3735 46.608 26.5199 46.608 26.6841C46.608 26.8219 46.64 26.9409 46.7042 27.041C46.7703 27.141 46.8562 27.225 46.962 27.293C47.0696 27.3591 47.1848 27.4148 47.3075 27.4601C47.4302 27.5035 47.5482 27.5394 47.6615 27.5677L48.2279 27.715C48.4129 27.7603 48.6027 27.8217 48.7971 27.8991C48.9916 27.9765 49.1719 28.0784 49.3381 28.2049C49.5042 28.3314 49.6383 28.4881 49.7402 28.6751C49.8441 28.862 49.896 29.0857 49.896 29.3463C49.896 29.6748 49.811 29.9665 49.6411 30.2214C49.4731 30.4763 49.2286 30.6773 48.9076 30.8246C48.5885 30.9719 48.2024 31.0455 47.7493 31.0455C47.315 31.0455 46.9393 30.9766 46.6221 30.8388C46.3049 30.7009 46.0566 30.5055 45.8773 30.2525C45.6979 29.9976 45.5988 29.6956 45.5799 29.3463H46.4579C46.4748 29.5558 46.5428 29.7305 46.6618 29.8702C46.7826 30.008 46.9365 30.1109 47.1234 30.1789C47.3122 30.245 47.5189 30.278 47.7436 30.278C47.9909 30.278 48.2109 30.2393 48.4035 30.1619C48.598 30.0826 48.7509 29.9731 48.8623 29.8334C48.9737 29.6918 49.0294 29.5266 49.0294 29.3378C49.0294 29.166 48.9803 29.0253 48.8821 28.9158C48.7858 28.8063 48.6546 28.7157 48.4885 28.6439C48.3242 28.5722 48.1382 28.5089 47.9305 28.4542L47.2452 28.2672C46.7807 28.1407 46.4125 27.9548 46.1407 27.7093C45.8707 27.4639 45.7357 27.1391 45.7357 26.7351C45.7357 26.4009 45.8263 26.1092 46.0076 25.86C46.1888 25.6108 46.4343 25.4172 46.7439 25.2794C47.0535 25.1397 47.4028 25.0698 47.7918 25.0698C48.1845 25.0698 48.5309 25.1387 48.8311 25.2766C49.1332 25.4144 49.3711 25.6041 49.5448 25.8458C49.7185 26.0856 49.8091 26.3613 49.8167 26.6728H48.9727ZM52.7716 30.9492H50.8939V25.1491H52.831C53.3993 25.1491 53.8874 25.2652 54.2952 25.4975C54.703 25.7278 55.0155 26.0592 55.2326 26.4915C55.4516 26.922 55.5611 27.4384 55.5611 28.0407C55.5611 28.6449 55.4507 29.1641 55.2298 29.5983C55.0108 30.0326 54.6936 30.3668 54.2782 30.6009C53.8628 30.8331 53.3606 30.9492 52.7716 30.9492ZM51.769 30.1846H52.7234C53.1652 30.1846 53.5324 30.1015 53.8251 29.9353C54.1177 29.7673 54.3367 29.5247 54.4821 29.2075C54.6275 28.8884 54.7002 28.4995 54.7002 28.0407C54.7002 27.5857 54.6275 27.1996 54.4821 26.8824C54.3386 26.5652 54.1243 26.3244 53.8392 26.1602C53.5541 25.9959 53.2001 25.9138 52.7772 25.9138H51.769V30.1846Z" fill="#0E121B"/>
<path d="M63.176 28.4498L65.2908 26.335L65.8949 26.9391L63.176 29.658L60.457 26.9391L61.0611 26.335L63.176 28.4498Z" fill="#525866"/>
</g>
<path d="M21.7153 44.0625V39.091H23.4534C23.7997 39.091 24.0853 39.1509 24.3103 39.2706C24.5352 39.3888 24.7027 39.5482 24.8128 39.7488C24.9228 39.9479 24.9779 40.1688 24.9779 40.4116C24.9779 40.6252 24.9398 40.8016 24.8638 40.9407C24.7893 41.0799 24.6906 41.19 24.5676 41.2709C24.4462 41.3518 24.3143 41.4117 24.1719 41.4505V41.4991C24.324 41.5088 24.477 41.5622 24.6307 41.6593C24.7845 41.7564 24.9131 41.8956 25.0167 42.0768C25.1203 42.2581 25.172 42.4798 25.172 42.7419C25.172 42.9912 25.1154 43.2153 25.0021 43.4144C24.8888 43.6134 24.71 43.7712 24.4656 43.8877C24.2213 44.0042 23.9033 44.0625 23.5116 44.0625H21.7153ZM22.3173 43.5285H23.5116C23.9049 43.5285 24.1841 43.4524 24.3491 43.3003C24.5158 43.1465 24.5992 42.9604 24.5992 42.7419C24.5992 42.5736 24.5563 42.4183 24.4705 42.2759C24.3847 42.1318 24.2625 42.0169 24.104 41.9312C23.9454 41.8438 23.7576 41.8001 23.5408 41.8001H22.3173V43.5285ZM22.3173 41.2757H23.434C23.6152 41.2757 23.7787 41.2401 23.9243 41.1689C24.0716 41.0977 24.1881 40.9974 24.2739 40.8679C24.3613 40.7385 24.405 40.5863 24.405 40.4116C24.405 40.1931 24.3289 40.0078 24.1768 39.8557C24.0247 39.7019 23.7835 39.625 23.4534 39.625H22.3173V41.2757ZM27.1808 44.1499C26.9445 44.1499 26.7301 44.1054 26.5375 44.0164C26.3449 43.9258 26.192 43.7955 26.0787 43.6256C25.9654 43.454 25.9088 43.2469 25.9088 43.0041C25.9088 42.7905 25.9509 42.6173 26.035 42.4846C26.1192 42.3503 26.2317 42.2451 26.3724 42.1691C26.5132 42.093 26.6686 42.0364 26.8385 41.9991C27.0101 41.9603 27.1824 41.9295 27.3556 41.9069C27.5821 41.8778 27.7658 41.8559 27.9066 41.8413C28.049 41.8252 28.1526 41.7985 28.2173 41.7612C28.2837 41.724 28.3169 41.6593 28.3169 41.567V41.5476C28.3169 41.3081 28.2513 41.122 28.1202 40.9893C27.9908 40.8566 27.7941 40.7902 27.5304 40.7902C27.2569 40.7902 27.0424 40.8501 26.8871 40.9699C26.7317 41.0896 26.6225 41.2175 26.5594 41.3534L26.0156 41.1592C26.1127 40.9327 26.2422 40.7563 26.404 40.63C26.5675 40.5022 26.7455 40.4132 26.9381 40.363C27.1323 40.3112 27.3232 40.2853 27.5109 40.2853C27.6307 40.2853 27.7683 40.2999 27.9236 40.329C28.0806 40.3565 28.2319 40.414 28.3776 40.5014C28.5248 40.5888 28.647 40.7207 28.7441 40.897C28.8412 41.0734 28.8898 41.3097 28.8898 41.6059V44.0625H28.3169V43.5576H28.2877C28.2489 43.6385 28.1842 43.7251 28.0935 43.8173C28.0029 43.9096 27.8823 43.9881 27.7318 44.0528C27.5813 44.1175 27.3977 44.1499 27.1808 44.1499ZM27.2682 43.6353C27.4948 43.6353 27.6857 43.5908 27.8411 43.5017C27.9981 43.4127 28.1162 43.2978 28.1955 43.157C28.2764 43.0163 28.3169 42.8682 28.3169 42.7128V42.1885C28.2926 42.2176 28.2392 42.2443 28.1567 42.2686C28.0757 42.2912 27.9819 42.3115 27.8751 42.3293C27.7699 42.3455 27.6671 42.36 27.5668 42.373C27.4681 42.3843 27.3879 42.394 27.3265 42.4021C27.1776 42.4215 27.0384 42.4531 26.9089 42.4968C26.7811 42.5388 26.6775 42.6028 26.5982 42.6885C26.5205 42.7727 26.4817 42.8876 26.4817 43.0332C26.4817 43.2323 26.5553 43.3828 26.7026 43.4848C26.8515 43.5851 27.04 43.6353 27.2682 43.6353ZM30.5083 39.091V44.0625H29.9354V39.091H30.5083ZM32.6548 44.1499C32.4185 44.1499 32.2041 44.1054 32.0115 44.0164C31.8189 43.9258 31.666 43.7955 31.5527 43.6256C31.4394 43.454 31.3828 43.2469 31.3828 43.0041C31.3828 42.7905 31.4249 42.6173 31.509 42.4846C31.5932 42.3503 31.7056 42.2451 31.8464 42.1691C31.9872 42.093 32.1426 42.0364 32.3125 41.9991C32.4841 41.9603 32.6564 41.9295 32.8296 41.9069C33.0561 41.8778 33.2398 41.8559 33.3806 41.8413C33.523 41.8252 33.6266 41.7985 33.6913 41.7612C33.7577 41.724 33.7909 41.6593 33.7909 41.567V41.5476C33.7909 41.3081 33.7253 41.122 33.5942 40.9893C33.4648 40.8566 33.2681 40.7902 33.0044 40.7902C32.7309 40.7902 32.5164 40.8501 32.3611 40.9699C32.2057 41.0896 32.0965 41.2175 32.0334 41.3534L31.4896 41.1592C31.5867 40.9327 31.7162 40.7563 31.878 40.63C32.0415 40.5022 32.2195 40.4132 32.412 40.363C32.6062 40.3112 32.7972 40.2853 32.9849 40.2853C33.1047 40.2853 33.2423 40.2999 33.3976 40.329C33.5546 40.3565 33.7059 40.414 33.8516 40.5014C33.9988 40.5888 34.121 40.7207 34.2181 40.897C34.3152 41.0734 34.3638 41.3097 34.3638 41.6059V44.0625H33.7909V43.5576H33.7617C33.7229 43.6385 33.6582 43.7251 33.5675 43.8173C33.4769 43.9096 33.3563 43.9881 33.2058 44.0528C33.0553 44.1175 32.8717 44.1499 32.6548 44.1499ZM32.7422 43.6353C32.9688 43.6353 33.1597 43.5908 33.3151 43.5017C33.4721 43.4127 33.5902 43.2978 33.6695 43.157C33.7504 43.0163 33.7909 42.8682 33.7909 42.7128V42.1885C33.7666 42.2176 33.7132 42.2443 33.6306 42.2686C33.5497 42.2912 33.4559 42.3115 33.3491 42.3293C33.2439 42.3455 33.1411 42.36 33.0408 42.373C32.9421 42.3843 32.8619 42.394 32.8004 42.4021C32.6516 42.4215 32.5124 42.4531 32.3829 42.4968C32.2551 42.5388 32.1515 42.6028 32.0722 42.6885C31.9945 42.7727 31.9557 42.8876 31.9557 43.0332C31.9557 43.2323 32.0293 43.3828 32.1766 43.4848C32.3255 43.5851 32.514 43.6353 32.7422 43.6353ZM35.9823 41.8195V44.0625H35.4094V40.3339H35.9629V40.9165H36.0114C36.0988 40.7271 36.2315 40.575 36.4095 40.4601C36.5875 40.3436 36.8173 40.2853 37.0989 40.2853C37.3514 40.2853 37.5723 40.3371 37.7616 40.4407C37.951 40.5426 38.0982 40.698 38.2034 40.9068C38.3086 41.1139 38.3612 41.3761 38.3612 41.6933V44.0625H37.7883V41.7321C37.7883 41.4392 37.7123 41.211 37.5602 41.0476C37.408 40.8825 37.1993 40.7999 36.9339 40.7999C36.751 40.7999 36.5875 40.8396 36.4435 40.9189C36.3011 40.9982 36.1886 41.1139 36.1061 41.266C36.0236 41.4182 35.9823 41.6026 35.9823 41.8195ZM40.9228 44.1402C40.5733 44.1402 40.2723 44.0576 40.0198 43.8926C39.7674 43.7275 39.5732 43.5001 39.4372 43.2104C39.3013 42.9208 39.2333 42.5898 39.2333 42.2176C39.2333 41.8389 39.3029 41.5047 39.4421 41.2151C39.5829 40.9238 39.7787 40.6964 40.0295 40.5329C40.282 40.3679 40.5765 40.2853 40.9131 40.2853C41.1753 40.2853 41.4116 40.3339 41.622 40.431C41.8323 40.5281 42.0047 40.664 42.139 40.8388C42.2733 41.0136 42.3567 41.2175 42.389 41.4505H41.8162C41.7725 41.2806 41.6754 41.1301 41.5249 40.999C41.376 40.8663 41.1753 40.7999 40.9228 40.7999C40.6995 40.7999 40.5037 40.8582 40.3354 40.9747C40.1687 41.0896 40.0384 41.2523 39.9446 41.4627C39.8523 41.6714 39.8062 41.9166 39.8062 42.1982C39.8062 42.4862 39.8515 42.7371 39.9421 42.9507C40.0344 43.1643 40.1638 43.3302 40.3305 43.4483C40.4988 43.5665 40.6963 43.6256 40.9228 43.6256C41.0717 43.6256 41.2069 43.5997 41.3282 43.5479C41.4496 43.4961 41.5524 43.4216 41.6365 43.3245C41.7207 43.2274 41.7806 43.1109 41.8162 42.975H42.389C42.3567 43.1951 42.2766 43.3933 42.1487 43.5697C42.0225 43.7445 41.855 43.8837 41.6462 43.9872C41.4391 44.0892 41.198 44.1402 40.9228 44.1402ZM44.7898 44.1402C44.4306 44.1402 44.1207 44.0609 43.8601 43.9023C43.6012 43.7421 43.4013 43.5187 43.2605 43.2323C43.1213 42.9442 43.0518 42.6092 43.0518 42.2273C43.0518 41.8454 43.1213 41.5088 43.2605 41.2175C43.4013 40.9246 43.5971 40.6964 43.848 40.5329C44.1004 40.3679 44.395 40.2853 44.7316 40.2853C44.9258 40.2853 45.1175 40.3177 45.3069 40.3824C45.4962 40.4472 45.6686 40.5523 45.8239 40.698C45.9793 40.842 46.1031 41.033 46.1954 41.2709C46.2876 41.5088 46.3337 41.8017 46.3337 42.1496V42.3924H43.4596V41.8972H45.7511C45.7511 41.6868 45.709 41.4991 45.6249 41.334C45.5424 41.1689 45.4242 41.0387 45.2705 40.9432C45.1184 40.8477 44.9387 40.7999 44.7316 40.7999C44.5034 40.7999 44.306 40.8566 44.1393 40.9699C43.9742 41.0815 43.8472 41.2272 43.7582 41.4068C43.6691 41.5865 43.6246 41.779 43.6246 41.9846V42.3147C43.6246 42.5963 43.6732 42.835 43.7703 43.0308C43.869 43.225 44.0058 43.3731 44.1805 43.475C44.3553 43.5754 44.5584 43.6256 44.7898 43.6256C44.9403 43.6256 45.0763 43.6045 45.1977 43.5624C45.3206 43.5187 45.4266 43.454 45.5157 43.3682C45.6047 43.2808 45.6734 43.1724 45.722 43.043L46.2755 43.1983C46.2172 43.386 46.1193 43.5511 45.9817 43.6935C45.8442 43.8343 45.6743 43.9444 45.472 44.0237C45.2697 44.1013 45.0423 44.1402 44.7898 44.1402ZM47.6227 44.1013C47.503 44.1013 47.4002 44.0585 47.3144 43.9727C47.2287 43.8869 47.1858 43.7841 47.1858 43.6644C47.1858 43.5446 47.2287 43.4419 47.3144 43.3561C47.4002 43.2703 47.503 43.2274 47.6227 43.2274C47.7425 43.2274 47.8452 43.2703 47.931 43.3561C48.0168 43.4419 48.0597 43.5446 48.0597 43.6644C48.0597 43.7437 48.0394 43.8165 47.999 43.8829C47.9601 43.9492 47.9075 44.0026 47.8412 44.0431C47.7765 44.0819 47.7036 44.1013 47.6227 44.1013ZM47.6227 41.334C47.503 41.334 47.4002 41.2911 47.3144 41.2053C47.2287 41.1196 47.1858 41.0168 47.1858 40.897C47.1858 40.7773 47.2287 40.6745 47.3144 40.5888C47.4002 40.503 47.503 40.4601 47.6227 40.4601C47.7425 40.4601 47.8452 40.503 47.931 40.5888C48.0168 40.6745 48.0597 40.7773 48.0597 40.897C48.0597 40.9763 48.0394 41.0492 47.999 41.1155C47.9601 41.1819 47.9075 41.2353 47.8412 41.2757C47.7765 41.3146 47.7036 41.334 47.6227 41.334ZM52.4668 44.6839V38.4696H52.8649V44.6839H52.4668ZM53.8068 40.3339C53.7776 40.0879 53.6595 39.8969 53.4523 39.761C53.2452 39.625 52.9911 39.5571 52.6901 39.5571C52.47 39.5571 52.2774 39.5927 52.1124 39.6639C51.9489 39.7351 51.8211 39.833 51.7288 39.9576C51.6382 40.0822 51.5929 40.2238 51.5929 40.3824C51.5929 40.5151 51.6244 40.6292 51.6876 40.7247C51.7523 40.8186 51.8348 40.897 51.9352 40.9602C52.0355 41.0217 52.1407 41.0726 52.2507 41.1131C52.3608 41.1519 52.4619 41.1835 52.5542 41.2078L53.0591 41.3437C53.1886 41.3777 53.3326 41.4246 53.4912 41.4845C53.6514 41.5444 53.8043 41.6261 53.95 41.7297C54.0972 41.8316 54.2186 41.9627 54.3141 42.1229C54.4096 42.2831 54.4573 42.4798 54.4573 42.7128C54.4573 42.9815 54.3869 43.2242 54.2461 43.4411C54.107 43.6579 53.903 43.8303 53.6344 43.9581C53.3674 44.086 53.0429 44.1499 52.661 44.1499C52.305 44.1499 51.9967 44.0924 51.7361 43.9775C51.4772 43.8626 51.2733 43.7024 51.1244 43.4969C50.9771 43.2914 50.8938 43.0527 50.8743 42.7808H51.4958C51.512 42.9685 51.5751 43.1239 51.6851 43.2469C51.7968 43.3682 51.9376 43.4589 52.1075 43.5187C52.2791 43.577 52.4635 43.6061 52.661 43.6061C52.8908 43.6061 53.0971 43.5689 53.28 43.4945C53.4629 43.4184 53.6077 43.3132 53.7145 43.1789C53.8213 43.043 53.8747 42.8844 53.8747 42.7031C53.8747 42.538 53.8286 42.4037 53.7364 42.3001C53.6441 42.1966 53.5227 42.1124 53.3722 42.0477C53.2217 41.9829 53.0591 41.9263 52.8843 41.8778L52.2726 41.703C51.8842 41.5913 51.5767 41.4319 51.3501 41.2248C51.1236 41.0176 51.0103 40.7465 51.0103 40.4116C51.0103 40.1332 51.0855 39.8904 51.236 39.6833C51.3882 39.4745 51.5921 39.3127 51.8478 39.1978C52.1051 39.0813 52.3923 39.023 52.7095 39.023C53.03 39.023 53.3148 39.0805 53.564 39.1954C53.8132 39.3087 54.0107 39.464 54.1563 39.6615C54.3036 39.8589 54.3813 40.083 54.3894 40.3339H53.8068ZM55.3597 44.0625V43.6256L57.0007 41.8292C57.1933 41.6188 57.3519 41.436 57.4765 41.2806C57.6011 41.1236 57.6934 40.9763 57.7533 40.8388C57.8148 40.6996 57.8455 40.554 57.8455 40.4018C57.8455 40.2271 57.8034 40.0757 57.7193 39.9479C57.6367 39.8201 57.5235 39.7213 57.3794 39.6517C57.2354 39.5822 57.0736 39.5474 56.8939 39.5474C56.703 39.5474 56.5363 39.587 56.3939 39.6663C56.2531 39.744 56.1438 39.8532 56.0661 39.994C55.9901 40.1348 55.9521 40.2999 55.9521 40.4892H55.3792C55.3792 40.1979 55.4463 39.9422 55.5806 39.7221C55.715 39.502 55.8978 39.3305 56.1293 39.2075C56.3623 39.0845 56.6237 39.023 56.9133 39.023C57.2046 39.023 57.4628 39.0845 57.6877 39.2075C57.9127 39.3305 58.0891 39.4964 58.2169 39.7051C58.3448 39.9139 58.4087 40.1461 58.4087 40.4018C58.4087 40.5847 58.3755 40.7635 58.3092 40.9383C58.2444 41.1115 58.1311 41.3049 57.9693 41.5185C57.8091 41.7305 57.5866 41.9894 57.3017 42.2953L56.1851 43.4896V43.5285H58.4961V44.0625H55.3597ZM61.0522 44.1305C60.7674 44.1305 60.5109 44.0738 60.2827 43.9605C60.0545 43.8473 59.8716 43.6919 59.7341 43.4945C59.5965 43.297 59.5213 43.0721 59.5083 42.8196H60.0909C60.1136 43.0446 60.2155 43.2307 60.3968 43.3779C60.5797 43.5236 60.7981 43.5964 61.0522 43.5964C61.2561 43.5964 61.4374 43.5487 61.596 43.4532C61.7562 43.3577 61.8816 43.2266 61.9722 43.0599C62.0645 42.8916 62.1106 42.7015 62.1106 42.4895C62.1106 42.2726 62.0629 42.0792 61.9674 41.9093C61.8735 41.7378 61.7441 41.6026 61.579 41.5039C61.4139 41.4052 61.2254 41.355 61.0134 41.3534C60.8613 41.3518 60.7051 41.3753 60.5449 41.4238C60.3847 41.4707 60.2528 41.5314 60.1492 41.6059L59.586 41.5379L59.887 39.091H62.4699V39.625H60.3919L60.2172 41.0912H60.2463C60.3482 41.0103 60.4761 40.9432 60.6298 40.8898C60.7836 40.8364 60.9438 40.8097 61.1105 40.8097C61.4147 40.8097 61.6858 40.8825 61.9237 41.0281C62.1632 41.1722 62.3509 41.3696 62.4869 41.6204C62.6244 41.8713 62.6932 42.1577 62.6932 42.4798C62.6932 42.797 62.622 43.0802 62.4796 43.3294C62.3388 43.577 62.1446 43.7728 61.897 43.9169C61.6494 44.0593 61.3678 44.1305 61.0522 44.1305ZM64.3348 43.3828L64.296 43.645C64.2684 43.8295 64.2264 44.0269 64.1697 44.2373C64.1147 44.4477 64.0573 44.6459 63.9974 44.832C63.9375 45.0181 63.8881 45.1662 63.8493 45.2762H63.4124C63.4334 45.1727 63.4609 45.0359 63.4949 44.866C63.5289 44.6961 63.5629 44.5059 63.5968 44.2955C63.6324 44.0868 63.6616 43.8732 63.6842 43.6547L63.7134 43.3828H64.3348ZM66.8345 44.1305C66.4688 44.1305 66.1572 44.0309 65.8999 43.8319C65.6426 43.6312 65.446 43.3407 65.31 42.9604C65.1741 42.5785 65.1061 42.1173 65.1061 41.5767C65.1061 41.0395 65.1741 40.5807 65.31 40.2004C65.4476 39.8184 65.645 39.5271 65.9024 39.3265C66.1613 39.1242 66.472 39.023 66.8345 39.023C67.197 39.023 67.5069 39.1242 67.7642 39.3265C68.0232 39.5271 68.2206 39.8184 68.3565 40.2004C68.4941 40.5807 68.5629 41.0395 68.5629 41.5767C68.5629 42.1173 68.4949 42.5785 68.359 42.9604C68.223 43.3407 68.0264 43.6312 67.7691 43.8319C67.5118 44.0309 67.2003 44.1305 66.8345 44.1305ZM66.8345 43.5964C67.197 43.5964 67.4786 43.4216 67.6793 43.0721C67.8799 42.7225 67.9803 42.2241 67.9803 41.5767C67.9803 41.1463 67.9342 40.7797 67.8419 40.4771C67.7513 40.1745 67.6202 39.9439 67.4487 39.7853C67.2787 39.6267 67.074 39.5474 66.8345 39.5474C66.4752 39.5474 66.1945 39.7246 65.9922 40.079C65.7899 40.4318 65.6887 40.931 65.6887 41.5767C65.6887 42.0072 65.734 42.373 65.8247 42.674C65.9153 42.975 66.0456 43.204 66.2155 43.361C66.387 43.5179 66.5934 43.5964 66.8345 43.5964ZM71.1069 44.1305C70.7412 44.1305 70.4296 44.0309 70.1723 43.8319C69.915 43.6312 69.7184 43.3407 69.5824 42.9604C69.4465 42.5785 69.3785 42.1173 69.3785 41.5767C69.3785 41.0395 69.4465 40.5807 69.5824 40.2004C69.72 39.8184 69.9174 39.5271 70.1747 39.3265C70.4337 39.1242 70.7444 39.023 71.1069 39.023C71.4694 39.023 71.7793 39.1242 72.0366 39.3265C72.2956 39.5271 72.493 39.8184 72.6289 40.2004C72.7665 40.5807 72.8353 41.0395 72.8353 41.5767C72.8353 42.1173 72.7673 42.5785 72.6314 42.9604C72.4954 43.3407 72.2988 43.6312 72.0415 43.8319C71.7842 44.0309 71.4726 44.1305 71.1069 44.1305ZM71.1069 43.5964C71.4694 43.5964 71.751 43.4216 71.9517 43.0721C72.1523 42.7225 72.2527 42.2241 72.2527 41.5767C72.2527 41.1463 72.2066 40.7797 72.1143 40.4771C72.0237 40.1745 71.8926 39.9439 71.7211 39.7853C71.5511 39.6267 71.3464 39.5474 71.1069 39.5474C70.7476 39.5474 70.4668 39.7246 70.2646 40.079C70.0623 40.4318 69.9611 40.931 69.9611 41.5767C69.9611 42.0072 70.0064 42.373 70.0971 42.674C70.1877 42.975 70.318 43.204 70.4879 43.361C70.6594 43.5179 70.8658 43.5964 71.1069 43.5964ZM75.3793 44.1305C75.0135 44.1305 74.702 44.0309 74.4447 43.8319C74.1874 43.6312 73.9908 43.3407 73.8548 42.9604C73.7189 42.5785 73.6509 42.1173 73.6509 41.5767C73.6509 41.0395 73.7189 40.5807 73.8548 40.2004C73.9924 39.8184 74.1898 39.5271 74.4471 39.3265C74.7061 39.1242 75.0168 39.023 75.3793 39.023C75.7418 39.023 76.0517 39.1242 76.309 39.3265C76.5679 39.5271 76.7654 39.8184 76.9013 40.2004C77.0389 40.5807 77.1077 41.0395 77.1077 41.5767C77.1077 42.1173 77.0397 42.5785 76.9038 42.9604C76.7678 43.3407 76.5712 43.6312 76.3139 43.8319C76.0566 44.0309 75.745 44.1305 75.3793 44.1305ZM75.3793 43.5964C75.7418 43.5964 76.0234 43.4216 76.2241 43.0721C76.4247 42.7225 76.5251 42.2241 76.5251 41.5767C76.5251 41.1463 76.4789 40.7797 76.3867 40.4771C76.2961 40.1745 76.165 39.9439 75.9934 39.7853C75.8235 39.6267 75.6188 39.5474 75.3793 39.5474C75.02 39.5474 74.7392 39.7246 74.5369 40.079C74.3347 40.4318 74.2335 40.931 74.2335 41.5767C74.2335 42.0072 74.2788 42.373 74.3694 42.674C74.4601 42.975 74.5904 43.204 74.7603 43.361C74.9318 43.5179 75.1382 43.5964 75.3793 43.5964Z" fill="#99A0AE"/>
<path d="M189.172 31.2243C188.661 31.2221 188.224 31.0873 187.861 30.8197C187.499 30.5522 187.221 30.1627 187.029 29.6513C186.837 29.1399 186.741 28.5239 186.741 27.8032C186.741 27.0846 186.837 26.4707 187.029 25.9615C187.223 25.4523 187.502 25.0639 187.864 24.7963C188.229 24.5287 188.665 24.395 189.172 24.395C189.679 24.395 190.114 24.5298 190.476 24.7995C190.839 25.0671 191.116 25.4555 191.308 25.9647C191.502 26.4718 191.599 27.0846 191.599 27.8032C191.599 28.526 191.503 29.1431 191.311 29.6545C191.119 30.1638 190.842 30.5532 190.48 30.823C190.117 31.0905 189.681 31.2243 189.172 31.2243ZM189.172 30.3601C189.621 30.3601 189.971 30.1411 190.224 29.7031C190.478 29.265 190.606 28.6317 190.606 27.8032C190.606 27.2529 190.548 26.7879 190.431 26.4082C190.317 26.0262 190.152 25.7371 189.936 25.5407C189.722 25.3422 189.468 25.243 189.172 25.243C188.725 25.243 188.375 25.4631 188.12 25.9032C187.865 26.3434 187.737 26.9767 187.735 27.8032C187.735 28.3555 187.792 28.8227 187.906 29.2046C188.023 29.5844 188.188 29.8725 188.402 30.0688C188.615 30.263 188.872 30.3601 189.172 30.3601ZM193.058 31.1758C192.881 31.1758 192.729 31.1132 192.601 30.988C192.474 30.8607 192.41 30.7075 192.41 30.5284C192.41 30.3515 192.474 30.2004 192.601 30.0753C192.729 29.948 192.881 29.8843 193.058 29.8843C193.235 29.8843 193.387 29.948 193.514 30.0753C193.641 30.2004 193.705 30.3515 193.705 30.5284C193.705 30.6471 193.675 30.7561 193.614 30.8553C193.556 30.9524 193.478 31.0301 193.381 31.0884C193.284 31.1466 193.176 31.1758 193.058 31.1758ZM196.955 31.2243C196.444 31.2221 196.007 31.0873 195.645 30.8197C195.282 30.5522 195.005 30.1627 194.813 29.6513C194.621 29.1399 194.525 28.5239 194.525 27.8032C194.525 27.0846 194.621 26.4707 194.813 25.9615C195.007 25.4523 195.285 25.0639 195.648 24.7963C196.012 24.5287 196.448 24.395 196.955 24.395C197.463 24.395 197.897 24.5298 198.26 24.7995C198.622 25.0671 198.9 25.4555 199.092 25.9647C199.286 26.4718 199.383 27.0846 199.383 27.8032C199.383 28.526 199.287 29.1431 199.095 29.6545C198.903 30.1638 198.626 30.5532 198.263 30.823C197.901 31.0905 197.465 31.2243 196.955 31.2243ZM196.955 30.3601C197.404 30.3601 197.755 30.1411 198.007 29.7031C198.262 29.265 198.389 28.6317 198.389 27.8032C198.389 27.2529 198.331 26.7879 198.214 26.4082C198.1 26.0262 197.935 25.7371 197.719 25.5407C197.506 25.3422 197.251 25.243 196.955 25.243C196.509 25.243 196.158 25.4631 195.904 25.9032C195.649 26.3434 195.521 26.9767 195.518 27.8032C195.518 28.3555 195.576 28.8227 195.69 29.2046C195.806 29.5844 195.971 29.8725 196.185 30.0688C196.399 30.263 196.655 30.3601 196.955 30.3601ZM202.739 31.2243C202.227 31.2221 201.79 31.0873 201.428 30.8197C201.065 30.5522 200.788 30.1627 200.596 29.6513C200.404 29.1399 200.308 28.5239 200.308 27.8032C200.308 27.0846 200.404 26.4707 200.596 25.9615C200.79 25.4523 201.068 25.0639 201.431 24.7963C201.796 24.5287 202.232 24.395 202.739 24.395C203.246 24.395 203.68 24.5298 204.043 24.7995C204.405 25.0671 204.683 25.4555 204.875 25.9647C205.069 26.4718 205.166 27.0846 205.166 27.8032C205.166 28.526 205.07 29.1431 204.878 29.6545C204.686 30.1638 204.409 30.5532 204.046 30.823C203.684 31.0905 203.248 31.2243 202.739 31.2243ZM202.739 30.3601C203.187 30.3601 203.538 30.1411 203.791 29.7031C204.045 29.265 204.172 28.6317 204.172 27.8032C204.172 27.2529 204.114 26.7879 203.998 26.4082C203.883 26.0262 203.718 25.7371 203.502 25.5407C203.289 25.3422 203.034 25.243 202.739 25.243C202.292 25.243 201.941 25.4631 201.687 25.9032C201.432 26.3434 201.304 26.9767 201.302 27.8032C201.302 28.3555 201.359 28.8227 201.473 29.2046C201.59 29.5844 201.755 29.8725 201.968 30.0688C202.182 30.263 202.439 30.3601 202.739 30.3601Z" fill="#0E121B"/>
<path d="M190.207 45.014V38.7996H190.606V45.014H190.207ZM191.547 40.6639C191.518 40.418 191.4 40.227 191.193 40.0911C190.986 39.9551 190.732 39.8872 190.431 39.8872C190.211 39.8872 190.018 39.9228 189.853 39.994C189.69 40.0652 189.562 40.1631 189.469 40.2877C189.379 40.4123 189.333 40.5539 189.333 40.7125C189.333 40.8452 189.365 40.9593 189.428 41.0548C189.493 41.1486 189.575 41.2271 189.676 41.2902C189.776 41.3517 189.881 41.4027 189.991 41.4432C190.101 41.482 190.203 41.5136 190.295 41.5378L190.8 41.6738C190.929 41.7078 191.073 41.7547 191.232 41.8146C191.392 41.8745 191.545 41.9562 191.691 42.0598C191.838 42.1617 191.959 42.2928 192.055 42.453C192.15 42.6132 192.198 42.8099 192.198 43.0429C192.198 43.3115 192.128 43.5543 191.987 43.7711C191.848 43.988 191.644 44.1603 191.375 44.2882C191.108 44.416 190.784 44.48 190.402 44.48C190.046 44.48 189.737 44.4225 189.477 44.3076C189.218 44.1927 189.014 44.0325 188.865 43.827C188.718 43.6214 188.634 43.3827 188.615 43.1109H189.236C189.253 43.2986 189.316 43.4539 189.426 43.5769C189.537 43.6983 189.678 43.7889 189.848 43.8488C190.02 43.9071 190.204 43.9362 190.402 43.9362C190.631 43.9362 190.838 43.899 191.021 43.8245C191.203 43.7485 191.348 43.6433 191.455 43.509C191.562 43.373 191.615 43.2144 191.615 43.0332C191.615 42.8681 191.569 42.7338 191.477 42.6302C191.385 42.5266 191.263 42.4425 191.113 42.3778C190.962 42.313 190.8 42.2564 190.625 42.2078L190.013 42.0331C189.625 41.9214 189.317 41.762 189.091 41.5548C188.864 41.3477 188.751 41.0766 188.751 40.7416C188.751 40.4633 188.826 40.2205 188.977 40.0134C189.129 39.8046 189.333 39.6428 189.588 39.5279C189.846 39.4114 190.133 39.3531 190.45 39.3531C190.771 39.3531 191.055 39.4106 191.305 39.5255C191.554 39.6387 191.751 39.7941 191.897 39.9915C192.044 40.189 192.122 40.4131 192.13 40.6639H191.547ZM194.848 39.4211V44.3926H194.246V40.0522H194.217L193.003 40.8581V40.2464L194.246 39.4211H194.848ZM196.411 44.4314C196.292 44.4314 196.189 44.3885 196.103 44.3028C196.017 44.217 195.975 44.1142 195.975 43.9945C195.975 43.8747 196.017 43.7719 196.103 43.6862C196.189 43.6004 196.292 43.5575 196.411 43.5575C196.531 43.5575 196.634 43.6004 196.72 43.6862C196.806 43.7719 196.848 43.8747 196.848 43.9945C196.848 44.0738 196.828 44.1466 196.788 44.2129C196.749 44.2793 196.696 44.3327 196.63 44.3732C196.565 44.412 196.492 44.4314 196.411 44.4314ZM197.602 43.1497H198.214C198.232 43.318 198.289 43.4604 198.386 43.5769C198.485 43.6918 198.613 43.7792 198.77 43.8391C198.927 43.8974 199.101 43.9265 199.292 43.9265C199.499 43.9265 199.685 43.8917 199.85 43.8221C200.015 43.7525 200.146 43.649 200.243 43.5114C200.34 43.3722 200.389 43.1999 200.389 42.9943C200.389 42.8147 200.347 42.648 200.263 42.4943C200.179 42.3389 200.043 42.2135 199.857 42.118C199.671 42.0225 199.424 41.9748 199.117 41.9748H198.719V41.4893L199.962 39.994V39.9551H197.845V39.4211H200.787V39.858L199.457 41.4699V41.5087C199.67 41.5184 199.869 41.5621 200.054 41.6398C200.24 41.7175 200.402 41.8227 200.539 41.9554C200.679 42.0881 200.787 42.2426 200.865 42.419C200.942 42.5954 200.981 42.7872 200.981 42.9943C200.981 43.2775 200.908 43.53 200.763 43.7517C200.619 43.9718 200.419 44.145 200.163 44.2712C199.909 44.3974 199.615 44.4605 199.282 44.4605C198.987 44.4605 198.716 44.4088 198.469 44.3052C198.221 44.2016 198.02 44.0519 197.864 43.8561C197.709 43.6603 197.622 43.4248 197.602 43.1497ZM203.594 44.4605C203.228 44.4605 202.917 44.361 202.659 44.162C202.402 43.9613 202.205 43.6708 202.069 43.2905C201.933 42.9086 201.865 42.4473 201.865 41.9068C201.865 41.3695 201.933 40.9107 202.069 40.5304C202.207 40.1485 202.404 39.8572 202.662 39.6565C202.921 39.4542 203.231 39.3531 203.594 39.3531C203.956 39.3531 204.266 39.4542 204.524 39.6565C204.782 39.8572 204.98 40.1485 205.116 40.5304C205.253 40.9107 205.322 41.3695 205.322 41.9068C205.322 42.4473 205.254 42.9086 205.118 43.2905C204.982 43.6708 204.786 43.9613 204.528 44.162C204.271 44.361 203.96 44.4605 203.594 44.4605ZM203.594 43.9265C203.956 43.9265 204.238 43.7517 204.439 43.4022C204.639 43.0526 204.74 42.5542 204.74 41.9068C204.74 41.4763 204.693 41.1098 204.601 40.8072C204.511 40.5045 204.38 40.2739 204.208 40.1153C204.038 39.9567 203.833 39.8774 203.594 39.8774C203.235 39.8774 202.954 40.0546 202.751 40.4091C202.549 40.7619 202.448 41.2611 202.448 41.9068C202.448 42.3373 202.493 42.703 202.584 43.0041C202.675 43.3051 202.805 43.5341 202.975 43.691C203.146 43.848 203.353 43.9265 203.594 43.9265Z" fill="#99A0AE"/>
<rect x="12.1424" y="58.9285" width="203.056" height="44.2226" rx="5.85759" fill="#F5F7FA"/>
<rect x="12.1424" y="58.9285" width="203.056" height="44.2226" rx="5.85759" stroke="#E1E4EA" stroke-width="0.284826"/>
<g clip-path="url(#clip2_7775_18276)">
<g clip-path="url(#clip3_7775_18276)">
<path d="M25.5703 74.1406L26.1647 81.3345C26.7332 81.4877 27.3308 81.57 27.9477 81.57C31.7225 81.57 34.7827 78.5098 34.7827 74.735L25.5703 74.1406Z" fill="#D80027"/>
<path d="M25.5703 74.7354L26.1646 68.1359C26.7332 67.9826 27.3308 67.9004 27.9477 67.9004C31.7225 67.9004 34.7827 70.9605 34.7827 74.7354H25.5703Z" fill="#FFDA44"/>
<path d="M21.1133 74.7353C21.1133 77.8932 23.2551 80.5505 26.1652 81.3348V68.1357C23.2551 68.9201 21.1133 71.5773 21.1133 74.7353Z" fill="#6DA544"/>
</g>
<path d="M40.586 71.9353L41.9737 74.2038H42.019L43.4067 71.9353H44.4206L42.6137 74.8353L44.4319 77.7354H43.4124L42.019 75.498H41.9737L40.5803 77.7354H39.5607L41.4101 74.8353L39.5721 71.9353H40.586ZM50.1233 74.8353C50.1233 75.4546 50.01 75.987 49.7834 76.4326C49.5569 76.8763 49.2463 77.218 48.8517 77.4578C48.4589 77.6957 48.0124 77.8146 47.5121 77.8146C47.0099 77.8146 46.5615 77.6957 46.1669 77.4578C45.7741 77.218 45.4645 76.8753 45.2379 76.4298C45.0114 75.9842 44.8981 75.4527 44.8981 74.8353C44.8981 74.216 45.0114 73.6845 45.2379 73.2408C45.4645 72.7953 45.7741 72.4535 46.1669 72.2156C46.5615 71.9759 47.0099 71.856 47.5121 71.856C48.0124 71.856 48.4589 71.9759 48.8517 72.2156C49.2463 72.4535 49.5569 72.7953 49.7834 73.2408C50.01 73.6845 50.1233 74.216 50.1233 74.8353ZM49.2567 74.8353C49.2567 74.3633 49.1802 73.9659 49.0273 73.643C48.8762 73.3183 48.6685 73.0728 48.4042 72.9067C48.1418 72.7386 47.8444 72.6546 47.5121 72.6546C47.1779 72.6546 46.8796 72.7386 46.6172 72.9067C46.3547 73.0728 46.147 73.3183 45.9941 73.643C45.8431 73.9659 45.7675 74.3633 45.7675 74.8353C45.7675 75.3073 45.8431 75.7057 45.9941 76.0304C46.147 76.3533 46.3547 76.5987 46.6172 76.7668C46.8796 76.9329 47.1779 77.016 47.5121 77.016C47.8444 77.016 48.1418 76.9329 48.4042 76.7668C48.6685 76.5987 48.8762 76.3533 49.0273 76.0304C49.1802 75.7057 49.2567 75.3073 49.2567 74.8353ZM51.1665 77.7354V71.9353H54.7632V72.6886H52.0416V74.4558H54.5055V75.2063H52.0416V77.7354H51.1665Z" fill="#0E121B"/>
<path d="M62.176 75.2359L64.2908 73.1211L64.8949 73.7252L62.176 76.4442L59.457 73.7252L60.0611 73.1211L62.176 75.2359Z" fill="#525866"/>
</g>
<path d="M21.7153 90.8486V85.8771H23.4534C23.7997 85.8771 24.0853 85.937 24.3103 86.0568C24.5352 86.1749 24.7027 86.3343 24.8128 86.535C24.9228 86.734 24.9779 86.9549 24.9779 87.1977C24.9779 87.4113 24.9398 87.5877 24.8638 87.7269C24.7893 87.8661 24.6906 87.9761 24.5676 88.057C24.4462 88.1379 24.3143 88.1978 24.1719 88.2367V88.2852C24.324 88.2949 24.477 88.3483 24.6307 88.4454C24.7845 88.5425 24.9131 88.6817 25.0167 88.8629C25.1203 89.0442 25.172 89.2659 25.172 89.5281C25.172 89.7773 25.1154 90.0014 25.0021 90.2005C24.8888 90.3995 24.71 90.5573 24.4656 90.6739C24.2213 90.7904 23.9033 90.8486 23.5116 90.8486H21.7153ZM22.3173 90.3146H23.5116C23.9049 90.3146 24.1841 90.2385 24.3491 90.0864C24.5158 89.9327 24.5992 89.7466 24.5992 89.5281C24.5992 89.3598 24.5563 89.2044 24.4705 89.062C24.3847 88.918 24.2625 88.8031 24.104 88.7173C23.9454 88.6299 23.7576 88.5862 23.5408 88.5862H22.3173V90.3146ZM22.3173 88.0619H23.434C23.6152 88.0619 23.7787 88.0263 23.9243 87.9551C24.0716 87.8839 24.1881 87.7835 24.2739 87.6541C24.3613 87.5246 24.405 87.3725 24.405 87.1977C24.405 86.9792 24.3289 86.7939 24.1768 86.6418C24.0247 86.488 23.7835 86.4112 23.4534 86.4112H22.3173V88.0619ZM27.1808 90.936C26.9445 90.936 26.7301 90.8915 26.5375 90.8025C26.3449 90.7119 26.192 90.5816 26.0787 90.4117C25.9654 90.2401 25.9088 90.033 25.9088 89.7902C25.9088 89.5766 25.9509 89.4035 26.035 89.2708C26.1192 89.1364 26.2317 89.0312 26.3724 88.9552C26.5132 88.8791 26.6686 88.8225 26.8385 88.7853C27.0101 88.7464 27.1824 88.7157 27.3556 88.693C27.5821 88.6639 27.7658 88.642 27.9066 88.6275C28.049 88.6113 28.1526 88.5846 28.2173 88.5474C28.2837 88.5101 28.3169 88.4454 28.3169 88.3532V88.3337C28.3169 88.0942 28.2513 87.9081 28.1202 87.7754C27.9908 87.6427 27.7941 87.5764 27.5304 87.5764C27.2569 87.5764 27.0424 87.6363 26.8871 87.756C26.7317 87.8758 26.6225 88.0036 26.5594 88.1396L26.0156 87.9454C26.1127 87.7188 26.2422 87.5424 26.404 87.4162C26.5675 87.2883 26.7455 87.1993 26.9381 87.1491C27.1323 87.0973 27.3232 87.0715 27.5109 87.0715C27.6307 87.0715 27.7683 87.086 27.9236 87.1151C28.0806 87.1427 28.2319 87.2001 28.3776 87.2875C28.5248 87.3749 28.647 87.5068 28.7441 87.6832C28.8412 87.8596 28.8898 88.0959 28.8898 88.392V90.8486H28.3169V90.3437H28.2877C28.2489 90.4246 28.1842 90.5112 28.0935 90.6035C28.0029 90.6957 27.8823 90.7742 27.7318 90.8389C27.5813 90.9037 27.3977 90.936 27.1808 90.936ZM27.2682 90.4214C27.4948 90.4214 27.6857 90.3769 27.8411 90.2879C27.9981 90.1989 28.1162 90.084 28.1955 89.9432C28.2764 89.8024 28.3169 89.6543 28.3169 89.4989V88.9746C28.2926 89.0037 28.2392 89.0304 28.1567 89.0547C28.0757 89.0774 27.9819 89.0976 27.8751 89.1154C27.7699 89.1316 27.6671 89.1462 27.5668 89.1591C27.4681 89.1704 27.3879 89.1801 27.3265 89.1882C27.1776 89.2076 27.0384 89.2392 26.9089 89.2829C26.7811 89.325 26.6775 89.3889 26.5982 89.4747C26.5205 89.5588 26.4817 89.6737 26.4817 89.8194C26.4817 90.0184 26.5553 90.1689 26.7026 90.2709C26.8515 90.3712 27.04 90.4214 27.2682 90.4214ZM30.5083 85.8771V90.8486H29.9354V85.8771H30.5083ZM32.6548 90.936C32.4185 90.936 32.2041 90.8915 32.0115 90.8025C31.8189 90.7119 31.666 90.5816 31.5527 90.4117C31.4394 90.2401 31.3828 90.033 31.3828 89.7902C31.3828 89.5766 31.4249 89.4035 31.509 89.2708C31.5932 89.1364 31.7056 89.0312 31.8464 88.9552C31.9872 88.8791 32.1426 88.8225 32.3125 88.7853C32.4841 88.7464 32.6564 88.7157 32.8296 88.693C33.0561 88.6639 33.2398 88.642 33.3806 88.6275C33.523 88.6113 33.6266 88.5846 33.6913 88.5474C33.7577 88.5101 33.7909 88.4454 33.7909 88.3532V88.3337C33.7909 88.0942 33.7253 87.9081 33.5942 87.7754C33.4648 87.6427 33.2681 87.5764 33.0044 87.5764C32.7309 87.5764 32.5164 87.6363 32.3611 87.756C32.2057 87.8758 32.0965 88.0036 32.0334 88.1396L31.4896 87.9454C31.5867 87.7188 31.7162 87.5424 31.878 87.4162C32.0415 87.2883 32.2195 87.1993 32.412 87.1491C32.6062 87.0973 32.7972 87.0715 32.9849 87.0715C33.1047 87.0715 33.2423 87.086 33.3976 87.1151C33.5546 87.1427 33.7059 87.2001 33.8516 87.2875C33.9988 87.3749 34.121 87.5068 34.2181 87.6832C34.3152 87.8596 34.3638 88.0959 34.3638 88.392V90.8486H33.7909V90.3437H33.7617C33.7229 90.4246 33.6582 90.5112 33.5675 90.6035C33.4769 90.6957 33.3563 90.7742 33.2058 90.8389C33.0553 90.9037 32.8717 90.936 32.6548 90.936ZM32.7422 90.4214C32.9688 90.4214 33.1597 90.3769 33.3151 90.2879C33.4721 90.1989 33.5902 90.084 33.6695 89.9432C33.7504 89.8024 33.7909 89.6543 33.7909 89.4989V88.9746C33.7666 89.0037 33.7132 89.0304 33.6306 89.0547C33.5497 89.0774 33.4559 89.0976 33.3491 89.1154C33.2439 89.1316 33.1411 89.1462 33.0408 89.1591C32.9421 89.1704 32.8619 89.1801 32.8004 89.1882C32.6516 89.2076 32.5124 89.2392 32.3829 89.2829C32.2551 89.325 32.1515 89.3889 32.0722 89.4747C31.9945 89.5588 31.9557 89.6737 31.9557 89.8194C31.9557 90.0184 32.0293 90.1689 32.1766 90.2709C32.3255 90.3712 32.514 90.4214 32.7422 90.4214ZM35.9823 88.6056V90.8486H35.4094V87.12H35.9629V87.7026H36.0114C36.0988 87.5133 36.2315 87.3611 36.4095 87.2462C36.5875 87.1297 36.8173 87.0715 37.0989 87.0715C37.3514 87.0715 37.5723 87.1232 37.7616 87.2268C37.951 87.3288 38.0982 87.4841 38.2034 87.6929C38.3086 87.9 38.3612 88.1622 38.3612 88.4794V90.8486H37.7883V88.5182C37.7883 88.2253 37.7123 87.9971 37.5602 87.8337C37.408 87.6686 37.1993 87.5861 36.9339 87.5861C36.751 87.5861 36.5875 87.6257 36.4435 87.705C36.3011 87.7843 36.1886 87.9 36.1061 88.0522C36.0236 88.2043 35.9823 88.3888 35.9823 88.6056ZM40.9228 90.9263C40.5733 90.9263 40.2723 90.8438 40.0198 90.6787C39.7674 90.5136 39.5732 90.2863 39.4372 89.9966C39.3013 89.7069 39.2333 89.376 39.2333 89.0037C39.2333 88.625 39.3029 88.2909 39.4421 88.0012C39.5829 87.7099 39.7787 87.4825 40.0295 87.3191C40.282 87.154 40.5765 87.0715 40.9131 87.0715C41.1753 87.0715 41.4116 87.12 41.622 87.2171C41.8323 87.3142 42.0047 87.4501 42.139 87.6249C42.2733 87.7997 42.3567 88.0036 42.389 88.2367H41.8162C41.7725 88.0667 41.6754 87.9162 41.5249 87.7851C41.376 87.6524 41.1753 87.5861 40.9228 87.5861C40.6995 87.5861 40.5037 87.6443 40.3354 87.7609C40.1687 87.8758 40.0384 88.0384 39.9446 88.2488C39.8523 88.4576 39.8062 88.7027 39.8062 88.9843C39.8062 89.2724 39.8515 89.5232 39.9421 89.7368C40.0344 89.9505 40.1638 90.1163 40.3305 90.2345C40.4988 90.3526 40.6963 90.4117 40.9228 90.4117C41.0717 90.4117 41.2069 90.3858 41.3282 90.334C41.4496 90.2822 41.5524 90.2078 41.6365 90.1107C41.7207 90.0136 41.7806 89.8971 41.8162 89.7611H42.389C42.3567 89.9812 42.2766 90.1795 42.1487 90.3559C42.0225 90.5306 41.855 90.6698 41.6462 90.7734C41.4391 90.8753 41.198 90.9263 40.9228 90.9263ZM44.7898 90.9263C44.4306 90.9263 44.1207 90.847 43.8601 90.6884C43.6012 90.5282 43.4013 90.3049 43.2605 90.0184C43.1213 89.7304 43.0518 89.3954 43.0518 89.0134C43.0518 88.6315 43.1213 88.2949 43.2605 88.0036C43.4013 87.7107 43.5971 87.4825 43.848 87.3191C44.1004 87.154 44.395 87.0715 44.7316 87.0715C44.9258 87.0715 45.1175 87.1038 45.3069 87.1686C45.4962 87.2333 45.6686 87.3385 45.8239 87.4841C45.9793 87.6282 46.1031 87.8191 46.1954 88.057C46.2876 88.2949 46.3337 88.5878 46.3337 88.9358V89.1785H43.4596V88.6833H45.7511C45.7511 88.4729 45.709 88.2852 45.6249 88.1201C45.5424 87.9551 45.4242 87.8248 45.2705 87.7293C45.1184 87.6338 44.9387 87.5861 44.7316 87.5861C44.5034 87.5861 44.306 87.6427 44.1393 87.756C43.9742 87.8677 43.8472 88.0133 43.7582 88.193C43.6691 88.3726 43.6246 88.5652 43.6246 88.7707V89.1008C43.6246 89.3824 43.6732 89.6211 43.7703 89.8169C43.869 90.0111 44.0058 90.1592 44.1805 90.2612C44.3553 90.3615 44.5584 90.4117 44.7898 90.4117C44.9403 90.4117 45.0763 90.3906 45.1977 90.3486C45.3206 90.3049 45.4266 90.2401 45.5157 90.1544C45.6047 90.067 45.6734 89.9586 45.722 89.8291L46.2755 89.9844C46.2172 90.1722 46.1193 90.3372 45.9817 90.4797C45.8442 90.6204 45.6743 90.7305 45.472 90.8098C45.2697 90.8875 45.0423 90.9263 44.7898 90.9263ZM47.6227 90.8875C47.503 90.8875 47.4002 90.8446 47.3144 90.7588C47.2287 90.673 47.1858 90.5703 47.1858 90.4505C47.1858 90.3308 47.2287 90.228 47.3144 90.1422C47.4002 90.0565 47.503 90.0136 47.6227 90.0136C47.7425 90.0136 47.8452 90.0565 47.931 90.1422C48.0168 90.228 48.0597 90.3308 48.0597 90.4505C48.0597 90.5298 48.0394 90.6026 47.999 90.669C47.9601 90.7353 47.9075 90.7888 47.8412 90.8292C47.7765 90.8681 47.7036 90.8875 47.6227 90.8875ZM47.6227 88.1201C47.503 88.1201 47.4002 88.0772 47.3144 87.9915C47.2287 87.9057 47.1858 87.8029 47.1858 87.6832C47.1858 87.5634 47.2287 87.4607 47.3144 87.3749C47.4002 87.2891 47.503 87.2462 47.6227 87.2462C47.7425 87.2462 47.8452 87.2891 47.931 87.3749C48.0168 87.4607 48.0597 87.5634 48.0597 87.6832C48.0597 87.7625 48.0394 87.8353 47.999 87.9017C47.9601 87.968 47.9075 88.0214 47.8412 88.0619C47.7765 88.1007 47.7036 88.1201 47.6227 88.1201ZM52.6221 90.9166C52.2564 90.9166 51.9449 90.8171 51.6876 90.618C51.4302 90.4173 51.2336 90.1269 51.0977 89.7466C50.9617 89.3646 50.8938 88.9034 50.8938 88.3629C50.8938 87.8256 50.9617 87.3668 51.0977 86.9865C51.2352 86.6046 51.4327 86.3133 51.69 86.1126C51.9489 85.9103 52.2596 85.8092 52.6221 85.8092C52.9846 85.8092 53.2946 85.9103 53.5519 86.1126C53.8108 86.3133 54.0082 86.6046 54.1442 86.9865C54.2817 87.3668 54.3505 87.8256 54.3505 88.3629C54.3505 88.9034 54.2825 89.3646 54.1466 89.7466C54.0107 90.1269 53.814 90.4173 53.5567 90.618C53.2994 90.8171 52.9879 90.9166 52.6221 90.9166ZM52.6221 90.3826C52.9846 90.3826 53.2662 90.2078 53.4669 89.8582C53.6676 89.5087 53.7679 89.0102 53.7679 88.3629C53.7679 87.9324 53.7218 87.5659 53.6296 87.2632C53.5389 86.9606 53.4078 86.73 53.2363 86.5714C53.0664 86.4128 52.8617 86.3335 52.6221 86.3335C52.2629 86.3335 51.9821 86.5107 51.7798 86.8651C51.5775 87.2179 51.4764 87.7172 51.4764 88.3629C51.4764 88.7934 51.5217 89.1591 51.6123 89.4601C51.7029 89.7611 51.8332 89.9901 52.0031 90.1471C52.1747 90.3041 52.381 90.3826 52.6221 90.3826ZM55.5266 90.8875C55.4069 90.8875 55.3041 90.8446 55.2183 90.7588C55.1326 90.673 55.0897 90.5703 55.0897 90.4505C55.0897 90.3308 55.1326 90.228 55.2183 90.1422C55.3041 90.0565 55.4069 90.0136 55.5266 90.0136C55.6464 90.0136 55.7492 90.0565 55.8349 90.1422C55.9207 90.228 55.9636 90.3308 55.9636 90.4505C55.9636 90.5298 55.9434 90.6026 55.9029 90.669C55.8641 90.7353 55.8115 90.7888 55.7451 90.8292C55.6804 90.8681 55.6076 90.8875 55.5266 90.8875ZM56.9819 90.8486V90.4117L58.6229 88.6153C58.8155 88.405 58.9741 88.2221 59.0987 88.0667C59.2233 87.9097 59.3156 87.7625 59.3754 87.6249C59.4369 87.4857 59.4677 87.3401 59.4677 87.188C59.4677 87.0132 59.4256 86.8619 59.3414 86.734C59.2589 86.6062 59.1456 86.5075 59.0016 86.4379C58.8576 86.3683 58.6957 86.3335 58.5161 86.3335C58.3251 86.3335 58.1584 86.3731 58.016 86.4524C57.8752 86.5301 57.766 86.6394 57.6883 86.7802C57.6123 86.9209 57.5742 87.086 57.5742 87.2754H57.0013C57.0013 86.9841 57.0685 86.7284 57.2028 86.5083C57.3371 86.2882 57.52 86.1166 57.7514 85.9936C57.9845 85.8707 58.2458 85.8092 58.5355 85.8092C58.8268 85.8092 59.0849 85.8707 59.3099 85.9936C59.5348 86.1166 59.7112 86.2825 59.8391 86.4913C59.9669 86.7 60.0309 86.9323 60.0309 87.188C60.0309 87.3708 59.9977 87.5497 59.9313 87.7244C59.8666 87.8976 59.7533 88.091 59.5915 88.3046C59.4313 88.5166 59.2087 88.7756 58.9239 89.0814L57.8073 90.2757V90.3146H60.1182V90.8486H56.9819ZM62.7424 90.9166C62.3766 90.9166 62.0651 90.8171 61.8078 90.618C61.5505 90.4173 61.3538 90.1269 61.2179 89.7466C61.082 89.3646 61.014 88.9034 61.014 88.3629C61.014 87.8256 61.082 87.3668 61.2179 86.9865C61.3555 86.6046 61.5529 86.3133 61.8102 86.1126C62.0691 85.9103 62.3799 85.8092 62.7424 85.8092C63.1049 85.8092 63.4148 85.9103 63.6721 86.1126C63.931 86.3133 64.1285 86.6046 64.2644 86.9865C64.402 87.3668 64.4707 87.8256 64.4707 88.3629C64.4707 88.9034 64.4028 89.3646 64.2668 89.7466C64.1309 90.1269 63.9343 90.4173 63.6769 90.618C63.4196 90.8171 63.1081 90.9166 62.7424 90.9166ZM62.7424 90.3826C63.1049 90.3826 63.3865 90.2078 63.5871 89.8582C63.7878 89.5087 63.8881 89.0102 63.8881 88.3629C63.8881 87.9324 63.842 87.5659 63.7498 87.2632C63.6591 86.9606 63.5281 86.73 63.3565 86.5714C63.1866 86.4128 62.9819 86.3335 62.7424 86.3335C62.3831 86.3335 62.1023 86.5107 61.9 86.8651C61.6977 87.2179 61.5966 87.7172 61.5966 88.3629C61.5966 88.7934 61.6419 89.1591 61.7325 89.4601C61.8232 89.7611 61.9534 89.9901 62.1234 90.1471C62.2949 90.3041 62.5012 90.3826 62.7424 90.3826ZM66.9759 85.8092C67.1798 85.8108 67.3837 85.8496 67.5876 85.9257C67.7915 86.0017 67.9777 86.128 68.146 86.3044C68.3143 86.4791 68.4494 86.7178 68.5514 87.0205C68.6533 87.3231 68.7043 87.7026 68.7043 88.159C68.7043 88.6008 68.6622 88.9932 68.5781 89.3363C68.4955 89.6778 68.3758 89.9658 68.2188 90.2005C68.0634 90.4351 67.8741 90.6132 67.6508 90.7345C67.429 90.8559 67.1782 90.9166 66.8982 90.9166C66.6199 90.9166 66.3715 90.8616 66.153 90.7515C65.9361 90.6399 65.7581 90.4853 65.6189 90.2879C65.4814 90.0888 65.3932 89.8582 65.3543 89.596H65.9467C66.0001 89.8242 66.1061 90.0128 66.2647 90.1617C66.4249 90.3089 66.6361 90.3826 66.8982 90.3826C67.2818 90.3826 67.5844 90.2151 67.8061 89.8801C68.0294 89.5451 68.1411 89.0717 68.1411 88.46H68.1023C68.0116 88.5959 67.904 88.7132 67.7794 88.812C67.6548 88.9107 67.5164 88.9867 67.3643 89.0402C67.2122 89.0936 67.0504 89.1203 66.8788 89.1203C66.594 89.1203 66.3326 89.0499 66.0947 88.9091C65.8585 88.7667 65.6691 88.5716 65.5267 88.324C65.3859 88.0748 65.3155 87.79 65.3155 87.4696C65.3155 87.1653 65.3835 86.887 65.5194 86.6345C65.657 86.3804 65.8496 86.1781 66.0972 86.0276C66.3464 85.8771 66.6393 85.8043 66.9759 85.8092ZM66.9759 86.3432C66.772 86.3432 66.5883 86.3942 66.4249 86.4961C66.263 86.5965 66.1344 86.7324 66.0389 86.904C65.945 87.0739 65.8981 87.2624 65.8981 87.4696C65.8981 87.6767 65.9434 87.8652 66.034 88.0352C66.1263 88.2035 66.2517 88.3378 66.4103 88.4381C66.5705 88.5369 66.7526 88.5862 66.9565 88.5862C67.1102 88.5862 67.2535 88.5563 67.3862 88.4964C67.5189 88.4349 67.6346 88.3516 67.7333 88.2464C67.8336 88.1396 67.9121 88.019 67.9688 87.8847C68.0254 87.7487 68.0537 87.6071 68.0537 87.4599C68.0537 87.2657 68.0068 87.0836 67.9129 86.9137C67.8207 86.7437 67.6928 86.6062 67.5294 86.501C67.3675 86.3958 67.1831 86.3432 66.9759 86.3432ZM71.9602 85.8771L73.2419 87.9454H73.2807L74.5624 85.8771H75.2713L73.708 88.3629L75.2713 90.8486H74.5624L73.2807 88.8192H73.2419L71.9602 90.8486H71.2513L72.8535 88.3629L71.2513 85.8771H71.9602ZM80.1693 88.3629C80.1693 88.8872 80.0747 89.3404 79.8853 89.7223C79.696 90.1042 79.4362 90.3987 79.1061 90.6059C78.776 90.813 78.3989 90.9166 77.9749 90.9166C77.5509 90.9166 77.1738 90.813 76.8437 90.6059C76.5135 90.3987 76.2538 90.1042 76.0644 89.7223C75.8751 89.3404 75.7804 88.8872 75.7804 88.3629C75.7804 87.8385 75.8751 87.3854 76.0644 87.0035C76.2538 86.6216 76.5135 86.327 76.8437 86.1199C77.1738 85.9127 77.5509 85.8092 77.9749 85.8092C78.3989 85.8092 78.776 85.9127 79.1061 86.1199C79.4362 86.327 79.696 86.6216 79.8853 87.0035C80.0747 87.3854 80.1693 87.8385 80.1693 88.3629ZM79.5867 88.3629C79.5867 87.9324 79.5147 87.5691 79.3707 87.2729C79.2283 86.9768 79.0349 86.7526 78.7905 86.6005C78.5478 86.4484 78.2759 86.3723 77.9749 86.3723C77.6739 86.3723 77.4012 86.4484 77.1568 86.6005C76.9141 86.7526 76.7207 86.9768 76.5766 87.2729C76.4342 87.5691 76.363 87.9324 76.363 88.3629C76.363 88.7934 76.4342 89.1567 76.5766 89.4528C76.7207 89.749 76.9141 89.9731 77.1568 90.1252C77.4012 90.2774 77.6739 90.3534 77.9749 90.3534C78.2759 90.3534 78.5478 90.2774 78.7905 90.1252C79.0349 89.9731 79.2283 89.749 79.3707 89.4528C79.5147 89.1567 79.5867 88.7934 79.5867 88.3629ZM81.1816 90.8486V85.8771H84.1626V86.4112H81.7836V88.091H83.9392V88.625H81.7836V90.8486H81.1816Z" fill="#99A0AE"/>
<path d="M172.57 73.013C172.536 72.7066 172.393 72.4693 172.143 72.301C171.893 72.1305 171.578 72.0453 171.198 72.0453C170.926 72.0453 170.691 72.0884 170.492 72.1747C170.294 72.2589 170.139 72.3754 170.029 72.5243C169.921 72.671 169.868 72.8383 169.868 73.026C169.868 73.1835 169.904 73.3194 169.978 73.4338C170.053 73.5482 170.151 73.6442 170.272 73.7219C170.395 73.7974 170.527 73.861 170.667 73.9128C170.807 73.9625 170.942 74.0035 171.072 74.0358L171.719 74.2041C171.93 74.2559 172.147 74.326 172.369 74.4145C172.592 74.503 172.798 74.6195 172.988 74.7641C173.178 74.9086 173.331 75.0877 173.447 75.3014C173.566 75.515 173.625 75.7707 173.625 76.0684C173.625 76.4439 173.528 76.7773 173.334 77.0686C173.142 77.3599 172.863 77.5897 172.496 77.758C172.131 77.9263 171.69 78.0104 171.172 78.0104C170.676 78.0104 170.246 77.9317 169.884 77.7742C169.521 77.6166 169.237 77.3933 169.032 77.1042C168.828 76.8129 168.714 76.4676 168.693 76.0684H169.696C169.715 76.308 169.793 76.5075 169.929 76.6672C170.067 76.8247 170.243 76.9423 170.457 77.02C170.672 77.0955 170.909 77.1333 171.165 77.1333C171.448 77.1333 171.699 77.0891 171.92 77.0006C172.142 76.91 172.317 76.7848 172.444 76.6251C172.571 76.4633 172.635 76.2745 172.635 76.0587C172.635 75.8624 172.579 75.7016 172.467 75.5765C172.357 75.4513 172.207 75.3477 172.017 75.2658C171.829 75.1838 171.616 75.1115 171.379 75.0489L170.596 74.8353C170.065 74.6907 169.644 74.4782 169.333 74.1977C169.025 73.9171 168.871 73.546 168.871 73.0842C168.871 72.7023 168.974 72.3689 169.181 72.0841C169.389 71.7993 169.669 71.5781 170.023 71.4206C170.377 71.2609 170.776 71.1811 171.22 71.1811C171.669 71.1811 172.065 71.2598 172.408 71.4174C172.754 71.5749 173.025 71.7917 173.224 72.0679C173.422 72.342 173.526 72.657 173.535 73.013H172.57ZM174.72 77.9004V71.2717H175.72V77.0394H178.724V77.9004H174.72ZM179.765 77.9004V71.2717H183.92V72.1327H180.765V74.1523H183.704V75.0101H180.765V77.0394H183.959V77.9004H179.765ZM189.685 78.0104C189.174 78.0083 188.737 77.8734 188.374 77.6059C188.012 77.3383 187.734 76.9488 187.542 76.4374C187.35 75.926 187.254 75.31 187.254 74.5893C187.254 73.8708 187.35 73.2569 187.542 72.7476C187.737 72.2384 188.015 71.85 188.377 71.5824C188.742 71.3149 189.178 71.1811 189.685 71.1811C190.192 71.1811 190.627 71.316 190.989 71.5857C191.352 71.8532 191.629 72.2416 191.821 72.7509C192.015 73.2579 192.113 73.8708 192.113 74.5893C192.113 75.3121 192.017 75.9293 191.825 76.4407C191.632 76.9499 191.355 77.3394 190.993 77.6091C190.63 77.8767 190.194 78.0104 189.685 78.0104ZM189.685 77.1462C190.134 77.1462 190.485 76.9272 190.737 76.4892C190.992 76.0512 191.119 75.4179 191.119 74.5893C191.119 74.0391 191.061 73.5741 190.944 73.1943C190.83 72.8124 190.665 72.5232 190.449 72.3269C190.235 72.1284 189.981 72.0291 189.685 72.0291C189.238 72.0291 188.888 72.2492 188.633 72.6894C188.379 73.1296 188.25 73.7629 188.248 74.5893C188.248 75.1417 188.305 75.6088 188.42 75.9908C188.536 76.3705 188.701 76.6586 188.915 76.855C189.128 77.0491 189.385 77.1462 189.685 77.1462ZM193.571 77.9619C193.394 77.9619 193.242 77.8993 193.114 77.7742C192.987 77.6469 192.923 77.4937 192.923 77.3146C192.923 77.1376 192.987 76.9866 193.114 76.8614C193.242 76.7341 193.394 76.6705 193.571 76.6705C193.748 76.6705 193.9 76.7341 194.027 76.8614C194.154 76.9866 194.218 77.1376 194.218 77.3146C194.218 77.4332 194.188 77.5422 194.127 77.6415C194.069 77.7386 193.992 77.8162 193.894 77.8745C193.797 77.9328 193.689 77.9619 193.571 77.9619ZM197.469 78.0104C196.957 78.0083 196.52 77.8734 196.158 77.6059C195.795 77.3383 195.518 76.9488 195.326 76.4374C195.134 75.926 195.038 75.31 195.038 74.5893C195.038 73.8708 195.134 73.2569 195.326 72.7476C195.52 72.2384 195.798 71.85 196.161 71.5824C196.526 71.3149 196.962 71.1811 197.469 71.1811C197.976 71.1811 198.41 71.316 198.773 71.5857C199.135 71.8532 199.413 72.2416 199.605 72.7509C199.799 73.2579 199.896 73.8708 199.896 74.5893C199.896 75.3121 199.8 75.9293 199.608 76.4407C199.416 76.9499 199.139 77.3394 198.776 77.6091C198.414 77.8767 197.978 78.0104 197.469 78.0104ZM197.469 77.1462C197.917 77.1462 198.268 76.9272 198.521 76.4892C198.775 76.0512 198.902 75.4179 198.902 74.5893C198.902 74.0391 198.844 73.5741 198.728 73.1943C198.613 72.8124 198.448 72.5232 198.232 72.3269C198.019 72.1284 197.764 72.0291 197.469 72.0291C197.022 72.0291 196.671 72.2492 196.417 72.6894C196.162 73.1296 196.034 73.7629 196.032 74.5893C196.032 75.1417 196.089 75.6088 196.203 75.9908C196.32 76.3705 196.485 76.6586 196.698 76.855C196.912 77.0491 197.169 77.1462 197.469 77.1462ZM203.252 78.0104C202.74 78.0083 202.303 77.8734 201.941 77.6059C201.578 77.3383 201.301 76.9488 201.109 76.4374C200.917 75.926 200.821 75.31 200.821 74.5893C200.821 73.8708 200.917 73.2569 201.109 72.7476C201.303 72.2384 201.582 71.85 201.944 71.5824C202.309 71.3149 202.745 71.1811 203.252 71.1811C203.759 71.1811 204.194 71.316 204.556 71.5857C204.919 71.8532 205.196 72.2416 205.388 72.7509C205.582 73.2579 205.679 73.8708 205.679 74.5893C205.679 75.3121 205.583 75.9293 205.391 76.4407C205.199 76.9499 204.922 77.3394 204.559 77.6091C204.197 77.8767 203.761 78.0104 203.252 78.0104ZM203.252 77.1462C203.701 77.1462 204.051 76.9272 204.304 76.4892C204.558 76.0512 204.686 75.4179 204.686 74.5893C204.686 74.0391 204.627 73.5741 204.511 73.1943C204.396 72.8124 204.231 72.5232 204.016 72.3269C203.802 72.1284 203.547 72.0291 203.252 72.0291C202.805 72.0291 202.454 72.2492 202.2 72.6894C201.945 73.1296 201.817 73.7629 201.815 74.5893C201.815 75.1417 201.872 75.6088 201.986 75.9908C202.103 76.3705 202.268 76.6586 202.481 76.855C202.695 77.0491 202.952 77.1462 203.252 77.1462Z" fill="#99A0AE"/>
<path d="M190.207 91.8001V85.5858H190.606V91.8001H190.207ZM191.547 87.4501C191.518 87.2041 191.4 87.0131 191.193 86.8772C190.986 86.7413 190.732 86.6733 190.431 86.6733C190.211 86.6733 190.018 86.7089 189.853 86.7801C189.69 86.8513 189.562 86.9492 189.469 87.0738C189.379 87.1984 189.333 87.34 189.333 87.4986C189.333 87.6313 189.365 87.7454 189.428 87.8409C189.493 87.9348 189.575 88.0133 189.676 88.0764C189.776 88.1379 189.881 88.1888 189.991 88.2293C190.101 88.2681 190.203 88.2997 190.295 88.324L190.8 88.4599C190.929 88.4939 191.073 88.5408 191.232 88.6007C191.392 88.6606 191.545 88.7423 191.691 88.8459C191.838 88.9478 191.959 89.0789 192.055 89.2391C192.15 89.3994 192.198 89.596 192.198 89.829C192.198 90.0977 192.128 90.3404 191.987 90.5573C191.848 90.7741 191.644 90.9465 191.375 91.0743C191.108 91.2022 190.784 91.2661 190.402 91.2661C190.046 91.2661 189.737 91.2087 189.477 91.0937C189.218 90.9788 189.014 90.8186 188.865 90.6131C188.718 90.4076 188.634 90.1689 188.615 89.897H189.236C189.253 90.0847 189.316 90.2401 189.426 90.3631C189.537 90.4844 189.678 90.5751 189.848 90.635C190.02 90.6932 190.204 90.7223 190.402 90.7223C190.631 90.7223 190.838 90.6851 191.021 90.6107C191.203 90.5346 191.348 90.4294 191.455 90.2951C191.562 90.1592 191.615 90.0006 191.615 89.8193C191.615 89.6542 191.569 89.5199 191.477 89.4164C191.385 89.3128 191.263 89.2286 191.113 89.1639C190.962 89.0992 190.8 89.0425 190.625 88.994L190.013 88.8192C189.625 88.7075 189.317 88.5481 189.091 88.341C188.864 88.1338 188.751 87.8628 188.751 87.5278C188.751 87.2494 188.826 87.0067 188.977 86.7995C189.129 86.5907 189.333 86.4289 189.588 86.314C189.846 86.1975 190.133 86.1392 190.45 86.1392C190.771 86.1392 191.055 86.1967 191.305 86.3116C191.554 86.4249 191.751 86.5802 191.897 86.7777C192.044 86.9751 192.122 87.1992 192.13 87.4501H191.547ZM194.848 86.2072V91.1787H194.246V86.8384H194.217L193.003 87.6443V87.0326L194.246 86.2072H194.848ZM196.411 91.2176C196.292 91.2176 196.189 91.1747 196.103 91.0889C196.017 91.0031 195.975 90.9004 195.975 90.7806C195.975 90.6608 196.017 90.5581 196.103 90.4723C196.189 90.3865 196.292 90.3437 196.411 90.3437C196.531 90.3437 196.634 90.3865 196.72 90.4723C196.806 90.5581 196.848 90.6608 196.848 90.7806C196.848 90.8599 196.828 90.9327 196.788 90.9991C196.749 91.0654 196.696 91.1188 196.63 91.1593C196.565 91.1981 196.492 91.2176 196.411 91.2176ZM197.602 89.9358H198.214C198.232 90.1041 198.289 90.2466 198.386 90.3631C198.485 90.478 198.613 90.5654 198.77 90.6252C198.927 90.6835 199.101 90.7126 199.292 90.7126C199.499 90.7126 199.685 90.6778 199.85 90.6083C200.015 90.5387 200.146 90.4351 200.243 90.2975C200.34 90.1584 200.389 89.986 200.389 89.7805C200.389 89.6008 200.347 89.4342 200.263 89.2804C200.179 89.1251 200.043 88.9996 199.857 88.9041C199.671 88.8087 199.424 88.7609 199.117 88.7609H198.719V88.2754L199.962 86.7801V86.7413H197.845V86.2072H200.787V86.6442L199.457 88.256V88.2948C199.67 88.3046 199.869 88.3483 200.054 88.4259C200.24 88.5036 200.402 88.6088 200.539 88.7415C200.679 88.8742 200.787 89.0288 200.865 89.2052C200.942 89.3816 200.981 89.5733 200.981 89.7805C200.981 90.0637 200.908 90.3161 200.763 90.5379C200.619 90.7579 200.419 90.9311 200.163 91.0573C199.909 91.1836 199.615 91.2467 199.282 91.2467C198.987 91.2467 198.716 91.1949 198.469 91.0913C198.221 90.9877 198.02 90.8381 197.864 90.6422C197.709 90.4464 197.622 90.211 197.602 89.9358ZM203.594 91.2467C203.228 91.2467 202.917 91.1472 202.659 90.9481C202.402 90.7474 202.205 90.4569 202.069 90.0766C201.933 89.6947 201.865 89.2335 201.865 88.693C201.865 88.1557 201.933 87.6969 202.069 87.3166C202.207 86.9346 202.404 86.6433 202.662 86.4427C202.921 86.2404 203.231 86.1392 203.594 86.1392C203.956 86.1392 204.266 86.2404 204.524 86.4427C204.782 86.6433 204.98 86.9346 205.116 87.3166C205.253 87.6969 205.322 88.1557 205.322 88.693C205.322 89.2335 205.254 89.6947 205.118 90.0766C204.982 90.4569 204.786 90.7474 204.528 90.9481C204.271 91.1472 203.96 91.2467 203.594 91.2467ZM203.594 90.7126C203.956 90.7126 204.238 90.5379 204.439 90.1883C204.639 89.8387 204.74 89.3403 204.74 88.693C204.74 88.2625 204.693 87.8959 204.601 87.5933C204.511 87.2907 204.38 87.0601 204.208 86.9015C204.038 86.7429 203.833 86.6636 203.594 86.6636C203.235 86.6636 202.954 86.8408 202.751 87.1952C202.549 87.548 202.448 88.0472 202.448 88.693C202.448 89.1234 202.493 89.4892 202.584 89.7902C202.675 90.0912 202.805 90.3202 202.975 90.4772C203.146 90.6341 203.353 90.7126 203.594 90.7126Z" fill="#99A0AE"/>
<g clip-path="url(#clip4_7775_18276)">
<path d="M105.41 58.4354C105.41 53.7163 109.236 49.8906 113.955 49.8906C118.674 49.8906 122.5 53.7163 122.5 58.4354C122.5 63.1545 118.674 66.9802 113.955 66.9802C109.236 66.9802 105.41 63.1545 105.41 58.4354Z" fill="white"/>
<path d="M114.383 60.217L116.675 57.9252L117.279 58.5294L113.956 61.8524L110.633 58.5294L111.237 57.9252L113.529 60.217V55.0166H114.383V60.217Z" fill="#335CFF"/>
<rect x="119.937" y="57.5797" width="3.41791" height="1.70896" fill="white"/>
<rect x="119.937" y="57.5797" width="3.41791" height="1.70896" stroke="white" stroke-width="0.569652"/>
</g>
<path d="M113.955 50.0332C118.596 50.0333 122.357 53.7951 122.357 58.4355C122.357 63.0759 118.595 66.8378 113.955 66.8379C109.315 66.8379 105.553 63.076 105.553 58.4355C105.553 53.7951 109.315 50.0332 113.955 50.0332Z" stroke="#E1E4EA" stroke-width="0.284826"/>
</g>
<defs>
<filter id="filter0_dd_7775_18276" x="0" y="0" width="227.34" height="115.294" filterUnits="userSpaceOnUse" color-interpolation-filters="sRGB">
<feFlood flood-opacity="0" result="BackgroundImageFix"/>
<feColorMatrix in="SourceAlpha" type="matrix" values="0 0 0 0 0 0 0 0 0 0 0 0 0 0 0 0 0 0 127 0" result="hardAlpha"/>
<feMorphology radius="0.5" operator="dilate" in="SourceAlpha" result="effect1_dropShadow_7775_18276"/>
<feOffset/>
<feComposite in2="hardAlpha" operator="out"/>
<feColorMatrix type="matrix" values="0 0 0 0 0.884 0 0 0 0 0.893143 0 0 0 0 0.916 0 0 0 1 0"/>
<feBlend mode="normal" in2="BackgroundImageFix" result="effect1_dropShadow_7775_18276"/>
<feColorMatrix in="SourceAlpha" type="matrix" values="0 0 0 0 0 0 0 0 0 0 0 0 0 0 0 0 0 0 127 0" result="hardAlpha"/>
<feMorphology radius="2" operator="dilate" in="SourceAlpha" result="effect2_dropShadow_7775_18276"/>
<feOffset/>
<feGaussianBlur stdDeviation="3"/>
<feComposite in2="hardAlpha" operator="out"/>
<feColorMatrix type="matrix" values="0 0 0 0 0 0 0 0 0 0 0 0 0 0 0 0 0 0 0.05 0"/>
<feBlend mode="normal" in2="effect1_dropShadow_7775_18276" result="effect2_dropShadow_7775_18276"/>
<feBlend mode="normal" in="SourceGraphic" in2="effect2_dropShadow_7775_18276" result="shape"/>
</filter>
<clipPath id="clip0_7775_18276">
<rect width="47.7596" height="13.67" fill="white" transform="translate(21.1133 21.1143)"/>
</clipPath>
<clipPath id="clip1_7775_18276">
<rect width="13.67" height="13.67" fill="white" transform="translate(21.1133 21.1143)"/>
</clipPath>
<clipPath id="clip2_7775_18276">
<rect width="46.7596" height="13.67" fill="white" transform="translate(21.1133 67.9004)"/>
</clipPath>
<clipPath id="clip3_7775_18276">
<rect width="13.67" height="13.67" fill="white" transform="translate(21.1133 67.9004)"/>
</clipPath>
<clipPath id="clip4_7775_18276">
<path d="M105.41 58.4354C105.41 53.7163 109.236 49.8906 113.955 49.8906C118.674 49.8906 122.5 53.7163 122.5 58.4354C122.5 63.1545 118.674 66.9802 113.955 66.9802C109.236 66.9802 105.41 63.1545 105.41 58.4354Z" fill="white"/>
</clipPath>
</defs>
</svg>
