<svg width="108" height="108" viewBox="0 0 108 108" fill="none" xmlns="http://www.w3.org/2000/svg">
  <rect width="108" height="108" rx="54" fill="#FAE0E0"/>
  <path d="M54 54L72 72M72 54L54 72" stroke="#E08989" stroke-width="4" stroke-linecap="round" stroke-linejoin="round"/>
  <path d="M54.2302 61.7109H43.4763C43.2033 61.7109 42.9819 61.9323 42.9819 62.2053V63.119C42.9819 63.392 43.2033 63.6134 43.4763 63.6134H54.2302C54.5032 63.6134 54.7246 63.392 54.7246 63.119V62.2053C54.7246 61.9323 54.5032 61.7109 54.2302 61.7109Z" fill="#F5C2C2"/>
  <ellipse cx="37.3737" cy="62.662" rx="2.33093" ry="2.33094" fill="#F5C2C2"/>
  <path d="M76.1799 21.2557L31.6165 21.9534C29.3882 21.9883 27.6101 23.823 27.645 26.0514L28.0684 53.0947C28.1033 55.323 29.938 57.1012 32.1663 57.0663L76.7297 56.3686C78.958 56.3337 80.7362 54.499 80.7013 52.2706L80.2778 25.2273C80.243 22.999 78.4082 21.2208 76.1799 21.2557Z" fill="#F5C2C2" stroke="#E08989" stroke-linecap="round" stroke-linejoin="round"/>
  <path d="M81.3998 38.3414L38.3497 26.8061C36.197 26.2293 33.9843 27.5068 33.4075 29.6595L26.4073 55.7846C25.8305 57.9372 27.108 60.1499 29.2607 60.7267L72.3109 72.262C74.4635 72.8388 76.6762 71.5613 77.253 69.4086L84.2532 43.2836C84.83 41.1309 83.5525 38.9182 81.3998 38.3414Z" fill="white" stroke="#E08989" stroke-linecap="round" stroke-linejoin="round"/>
  <path d="M74.96 50.2933L66.9707 48.1526C66.0765 47.913 65.1573 48.4437 64.9177 49.3379L63.6075 54.2277C63.3679 55.1219 63.8986 56.041 64.7928 56.2806L72.7821 58.4214C73.6763 58.661 74.5954 58.1303 74.835 57.2361L76.1452 52.3463C76.3849 51.4521 75.8542 50.5329 74.96 50.2933Z" fill="#F5C2C2" stroke="#E08989" stroke-linecap="round" stroke-linejoin="round"/>
  <path d="M64.6362 50.3899L67.7715 51.23L68.0217 50.2961" stroke="#E08989" stroke-linecap="round" stroke-linejoin="round"/>
  <path d="M63.8894 53.1758L67.0247 54.0159L66.7744 54.9498" stroke="#E08989" stroke-linecap="round" stroke-linejoin="round"/>
  <path d="M75.9003 53.2619L72.8162 52.4355" stroke="#E08989" stroke-linecap="round" stroke-linejoin="round"/>
  <path d="M75.3837 55.1895L69.9788 53.7412" stroke="#E08989" stroke-linecap="round" stroke-linejoin="round"/>
  <path d="M74.8671 57.1184L71.783 56.292" stroke="#E08989" stroke-linecap="round" stroke-linejoin="round"/>
  <path d="M42.5146 48.4501L32.8242 45.8535L32.1369 48.4186L41.8273 51.0152L42.5146 48.4501Z" fill="#E08484"/>
  <path d="M71.049 66.8433L69.7735 71.6032L62.1216 69.5528L63.397 64.7929C63.9728 62.6441 66.154 61.3638 68.2649 61.9295C69.3221 62.2127 70.161 62.9046 70.6667 63.7925C71.1684 64.6826 71.3368 65.7689 71.049 66.8433Z" fill="#E08989" stroke="#E08989" stroke-linecap="round" stroke-linejoin="round"/>
  <path d="M48.8847 94.4998L25.6409 88.2716C23.8343 87.7876 22.7641 85.9036 23.2569 84.0641L24.2151 80.4883" stroke="#E08989" stroke-linecap="round" stroke-linejoin="round"/>
  <path d="M48.8849 94.4991L23.5693 87.7158C21.6318 87.1967 20.491 85.1833 21.0186 83.2141C21.4304 81.6773 22.7373 80.6228 24.2152 80.4875C24.3818 80.4681 24.5505 80.4668 24.7207 80.4732L24.9301 80.4902L24.9507 80.492L50.6228 81.9125C47.8134 81.8978 45.2238 83.7993 44.451 86.6832C43.5357 90.0994 45.5236 93.5985 48.8849 94.4991Z" fill="#F5C2C2" stroke="#E08989" stroke-linecap="round" stroke-linejoin="round"/>
  <path d="M68.2651 61.9295C66.1541 61.3639 63.9729 62.6442 63.3972 64.793L56.5485 90.3527C55.6919 93.5493 52.4522 95.455 49.307 94.6122L48.8848 94.4991C45.5236 93.5984 43.5356 90.0994 44.4509 86.6833C45.2237 83.7993 47.8133 81.8978 50.6227 81.9125L24.9506 80.492L24.93 80.4902L24.7206 80.4732C24.5504 80.4668 24.3817 80.4681 24.2151 80.4875L30.7635 56.0488C31.0513 54.9744 31.7404 54.1178 32.6232 53.5987C33.5018 53.0817 34.5775 52.9029 35.6314 53.1853L68.2651 61.9295Z" fill="white" stroke="#E08989" stroke-linecap="round" stroke-linejoin="round"/>
<path d="M18.6604 31.6562C18.6604 31.6562 14.2767 30.3502 12.9603 34.7146C14.2766 30.3503 9.90186 29.0146 9.90186 29.0146C9.90186 29.0146 14.2857 30.3204 15.6019 25.9561C14.2857 30.3204 18.6604 31.6562 18.6604 31.6562Z" fill="white" stroke="#E08989" stroke-linecap="round" stroke-linejoin="round"/>
<path d="M98.9562 58.168C98.9562 58.168 95.2124 62.5601 99.5767 66.3061C95.2123 62.5601 91.4387 66.9265 91.4387 66.9265C91.4387 66.9265 95.1825 62.5344 90.8181 58.7885C95.1825 62.5344 98.9562 58.168 98.9562 58.168Z" fill="white" stroke="#E08989" stroke-linecap="round" stroke-linejoin="round"/>
</svg>

