<svg width="153" height="24" viewBox="0 0 153 24" fill="none" xmlns="http://www.w3.org/2000/svg">
<g clip-path="url(#clip0_3094_1840)">
<path d="M16.466 3.15111C18.1886 1.22506 20.7025 0.000762764 23.5068 0.000762644C28.6827 0.000762415 32.8945 4.14674 32.8945 9.24535C32.8945 14.3425 29.3261 19.5517 23.5061 17.5611C23.5061 17.5611 17.8559 15.2783 18.8129 18.49C19.7699 21.7016 19.1656 22.45 18.8129 23.1119C18.4602 23.7738 14.7144 23.9948 14.1198 23.1119C13.5252 22.2291 15.117 16.7967 14.4402 14.599C13.7634 12.4014 13.6482 10.3396 14.1198 9.24535C15.3154 6.47152 12.0139 4.6227 9.42591 4.6227C6.83802 4.6227 5.23272 5.3886 4.73207 9.24535C4.23141 13.1022 7.66662 14.8538 9.42591 13.868C11.1853 12.8822 11.4279 13.4077 11.7729 13.868C12.1179 14.3283 13.6822 18.3255 11.7729 18.4893C9.8635 18.653 9.42591 18.4893 9.42591 18.4893C4.25005 18.4893 0.554296 14.767 0.0382068 9.24467C-0.477881 3.72235 4.2486 -0.00067116 9.42591 -0.000671387C12.2302 0.000762002 14.7441 1.22363 16.466 3.15111ZM18.8129 13.8666C19.1474 14.4327 20.28 14.3939 23.5061 13.8666C26.536 13.1499 28.1999 11.7929 28.1999 9.24462C28.1999 6.69572 28.1992 5.04392 23.5061 4.62199C18.8129 4.20007 18.0233 6.85224 18.8122 9.24467C19.6011 11.6371 17.9508 11.6703 18.8122 13.8666H18.8129Z" fill="white"/>
<path d="M50.4518 19.2545H40.5449V3.43921H50.0047C53.2285 3.43921 54.97 4.80829 54.97 7.28677C54.97 9.24601 53.9345 10.6623 51.2989 10.8511V11.0636C54.217 11.276 55.6285 12.7395 55.6285 14.8639C55.6285 17.5549 53.9815 19.2545 50.4518 19.2545ZM44.0747 6.62589V9.71808H49.6046C50.8988 9.71808 51.4401 9.26959 51.4401 8.1838C51.4401 7.09796 50.8753 6.62589 49.5576 6.62589H44.0747ZM44.0747 12.6451V16.0678H50.0282C51.4636 16.0678 52.0519 15.6193 52.0519 14.3447C52.0519 13.0936 51.4636 12.6451 50.0282 12.6451H44.0747Z" fill="white"/>
<path d="M60.0846 19.4905C57.5432 19.4905 56.0137 18.3103 56.0137 16.3275C56.0137 14.5807 57.3076 13.4949 59.8256 13.2352L64.8851 12.7159V12.2674C64.8851 10.7331 64.2026 10.3082 62.3201 10.3082C60.5316 10.3082 59.8021 10.7803 59.8021 12.1258V12.2202H56.2487V12.1494C56.2487 9.22237 58.6961 7.19238 62.5791 7.19238C66.5085 7.19238 68.3675 9.22237 68.3675 12.3146V19.2545H65.073V16.5399H64.8851C64.3436 18.3811 62.6966 19.4905 60.0846 19.4905ZM59.5666 16.0914C59.5666 16.7287 60.0611 16.9884 61.0966 16.9884C63.4966 16.9884 64.7911 16.4219 64.8851 14.7459L60.7906 15.218C59.9431 15.2888 59.5666 15.5249 59.5666 16.0914Z" fill="white"/>
<path d="M75.9689 19.4905C71.9215 19.4905 69.333 17.0828 69.333 13.3532C69.333 9.57647 71.9215 7.19238 75.9689 7.19238C79.7579 7.19238 82.3464 9.22237 82.3464 12.291V12.6215H78.8399V12.4326C78.8399 10.9219 77.7339 10.379 75.8984 10.379C73.804 10.379 72.8395 11.158 72.8395 13.3532C72.8395 15.5249 73.804 16.3038 75.8984 16.3038C77.7339 16.3038 78.8399 15.761 78.8399 14.2502V14.0614H82.3464V14.3919C82.3464 17.4369 79.7579 19.4905 75.9689 19.4905Z" fill="white"/>
<path d="M86.924 19.2545H83.3945V3.43921H86.924V11.8189H89.607L92.6189 7.42843H96.8074L92.5009 13.1408L96.7369 19.2545H92.5719L89.6305 14.982H86.924V19.2545Z" fill="white"/>
<path d="M100.465 19.2545H97.1943V3.43921H100.724V10.5679H100.912C101.312 8.58507 102.748 7.19239 105.548 7.19239C109.078 7.19239 111.055 9.57648 111.055 13.3532C111.055 17.0828 109.054 19.4905 105.383 19.4905C102.654 19.4905 101.101 18.3103 100.677 15.9734H100.465V19.2545ZM100.724 13.424C100.724 15.4777 101.924 16.2567 104.16 16.2567C106.442 16.2567 107.478 15.5013 107.478 13.3532C107.478 11.1816 106.442 10.4262 104.183 10.4262C101.901 10.4262 100.724 11.1816 100.724 13.2352V13.424Z" fill="white"/>
<path d="M118.334 19.4905C114.31 19.4905 111.604 17.0828 111.604 13.3532C111.604 9.57647 114.31 7.19238 118.334 7.19238C122.358 7.19238 125.064 9.57647 125.064 13.3532C125.064 17.0828 122.358 19.4905 118.334 19.4905ZM118.334 16.351C120.711 16.351 121.558 15.4305 121.558 13.3532C121.558 11.276 120.711 10.3082 118.334 10.3082C115.934 10.3082 115.11 11.276 115.11 13.3532C115.11 15.4305 115.934 16.351 118.334 16.351Z" fill="white"/>
<path d="M129.565 19.2545H126.036V7.42842H129.307V11.0636H129.518C129.824 9.08077 131.236 7.19238 134.319 7.19238C137.542 7.19238 139.072 9.26958 139.072 11.8898V19.2545H135.542V13.07C135.542 11.1816 134.766 10.379 132.601 10.379C130.365 10.379 129.565 11.276 129.565 13.2824V19.2545Z" fill="white"/>
<path d="M146.646 19.4905C142.717 19.4905 140.034 17.5549 140.034 13.3532C140.034 9.57647 142.693 7.19238 146.576 7.19238C150.435 7.19238 153 9.22237 153 12.9283C153 13.3532 152.953 13.6601 152.906 14.0614H143.305C143.399 15.879 144.246 16.6579 146.529 16.6579C148.623 16.6579 149.353 16.115 149.353 15.1V14.8639H152.882V15.1236C152.882 17.6966 150.388 19.4905 146.646 19.4905ZM146.505 9.95416C144.411 9.95416 143.517 10.6623 143.352 12.1966H149.611C149.517 10.6387 148.576 9.95416 146.505 9.95416Z" fill="white"/>
</g>
<defs>
<clipPath id="clip0_3094_1840">
<rect width="153" height="24" fill="white"/>
</clipPath>
</defs>
</svg>
