<svg width="153" height="24" viewBox="0 0 153 24" fill="none" xmlns="http://www.w3.org/2000/svg">
<g clip-path="url(#clip0_3359_3169)">
<path d="M16.4655 3.15105C18.1881 1.225 20.702 0.000701729 23.5063 0.000701609C28.6822 0.000701379 32.894 4.14668 32.894 9.24529C32.894 14.3425 29.3256 19.5517 23.5056 17.5611C23.5056 17.5611 17.8554 15.2783 18.8124 18.4899C19.7694 21.7015 19.1652 22.45 18.8124 23.1119C18.4597 23.7737 14.7139 23.9947 14.1193 23.1119C13.5247 22.229 15.1166 16.7966 14.4397 14.599C13.7629 12.4013 13.6477 10.3395 14.1193 9.24529C15.3149 6.47146 12.0134 4.62264 9.42542 4.62264C6.83753 4.62264 5.23223 5.38854 4.73158 9.24529C4.23092 13.1021 7.66613 14.8538 9.42542 13.868C11.1848 12.8821 11.4274 13.4077 11.7724 13.868C12.1174 14.3283 13.6817 18.3254 11.7724 18.4892C9.86301 18.653 9.42542 18.4892 9.42542 18.4892C4.24956 18.4892 0.553807 14.7669 0.0377185 9.24461C-0.478369 3.72229 4.24811 -0.000732195 9.42542 -0.000732422C12.2297 0.000700967 14.7436 1.22357 16.4655 3.15105ZM18.8124 13.8665C19.1469 14.4326 20.2795 14.3939 23.5056 13.8665C26.5355 13.1498 28.1995 11.7928 28.1995 9.24456C28.1995 6.69565 28.1987 5.04385 23.5056 4.62193C18.8124 4.2 18.0228 6.85218 18.8117 9.24461C19.6006 11.637 17.9503 11.6702 18.8117 13.8665H18.8124Z" fill="#0E121B"/>
<path d="M50.4518 19.2545H40.5449V3.43921H50.0047C53.2285 3.43921 54.97 4.80829 54.97 7.28677C54.97 9.24601 53.9345 10.6623 51.2989 10.8511V11.0636C54.217 11.276 55.6285 12.7395 55.6285 14.8639C55.6285 17.5549 53.9815 19.2545 50.4518 19.2545ZM44.0747 6.62589V9.71808H49.6046C50.8988 9.71808 51.4401 9.26959 51.4401 8.1838C51.4401 7.09796 50.8753 6.62589 49.5576 6.62589H44.0747ZM44.0747 12.6451V16.0678H50.0282C51.4636 16.0678 52.0519 15.6193 52.0519 14.3447C52.0519 13.0936 51.4636 12.6451 50.0282 12.6451H44.0747Z" fill="#0E121B"/>
<path d="M60.0846 19.4905C57.5432 19.4905 56.0137 18.3103 56.0137 16.3275C56.0137 14.5807 57.3076 13.4949 59.8256 13.2352L64.8851 12.7159V12.2674C64.8851 10.7331 64.2026 10.3082 62.3201 10.3082C60.5316 10.3082 59.8021 10.7803 59.8021 12.1258V12.2202H56.2487V12.1494C56.2487 9.22237 58.6961 7.19238 62.5791 7.19238C66.5085 7.19238 68.3675 9.22237 68.3675 12.3146V19.2545H65.073V16.5399H64.8851C64.3436 18.3811 62.6966 19.4905 60.0846 19.4905ZM59.5666 16.0914C59.5666 16.7287 60.0611 16.9884 61.0966 16.9884C63.4966 16.9884 64.7911 16.4219 64.8851 14.7459L60.7906 15.218C59.9431 15.2888 59.5666 15.5249 59.5666 16.0914Z" fill="#0E121B"/>
<path d="M75.9689 19.4905C71.9215 19.4905 69.333 17.0828 69.333 13.3532C69.333 9.57647 71.9215 7.19238 75.9689 7.19238C79.7579 7.19238 82.3464 9.22237 82.3464 12.291V12.6215H78.8399V12.4326C78.8399 10.9219 77.7339 10.379 75.8984 10.379C73.804 10.379 72.8395 11.158 72.8395 13.3532C72.8395 15.5249 73.804 16.3038 75.8984 16.3038C77.7339 16.3038 78.8399 15.761 78.8399 14.2502V14.0614H82.3464V14.3919C82.3464 17.4369 79.7579 19.4905 75.9689 19.4905Z" fill="#0E121B"/>
<path d="M86.924 19.2545H83.3945V3.43921H86.924V11.8189H89.607L92.6189 7.42843H96.8074L92.5009 13.1408L96.7369 19.2545H92.5719L89.6305 14.982H86.924V19.2545Z" fill="#0E121B"/>
<path d="M100.465 19.2545H97.1943V3.43921H100.724V10.5679H100.912C101.312 8.58507 102.748 7.19239 105.548 7.19239C109.078 7.19239 111.055 9.57648 111.055 13.3532C111.055 17.0828 109.054 19.4905 105.383 19.4905C102.654 19.4905 101.101 18.3103 100.677 15.9734H100.465V19.2545ZM100.724 13.424C100.724 15.4777 101.924 16.2567 104.16 16.2567C106.442 16.2567 107.478 15.5013 107.478 13.3532C107.478 11.1816 106.442 10.4262 104.183 10.4262C101.901 10.4262 100.724 11.1816 100.724 13.2352V13.424Z" fill="#0E121B"/>
<path d="M118.334 19.4905C114.31 19.4905 111.604 17.0828 111.604 13.3532C111.604 9.57647 114.31 7.19238 118.334 7.19238C122.358 7.19238 125.064 9.57647 125.064 13.3532C125.064 17.0828 122.358 19.4905 118.334 19.4905ZM118.334 16.351C120.711 16.351 121.558 15.4305 121.558 13.3532C121.558 11.276 120.711 10.3082 118.334 10.3082C115.934 10.3082 115.11 11.276 115.11 13.3532C115.11 15.4305 115.934 16.351 118.334 16.351Z" fill="#0E121B"/>
<path d="M129.565 19.2545H126.035V7.42842H129.306V11.0636H129.518C129.824 9.08077 131.236 7.19238 134.318 7.19238C137.542 7.19238 139.071 9.26958 139.071 11.8898V19.2545H135.542V13.07C135.542 11.1816 134.765 10.379 132.6 10.379C130.365 10.379 129.565 11.276 129.565 13.2824V19.2545Z" fill="#0E121B"/>
<path d="M146.646 19.4905C142.716 19.4905 140.033 17.5549 140.033 13.3532C140.033 9.57647 142.693 7.19238 146.575 7.19238C150.435 7.19238 153 9.22237 153 12.9283C153 13.3532 152.952 13.6601 152.905 14.0614H143.304C143.398 15.879 144.246 16.6579 146.528 16.6579C148.623 16.6579 149.352 16.115 149.352 15.1V14.8639H152.882V15.1236C152.882 17.6966 150.387 19.4905 146.646 19.4905ZM146.505 9.95416C144.41 9.95416 143.516 10.6623 143.351 12.1966H149.611C149.517 10.6387 148.576 9.95416 146.505 9.95416Z" fill="#0E121B"/>
</g>
<defs>
<clipPath id="clip0_3359_3169">
<rect width="153" height="24" fill="white"/>
</clipPath>
</defs>
</svg>
