<svg width="582" height="264" viewBox="0 0 582 264" fill="none" xmlns="http://www.w3.org/2000/svg">
<path d="M291.336 56.2048C321.814 22.1279 366.292 0.46678 415.906 0.466778C507.481 0.466774 582 73.8203 582 164.028C582 254.211 518.865 346.376 415.894 311.157C415.894 311.157 315.927 270.768 332.859 327.591C349.791 384.413 339.1 397.655 332.859 409.365C326.618 421.075 260.346 424.985 249.825 409.365C239.305 393.745 267.469 297.632 255.495 258.749C243.521 219.867 241.482 183.388 249.825 164.028C270.978 114.952 212.566 82.2413 166.778 82.2413C120.991 82.2413 92.5894 95.7921 83.7316 164.028C74.8735 232.265 135.652 263.257 166.778 245.815C197.906 228.374 202.198 237.672 208.302 245.815C214.406 253.96 242.084 324.68 208.302 327.578C174.52 330.475 166.778 327.578 166.778 327.578C75.2034 327.578 9.81561 261.72 0.684619 164.016C-8.44635 66.3116 75.1777 0.44141 166.778 0.441406C216.393 0.466767 260.871 22.1025 291.336 56.2048ZM332.859 245.79C338.778 255.806 358.817 255.12 415.894 245.79C469.501 233.11 498.941 209.101 498.941 164.015C498.941 118.918 498.928 89.6936 415.894 82.2286C332.859 74.7636 318.889 121.688 332.847 164.016C346.804 206.344 317.606 206.932 332.847 245.79H332.859Z" fill="url(#paint0_linear_5277_9723)" style="mix-blend-mode:color-dodge"/>
<defs>
<linearGradient id="paint0_linear_5277_9723" x1="291" y1="419.666" x2="291" y2="0.441406" gradientUnits="userSpaceOnUse">
<stop offset="0.451923"/>
<stop offset="1" stop-color="white" stop-opacity="0.09"/>
</linearGradient>
</defs>
</svg>
