<svg width="25" height="18" viewBox="0 0 25 18" fill="none" xmlns="http://www.w3.org/2000/svg">
<path d="M12.1596 2.32742C13.4317 0.905138 15.2881 0.00105904 17.3589 0.00105896C21.181 0.00105879 24.2912 3.06264 24.2912 6.82769C24.2912 10.5917 21.6561 14.4384 17.3584 12.9685C17.3584 12.9685 13.186 11.2827 13.8927 13.6544C14.5994 16.026 14.1532 16.5787 13.8927 17.0674C13.6322 17.5562 10.8662 17.7193 10.4271 17.0674C9.98797 16.4155 11.1635 12.404 10.6637 10.7811C10.1639 9.15827 10.0788 7.63573 10.4271 6.82769C11.3099 4.77937 8.87195 3.41412 6.96089 3.41412C5.04987 3.41412 3.86444 3.97969 3.49474 6.82769C3.12503 9.67574 5.66175 10.9693 6.96089 10.2413C8.26007 9.5133 8.43923 9.90139 8.694 10.2413C8.94876 10.5812 10.104 13.5329 8.694 13.6538C7.28403 13.7748 6.96089 13.6538 6.96089 13.6538C3.1388 13.6538 0.409678 10.9051 0.0285742 6.82719C-0.352529 2.74925 3.13772 1.6721e-07 6.96089 0C9.03171 0.00105848 10.8881 0.904079 12.1596 2.32742ZM13.8927 10.2402C14.1397 10.6583 14.9761 10.6296 17.3584 10.2402C19.5958 9.71099 20.8245 8.70892 20.8245 6.82716C20.8245 4.94492 20.824 3.72516 17.3584 3.41359C13.8927 3.10202 13.3096 5.06051 13.8922 6.82719C14.4747 8.59384 13.2561 8.61838 13.8922 10.2402H13.8927Z" fill="#0E121B"/>
</svg>
