<svg width="58" height="42" viewBox="0 0 58 42" fill="none" xmlns="http://www.w3.org/2000/svg">
<path id="Vector" d="M29.0331 5.7827C32.0478 2.41212 36.4471 0.2696 41.3545 0.269599C50.4123 0.269599 57.783 7.52506 57.783 16.4476C57.783 25.3677 51.5383 34.4838 41.3533 31.0003C41.3533 31.0003 31.4655 27.0053 33.1402 32.6257C34.815 38.2461 33.7575 39.5558 33.1402 40.7141C32.5229 41.8724 25.9679 42.2591 24.9273 40.7141C23.8867 39.1692 26.6725 29.6625 25.4881 25.8165C24.3037 21.9707 24.102 18.3626 24.9273 16.4476C27.0195 11.5934 21.2419 8.358 16.713 8.358C12.1842 8.358 9.37491 9.69832 8.49877 16.4476C7.62261 23.197 13.6342 26.2625 16.713 24.5373C19.7918 22.8121 20.2164 23.7318 20.8202 24.5373C21.4239 25.3429 24.1616 32.3379 20.8202 32.6245C17.4788 32.9111 16.713 32.6245 16.713 32.6245C7.65524 32.6245 1.18767 26.1105 0.284513 16.4464C-0.61864 6.78238 7.6527 0.26709 16.713 0.26709C21.6205 0.269598 26.0198 2.40961 29.0331 5.7827ZM33.1402 24.5348C33.7256 25.5255 35.7077 25.4576 41.3533 24.5348C46.6557 23.2806 49.5676 20.9058 49.5676 16.4463C49.5676 11.9858 49.5663 9.09512 41.3533 8.35675C33.1402 7.61838 31.7584 12.2597 33.139 16.4464C34.5196 20.6331 31.6315 20.6913 33.139 24.5348H33.1402Z" fill="white"/>
</svg>
