<svg xmlns="http://www.w3.org/2000/svg" width="14" height="12" viewBox="0 0 14 12" fill="none">
  <path d="M2.1543 10.1357C2.32987 10.1042 2.47349 10.115 2.59277 10.1494C2.66691 10.1708 2.7415 10.2054 2.81738 10.2559L2.21191 11.3076L2.21094 11.3096C2.12602 11.4579 1.93293 11.5133 1.77637 11.4238C1.62866 11.3394 1.57335 11.1475 1.66113 10.9912L2.1543 10.1357ZM10.0615 7.85449L10.2158 8.12109H12.7334C12.9099 8.12129 13.0488 8.26076 13.0488 8.4375C13.0488 8.61423 12.9099 8.75371 12.7334 8.75391H10.583L11.0439 9.55371L11.8721 10.9912C11.9582 11.1446 11.9074 11.3344 11.7529 11.4248C11.6189 11.4994 11.4571 11.4704 11.3584 11.3584L11.3203 11.3057C9.92415 8.88426 8.8796 7.07777 8.18359 5.87012L8.18262 5.86914L8.08691 5.68457C7.84622 5.16153 7.87234 4.66099 7.99414 4.28125C8.51955 5.18766 9.20914 6.37828 10.0615 7.85449ZM5.50098 0.574219C5.65417 0.488718 5.84435 0.539981 5.93457 0.694336L6.30273 1.34473L6.76172 2.15625L7.22852 1.34863L7.60645 0.695312L7.60742 0.693359C7.69228 0.544844 7.88536 0.489585 8.04199 0.579102C8.18964 0.66355 8.24488 0.85444 8.15723 1.01074L4.51465 7.31641L4.05273 8.11719H7.61133C7.80739 8.11719 7.97668 8.22693 8.08105 8.42285C8.13688 8.52771 8.16432 8.64095 8.16602 8.74902H0.849609C0.672929 8.74902 0.533203 8.60949 0.533203 8.43262C0.533304 8.25584 0.672992 8.11719 0.849609 8.11719H3.32227L3.47656 7.84961L6.24902 3.04492L6.40234 2.77832L6.24902 2.51172L5.38379 1.01074C5.29625 0.857162 5.34624 0.665099 5.50098 0.574219Z" fill="white" stroke="black" stroke-width="1.0668"/>
</svg>