<svg xmlns="http://www.w3.org/2000/svg" viewBox="0 0 100 100" preserveAspectRatio="xMidYMid" width="100%" height="100%" style="shape-rendering: auto; display: block; background: transparent;" xmlns:xlink="http://www.w3.org/1999/xlink"><g><g transform="rotate(0 50 50)">
  <rect fill="#0075ff" height="6" width="2" ry="0.72" rx="0.72" y="13" x="49">
    <animate repeatCount="indefinite" begin="-32.432432432432435s" dur="33.333333333333336s" keyTimes="0;1" values="1;0" attributeName="opacity"></animate>
  </rect>
</g><g transform="rotate(9.72972972972973 50 50)">
  <rect fill="#0075ff" height="6" width="2" ry="0.72" rx="0.72" y="13" x="49">
    <animate repeatCount="indefinite" begin="-31.531531531531535s" dur="33.333333333333336s" keyTimes="0;1" values="1;0" attributeName="opacity"></animate>
  </rect>
</g><g transform="rotate(19.45945945945946 50 50)">
  <rect fill="#0075ff" height="6" width="2" ry="0.72" rx="0.72" y="13" x="49">
    <animate repeatCount="indefinite" begin="-30.630630630630634s" dur="33.333333333333336s" keyTimes="0;1" values="1;0" attributeName="opacity"></animate>
  </rect>
</g><g transform="rotate(29.18918918918919 50 50)">
  <rect fill="#0075ff" height="6" width="2" ry="0.72" rx="0.72" y="13" x="49">
    <animate repeatCount="indefinite" begin="-29.729729729729733s" dur="33.333333333333336s" keyTimes="0;1" values="1;0" attributeName="opacity"></animate>
  </rect>
</g><g transform="rotate(38.91891891891892 50 50)">
  <rect fill="#0075ff" height="6" width="2" ry="0.72" rx="0.72" y="13" x="49">
    <animate repeatCount="indefinite" begin="-28.828828828828833s" dur="33.333333333333336s" keyTimes="0;1" values="1;0" attributeName="opacity"></animate>
  </rect>
</g><g transform="rotate(48.648648648648646 50 50)">
  <rect fill="#0075ff" height="6" width="2" ry="0.72" rx="0.72" y="13" x="49">
    <animate repeatCount="indefinite" begin="-27.927927927927932s" dur="33.333333333333336s" keyTimes="0;1" values="1;0" attributeName="opacity"></animate>
  </rect>
</g><g transform="rotate(58.37837837837838 50 50)">
  <rect fill="#0075ff" height="6" width="2" ry="0.72" rx="0.72" y="13" x="49">
    <animate repeatCount="indefinite" begin="-27.02702702702703s" dur="33.333333333333336s" keyTimes="0;1" values="1;0" attributeName="opacity"></animate>
  </rect>
</g><g transform="rotate(68.10810810810811 50 50)">
  <rect fill="#0075ff" height="6" width="2" ry="0.72" rx="0.72" y="13" x="49">
    <animate repeatCount="indefinite" begin="-26.126126126126128s" dur="33.333333333333336s" keyTimes="0;1" values="1;0" attributeName="opacity"></animate>
  </rect>
</g><g transform="rotate(77.83783783783784 50 50)">
  <rect fill="#0075ff" height="6" width="2" ry="0.72" rx="0.72" y="13" x="49">
    <animate repeatCount="indefinite" begin="-25.225225225225227s" dur="33.333333333333336s" keyTimes="0;1" values="1;0" attributeName="opacity"></animate>
  </rect>
</g><g transform="rotate(87.56756756756756 50 50)">
  <rect fill="#0075ff" height="6" width="2" ry="0.72" rx="0.72" y="13" x="49">
    <animate repeatCount="indefinite" begin="-24.324324324324326s" dur="33.333333333333336s" keyTimes="0;1" values="1;0" attributeName="opacity"></animate>
  </rect>
</g><g transform="rotate(97.29729729729729 50 50)">
  <rect fill="#0075ff" height="6" width="2" ry="0.72" rx="0.72" y="13" x="49">
    <animate repeatCount="indefinite" begin="-23.423423423423426s" dur="33.333333333333336s" keyTimes="0;1" values="1;0" attributeName="opacity"></animate>
  </rect>
</g><g transform="rotate(107.02702702702703 50 50)">
  <rect fill="#0075ff" height="6" width="2" ry="0.72" rx="0.72" y="13" x="49">
    <animate repeatCount="indefinite" begin="-22.522522522522525s" dur="33.333333333333336s" keyTimes="0;1" values="1;0" attributeName="opacity"></animate>
  </rect>
</g><g transform="rotate(116.75675675675676 50 50)">
  <rect fill="#0075ff" height="6" width="2" ry="0.72" rx="0.72" y="13" x="49">
    <animate repeatCount="indefinite" begin="-21.621621621621625s" dur="33.333333333333336s" keyTimes="0;1" values="1;0" attributeName="opacity"></animate>
  </rect>
</g><g transform="rotate(126.48648648648648 50 50)">
  <rect fill="#0075ff" height="6" width="2" ry="0.72" rx="0.72" y="13" x="49">
    <animate repeatCount="indefinite" begin="-20.720720720720724s" dur="33.333333333333336s" keyTimes="0;1" values="1;0" attributeName="opacity"></animate>
  </rect>
</g><g transform="rotate(136.21621621621622 50 50)">
  <rect fill="#0075ff" height="6" width="2" ry="0.72" rx="0.72" y="13" x="49">
    <animate repeatCount="indefinite" begin="-19.819819819819823s" dur="33.333333333333336s" keyTimes="0;1" values="1;0" attributeName="opacity"></animate>
  </rect>
</g><g transform="rotate(145.94594594594594 50 50)">
  <rect fill="#0075ff" height="6" width="2" ry="0.72" rx="0.72" y="13" x="49">
    <animate repeatCount="indefinite" begin="-18.91891891891892s" dur="33.333333333333336s" keyTimes="0;1" values="1;0" attributeName="opacity"></animate>
  </rect>
</g><g transform="rotate(155.67567567567568 50 50)">
  <rect fill="#0075ff" height="6" width="2" ry="0.72" rx="0.72" y="13" x="49">
    <animate repeatCount="indefinite" begin="-18.01801801801802s" dur="33.333333333333336s" keyTimes="0;1" values="1;0" attributeName="opacity"></animate>
  </rect>
</g><g transform="rotate(165.40540540540542 50 50)">
  <rect fill="#0075ff" height="6" width="2" ry="0.72" rx="0.72" y="13" x="49">
    <animate repeatCount="indefinite" begin="-17.117117117117118s" dur="33.333333333333336s" keyTimes="0;1" values="1;0" attributeName="opacity"></animate>
  </rect>
</g><g transform="rotate(175.13513513513513 50 50)">
  <rect fill="#0075ff" height="6" width="2" ry="0.72" rx="0.72" y="13" x="49">
    <animate repeatCount="indefinite" begin="-16.216216216216218s" dur="33.333333333333336s" keyTimes="0;1" values="1;0" attributeName="opacity"></animate>
  </rect>
</g><g transform="rotate(184.86486486486487 50 50)">
  <rect fill="#0075ff" height="6" width="2" ry="0.72" rx="0.72" y="13" x="49">
    <animate repeatCount="indefinite" begin="-15.315315315315317s" dur="33.333333333333336s" keyTimes="0;1" values="1;0" attributeName="opacity"></animate>
  </rect>
</g><g transform="rotate(194.59459459459458 50 50)">
  <rect fill="#0075ff" height="6" width="2" ry="0.72" rx="0.72" y="13" x="49">
    <animate repeatCount="indefinite" begin="-14.414414414414416s" dur="33.333333333333336s" keyTimes="0;1" values="1;0" attributeName="opacity"></animate>
  </rect>
</g><g transform="rotate(204.32432432432432 50 50)">
  <rect fill="#0075ff" height="6" width="2" ry="0.72" rx="0.72" y="13" x="49">
    <animate repeatCount="indefinite" begin="-13.513513513513516s" dur="33.333333333333336s" keyTimes="0;1" values="1;0" attributeName="opacity"></animate>
  </rect>
</g><g transform="rotate(214.05405405405406 50 50)">
  <rect fill="#0075ff" height="6" width="2" ry="0.72" rx="0.72" y="13" x="49">
    <animate repeatCount="indefinite" begin="-12.612612612612613s" dur="33.333333333333336s" keyTimes="0;1" values="1;0" attributeName="opacity"></animate>
  </rect>
</g><g transform="rotate(223.78378378378378 50 50)">
  <rect fill="#0075ff" height="6" width="2" ry="0.72" rx="0.72" y="13" x="49">
    <animate repeatCount="indefinite" begin="-11.711711711711713s" dur="33.333333333333336s" keyTimes="0;1" values="1;0" attributeName="opacity"></animate>
  </rect>
</g><g transform="rotate(233.51351351351352 50 50)">
  <rect fill="#0075ff" height="6" width="2" ry="0.72" rx="0.72" y="13" x="49">
    <animate repeatCount="indefinite" begin="-10.810810810810812s" dur="33.333333333333336s" keyTimes="0;1" values="1;0" attributeName="opacity"></animate>
  </rect>
</g><g transform="rotate(243.24324324324326 50 50)">
  <rect fill="#0075ff" height="6" width="2" ry="0.72" rx="0.72" y="13" x="49">
    <animate repeatCount="indefinite" begin="-9.909909909909912s" dur="33.333333333333336s" keyTimes="0;1" values="1;0" attributeName="opacity"></animate>
  </rect>
</g><g transform="rotate(252.97297297297297 50 50)">
  <rect fill="#0075ff" height="6" width="2" ry="0.72" rx="0.72" y="13" x="49">
    <animate repeatCount="indefinite" begin="-9.00900900900901s" dur="33.333333333333336s" keyTimes="0;1" values="1;0" attributeName="opacity"></animate>
  </rect>
</g><g transform="rotate(262.7027027027027 50 50)">
  <rect fill="#0075ff" height="6" width="2" ry="0.72" rx="0.72" y="13" x="49">
    <animate repeatCount="indefinite" begin="-8.108108108108109s" dur="33.333333333333336s" keyTimes="0;1" values="1;0" attributeName="opacity"></animate>
  </rect>
</g><g transform="rotate(272.43243243243245 50 50)">
  <rect fill="#0075ff" height="6" width="2" ry="0.72" rx="0.72" y="13" x="49">
    <animate repeatCount="indefinite" begin="-7.207207207207208s" dur="33.333333333333336s" keyTimes="0;1" values="1;0" attributeName="opacity"></animate>
  </rect>
</g><g transform="rotate(282.1621621621622 50 50)">
  <rect fill="#0075ff" height="6" width="2" ry="0.72" rx="0.72" y="13" x="49">
    <animate repeatCount="indefinite" begin="-6.306306306306307s" dur="33.333333333333336s" keyTimes="0;1" values="1;0" attributeName="opacity"></animate>
  </rect>
</g><g transform="rotate(291.8918918918919 50 50)">
  <rect fill="#0075ff" height="6" width="2" ry="0.72" rx="0.72" y="13" x="49">
    <animate repeatCount="indefinite" begin="-5.405405405405406s" dur="33.333333333333336s" keyTimes="0;1" values="1;0" attributeName="opacity"></animate>
  </rect>
</g><g transform="rotate(301.6216216216216 50 50)">
  <rect fill="#0075ff" height="6" width="2" ry="0.72" rx="0.72" y="13" x="49">
    <animate repeatCount="indefinite" begin="-4.504504504504505s" dur="33.333333333333336s" keyTimes="0;1" values="1;0" attributeName="opacity"></animate>
  </rect>
</g><g transform="rotate(311.35135135135135 50 50)">
  <rect fill="#0075ff" height="6" width="2" ry="0.72" rx="0.72" y="13" x="49">
    <animate repeatCount="indefinite" begin="-3.603603603603604s" dur="33.333333333333336s" keyTimes="0;1" values="1;0" attributeName="opacity"></animate>
  </rect>
</g><g transform="rotate(321.0810810810811 50 50)">
  <rect fill="#0075ff" height="6" width="2" ry="0.72" rx="0.72" y="13" x="49">
    <animate repeatCount="indefinite" begin="-2.702702702702703s" dur="33.333333333333336s" keyTimes="0;1" values="1;0" attributeName="opacity"></animate>
  </rect>
</g><g transform="rotate(330.81081081081084 50 50)">
  <rect fill="#0075ff" height="6" width="2" ry="0.72" rx="0.72" y="13" x="49">
    <animate repeatCount="indefinite" begin="-1.801801801801802s" dur="33.333333333333336s" keyTimes="0;1" values="1;0" attributeName="opacity"></animate>
  </rect>
</g><g transform="rotate(340.5405405405405 50 50)">
  <rect fill="#0075ff" height="6" width="2" ry="0.72" rx="0.72" y="13" x="49">
    <animate repeatCount="indefinite" begin="-0.900900900900901s" dur="33.333333333333336s" keyTimes="0;1" values="1;0" attributeName="opacity"></animate>
  </rect>
</g><g transform="rotate(350.27027027027026 50 50)">
  <rect fill="#0075ff" height="6" width="2" ry="0.72" rx="0.72" y="13" x="49">
    <animate repeatCount="indefinite" begin="0s" dur="33.333333333333336s" keyTimes="0;1" values="1;0" attributeName="opacity"></animate>
  </rect>
</g><g></g></g><!-- [ldio] generated by https://loading.io --></svg>