<svg width="60" height="60" viewBox="0 0 60 60" fill="none" xmlns="http://www.w3.org/2000/svg">
<g clip-path="url(#clip0_7833_15509)">
<rect width="60" height="60" rx="30" fill="#122368" fill-opacity="0.5"/>
<path fill-rule="evenodd" clip-rule="evenodd" d="M7.5 25.4261C7.5 24.6757 8.10831 24.0674 8.85869 24.0674C19.3641 24.0674 27.8804 32.5837 27.8804 43.0891V96.6813C27.8804 97.7046 27.0509 98.5341 26.0276 98.5341C15.7951 98.5341 7.5 90.239 7.5 80.0065V25.4261ZM15.5346 40.5284C14.1276 40.5284 12.987 41.669 12.987 43.076V69.7272C12.987 71.1342 14.1276 72.2748 15.5346 72.2748C16.9415 72.2748 18.0821 71.1342 18.0821 69.7272V43.076C18.0821 41.669 16.9415 40.5284 15.5346 40.5284ZM13.183 80.5053C11.3431 80.5053 9.85158 79.0138 9.85158 77.1739C9.85158 75.334 11.3431 73.8425 13.183 73.8425H20.6297C22.4695 73.8425 23.9611 75.334 23.9611 77.1739C23.9611 79.0138 22.4695 80.5053 20.6297 80.5053H14.9467H13.183Z" fill="#335CFF"/>
<path d="M32.5859 51.2952C32.5859 50.5448 33.1942 49.9365 33.9446 49.9365C44.45 49.9365 52.9663 58.4528 52.9663 68.9582V96.6831C52.9663 97.7063 52.1368 98.5358 51.1135 98.5358C40.881 98.5358 32.5859 90.2407 32.5859 80.0082V51.2952Z" fill="#335CFF"/>
<path d="M34.1155 47.9612C35.4066 46.0273 39.1923 42.6514 45.7517 40.9207C51.6934 39.353 52.9663 34.6498 52.9663 32.2982V24.426C52.9663 23.3977 52.0763 22.5902 51.0565 22.722C43.6008 23.6855 32.2062 26.6999 32.5957 47.1916C34.2932 42.619 38.8766 33.2388 43.6298 32.2982L34.1155 47.9612Z" fill="#335CFF"/>
</g>
<defs>
<clipPath id="clip0_7833_15509">
<rect width="60" height="60" rx="30" fill="white"/>
</clipPath>
</defs>
</svg>
