<svg width="60" height="60" viewBox="0 0 60 60" fill="none" xmlns="http://www.w3.org/2000/svg">
<g clip-path="url(#clip0_7833_15514)">
<rect width="60" height="60" rx="30" fill="#682F12" fill-opacity="0.5"/>
<path d="M18.959 59.3633C21.6072 56.2075 26.4308 56.1511 29.313 59.0947C32.5173 62.3674 35.6329 65.247 38.5245 67.625C35.8448 68.516 32.979 69 30 69C24.3634 69 19.1313 67.2712 14.802 64.3172L18.959 59.3633Z" fill="#E97135"/>
<path d="M31.2982 44.6578C33.5088 42.0233 37.5757 42.0414 39.6505 44.7841C42.7305 48.8554 45.381 52.7703 47.5031 56.3257C48.9311 58.7183 48.5595 61.8024 46.343 63.4907C44.2731 65.0673 41.4044 64.7935 39.4357 63.0923C36.4365 60.5005 33.197 57.3746 29.8777 53.8311C27.9705 51.7951 27.9402 48.6597 29.7334 46.5227L31.2982 44.6578Z" fill="#E97135"/>
<path d="M6.22998 29.1829C8.91098 33.9134 12.5403 39.2843 16.8686 44.8328C18.8785 47.4094 18.8855 51.0491 16.785 53.5524L10.6663 60.8446C5.92323 55.9793 3 49.3314 3 42C3 37.3615 4.1695 32.9961 6.22998 29.1829Z" fill="#E97135"/>
<path d="M49.3377 23.1593C54.0784 28.0243 57 34.6706 57 42C57 47.5126 55.3457 52.6379 52.5097 56.9106C49.8523 52.0945 46.1637 46.562 41.7191 40.8272C39.7219 38.2503 39.7202 34.6206 41.8159 32.1232L49.3377 23.1593Z" fill="#E97135"/>
<path d="M11.6607 22.1828C13.7211 20.275 16.8568 20.442 18.9777 22.2823C21.8533 24.7773 24.9462 27.7593 28.1165 31.1263C30.3998 33.5513 30.4206 37.3035 28.2794 39.8548C25.5687 43.0847 20.573 43.0835 18.0494 39.7055C15.2601 35.9717 12.8408 32.3817 10.8692 29.0943C9.52156 26.8471 9.73811 23.9631 11.6607 22.1828Z" fill="#E97135"/>
<path d="M30 15C35.6387 15 40.873 16.7294 45.2033 19.6854L39.6817 26.2657C37.028 29.428 32.1916 29.4775 29.3126 26.5189C25.7989 22.9083 22.385 19.7638 19.2501 17.2254C22.5442 15.7941 26.1793 15 30 15Z" fill="#E97135"/>
</g>
<defs>
<clipPath id="clip0_7833_15514">
<rect width="60" height="60" rx="30" fill="white"/>
</clipPath>
</defs>
</svg>
