<svg width="60" height="60" viewBox="0 0 60 60" fill="none" xmlns="http://www.w3.org/2000/svg">
<g clip-path="url(#clip0_7833_15525)">
<rect width="60" height="60" rx="30" fill="#0B4627" fill-opacity="0.5"/>
<path d="M40.5 18.75H39H37.5C37.5 21.1485 36.5843 23.5028 34.7508 25.0489C32.851 26.651 30.623 28.1199 26.4514 30.2658C25.822 30.5896 25.2081 30.9551 24.6773 31.4233C23.6775 32.3052 22.5 33.5792 22.5 34.5V37.5H57V33.75C57 33.1458 56.6197 32.5163 56.1464 31.9763C55.3325 31.0477 54.1402 30.5893 52.9675 30.2028C49.2708 28.9846 46.9052 27.6064 44.521 25.2753C42.7882 23.581 42 21.1735 42 18.75H40.5Z" fill="#16643B"/>
<path d="M39.75 -12C39.3358 -12 39 -11.6642 39 -11.25V15.2121C39 15.5659 38.9176 15.9147 38.7595 16.2311C38.4387 16.8725 38.4387 17.6275 38.7595 18.2689L39 18.75H40.5L40.7405 18.2689C41.0613 17.6275 41.0613 16.8725 40.7405 16.2311C40.5824 15.9147 40.5 15.5659 40.5 15.2121V-11.25C40.5 -11.6642 40.1642 -12 39.75 -12Z" fill="#16643B"/>
<path d="M57 37.5H22.5L5.22761 106.59C3.33417 114.163 9.06246 121.5 16.8693 121.5H61.3952C69.1186 121.5 74.8309 114.31 73.0844 106.786L57 37.5Z" fill="#3EE089"/>
<path d="M46.5 37.5C46.5 38.4849 46.306 39.4602 45.9291 40.3701C45.5522 41.2801 44.9997 42.1069 44.3033 42.8033C43.6069 43.4997 42.7801 44.0522 41.8701 44.4291C40.9602 44.806 39.9849 45 39 45C38.0151 45 37.0398 44.806 36.1299 44.4291C35.2199 44.0522 34.3931 43.4997 33.6967 42.8033C33.0003 42.1069 32.4478 41.2801 32.0709 40.3701C31.694 39.4602 31.5 38.4849 31.5 37.5L39 37.5H46.5Z" fill="white"/>
</g>
<defs>
<clipPath id="clip0_7833_15525">
<rect width="60" height="60" rx="30" fill="white"/>
</clipPath>
</defs>
</svg>
