<svg width="60" height="60" viewBox="0 0 60 60" fill="none" xmlns="http://www.w3.org/2000/svg">
<g clip-path="url(#clip0_7833_15477)">
<rect width="60" height="60" rx="30" fill="#124B68" fill-opacity="0.5"/>
<circle cx="31.3129" cy="13.2064" r="1.98476" fill="#2597D0"/>
<rect x="29.3281" y="15.125" width="3.96951" height="0.661585" rx="0.264634" fill="#2597D0"/>
<path d="M30.6523 15.7871H31.9755V27.9517H30.6523V15.7871Z" fill="#2597D0"/>
<path d="M52.1913 55.1592H10.3087C10.0951 55.1592 9.92188 55.3324 9.92188 55.546V60.0811H52.5781V55.546C52.5781 55.3324 52.4049 55.1592 52.1913 55.1592Z" fill="#2597D0"/>
<path d="M48.9127 42.0342H13.5873C13.3751 42.0342 13.2031 42.2062 13.2031 42.4183V55.1592H49.2969V42.4183C49.2969 42.2062 49.1249 42.0342 48.9127 42.0342Z" fill="#2597D0"/>
<path d="M45.6288 38.7529H16.8712C16.6576 38.7529 16.4844 38.9261 16.4844 39.1398V42.0342H46.0156V39.1398C46.0156 38.9261 45.8424 38.7529 45.6288 38.7529Z" fill="#2597D0"/>
<path d="M39.0663 35.4717H23.4337C23.2201 35.4717 23.0469 35.6449 23.0469 35.8585V38.7529H39.4531V35.8585C39.4531 35.6449 39.2799 35.4717 39.0663 35.4717Z" fill="#2597D0"/>
<path d="M21.0473 45.3154H17.4059C17.0523 45.3154 16.7656 45.6021 16.7656 45.9557V51.8779H21.6875V45.9557C21.6875 45.6021 21.4009 45.3154 21.0473 45.3154Z" fill="#C0EAFF"/>
<path d="M28.7269 45.3154H25.0856C24.732 45.3154 24.4453 45.6021 24.4453 45.9557V51.8779H29.3672V45.9557C29.3672 45.6021 29.0805 45.3154 28.7269 45.3154Z" fill="#C0EAFF"/>
<path d="M37.6918 45.3154H34.0504C33.6968 45.3154 33.4102 45.6021 33.4102 45.9557V51.8779H38.332V45.9557C38.332 45.6021 38.0454 45.3154 37.6918 45.3154Z" fill="#C0EAFF"/>
<path d="M45.3754 45.3154H41.734C41.3804 45.3154 41.0938 45.6021 41.0938 45.9557V51.8779H46.0156V45.9557C46.0156 45.6021 45.729 45.3154 45.3754 45.3154Z" fill="#C0EAFF"/>
<path d="M52.5781 58.4404H9.92188V60.0811H52.5781V58.4404Z" fill="#18658B"/>
<path d="M46.0156 40.3936H16.4844V42.0342H46.0156V40.3936Z" fill="#18658B"/>
<path d="M39.4531 37.1123H23.0469V38.7529H39.4531V37.1123Z" fill="#18658B"/>
<path d="M49.2969 51.8779H13.2031V55.1592H49.2969V51.8779Z" fill="#2597D0"/>
<path d="M26.3281 35.4717L28.555 25.0794C28.6915 24.4424 29.2545 23.9873 29.906 23.9873H32.594C33.2455 23.9873 33.8085 24.4424 33.945 25.0794L36.1719 35.4717H26.3281Z" fill="#2597D0"/>
<path d="M26.68 33.8311L26.3281 35.4717H36.1719L35.82 33.8311H26.68Z" fill="#18658B"/>
<path d="M49.2969 53.5186H13.2031V55.1592H49.2969V53.5186Z" fill="#18658B"/>
</g>
<defs>
<clipPath id="clip0_7833_15477">
<rect width="60" height="60" rx="30" fill="white"/>
</clipPath>
</defs>
</svg>
