<svg width="60" height="60" viewBox="0 0 60 60" fill="none" xmlns="http://www.w3.org/2000/svg">
<g clip-path="url(#clip0_7833_15523)">
<rect width="60" height="60" rx="30" fill="#624C18" fill-opacity="0.5"/>
<path d="M14.4609 45.865C23.2991 50.5404 29.2594 49.4941 31.613 48.1624C28.3096 40.4104 15.527 31.6379 4.5 30.3305C6.31311 34.8218 9.80583 41.1743 14.4609 45.865Z" fill="#E6A819"/>
<path fill-rule="evenodd" clip-rule="evenodd" d="M32.3906 51.0569C32.7924 51.0859 33.1909 51.096 33.5859 51.0882C38.868 50.9828 43.5272 47.6508 47.1817 43.0087C45.0015 45.4827 40.7642 46.7089 38.7656 47.0254C35.8969 49.6962 33.3121 50.2114 32.3783 50.1352C32.3922 50.4532 32.3961 50.7609 32.3906 51.0569Z" fill="#A78025"/>
<path fill-rule="evenodd" clip-rule="evenodd" d="M31.613 48.1624C28.3096 40.4104 15.527 31.6379 4.5 30.3305C21.7953 29.7673 29.0224 37.9555 31.4096 45.0687C31.7278 46.0167 31.96 46.9457 32.1186 47.8322C31.9745 47.9422 31.8059 48.0533 31.613 48.1624Z" fill="#F6B51E"/>
<path fill-rule="evenodd" clip-rule="evenodd" d="M14.4609 45.865C23.2991 50.5404 29.2594 49.4941 31.613 48.1624C31.8059 48.0533 31.9745 47.9422 32.1186 47.8322C32.2632 48.641 32.3467 49.4145 32.3783 50.1352C32.3922 50.4532 32.3961 50.7609 32.3906 51.0569C32.124 51.1669 31.8583 51.2681 31.5938 51.3605C25.0521 53.6458 19.1634 50.6033 14.4609 45.865Z" fill="#A78025"/>
<path fill-rule="evenodd" clip-rule="evenodd" d="M47.1817 43.0087C45.0015 45.4827 40.7642 46.7089 38.7656 47.0254C44.8905 40.8132 51.8383 28.961 55.5 22.5C54.997 28.509 52.1563 36.3534 47.7205 42.3052C47.5434 42.5428 47.3638 42.7774 47.1817 43.0087Z" fill="#E6A819"/>
<path fill-rule="evenodd" clip-rule="evenodd" d="M32.3906 51.0569C32.7924 51.0859 33.1909 51.096 33.5859 51.0882V51.5169C33.6038 51.6925 33.621 51.8535 33.6375 52.0083C33.6977 52.5726 33.7491 53.0538 33.7923 53.8517H31.6633C31.6398 53.0281 31.6164 52.2238 31.5938 51.5169V51.3605C31.8583 51.2681 32.124 51.1669 32.3906 51.0569Z" fill="#A78025"/>
<path fill-rule="evenodd" clip-rule="evenodd" d="M31.6633 53.8517H33.7923C34.2658 62.5978 33.7586 77.6639 33.1875 79.6445C33.0491 80.1245 32.9082 80.454 32.7696 80.6678C32.1317 81.6524 31.7154 79.5012 31.7904 78.3303C32.1043 73.4276 31.8804 61.4589 31.6633 53.8517Z" fill="#E6A819"/>
<path fill-rule="evenodd" clip-rule="evenodd" d="M32.3783 50.1352C33.3121 50.2114 35.8969 49.6962 38.7656 47.0254C44.8905 40.8132 51.8383 28.961 55.5 22.5C50.0812 23.6054 36.375 35.857 32.1186 47.8322C32.2632 48.641 32.3467 49.4145 32.3783 50.1352Z" fill="#E6A819"/>
<path d="M31.4096 45.0687C31.7278 46.0167 31.96 46.9457 32.1186 47.8322C36.375 35.857 50.0812 23.6054 55.5 22.5C49.0022 23.5747 35.0873 29.593 31.4096 45.0687Z" fill="#F6B51E"/>
<path d="M14.4609 45.865C23.2991 50.5404 29.2594 49.4941 31.613 48.1624M14.4609 45.865C9.80583 41.1743 6.31311 34.8218 4.5 30.3305M14.4609 45.865C19.1634 50.6033 25.0521 53.6458 31.5937 51.3605M31.613 48.1624C28.3096 40.4104 15.527 31.6379 4.5 30.3305M31.613 48.1624C31.8059 48.0533 31.9745 47.9422 32.1186 47.8322M4.5 30.3305C21.7953 29.7673 29.0224 37.9555 31.4096 45.0687M32.3906 51.0569C32.7924 51.0859 33.1909 51.096 33.5859 51.0882M32.3906 51.0569C32.3961 50.7609 32.3922 50.4532 32.3783 50.1352M32.3906 51.0569C32.124 51.1669 31.8583 51.2681 31.5937 51.3605M33.5859 51.0882C38.868 50.9828 43.5272 47.6508 47.1817 43.0087M33.5859 51.0882V51.5169C33.6038 51.6925 33.621 51.8535 33.6375 52.0083C33.6977 52.5726 33.7491 53.0538 33.7923 53.8517M47.1817 43.0087C45.0015 45.4827 40.7642 46.7089 38.7656 47.0254M47.1817 43.0087C47.3638 42.7774 47.5434 42.5428 47.7205 42.3052M47.1817 43.0087C47.3793 42.7846 47.5599 42.5501 47.7205 42.3052M38.7656 47.0254C35.8969 49.6962 33.3121 50.2114 32.3783 50.1352M38.7656 47.0254C44.8905 40.8132 51.8383 28.961 55.5 22.5M32.3783 50.1352C32.3467 49.4145 32.2632 48.641 32.1186 47.8322M32.1186 47.8322C31.96 46.9457 31.7278 46.0167 31.4096 45.0687M32.1186 47.8322C36.375 35.857 50.0812 23.6054 55.5 22.5M31.4096 45.0687C35.0873 29.593 49.0022 23.5747 55.5 22.5M55.5 22.5C54.997 28.509 52.1563 36.3534 47.7205 42.3052M31.5937 51.3605V51.5169C31.6164 52.2238 31.6398 53.0281 31.6633 53.8517M33.7923 53.8517H31.6633M33.7923 53.8517C34.2658 62.5978 33.7586 77.6639 33.1875 79.6445C33.0491 80.1245 32.9082 80.454 32.7696 80.6678C32.1317 81.6524 31.7154 79.5012 31.7904 78.3303C32.1043 73.4276 31.8804 61.4589 31.6633 53.8517" stroke="#86661D" stroke-width="0.3" stroke-linecap="round"/>
</g>
<defs>
<clipPath id="clip0_7833_15523">
<rect width="60" height="60" rx="30" fill="white"/>
</clipPath>
</defs>
</svg>
