<svg width="60" height="60" viewBox="0 0 60 60" fill="none" xmlns="http://www.w3.org/2000/svg">
<g clip-path="url(#clip0_7833_15516)">
<rect width="60" height="60" rx="30" fill="#351A75" fill-opacity="0.5"/>
<path d="M47.4428 51.8015C47.4428 52.6393 47.1307 53.4465 46.5526 54.2041C46.164 54.7133 45.6552 55.2 45.0402 55.6585V60.4637C46.5703 59.3231 47.4428 58.0075 47.4428 56.6067V51.8015Z" fill="#4C25A7"/>
<path fill-rule="evenodd" clip-rule="evenodd" d="M12.4333 52.0262C12.4333 52.2579 12.4613 52.4869 12.5158 52.7126C13.3383 56.1159 20.2099 58.7722 28.5651 58.7722C36.9203 58.7722 43.7919 56.1159 44.6144 52.7126C44.669 52.4869 44.6969 52.2579 44.6969 52.0262C44.6969 48.3004 37.4745 45.2801 28.5651 45.2801C19.6558 45.2801 12.4333 48.3004 12.4333 52.0262Z" fill="#8C71F6"/>
<path d="M44.6969 52.0262C44.6969 52.2579 44.669 52.4869 44.6144 52.7126C43.7919 56.1159 36.9203 58.7722 28.5651 58.7722C20.2099 58.7722 13.3383 56.1159 12.5158 52.7126C12.4613 52.4869 12.4333 52.2579 12.4333 52.0262C12.4333 48.3004 19.6558 45.2801 28.5651 45.2801C37.4745 45.2801 44.6969 48.3004 44.6969 52.0262Z" fill="#4C25A7"/>
<path fill-rule="evenodd" clip-rule="evenodd" d="M12.5158 52.7126C13.3383 56.1159 20.2099 58.7722 28.5651 58.7722C36.9203 58.7722 43.7919 56.1159 44.6144 52.7126C43.792 49.3093 36.9203 46.6531 28.5651 46.6531C20.2099 46.6531 13.3383 49.3093 12.5158 52.7126Z" fill="#7D52F4"/>
<path d="M46.5526 54.2041C47.1307 53.4465 47.4428 52.6393 47.4428 51.8015C47.4428 47.4416 38.991 43.9072 28.5651 43.9072C18.1393 43.9072 9.6875 47.4431 9.6875 51.803C9.68787 52.6402 9.9999 53.447 10.5777 54.2041C11.6801 55.6486 13.7498 56.9124 16.4684 57.8623C19.7443 59.0069 23.9623 59.6958 28.5651 59.6958C29.3791 59.6958 30.181 59.6743 30.9677 59.6325C32.6485 59.5432 34.2602 59.3615 35.773 59.0999C36.4822 58.9773 37.1697 58.8371 37.8323 58.6807C38.8362 58.4437 39.7829 58.1694 40.6619 57.8623C42.4222 57.2472 43.9104 56.5006 45.0402 55.6585C45.6552 55.2 46.164 54.7133 46.5526 54.2041ZM12.5158 52.7126C12.4613 52.4869 12.4333 52.2579 12.4333 52.0262C12.4333 48.3004 19.6558 45.2801 28.5651 45.2801C37.4745 45.2801 44.6969 48.3004 44.6969 52.0262C44.6969 52.2579 44.669 52.4869 44.6144 52.7126C43.7919 56.1159 36.9203 58.7722 28.5651 58.7722C20.2099 58.7722 13.3383 56.1159 12.5158 52.7126Z" fill="#8C71F6"/>
<path fill-rule="evenodd" clip-rule="evenodd" d="M9.68855 56.5226L9.68859 56.6923C9.79838 61.0128 18.2076 64.501 28.5651 64.501C29.3791 64.501 30.181 64.4795 30.9677 64.4377V60.0708V59.6325C30.181 59.6743 29.3791 59.6958 28.5651 59.6958C23.9623 59.6958 19.7443 59.0069 16.4684 57.8623C13.7498 56.9124 11.6801 55.6486 10.5777 54.2041C9.9999 53.447 9.68787 52.6402 9.6875 51.803L9.68855 56.5226Z" fill="#4C25A7"/>
<path fill-rule="evenodd" clip-rule="evenodd" d="M35.773 59.0999V59.4359V63.9052C36.4822 63.7825 37.1697 63.6423 37.8323 63.4859V58.9216V58.6807C37.1697 58.8371 36.4822 58.9773 35.773 59.0999Z" fill="#4C25A7"/>
<path fill-rule="evenodd" clip-rule="evenodd" d="M45.0402 60.4637V55.6585C43.9104 56.5006 42.4222 57.2472 40.6619 57.8623C39.7829 58.1694 38.8362 58.4437 37.8323 58.6807V58.9216V63.4859C40.8465 62.7743 43.3463 61.7262 45.0402 60.4637Z" fill="#8C71F6"/>
<path fill-rule="evenodd" clip-rule="evenodd" d="M30.9677 59.6325C32.6485 59.5432 34.2602 59.3615 35.773 59.0999V59.4359V63.9052C34.2602 64.1667 32.6485 64.3484 30.9677 64.4377V60.0708V59.6325Z" fill="#8C71F6"/>
<path d="M47.4428 51.8015C47.4428 52.6393 47.1307 53.4465 46.5526 54.2041C46.164 54.7133 45.6552 55.2 45.0402 55.6585M47.4428 51.8015V56.6067C47.4428 58.0075 46.5703 59.3231 45.0402 60.4637M47.4428 51.8015C47.4428 47.4416 38.991 43.9072 28.5651 43.9072C18.1393 43.9072 9.6875 47.4431 9.6875 51.803M45.0402 55.6585V60.4637M45.0402 55.6585C43.9104 56.5006 42.4222 57.2472 40.6619 57.8623C39.7829 58.1694 38.8362 58.4437 37.8323 58.6807M45.0402 60.4637C43.3463 61.7262 40.8465 62.7743 37.8323 63.4859M12.5158 52.7126C12.4613 52.4869 12.4333 52.2579 12.4333 52.0262C12.4333 48.3004 19.6558 45.2801 28.5651 45.2801C37.4745 45.2801 44.6969 48.3004 44.6969 52.0262C44.6969 52.2579 44.669 52.4869 44.6144 52.7126M12.5158 52.7126C13.3383 56.1159 20.2099 58.7722 28.5651 58.7722C36.9203 58.7722 43.7919 56.1159 44.6144 52.7126M12.5158 52.7126C13.3383 49.3093 20.2099 46.6531 28.5651 46.6531C36.9203 46.6531 43.792 49.3093 44.6144 52.7126M9.6875 51.803C9.68787 52.6402 9.9999 53.447 10.5777 54.2041C11.6801 55.6486 13.7498 56.9124 16.4684 57.8623C19.7443 59.0069 23.9623 59.6958 28.5651 59.6958C29.3791 59.6958 30.181 59.6743 30.9677 59.6325M9.6875 51.803L9.68855 56.5226M30.9677 59.6325C32.6485 59.5432 34.2602 59.3615 35.773 59.0999M30.9677 59.6325V60.0708V64.4377M35.773 59.0999C36.4822 58.9773 37.1697 58.8371 37.8323 58.6807M35.773 59.0999V59.4359V63.9052M37.8323 58.6807V58.9216V63.4859M9.68855 56.5226L9.68859 56.6923M9.68855 56.5226C9.68785 56.5506 9.6875 56.5787 9.6875 56.6067C9.6875 56.6353 9.68786 56.6638 9.68859 56.6923M9.68859 56.6923C9.79838 61.0128 18.2076 64.501 28.5651 64.501C29.3791 64.501 30.181 64.4795 30.9677 64.4377M30.9677 64.4377C32.6485 64.3484 34.2602 64.1667 35.773 63.9052M35.773 63.9052C36.4822 63.7825 37.1697 63.6423 37.8323 63.4859" stroke="#4C25A7" stroke-width="0.137292"/>
<path d="M46.7553 45.6228C46.7553 46.4606 46.4432 47.2678 45.8651 48.0254C45.4765 48.5346 44.9677 49.0213 44.3527 49.4797V54.285C45.8828 53.1444 46.7553 51.8288 46.7553 50.428V45.6228Z" fill="#4C25A7"/>
<path fill-rule="evenodd" clip-rule="evenodd" d="M11.7458 45.8475C11.7458 46.0792 11.7738 46.3082 11.8283 46.5339C12.6508 49.9372 19.5224 52.5935 27.8776 52.5935C36.2328 52.5935 43.1044 49.9372 43.9269 46.5339C43.9815 46.3082 44.0094 46.0792 44.0094 45.8475C44.0094 42.1217 36.787 39.1014 27.8776 39.1014C18.9683 39.1014 11.7458 42.1217 11.7458 45.8475Z" fill="#8C71F6"/>
<path d="M44.0094 45.8475C44.0094 46.0792 43.9815 46.3082 43.9269 46.5339C43.1044 49.9372 36.2328 52.5935 27.8776 52.5935C19.5224 52.5935 12.6508 49.9372 11.8283 46.5339C11.7738 46.3082 11.7458 46.0792 11.7458 45.8475C11.7458 42.1217 18.9683 39.1014 27.8776 39.1014C36.787 39.1014 44.0094 42.1217 44.0094 45.8475Z" fill="#4C25A7"/>
<path fill-rule="evenodd" clip-rule="evenodd" d="M11.8283 46.5339C12.6508 49.9372 19.5224 52.5935 27.8776 52.5935C36.2328 52.5935 43.1044 49.9372 43.9269 46.5339C43.1045 43.1306 36.2328 40.4744 27.8776 40.4744C19.5224 40.4744 12.6508 43.1306 11.8283 46.5339Z" fill="#7D52F4"/>
<path d="M45.8651 48.0254C46.4432 47.2678 46.7553 46.4606 46.7553 45.6228C46.7553 41.2629 38.3035 37.7285 27.8776 37.7285C17.4518 37.7285 9 41.2644 9 45.6243C9.00037 46.4615 9.3124 47.2683 9.89021 48.0254C10.9926 49.4699 13.0623 50.7337 15.7809 51.6836C19.0568 52.8282 23.2748 53.5171 27.8776 53.5171C28.6916 53.5171 29.4935 53.4955 30.2802 53.4537C31.961 53.3645 33.5727 53.1828 35.0855 52.9212C35.7947 52.7986 36.4822 52.6584 37.1448 52.502C38.1487 52.265 39.0954 51.9907 39.9744 51.6836C41.7347 51.0685 43.2229 50.3218 44.3527 49.4797C44.9677 49.0213 45.4765 48.5346 45.8651 48.0254ZM11.8283 46.5339C11.7738 46.3082 11.7458 46.0792 11.7458 45.8475C11.7458 42.1217 18.9683 39.1014 27.8776 39.1014C36.787 39.1014 44.0094 42.1217 44.0094 45.8475C44.0094 46.0792 43.9815 46.3082 43.9269 46.5339C43.1044 49.9372 36.2328 52.5935 27.8776 52.5935C19.5224 52.5935 12.6508 49.9372 11.8283 46.5339Z" fill="#8C71F6"/>
<path fill-rule="evenodd" clip-rule="evenodd" d="M9.00105 50.3439L9.00109 50.5136C9.11088 54.8341 17.5201 58.3223 27.8776 58.3223C28.6916 58.3223 29.4935 58.3008 30.2802 58.259V53.8921V53.4537C29.4935 53.4955 28.6916 53.5171 27.8776 53.5171C23.2748 53.5171 19.0568 52.8282 15.7809 51.6836C13.0623 50.7337 10.9926 49.4699 9.89021 48.0254C9.3124 47.2683 9.00037 46.4615 9 45.6243L9.00105 50.3439Z" fill="#4C25A7"/>
<path fill-rule="evenodd" clip-rule="evenodd" d="M35.0855 52.9212V53.2572V57.7264C35.7947 57.6038 36.4822 57.4636 37.1448 57.3072V52.7429V52.502C36.4822 52.6584 35.7947 52.7986 35.0855 52.9212Z" fill="#4C25A7"/>
<path fill-rule="evenodd" clip-rule="evenodd" d="M44.3527 54.285V49.4797C43.2229 50.3218 41.7347 51.0685 39.9744 51.6836C39.0954 51.9907 38.1487 52.265 37.1448 52.502V52.7429V57.3072C40.159 56.5956 42.6588 55.5475 44.3527 54.285Z" fill="#8C71F6"/>
<path fill-rule="evenodd" clip-rule="evenodd" d="M30.2802 53.4537C31.961 53.3645 33.5727 53.1828 35.0855 52.9212V53.2572V57.7264C33.5727 57.988 31.961 58.1697 30.2802 58.259V53.8921V53.4537Z" fill="#8C71F6"/>
<path d="M46.7553 45.6228C46.7553 46.4606 46.4432 47.2678 45.8651 48.0254C45.4765 48.5346 44.9677 49.0213 44.3527 49.4797M46.7553 45.6228V50.428C46.7553 51.8288 45.8828 53.1444 44.3527 54.285M46.7553 45.6228C46.7553 41.2629 38.3035 37.7285 27.8776 37.7285C17.4518 37.7285 9 41.2644 9 45.6243M44.3527 49.4797V54.285M44.3527 49.4797C43.2229 50.3218 41.7347 51.0685 39.9744 51.6836C39.0954 51.9907 38.1487 52.265 37.1448 52.502M44.3527 54.285C42.6588 55.5475 40.159 56.5956 37.1448 57.3072M11.8283 46.5339C11.7738 46.3082 11.7458 46.0792 11.7458 45.8475C11.7458 42.1217 18.9683 39.1014 27.8776 39.1014C36.787 39.1014 44.0094 42.1217 44.0094 45.8475C44.0094 46.0792 43.9815 46.3082 43.9269 46.5339M11.8283 46.5339C12.6508 49.9372 19.5224 52.5935 27.8776 52.5935C36.2328 52.5935 43.1044 49.9372 43.9269 46.5339M11.8283 46.5339C12.6508 43.1306 19.5224 40.4744 27.8776 40.4744C36.2328 40.4744 43.1045 43.1306 43.9269 46.5339M9 45.6243C9.00037 46.4615 9.3124 47.2683 9.89021 48.0254C10.9926 49.4699 13.0623 50.7337 15.7809 51.6836C19.0568 52.8282 23.2748 53.5171 27.8776 53.5171C28.6916 53.5171 29.4935 53.4955 30.2802 53.4537M9 45.6243L9.00105 50.3439M30.2802 53.4537C31.961 53.3645 33.5727 53.1828 35.0855 52.9212M30.2802 53.4537V53.8921V58.259M35.0855 52.9212C35.7947 52.7986 36.4822 52.6584 37.1448 52.502M35.0855 52.9212V53.2572V57.7264M37.1448 52.502V52.7429V57.3072M9.00105 50.3439L9.00109 50.5136M9.00105 50.3439C9.00035 50.3719 9 50.3999 9 50.428C9 50.4566 9.00036 50.4851 9.00109 50.5136M9.00109 50.5136C9.11088 54.8341 17.5201 58.3223 27.8776 58.3223C28.6916 58.3223 29.4935 58.3008 30.2802 58.259M30.2802 58.259C31.961 58.1697 33.5727 57.988 35.0855 57.7264M35.0855 57.7264C35.7947 57.6038 36.4822 57.4636 37.1448 57.3072" stroke="#4C25A7" stroke-width="0.137292"/>
<path d="M51.56 38.7615C51.56 39.5992 51.2479 40.4065 50.6697 41.1641C50.2812 41.6733 49.7724 42.16 49.1573 42.6184V47.4236C50.6875 46.2831 51.56 44.9675 51.56 43.5667V38.7615Z" fill="#4C25A7"/>
<path fill-rule="evenodd" clip-rule="evenodd" d="M16.5505 38.9861C16.5505 39.2179 16.5785 39.4469 16.633 39.6726C17.4555 43.0759 24.3271 45.7322 32.6823 45.7322C41.0375 45.7322 47.9091 43.0759 48.7316 39.6726C48.7862 39.4469 48.8141 39.2179 48.8141 38.9861C48.8141 35.2604 41.5917 32.2401 32.6823 32.2401C23.773 32.2401 16.5505 35.2604 16.5505 38.9861Z" fill="#8C71F6"/>
<path d="M48.8141 38.9861C48.8141 39.2179 48.7862 39.4469 48.7316 39.6726C47.9091 43.0759 41.0375 45.7322 32.6823 45.7322C24.3271 45.7322 17.4555 43.0759 16.633 39.6726C16.5785 39.4469 16.5505 39.2179 16.5505 38.9861C16.5505 35.2604 23.773 32.2401 32.6823 32.2401C41.5917 32.2401 48.8141 35.2604 48.8141 38.9861Z" fill="#4C25A7"/>
<path fill-rule="evenodd" clip-rule="evenodd" d="M16.633 39.6726C17.4555 43.0759 24.3271 45.7322 32.6823 45.7322C41.0375 45.7322 47.9091 43.0759 48.7316 39.6726C47.9091 36.2693 41.0375 33.613 32.6823 33.613C24.3271 33.613 17.4555 36.2693 16.633 39.6726Z" fill="#7D52F4"/>
<path d="M50.6697 41.1641C51.2479 40.4065 51.56 39.5992 51.56 38.7615C51.56 34.4016 43.1081 30.8672 32.6823 30.8672C22.2565 30.8672 13.8047 34.4031 13.8047 38.763C13.8051 39.6002 14.1171 40.407 14.6949 41.1641C15.7973 42.6085 17.867 43.8723 20.5856 44.8222C23.8615 45.9669 28.0795 46.6558 32.6823 46.6558C33.4962 46.6558 34.2981 46.6342 35.0849 46.5924C36.7656 46.5031 38.3774 46.3214 39.8901 46.0599C40.5994 45.9373 41.2869 45.7971 41.9495 45.6407C42.9534 45.4037 43.9001 45.1294 44.7791 44.8222C46.5393 44.2072 48.0276 43.4605 49.1573 42.6184C49.7724 42.16 50.2812 41.6733 50.6697 41.1641ZM16.633 39.6726C16.5785 39.4469 16.5505 39.2179 16.5505 38.9861C16.5505 35.2604 23.773 32.2401 32.6823 32.2401C41.5917 32.2401 48.8141 35.2604 48.8141 38.9861C48.8141 39.2179 48.7862 39.4469 48.7316 39.6726C47.9091 43.0759 41.0375 45.7322 32.6823 45.7322C24.3271 45.7322 17.4555 43.0759 16.633 39.6726Z" fill="#8C71F6"/>
<path fill-rule="evenodd" clip-rule="evenodd" d="M13.8057 43.4826L13.8058 43.6523C13.9156 47.9728 22.3248 51.461 32.6823 51.461C33.4962 51.461 34.2981 51.4394 35.0849 51.3976V47.0308V46.5924C34.2981 46.6342 33.4962 46.6558 32.6823 46.6558C28.0795 46.6558 23.8615 45.9669 20.5856 44.8222C17.867 43.8723 15.7973 42.6085 14.6949 41.1641C14.1171 40.407 13.8051 39.6002 13.8047 38.763L13.8057 43.4826Z" fill="#4C25A7"/>
<path fill-rule="evenodd" clip-rule="evenodd" d="M39.8901 46.0599V46.3959V50.8651C40.5994 50.7425 41.2869 50.6023 41.9495 50.4459V45.8815V45.6407C41.2869 45.7971 40.5994 45.9373 39.8901 46.0599Z" fill="#4C25A7"/>
<path fill-rule="evenodd" clip-rule="evenodd" d="M49.1573 47.4236V42.6184C48.0276 43.4605 46.5393 44.2072 44.7791 44.8222C43.9001 45.1294 42.9534 45.4037 41.9495 45.6407V45.8815V50.4459C44.9637 49.7343 47.4635 48.6862 49.1573 47.4236Z" fill="#8C71F6"/>
<path fill-rule="evenodd" clip-rule="evenodd" d="M35.0849 46.5924C36.7656 46.5031 38.3774 46.3214 39.8901 46.0599V46.3959V50.8651C38.3774 51.1267 36.7656 51.3084 35.0849 51.3976V47.0308V46.5924Z" fill="#8C71F6"/>
<path d="M51.56 38.7615C51.56 39.5992 51.2479 40.4065 50.6697 41.1641C50.2812 41.6733 49.7724 42.16 49.1573 42.6184M51.56 38.7615V43.5667C51.56 44.9675 50.6875 46.2831 49.1573 47.4236M51.56 38.7615C51.56 34.4016 43.1081 30.8672 32.6823 30.8672C22.2565 30.8672 13.8047 34.4031 13.8047 38.763M49.1573 42.6184V47.4236M49.1573 42.6184C48.0276 43.4605 46.5393 44.2072 44.7791 44.8222C43.9001 45.1294 42.9534 45.4037 41.9495 45.6407M49.1573 47.4236C47.4635 48.6862 44.9637 49.7343 41.9495 50.4459M16.633 39.6726C16.5785 39.4469 16.5505 39.2179 16.5505 38.9861C16.5505 35.2604 23.773 32.2401 32.6823 32.2401C41.5917 32.2401 48.8141 35.2604 48.8141 38.9861C48.8141 39.2179 48.7862 39.4469 48.7316 39.6726M16.633 39.6726C17.4555 43.0759 24.3271 45.7322 32.6823 45.7322C41.0375 45.7322 47.9091 43.0759 48.7316 39.6726M16.633 39.6726C17.4555 36.2693 24.3271 33.613 32.6823 33.613C41.0375 33.613 47.9091 36.2693 48.7316 39.6726M13.8047 38.763C13.8051 39.6002 14.1171 40.407 14.6949 41.1641C15.7973 42.6085 17.867 43.8723 20.5856 44.8222C23.8615 45.9669 28.0795 46.6558 32.6823 46.6558C33.4962 46.6558 34.2981 46.6342 35.0849 46.5924M13.8047 38.763L13.8057 43.4826M35.0849 46.5924C36.7656 46.5031 38.3774 46.3214 39.8901 46.0599M35.0849 46.5924V47.0308V51.3976M39.8901 46.0599C40.5994 45.9373 41.2869 45.7971 41.9495 45.6407M39.8901 46.0599V46.3959V50.8651M41.9495 45.6407V45.8815V50.4459M13.8057 43.4826L13.8058 43.6523M13.8057 43.4826C13.805 43.5106 13.8047 43.5386 13.8047 43.5667C13.8047 43.5953 13.8051 43.6238 13.8058 43.6523M13.8058 43.6523C13.9156 47.9728 22.3248 51.461 32.6823 51.461C33.4962 51.461 34.2981 51.4394 35.0849 51.3976M35.0849 51.3976C36.7656 51.3084 38.3774 51.1267 39.8901 50.8651M39.8901 50.8651C40.5994 50.7425 41.2869 50.6023 41.9495 50.4459" stroke="#4C25A7" stroke-width="0.137292"/>
<path d="M46.7553 31.8943C46.7553 32.732 46.4432 33.5393 45.8651 34.2969C45.4765 34.8061 44.9677 35.2928 44.3527 35.7512V40.5564C45.8828 39.4159 46.7553 38.1003 46.7553 36.6995V31.8943Z" fill="#4C25A7"/>
<path fill-rule="evenodd" clip-rule="evenodd" d="M11.7458 32.1189C11.7458 32.3507 11.7738 32.5797 11.8283 32.8054C12.6508 36.2087 19.5224 38.865 27.8776 38.865C36.2328 38.865 43.1044 36.2087 43.9269 32.8054C43.9815 32.5797 44.0094 32.3507 44.0094 32.1189C44.0094 28.3932 36.787 25.3729 27.8776 25.3729C18.9683 25.3729 11.7458 28.3932 11.7458 32.1189Z" fill="#8C71F6"/>
<path d="M44.0094 32.1189C44.0094 32.3507 43.9815 32.5797 43.9269 32.8054C43.1044 36.2087 36.2328 38.865 27.8776 38.865C19.5224 38.865 12.6508 36.2087 11.8283 32.8054C11.7738 32.5797 11.7458 32.3507 11.7458 32.1189C11.7458 28.3932 18.9683 25.3729 27.8776 25.3729C36.787 25.3729 44.0094 28.3932 44.0094 32.1189Z" fill="#4C25A7"/>
<path fill-rule="evenodd" clip-rule="evenodd" d="M11.8283 32.8054C12.6508 36.2087 19.5224 38.865 27.8776 38.865C36.2328 38.865 43.1044 36.2087 43.9269 32.8054C43.1045 29.4021 36.2328 26.7458 27.8776 26.7458C19.5224 26.7458 12.6508 29.4021 11.8283 32.8054Z" fill="#7D52F4"/>
<path d="M45.8651 34.2969C46.4432 33.5393 46.7553 32.732 46.7553 31.8943C46.7553 27.5344 38.3035 24 27.8776 24C17.4518 24 9 27.5359 9 31.8958C9.00037 32.733 9.3124 33.5398 9.89021 34.2969C10.9926 35.7414 13.0623 37.0051 15.7809 37.955C19.0568 39.0997 23.2748 39.7886 27.8776 39.7886C28.6916 39.7886 29.4935 39.767 30.2802 39.7252C31.961 39.636 33.5727 39.4543 35.0855 39.1927C35.7947 39.0701 36.4822 38.9299 37.1448 38.7735C38.1487 38.5365 39.0954 38.2622 39.9744 37.955C41.7347 37.34 43.2229 36.5933 44.3527 35.7512C44.9677 35.2928 45.4765 34.8061 45.8651 34.2969ZM11.8283 32.8054C11.7738 32.5797 11.7458 32.3507 11.7458 32.1189C11.7458 28.3932 18.9683 25.3729 27.8776 25.3729C36.787 25.3729 44.0094 28.3932 44.0094 32.1189C44.0094 32.3507 43.9815 32.5797 43.9269 32.8054C43.1044 36.2087 36.2328 38.865 27.8776 38.865C19.5224 38.865 12.6508 36.2087 11.8283 32.8054Z" fill="#8C71F6"/>
<path fill-rule="evenodd" clip-rule="evenodd" d="M9.00105 36.6154L9.00109 36.7851C9.11088 41.1056 17.5201 44.5938 27.8776 44.5938C28.6916 44.5938 29.4935 44.5722 30.2802 44.5304V40.1636V39.7252C29.4935 39.767 28.6916 39.7886 27.8776 39.7886C23.2748 39.7886 19.0568 39.0997 15.7809 37.955C13.0623 37.0051 10.9926 35.7414 9.89021 34.2969C9.3124 33.5398 9.00037 32.733 9 31.8958L9.00105 36.6154Z" fill="#4C25A7"/>
<path fill-rule="evenodd" clip-rule="evenodd" d="M35.0855 39.1927V39.5287V43.9979C35.7947 43.8753 36.4822 43.7351 37.1448 43.5787V39.0144V38.7735C36.4822 38.9299 35.7947 39.0701 35.0855 39.1927Z" fill="#4C25A7"/>
<path fill-rule="evenodd" clip-rule="evenodd" d="M44.3527 40.5564V35.7512C43.2229 36.5933 41.7347 37.34 39.9744 37.955C39.0954 38.2622 38.1487 38.5365 37.1448 38.7735V39.0144V43.5787C40.159 42.8671 42.6588 41.819 44.3527 40.5564Z" fill="#8C71F6"/>
<path fill-rule="evenodd" clip-rule="evenodd" d="M30.2802 39.7252C31.961 39.636 33.5727 39.4543 35.0855 39.1927V39.5287V43.9979C33.5727 44.2595 31.961 44.4412 30.2802 44.5304V40.1636V39.7252Z" fill="#8C71F6"/>
<path d="M46.7553 31.8943C46.7553 32.732 46.4432 33.5393 45.8651 34.2969C45.4765 34.8061 44.9677 35.2928 44.3527 35.7512M46.7553 31.8943V36.6995C46.7553 38.1003 45.8828 39.4159 44.3527 40.5564M46.7553 31.8943C46.7553 27.5344 38.3035 24 27.8776 24C17.4518 24 9 27.5359 9 31.8958M44.3527 35.7512V40.5564M44.3527 35.7512C43.2229 36.5933 41.7347 37.34 39.9744 37.955C39.0954 38.2622 38.1487 38.5365 37.1448 38.7735M44.3527 40.5564C42.6588 41.819 40.159 42.8671 37.1448 43.5787M11.8283 32.8054C11.7738 32.5797 11.7458 32.3507 11.7458 32.1189C11.7458 28.3932 18.9683 25.3729 27.8776 25.3729C36.787 25.3729 44.0094 28.3932 44.0094 32.1189C44.0094 32.3507 43.9815 32.5797 43.9269 32.8054M11.8283 32.8054C12.6508 36.2087 19.5224 38.865 27.8776 38.865C36.2328 38.865 43.1044 36.2087 43.9269 32.8054M11.8283 32.8054C12.6508 29.4021 19.5224 26.7458 27.8776 26.7458C36.2328 26.7458 43.1044 29.4021 43.9269 32.8054M9 31.8958C9.00037 32.733 9.3124 33.5398 9.89021 34.2969C10.9926 35.7414 13.0623 37.0051 15.7809 37.955C19.0568 39.0997 23.2748 39.7886 27.8776 39.7886C28.6916 39.7886 29.4935 39.767 30.2802 39.7252M9 31.8958L9.00105 36.6154M30.2802 39.7252C31.961 39.636 33.5727 39.4543 35.0855 39.1927M30.2802 39.7252V40.1636V44.5304M35.0855 39.1927C35.7947 39.0701 36.4822 38.9299 37.1448 38.7735M35.0855 39.1927V39.5287V43.9979M37.1448 38.7735V39.0144V43.5787M9.00105 36.6154L9.00109 36.7851M9.00105 36.6154C9.00035 36.6434 9 36.6714 9 36.6995C9 36.7281 9.00036 36.7566 9.00109 36.7851M9.00109 36.7851C9.11088 41.1056 17.5201 44.5938 27.8776 44.5938C28.6916 44.5938 29.4935 44.5722 30.2802 44.5304M30.2802 44.5304C31.961 44.4412 33.5727 44.2595 35.0855 43.9979M35.0855 43.9979C35.7947 43.8753 36.4822 43.7351 37.1448 43.5787" stroke="#4C25A7" stroke-width="0.137292"/>
<path d="M9.21429 17.1923L13.7143 24.1154M7.5 22.7308L12.75 24.75M15 23.25V16.5" stroke="#693EE0" stroke-width="0.3" stroke-linecap="round"/>
</g>
<defs>
<clipPath id="clip0_7833_15516">
<rect width="60" height="60" rx="30" fill="white"/>
</clipPath>
</defs>
</svg>
