<svg width="46" height="43" viewBox="0 0 46 43" fill="none" xmlns="http://www.w3.org/2000/svg">
<g clip-path="url(#clip0_7775_12341)">
<path d="M25.3644 21.917C25.8414 20.6316 26.1024 19.2412 26.1024 17.7898C26.1024 16.3384 25.8414 14.9481 25.3644 13.6627L14.2368 12.6309L3.10913 13.6627C2.63214 14.9481 2.37109 16.3384 2.37109 17.7898C2.37109 19.2412 2.63214 20.6316 3.10913 21.917L14.2368 22.9488L25.3644 21.917Z" fill="#F0F0F0"/>
<path d="M14.2371 29.6555C19.3388 29.6555 23.6881 26.4354 25.3646 21.917L3.10938 21.917C4.78596 26.4354 9.13519 29.6555 14.2371 29.6555Z" fill="#338AF3"/>
<path d="M14.2371 5.92383C9.13519 5.92383 4.78596 9.14387 3.10938 13.6623L25.3647 13.6623C23.6881 9.14387 19.3388 5.92383 14.2371 5.92383Z" fill="#6DA544"/>
</g>
<g clip-path="url(#clip1_7775_12341)">
<path d="M24.9164 39.1561C31.4697 39.1561 36.7821 33.8437 36.7821 27.2905C36.7821 20.7372 31.4697 15.4248 24.9164 15.4248C18.3632 15.4248 13.0508 20.7372 13.0508 27.2905C13.0508 33.8437 18.3632 39.1561 24.9164 39.1561Z" fill="#F0F0F0"/>
<path d="M24.4023 27.2897L36.7839 27.2897C36.7839 26.2188 36.6411 25.1813 36.3751 24.1943L24.4023 24.1943L24.4023 27.2897Z" fill="#D80027"/>
<path d="M24.4023 21.0993L35.0423 21.0993C34.316 19.914 33.3872 18.8664 32.3044 18.0039L24.4023 18.0039L24.4023 21.0993Z" fill="#D80027"/>
<path d="M24.9174 39.1557C27.71 39.1557 30.2767 38.1905 32.3036 36.5762L17.5312 36.5762C19.5581 38.1905 22.1249 39.1557 24.9174 39.1557Z" fill="#D80027"/>
<path d="M14.7937 33.4812L35.0419 33.4812C35.6251 32.5296 36.0773 31.4895 36.3747 30.3857L13.4609 30.3857C13.7584 31.4895 14.2106 32.5296 14.7937 33.4812Z" fill="#D80027"/>
<path d="M18.5472 17.2778L19.6285 17.2778L18.6227 18.0085L19.0069 19.1909L18.0011 18.4601L16.9954 19.1909L17.3272 18.1694C16.4417 18.9071 15.6655 19.7713 15.0259 20.7343L15.3723 20.7343L14.7321 21.1994C14.6323 21.3658 14.5367 21.5349 14.445 21.7064L14.7507 22.6474L14.1803 22.233C14.0386 22.5334 13.9089 22.8405 13.7923 23.1541L14.1291 24.1908L15.3723 24.1908L14.3665 24.9216L14.7507 26.1039L13.745 25.3732L13.1425 25.8109C13.0822 26.2957 13.0508 26.7894 13.0508 27.2905L24.9164 27.2905C24.9164 20.7373 24.9164 19.9647 24.9164 15.4248C22.5724 15.4248 20.3873 16.1048 18.5472 17.2778ZM19.0069 26.1039L18.0011 25.3732L16.9954 26.1039L17.3796 24.9216L16.3738 24.1908L17.617 24.1908L18.0011 23.0085L18.3853 24.1908L19.6285 24.1908L18.6227 24.9216L19.0069 26.1039ZM18.6227 21.465L19.0069 22.6474L18.0011 21.9167L16.9954 22.6474L17.3796 21.465L16.3738 20.7343L17.617 20.7343L18.0011 19.552L18.3853 20.7343L19.6285 20.7343L18.6227 21.465ZM23.263 26.1039L22.2573 25.3732L21.2515 26.1039L21.6357 24.9216L20.6299 24.1908L21.8731 24.1908L22.2573 23.0085L22.6414 24.1908L23.8846 24.1908L22.8788 24.9216L23.263 26.1039ZM22.8788 21.465L23.263 22.6474L22.2573 21.9167L21.2515 22.6474L21.6357 21.465L20.6299 20.7343L21.8731 20.7343L22.2573 19.552L22.6414 20.7343L23.8846 20.7343L22.8788 21.465ZM22.8788 18.0085L23.263 19.1909L22.2573 18.4601L21.2515 19.1909L21.6357 18.0085L20.6299 17.2778L21.8731 17.2778L22.2573 16.0954L22.6414 17.2778L23.8846 17.2778L22.8788 18.0085Z" fill="#0052B4"/>
</g>
<path fill-rule="evenodd" clip-rule="evenodd" d="M30.8549 3.56251C28.2908 3.55893 25.8117 4.48162 23.874 6.16074L24.9387 8.07763C26.147 6.91778 27.6695 6.13867 29.317 5.83718C30.9646 5.53569 32.6644 5.72512 34.2051 6.38193C35.7458 7.03873 37.0595 8.13392 37.9828 9.53133C38.9061 10.9287 39.3983 12.5667 39.3982 14.2416L36.1944 14.2416L39.6011 20.3714C40.8185 18.6371 41.534 16.5227 41.534 14.2416C41.534 8.34354 36.7529 3.56251 30.8549 3.56251Z" fill="#CACFD8"/>
<path d="M17.66 40.3103C15.7222 41.9894 13.2432 42.9121 10.6791 42.9085C4.78103 42.9085 9.97755e-08 38.1275 5.08489e-08 32.2294C3.19268e-08 29.9484 0.7155 27.8339 1.93292 26.0996L5.33955 32.2294L2.13582 32.2294C2.13568 33.9043 2.62786 35.5423 3.55116 36.9397C4.47446 38.3371 5.78814 39.4323 7.32887 40.0891C8.8696 40.7459 10.5694 40.9353 12.2169 40.6338C13.8645 40.3324 15.387 39.5532 16.5953 38.3934L17.66 40.3103Z" fill="#CACFD8"/>
<defs>
<clipPath id="clip0_7775_12341">
<rect width="23.7313" height="23.7313" fill="white" transform="translate(2.37109 5.92383)"/>
</clipPath>
<clipPath id="clip1_7775_12341">
<rect width="23.7313" height="23.7313" fill="white" transform="translate(13.0508 15.4248)"/>
</clipPath>
</defs>
</svg>
