<svg width="46" height="43" viewBox="0 0 46 43" fill="none" xmlns="http://www.w3.org/2000/svg">
<g clip-path="url(#clip0_7767_17480)">
<path d="M14.2368 29.6552C20.79 29.6552 26.1024 24.3427 26.1024 17.7895C26.1024 11.2363 20.79 5.92383 14.2368 5.92383C7.68353 5.92383 2.37109 11.2363 2.37109 17.7895C2.37109 24.3427 7.68353 29.6552 14.2368 29.6552Z" fill="#F0F0F0"/>
<path d="M14.2352 5.92383C9.53088 5.92383 5.46615 8.66151 3.54688 12.6305L24.9234 12.6305C23.0042 8.66151 18.9394 5.92383 14.2352 5.92383Z" fill="black"/>
<path d="M14.2352 29.6549C9.53088 29.6549 5.46615 26.9173 3.54688 22.9482L24.9234 22.9482C23.0042 26.9173 18.9394 29.6549 14.2352 29.6549Z" fill="#496E2D"/>
<path d="M25.5421 14.1777L2.93142 14.1777C2.56794 15.3165 2.37109 16.5297 2.37109 17.789C2.37109 19.0483 2.56794 20.2615 2.93142 21.4003L25.542 21.4003C25.9056 20.2615 26.1024 19.0483 26.1024 17.789C26.1024 16.5297 25.9056 15.3165 25.5421 14.1777Z" fill="#A2001D"/>
<path d="M17.9326 11.4074L16.5274 10.7588L14.2378 15.9431L11.9482 10.7588L10.543 11.4074L13.3855 17.7898L10.543 24.1721L11.9482 24.8207L14.2378 19.6364L16.5274 24.8207L17.9326 24.1721L15.09 17.7898L17.9326 11.4074Z" fill="#F0F0F0"/>
<path d="M15.194 12.0186C14.65 11.4245 14.2396 11.083 14.2396 11.083C14.2396 11.083 13.8291 11.4245 13.2852 12.0186L13.2852 23.5607C13.8291 24.1549 14.2396 24.4964 14.2396 24.4964C14.2396 24.4964 14.65 24.1549 15.194 23.5608L15.194 12.0186Z" fill="#F0F0F0"/>
<path d="M11.6563 14.2321L11.6563 21.3474C12.2311 22.3659 12.9346 23.2008 13.4619 23.7543L13.4619 11.8252C12.9346 12.3787 12.231 13.2136 11.6563 14.2321Z" fill="#A2001D"/>
<path d="M16.8135 14.2321C16.2386 13.2135 15.5351 12.3787 15.0078 11.8252L15.0078 23.7543C15.535 23.2008 16.2386 22.3659 16.8135 21.3474L16.8135 14.2321Z" fill="#A2001D"/>
<path d="M16.8164 14.2314L16.8164 21.3468C17.3983 20.3155 17.8482 19.0961 17.8482 17.7892C17.8482 16.4822 17.3983 15.2627 16.8164 14.2314Z" fill="black"/>
<path d="M11.6568 14.2314L11.6568 21.3468C11.0749 20.3155 10.625 19.0961 10.625 17.7892C10.625 16.4822 11.0749 15.2627 11.6568 14.2314Z" fill="black"/>
</g>
<g clip-path="url(#clip1_7767_17480)">
<path d="M24.9164 39.1561C31.4697 39.1561 36.7821 33.8437 36.7821 27.2905C36.7821 20.7372 31.4697 15.4248 24.9164 15.4248C18.3632 15.4248 13.0508 20.7372 13.0508 27.2905C13.0508 33.8437 18.3632 39.1561 24.9164 39.1561Z" fill="#F0F0F0"/>
<path d="M24.4023 27.2897L36.7839 27.2897C36.7839 26.2188 36.6411 25.1813 36.3751 24.1943L24.4023 24.1943L24.4023 27.2897Z" fill="#D80027"/>
<path d="M24.4023 21.0993L35.0423 21.0993C34.316 19.914 33.3872 18.8664 32.3044 18.0039L24.4023 18.0039L24.4023 21.0993Z" fill="#D80027"/>
<path d="M24.9174 39.1557C27.71 39.1557 30.2767 38.1905 32.3036 36.5762L17.5312 36.5762C19.5581 38.1905 22.1249 39.1557 24.9174 39.1557Z" fill="#D80027"/>
<path d="M14.7937 33.4812L35.0419 33.4812C35.6251 32.5296 36.0773 31.4895 36.3747 30.3857L13.4609 30.3857C13.7584 31.4895 14.2106 32.5296 14.7937 33.4812Z" fill="#D80027"/>
<path d="M18.5472 17.2778L19.6285 17.2778L18.6227 18.0085L19.0069 19.1909L18.0011 18.4601L16.9954 19.1909L17.3272 18.1694C16.4417 18.9071 15.6655 19.7713 15.0259 20.7343L15.3723 20.7343L14.7321 21.1994C14.6323 21.3658 14.5367 21.5349 14.445 21.7064L14.7507 22.6474L14.1803 22.233C14.0386 22.5334 13.9089 22.8405 13.7923 23.1541L14.1291 24.1908L15.3723 24.1908L14.3665 24.9216L14.7507 26.1039L13.745 25.3732L13.1425 25.8109C13.0822 26.2957 13.0508 26.7894 13.0508 27.2905L24.9164 27.2905C24.9164 20.7373 24.9164 19.9647 24.9164 15.4248C22.5724 15.4248 20.3873 16.1048 18.5472 17.2778ZM19.0069 26.1039L18.0011 25.3732L16.9954 26.1039L17.3796 24.9216L16.3738 24.1908L17.617 24.1908L18.0011 23.0085L18.3853 24.1908L19.6285 24.1908L18.6227 24.9216L19.0069 26.1039ZM18.6227 21.465L19.0069 22.6474L18.0011 21.9167L16.9954 22.6474L17.3796 21.465L16.3738 20.7343L17.617 20.7343L18.0011 19.552L18.3853 20.7343L19.6285 20.7343L18.6227 21.465ZM23.263 26.1039L22.2573 25.3732L21.2515 26.1039L21.6357 24.9216L20.6299 24.1908L21.8731 24.1908L22.2573 23.0085L22.6414 24.1908L23.8846 24.1908L22.8788 24.9216L23.263 26.1039ZM22.8788 21.465L23.263 22.6474L22.2573 21.9167L21.2515 22.6474L21.6357 21.465L20.6299 20.7343L21.8731 20.7343L22.2573 19.552L22.6414 20.7343L23.8846 20.7343L22.8788 21.465ZM22.8788 18.0085L23.263 19.1909L22.2573 18.4601L21.2515 19.1909L21.6357 18.0085L20.6299 17.2778L21.8731 17.2778L22.2573 16.0954L22.6414 17.2778L23.8846 17.2778L22.8788 18.0085Z" fill="#0052B4"/>
</g>
<path fill-rule="evenodd" clip-rule="evenodd" d="M30.8549 3.56251C28.2908 3.55893 25.8117 4.48162 23.874 6.16074L24.9387 8.07763C26.147 6.91778 27.6695 6.13867 29.317 5.83718C30.9646 5.53569 32.6644 5.72512 34.2051 6.38193C35.7458 7.03873 37.0595 8.13392 37.9828 9.53133C38.9061 10.9287 39.3983 12.5667 39.3982 14.2416L36.1944 14.2416L39.6011 20.3714C40.8185 18.6371 41.534 16.5227 41.534 14.2416C41.534 8.34354 36.7529 3.56251 30.8549 3.56251Z" fill="#CACFD8"/>
<path d="M17.66 40.3103C15.7222 41.9894 13.2432 42.9121 10.6791 42.9085C4.78103 42.9085 9.97755e-08 38.1275 5.08489e-08 32.2294C3.19268e-08 29.9484 0.7155 27.8339 1.93292 26.0996L5.33955 32.2294L2.13582 32.2294C2.13568 33.9043 2.62786 35.5423 3.55116 36.9397C4.47446 38.3371 5.78814 39.4323 7.32887 40.0891C8.8696 40.7459 10.5694 40.9353 12.2169 40.6338C13.8645 40.3324 15.387 39.5532 16.5953 38.3934L17.66 40.3103Z" fill="#CACFD8"/>
<defs>
<clipPath id="clip0_7767_17480">
<rect width="23.7313" height="23.7313" fill="white" transform="translate(2.37109 5.92383)"/>
</clipPath>
<clipPath id="clip1_7767_17480">
<rect width="23.7313" height="23.7313" fill="white" transform="translate(13.0508 15.4248)"/>
</clipPath>
</defs>
</svg>
