<svg xmlns="http://www.w3.org/2000/svg" width="77" height="33" viewBox="0 0 77 33" fill="none">
  <path d="M5.40454 13.0394C5.40454 12.2063 6.08812 11.8858 7.22029 11.8858C8.84379 11.8858 10.8945 12.3772 12.518 13.253V8.23298C10.745 7.52804 8.99332 7.25033 7.22029 7.25033C2.88384 7.25033 0 9.51469 0 13.2957C0 19.1916 8.11749 18.2517 8.11749 20.7937C8.11749 21.7764 7.26302 22.0968 6.06676 22.0968C4.29372 22.0968 2.02937 21.3705 0.23498 20.3878V25.472C2.22163 26.3264 4.22964 26.6896 6.06676 26.6896C10.51 26.6896 13.5648 24.4893 13.5648 20.6656C13.5434 14.2997 5.40454 15.4319 5.40454 13.0394ZM19.8451 2.97797L14.6328 4.08878L14.6115 21.1996C14.6115 24.3611 16.9826 26.6896 20.1442 26.6896C21.8959 26.6896 23.1776 26.3692 23.8825 25.9846V21.6482C23.1989 21.9259 19.8238 22.9085 19.8238 19.747V12.1636H23.8825V7.61348H19.8238L19.8451 2.97797ZM30.526 9.19426L30.1842 7.61348H25.5701V26.3051H30.9105V13.6375C32.1709 11.9927 34.3071 12.2917 34.9693 12.5267V7.61348C34.2857 7.35714 31.7864 6.88718 30.526 9.19426ZM36.2724 7.61348H41.6342V26.3051H36.2724V7.61348ZM36.2724 5.98999L41.6342 4.83645V0.5L36.2724 1.63218V5.98999ZM52.785 7.25033C50.6916 7.25033 49.3458 8.23298 48.5981 8.91656L48.3204 7.59212H43.6208V32.5L48.9613 31.3678L48.9826 25.3224C49.7517 25.8778 50.8838 26.6682 52.7637 26.6682C56.5874 26.6682 60.0694 23.5921 60.0694 16.8204C60.0481 10.6255 56.5234 7.25033 52.785 7.25033ZM51.5033 21.9686C50.243 21.9686 49.4953 21.52 48.9826 20.9646L48.9613 13.0394C49.5167 12.4199 50.2857 11.9927 51.5033 11.9927C53.4473 11.9927 54.7931 14.1716 54.7931 16.97C54.7931 19.8324 53.4686 21.9686 51.5033 21.9686ZM76.9025 17.034C76.9025 11.5654 74.2537 7.25033 69.1909 7.25033C64.1068 7.25033 61.0307 11.5654 61.0307 16.9913C61.0307 23.4212 64.6622 26.6682 69.8745 26.6682C72.4166 26.6682 74.3391 26.0915 75.7917 25.2797V21.0073C74.3391 21.7336 72.6729 22.1822 70.5581 22.1822C68.486 22.1822 66.6489 21.4559 66.4139 18.9352H76.8598C76.8598 18.6575 76.9025 17.5467 76.9025 17.034ZM66.3498 15.0047C66.3498 12.5908 67.8238 11.5868 69.1696 11.5868C70.4726 11.5868 71.8611 12.5908 71.8611 15.0047H66.3498Z" fill="#6772E5"/>
</svg>