<svg width="237" height="167" viewBox="0 0 237 167" fill="none" xmlns="http://www.w3.org/2000/svg">
<g filter="url(#filter0_d_5213_16365)">
<g clip-path="url(#clip0_5213_16365)">
<path d="M264.688 75.625C264.688 42.2118 237.601 15.125 204.188 15.125H83.1875C49.7743 15.125 22.6875 42.2118 22.6875 75.625C22.6875 109.038 49.7743 136.125 83.1875 136.125H204.188C237.601 136.125 264.688 109.038 264.688 75.625Z" fill="#F5F7FA"/>
<g filter="url(#filter1_d_5213_16365)">
<path d="M143.688 75.625C143.688 42.2118 116.601 15.125 83.1875 15.125C49.7743 15.125 22.6875 42.2118 22.6875 75.625C22.6875 109.038 49.7743 136.125 83.1875 136.125C116.601 136.125 143.688 109.038 143.688 75.625Z" fill="white"/>
<path fill-rule="evenodd" clip-rule="evenodd" d="M98.8372 42.9524C94.3002 39.6183 88.8182 37.8178 83.1878 37.8125C77.5575 37.8178 72.0755 39.6183 67.5385 42.9524C63.0015 46.2866 59.6459 50.9806 57.9593 56.3524C56.2727 61.7242 56.343 67.4939 58.16 72.823C59.9769 78.1521 63.4459 82.763 68.0628 85.9856V94.5312C68.0628 95.5341 68.4612 96.4959 69.1703 97.205C69.8794 97.9141 70.8412 98.3125 71.8441 98.3125H94.5316C95.5344 98.3125 96.4962 97.9141 97.2053 97.205C97.9144 96.4959 98.3128 95.5341 98.3128 94.5312V85.9856C102.93 82.763 106.399 78.1521 108.216 72.823C110.033 67.4939 110.103 61.7242 108.416 56.3524C106.73 50.9806 103.374 46.2866 98.8372 42.9524Z" fill="#CACFD8"/>
<path d="M94.5316 109.656C94.5316 110.659 94.1332 111.621 93.4241 112.33C92.7149 113.039 91.7532 113.437 90.7503 113.437H75.6253C74.6225 113.437 73.6607 113.039 72.9516 112.33C72.2425 111.621 71.8441 110.659 71.8441 109.656V105.875H94.5316V109.656Z" fill="#717784"/>
</g>
</g>
<path d="M83.1875 11.3438C47.686 11.3438 18.9062 40.1234 18.9062 75.625C18.9062 111.127 47.686 139.906 83.1875 139.906H204.188C239.689 139.906 268.469 111.127 268.469 75.625C268.469 40.1234 239.689 11.3438 204.188 11.3438H83.1875Z" stroke="#E1E4EA" stroke-width="7.5625"/>
</g>
<defs>
<filter id="filter0_d_5213_16365" x="0" y="0" width="287.375" height="166.375" filterUnits="userSpaceOnUse" color-interpolation-filters="sRGB">
<feFlood flood-opacity="0" result="BackgroundImageFix"/>
<feColorMatrix in="SourceAlpha" type="matrix" values="0 0 0 0 0 0 0 0 0 0 0 0 0 0 0 0 0 0 127 0" result="hardAlpha"/>
<feOffset dy="7.5625"/>
<feGaussianBlur stdDeviation="7.5625"/>
<feComposite in2="hardAlpha" operator="out"/>
<feColorMatrix type="matrix" values="0 0 0 0 0 0 0 0 0 0 0 0 0 0 0 0 0 0 0.06 0"/>
<feBlend mode="normal" in2="BackgroundImageFix" result="effect1_dropShadow_5213_16365"/>
<feBlend mode="normal" in="SourceGraphic" in2="effect1_dropShadow_5213_16365" result="shape"/>
</filter>
<filter id="filter1_d_5213_16365" x="0" y="0" width="151.25" height="151.25" filterUnits="userSpaceOnUse" color-interpolation-filters="sRGB">
<feFlood flood-opacity="0" result="BackgroundImageFix"/>
<feColorMatrix in="SourceAlpha" type="matrix" values="0 0 0 0 0 0 0 0 0 0 0 0 0 0 0 0 0 0 127 0" result="hardAlpha"/>
<feOffset dx="-7.5625"/>
<feGaussianBlur stdDeviation="7.5625"/>
<feComposite in2="hardAlpha" operator="out"/>
<feColorMatrix type="matrix" values="0 0 0 0 0.601706 0 0 0 0 0.62802 0 0 0 0 0.680647 0 0 0 0.17 0"/>
<feBlend mode="normal" in2="BackgroundImageFix" result="effect1_dropShadow_5213_16365"/>
<feBlend mode="normal" in="SourceGraphic" in2="effect1_dropShadow_5213_16365" result="shape"/>
</filter>
<clipPath id="clip0_5213_16365">
<path d="M264.688 75.625C264.688 42.2118 237.601 15.125 204.188 15.125H83.1875C49.7743 15.125 22.6875 42.2118 22.6875 75.625C22.6875 109.038 49.7743 136.125 83.1875 136.125H204.188C237.601 136.125 264.688 109.038 264.688 75.625Z" fill="white"/>
</clipPath>
</defs>
</svg>
