<svg width="46" height="46" viewBox="0 0 46 46" fill="none" xmlns="http://www.w3.org/2000/svg">
<g filter="url(#filter0_dd_5213_16327)">
<g clip-path="url(#clip0_5213_16327)">
<path d="M3 6C3 3.79086 4.79086 2 7 2H39C41.2091 2 43 3.79086 43 6V38C43 40.2091 41.2091 42 39 42H7C4.79086 42 3 40.2091 3 38V6Z" fill="white"/>
<g filter="url(#filter1_ddi_5213_16327)">
<g clip-path="url(#clip1_5213_16327)">
<path d="M3 6C3 3.79086 4.79086 2 7 2H39C41.2091 2 43 3.79086 43 6V38C43 40.2091 41.2091 42 39 42H7C4.79086 42 3 40.2091 3 38V6Z" fill="white"/>
<path d="M13 2V16.75M13 16.75H3M13 16.75V27.25M13 16.75H33M13 27.25V42M13 27.25H3M13 27.25H33M33 27.25H43M33 27.25V42M33 27.25V16.75M33 16.75H43M33 16.75V2" stroke="#E1E4EA" stroke-width="0.625" stroke-dasharray="1 1"/>
<path d="M9 0H37V4C37 6.20914 35.2091 8 33 8H13C10.7909 8 9 6.20914 9 4V0Z" fill="#CACFD8"/>
<path d="M45 8V36H41C38.7909 36 37 34.2091 37 32V12C37 9.79086 38.7909 8 41 8H45Z" fill="#CACFD8"/>
<path d="M1 8V36H5C7.20914 36 9 34.2091 9 32V12C9 9.79086 7.20914 8 5 8H1Z" fill="#CACFD8"/>
<path d="M9 44H37V40C37 37.7909 35.2091 36 33 36H13C10.7909 36 9 37.7909 9 40V44Z" fill="#CACFD8"/>
</g>
</g>
<g filter="url(#filter2_d_5213_16327)">
<g clip-path="url(#clip2_5213_16327)">
<path d="M13 22C13 19.2386 15.2386 17 18 17H28C30.7614 17 33 19.2386 33 22C33 24.7614 30.7614 27 28 27H18C15.2386 27 13 24.7614 13 22Z" fill="#0B4627"/>
<g filter="url(#filter3_d_5213_16327)">
<path d="M23 22C23 19.2386 25.2386 17 28 17C30.7614 17 33 19.2386 33 22C33 24.7614 30.7614 27 28 27C25.2386 27 23 24.7614 23 22Z" fill="white"/>
<path fill-rule="evenodd" clip-rule="evenodd" d="M26.6205 19.1201C27.0205 18.8262 27.5038 18.6675 28.0001 18.667C28.4964 18.6675 28.9797 18.8262 29.3797 19.1201C29.7796 19.414 30.0754 19.8278 30.2241 20.3014C30.3728 20.7749 30.3666 21.2835 30.2064 21.7533C30.0462 22.2231 29.7404 22.6296 29.3334 22.9137V23.667C29.3334 23.7554 29.2983 23.8402 29.2358 23.9027C29.1733 23.9652 29.0885 24.0003 29.0001 24.0003H27.0001C26.9117 24.0003 26.8269 23.9652 26.7644 23.9027C26.7019 23.8402 26.6668 23.7554 26.6668 23.667V22.9137C26.2598 22.6296 25.954 22.2231 25.7938 21.7533C25.6336 21.2835 25.6274 20.7749 25.7761 20.3014C25.9248 19.8278 26.2206 19.414 26.6205 19.1201Z" fill="#3EE089"/>
<path d="M27.0001 25.0003C27.0001 25.0887 27.0352 25.1735 27.0977 25.236C27.1602 25.2985 27.245 25.3337 27.3334 25.3337H28.6668C28.7552 25.3337 28.84 25.2985 28.9025 25.236C28.965 25.1735 29.0001 25.0887 29.0001 25.0003V24.667H27.0001V25.0003Z" fill="#1DAF61"/>
</g>
</g>
<path d="M28 16.6875C30.934 16.6875 33.3125 19.066 33.3125 22C33.3125 24.934 30.934 27.3125 28 27.3125H18C15.066 27.3125 12.6875 24.934 12.6875 22C12.6875 19.066 15.066 16.6875 18 16.6875H28Z" stroke="#0B4627" stroke-width="0.625"/>
</g>
</g>
</g>
<defs>
<filter id="filter0_dd_5213_16327" x="0" y="0" width="46" height="46" filterUnits="userSpaceOnUse" color-interpolation-filters="sRGB">
<feFlood flood-opacity="0" result="BackgroundImageFix"/>
<feColorMatrix in="SourceAlpha" type="matrix" values="0 0 0 0 0 0 0 0 0 0 0 0 0 0 0 0 0 0 127 0" result="hardAlpha"/>
<feMorphology radius="0.5" operator="dilate" in="SourceAlpha" result="effect1_dropShadow_5213_16327"/>
<feOffset/>
<feComposite in2="hardAlpha" operator="out"/>
<feColorMatrix type="matrix" values="0 0 0 0 0.145098 0 0 0 0 0.815686 0 0 0 0 0.458039 0 0 0 0.6 0"/>
<feBlend mode="normal" in2="BackgroundImageFix" result="effect1_dropShadow_5213_16327"/>
<feColorMatrix in="SourceAlpha" type="matrix" values="0 0 0 0 0 0 0 0 0 0 0 0 0 0 0 0 0 0 127 0" result="hardAlpha"/>
<feOffset dy="1"/>
<feGaussianBlur stdDeviation="1.5"/>
<feComposite in2="hardAlpha" operator="out"/>
<feColorMatrix type="matrix" values="0 0 0 0 0.0533333 0 0 0 0 0.0693333 0 0 0 0 0.106667 0 0 0 0.08 0"/>
<feBlend mode="normal" in2="effect1_dropShadow_5213_16327" result="effect2_dropShadow_5213_16327"/>
<feBlend mode="normal" in="SourceGraphic" in2="effect2_dropShadow_5213_16327" result="shape"/>
</filter>
<filter id="filter1_ddi_5213_16327" x="0" y="0" width="46" height="46" filterUnits="userSpaceOnUse" color-interpolation-filters="sRGB">
<feFlood flood-opacity="0" result="BackgroundImageFix"/>
<feColorMatrix in="SourceAlpha" type="matrix" values="0 0 0 0 0 0 0 0 0 0 0 0 0 0 0 0 0 0 127 0" result="hardAlpha"/>
<feMorphology radius="0.5" operator="dilate" in="SourceAlpha" result="effect1_dropShadow_5213_16327"/>
<feOffset/>
<feComposite in2="hardAlpha" operator="out"/>
<feColorMatrix type="matrix" values="0 0 0 0 0.243137 0 0 0 0 0.878431 0 0 0 0 0.537255 0 0 0 1 0"/>
<feBlend mode="normal" in2="BackgroundImageFix" result="effect1_dropShadow_5213_16327"/>
<feColorMatrix in="SourceAlpha" type="matrix" values="0 0 0 0 0 0 0 0 0 0 0 0 0 0 0 0 0 0 127 0" result="hardAlpha"/>
<feOffset dy="1"/>
<feGaussianBlur stdDeviation="1.5"/>
<feComposite in2="hardAlpha" operator="out"/>
<feColorMatrix type="matrix" values="0 0 0 0 0.0533333 0 0 0 0 0.0693333 0 0 0 0 0.106667 0 0 0 0.08 0"/>
<feBlend mode="normal" in2="effect1_dropShadow_5213_16327" result="effect2_dropShadow_5213_16327"/>
<feBlend mode="normal" in="SourceGraphic" in2="effect2_dropShadow_5213_16327" result="shape"/>
<feColorMatrix in="SourceAlpha" type="matrix" values="0 0 0 0 0 0 0 0 0 0 0 0 0 0 0 0 0 0 127 0" result="hardAlpha"/>
<feOffset dy="3.5"/>
<feGaussianBlur stdDeviation="15.75"/>
<feComposite in2="hardAlpha" operator="arithmetic" k2="-1" k3="1"/>
<feColorMatrix type="matrix" values="0 0 0 0 0.122122 0 0 0 0 0.757878 0 0 0 0 0.420245 0 0 0 1 0"/>
<feBlend mode="normal" in2="shape" result="effect3_innerShadow_5213_16327"/>
</filter>
<filter id="filter2_d_5213_16327" x="11.125" y="15.75" width="23.75" height="13.75" filterUnits="userSpaceOnUse" color-interpolation-filters="sRGB">
<feFlood flood-opacity="0" result="BackgroundImageFix"/>
<feColorMatrix in="SourceAlpha" type="matrix" values="0 0 0 0 0 0 0 0 0 0 0 0 0 0 0 0 0 0 127 0" result="hardAlpha"/>
<feOffset dy="0.625"/>
<feGaussianBlur stdDeviation="0.625"/>
<feComposite in2="hardAlpha" operator="out"/>
<feColorMatrix type="matrix" values="0 0 0 0 0 0 0 0 0 0 0 0 0 0 0 0 0 0 0.06 0"/>
<feBlend mode="normal" in2="BackgroundImageFix" result="effect1_dropShadow_5213_16327"/>
<feBlend mode="normal" in="SourceGraphic" in2="effect1_dropShadow_5213_16327" result="shape"/>
</filter>
<filter id="filter3_d_5213_16327" x="21.125" y="15.75" width="12.5" height="12.5" filterUnits="userSpaceOnUse" color-interpolation-filters="sRGB">
<feFlood flood-opacity="0" result="BackgroundImageFix"/>
<feColorMatrix in="SourceAlpha" type="matrix" values="0 0 0 0 0 0 0 0 0 0 0 0 0 0 0 0 0 0 127 0" result="hardAlpha"/>
<feOffset dx="-0.625"/>
<feGaussianBlur stdDeviation="0.625"/>
<feComposite in2="hardAlpha" operator="out"/>
<feColorMatrix type="matrix" values="0 0 0 0 0.601706 0 0 0 0 0.62802 0 0 0 0 0.680647 0 0 0 0.17 0"/>
<feBlend mode="normal" in2="BackgroundImageFix" result="effect1_dropShadow_5213_16327"/>
<feBlend mode="normal" in="SourceGraphic" in2="effect1_dropShadow_5213_16327" result="shape"/>
</filter>
<clipPath id="clip0_5213_16327">
<path d="M3 6C3 3.79086 4.79086 2 7 2H39C41.2091 2 43 3.79086 43 6V38C43 40.2091 41.2091 42 39 42H7C4.79086 42 3 40.2091 3 38V6Z" fill="white"/>
</clipPath>
<clipPath id="clip1_5213_16327">
<path d="M3 6C3 3.79086 4.79086 2 7 2H39C41.2091 2 43 3.79086 43 6V38C43 40.2091 41.2091 42 39 42H7C4.79086 42 3 40.2091 3 38V6Z" fill="white"/>
</clipPath>
<clipPath id="clip2_5213_16327">
<path d="M13 22C13 19.2386 15.2386 17 18 17H28C30.7614 17 33 19.2386 33 22C33 24.7614 30.7614 27 28 27H18C15.2386 27 13 24.7614 13 22Z" fill="white"/>
</clipPath>
</defs>
</svg>
