<svg width="46" height="46" viewBox="0 0 46 46" fill="none" xmlns="http://www.w3.org/2000/svg">
<g filter="url(#filter0_ddi_7264_13898)">
<path d="M3 6C3 3.79086 4.79086 2 7 2H39C41.2091 2 43 3.79086 43 6V38C43 40.2091 41.2091 42 39 42H7C4.79086 42 3 40.2091 3 38V6Z" fill="#EFEBFF"/>
<g filter="url(#filter1_i_7264_13898)">
<path d="M7.02246 22.8594C9.814 23.2009 12.8318 24.0031 14.6201 25.791C16.716 27.8869 17.4592 31.6724 17.6914 34.8027C17.9237 31.6724 18.6668 27.8869 20.7627 25.791C22.2624 24.2914 24.6273 23.4882 26.998 23.0654H38.9639C38.4155 31.4052 31.4785 38 23 38C14.4517 38 7.46898 31.2964 7.02246 22.8594ZM23 6C31.8366 6 39 13.1634 39 22C39 22.1781 38.996 22.3555 38.9902 22.5322L26.998 22.3789C24.6272 21.9561 22.2625 21.1491 20.7627 19.6494C18.6668 17.5535 17.9236 13.768 17.6914 10.6377C17.4592 13.768 16.716 17.5535 14.6201 19.6494C12.8294 21.4399 9.80555 22.2403 7.01074 22.5811C7.00386 22.3882 7 22.1945 7 22C7 13.1634 14.1634 6 23 6Z" fill="#7D52F4"/>
</g>
</g>
<defs>
<filter id="filter0_ddi_7264_13898" x="0" y="0" width="46" height="46" filterUnits="userSpaceOnUse" color-interpolation-filters="sRGB">
<feFlood flood-opacity="0" result="BackgroundImageFix"/>
<feColorMatrix in="SourceAlpha" type="matrix" values="0 0 0 0 0 0 0 0 0 0 0 0 0 0 0 0 0 0 127 0" result="hardAlpha"/>
<feMorphology radius="1" operator="dilate" in="SourceAlpha" result="effect1_dropShadow_7264_13898"/>
<feOffset/>
<feComposite in2="hardAlpha" operator="out"/>
<feColorMatrix type="matrix" values="0 0 0 0 0.470588 0 0 0 0 0.309804 0 0 0 0 0.917647 0 0 0 0.5 0"/>
<feBlend mode="normal" in2="BackgroundImageFix" result="effect1_dropShadow_7264_13898"/>
<feColorMatrix in="SourceAlpha" type="matrix" values="0 0 0 0 0 0 0 0 0 0 0 0 0 0 0 0 0 0 127 0" result="hardAlpha"/>
<feOffset dy="1"/>
<feGaussianBlur stdDeviation="1.5"/>
<feComposite in2="hardAlpha" operator="out"/>
<feColorMatrix type="matrix" values="0 0 0 0 0.0533333 0 0 0 0 0.0693333 0 0 0 0 0.106667 0 0 0 0.08 0"/>
<feBlend mode="normal" in2="effect1_dropShadow_7264_13898" result="effect2_dropShadow_7264_13898"/>
<feBlend mode="normal" in="SourceGraphic" in2="effect2_dropShadow_7264_13898" result="shape"/>
<feColorMatrix in="SourceAlpha" type="matrix" values="0 0 0 0 0 0 0 0 0 0 0 0 0 0 0 0 0 0 127 0" result="hardAlpha"/>
<feMorphology radius="2" operator="erode" in="SourceAlpha" result="effect3_innerShadow_7264_13898"/>
<feOffset/>
<feGaussianBlur stdDeviation="6"/>
<feComposite in2="hardAlpha" operator="arithmetic" k2="-1" k3="1"/>
<feColorMatrix type="matrix" values="0 0 0 0 0.490196 0 0 0 0 0.321569 0 0 0 0 0.956863 0 0 0 0.1 0"/>
<feBlend mode="normal" in2="shape" result="effect3_innerShadow_7264_13898"/>
</filter>
<filter id="filter1_i_7264_13898" x="7" y="3" width="32" height="35" filterUnits="userSpaceOnUse" color-interpolation-filters="sRGB">
<feFlood flood-opacity="0" result="BackgroundImageFix"/>
<feBlend mode="normal" in="SourceGraphic" in2="BackgroundImageFix" result="shape"/>
<feColorMatrix in="SourceAlpha" type="matrix" values="0 0 0 0 0 0 0 0 0 0 0 0 0 0 0 0 0 0 127 0" result="hardAlpha"/>
<feOffset dy="-3"/>
<feGaussianBlur stdDeviation="6"/>
<feComposite in2="hardAlpha" operator="arithmetic" k2="-1" k3="1"/>
<feColorMatrix type="matrix" values="0 0 0 0 0 0 0 0 0 0 0 0 0 0 0 0 0 0 0.25 0"/>
<feBlend mode="normal" in2="shape" result="effect1_innerShadow_7264_13898"/>
</filter>
</defs>
</svg>
