<svg width="46" height="46" viewBox="0 0 46 46" fill="none" xmlns="http://www.w3.org/2000/svg">
<g filter="url(#filter0_dd_5213_15907)">
<g clip-path="url(#clip0_5213_15907)">
<path d="M3 6C3 3.79086 4.79086 2 7 2H39C41.2091 2 43 3.79086 43 6V38C43 40.2091 41.2091 42 39 42H7C4.79086 42 3 40.2091 3 38V6Z" fill="white"/>
<g filter="url(#filter1_ddi_5213_15907)">
<path d="M3 6C3 3.79086 4.79086 2 7 2H39C41.2091 2 43 3.79086 43 6V38C43 40.2091 41.2091 42 39 42H7C4.79086 42 3 40.2091 3 38V6Z" fill="white"/>
</g>
<g filter="url(#filter2_i_5213_15907)">
<path d="M25.7327 8.51965C24.7654 8.6428 24.2597 8.537 23.3701 8.28981V13.137C24.2908 13.395 24.8098 13.4634 25.7327 13.4128C27.0557 13.168 27.8227 13.0359 29.3779 12.8612C30.2058 12.8478 30.6648 12.8955 31.4705 13.137V8.28981C30.6854 8.01921 30.2228 7.98073 29.3779 8.014C27.698 8.12186 26.9848 8.26299 25.7327 8.51965Z" fill="#EBF1FF"/>
</g>
<path d="M27.1673 10.2215C27.2894 10.0849 27.4676 9.99815 27.6664 9.99815C28.0333 9.99815 28.3319 10.2921 28.3319 10.6535C28.3319 11.0148 28.0789 11.3841 27.6663 11.243C27.6663 11.243 27.2658 11.0812 27.3337 11.3088C27.4015 11.5365 27.3587 11.5895 27.3337 11.6365C27.3086 11.6834 27.0431 11.699 27.001 11.6365C26.9588 11.5739 27.0717 11.1888 27.0237 11.033C26.9757 10.8772 26.9675 10.7311 27.001 10.6535C27.0857 10.4569 26.8517 10.3258 26.6682 10.3258C26.4848 10.3258 26.371 10.3801 26.3355 10.6535C26.3 10.9269 26.5435 11.0511 26.6682 10.9812C26.7929 10.9113 26.8101 10.9485 26.8346 10.9812C26.8591 11.0138 26.9699 11.2972 26.8346 11.3088C26.6992 11.3204 26.6682 11.3088 26.6682 11.3088C26.3013 11.3088 26.0393 11.0449 26.0027 10.6534C25.9662 10.262 26.3012 9.99805 26.6682 9.99805C26.867 9.99815 27.0452 10.0848 27.1673 10.2215ZM27.3337 10.9811C27.3574 11.0212 27.4377 11.0185 27.6663 10.9811C27.8811 10.9303 27.9991 10.8341 27.9991 10.6534C27.9991 10.4727 27.999 10.3556 27.6663 10.3257C27.3337 10.2958 27.2777 10.4838 27.3336 10.6534C27.3895 10.823 27.2725 10.8254 27.3336 10.9811H27.3337Z" fill="#080F2B"/>
<g filter="url(#filter3_i_5213_15907)">
<circle cx="23.046" cy="6.5108" r="1.43659" fill="white"/>
</g>
<g filter="url(#filter4_i_5213_15907)">
<rect x="21.6094" y="7.89941" width="2.87317" height="0.478862" rx="0.191545" fill="white"/>
</g>
<g filter="url(#filter5_i_5213_15907)">
<path d="M22.5674 8.37793H23.5251V17.1828H22.5674V8.37793Z" fill="white"/>
</g>
<path d="M5.78125 42.8125L6.96875 40.4375H35.4688H36.6562H39.0312L40.2188 42.8125H5.78125Z" fill="url(#paint0_linear_5213_15907)"/>
<path d="M38.1575 36.875H7.8425C7.68786 36.875 7.5625 37.0004 7.5625 37.155V40.4375H38.4375V37.155C38.4375 37.0004 38.3121 36.875 38.1575 36.875Z" fill="url(#paint1_linear_5213_15907)"/>
<path d="M35.7845 27.375H10.2155C10.062 27.375 9.9375 27.4995 9.9375 27.653V36.875H36.0625V27.653C36.0625 27.4995 35.938 27.375 35.7845 27.375Z" fill="url(#paint2_linear_5213_15907)"/>
<path d="M33.4075 25H12.5925C12.4379 25 12.3125 25.1254 12.3125 25.28V27.375H33.6875V25.28C33.6875 25.1254 33.5621 25 33.4075 25Z" fill="url(#paint3_linear_5213_15907)"/>
<path d="M28.6575 22.625H17.3425C17.1879 22.625 17.0625 22.7504 17.0625 22.905V25H28.9375V22.905C28.9375 22.7504 28.8121 22.625 28.6575 22.625Z" fill="url(#paint4_linear_5213_15907)"/>
<path d="M15.6147 29.75H12.979C12.7231 29.75 12.5156 29.9575 12.5156 30.2134V34.5H16.0781V30.2134C16.0781 29.9575 15.8706 29.75 15.6147 29.75Z" fill="#122368"/>
<path d="M21.1753 29.75H18.5396C18.2836 29.75 18.0762 29.9575 18.0762 30.2134V34.5H21.6387V30.2134C21.6387 29.9575 21.4312 29.75 21.1753 29.75Z" fill="#122368"/>
<path d="M27.6635 29.75H25.0279C24.7719 29.75 24.5645 29.9575 24.5645 30.2134V34.5H28.127V30.2134C28.127 29.9575 27.9195 29.75 27.6635 29.75Z" fill="#122368"/>
<path d="M33.2241 29.75H30.5884C30.3325 29.75 30.125 29.9575 30.125 30.2134V34.5H33.6875V30.2134C33.6875 29.9575 33.48 29.75 33.2241 29.75Z" fill="#122368"/>
<path d="M38.4375 39.25H7.5625V40.4375H38.4375V39.25Z" fill="#122368"/>
<path d="M33.6875 26.1875H12.3125V27.375H33.6875V26.1875Z" fill="#122368"/>
<path d="M28.9375 23.8125H17.0625V25H28.9375V23.8125Z" fill="#122368"/>
<path d="M36.0625 34.5H9.9375V36.875H36.0625V34.5Z" fill="url(#paint5_linear_5213_15907)"/>
<path d="M19.4375 22.625L21.0494 15.103C21.1482 14.6419 21.5556 14.3125 22.0272 14.3125H23.9728C24.4444 14.3125 24.8518 14.6419 24.9506 15.103L26.5625 22.625H19.4375Z" fill="url(#paint6_linear_5213_15907)"/>
<path d="M19.6922 21.4375L19.4375 22.625H26.5625L26.3078 21.4375H19.6922Z" fill="#122368"/>
<path d="M36.0625 35.6875H9.9375V36.875H36.0625V35.6875Z" fill="#122368"/>
</g>
</g>
<defs>
<filter id="filter0_dd_5213_15907" x="0" y="0" width="46" height="46" filterUnits="userSpaceOnUse" color-interpolation-filters="sRGB">
<feFlood flood-opacity="0" result="BackgroundImageFix"/>
<feColorMatrix in="SourceAlpha" type="matrix" values="0 0 0 0 0 0 0 0 0 0 0 0 0 0 0 0 0 0 127 0" result="hardAlpha"/>
<feMorphology radius="0.5" operator="dilate" in="SourceAlpha" result="effect1_dropShadow_5213_15907"/>
<feOffset/>
<feComposite in2="hardAlpha" operator="out"/>
<feColorMatrix type="matrix" values="0 0 0 0 0.145098 0 0 0 0 0.278431 0 0 0 0 0.815686 0 0 0 0.8 0"/>
<feBlend mode="normal" in2="BackgroundImageFix" result="effect1_dropShadow_5213_15907"/>
<feColorMatrix in="SourceAlpha" type="matrix" values="0 0 0 0 0 0 0 0 0 0 0 0 0 0 0 0 0 0 127 0" result="hardAlpha"/>
<feOffset dy="1"/>
<feGaussianBlur stdDeviation="1.5"/>
<feComposite in2="hardAlpha" operator="out"/>
<feColorMatrix type="matrix" values="0 0 0 0 0.0533333 0 0 0 0 0.0693333 0 0 0 0 0.106667 0 0 0 0.08 0"/>
<feBlend mode="normal" in2="effect1_dropShadow_5213_15907" result="effect2_dropShadow_5213_15907"/>
<feBlend mode="normal" in="SourceGraphic" in2="effect2_dropShadow_5213_15907" result="shape"/>
</filter>
<filter id="filter1_ddi_5213_15907" x="0" y="0" width="46" height="55" filterUnits="userSpaceOnUse" color-interpolation-filters="sRGB">
<feFlood flood-opacity="0" result="BackgroundImageFix"/>
<feColorMatrix in="SourceAlpha" type="matrix" values="0 0 0 0 0 0 0 0 0 0 0 0 0 0 0 0 0 0 127 0" result="hardAlpha"/>
<feMorphology radius="0.5" operator="dilate" in="SourceAlpha" result="effect1_dropShadow_5213_15907"/>
<feOffset/>
<feComposite in2="hardAlpha" operator="out"/>
<feColorMatrix type="matrix" values="0 0 0 0 0.333333 0 0 0 0 0.462745 0 0 0 0 0.972549 0 0 0 1 0"/>
<feBlend mode="normal" in2="BackgroundImageFix" result="effect1_dropShadow_5213_15907"/>
<feColorMatrix in="SourceAlpha" type="matrix" values="0 0 0 0 0 0 0 0 0 0 0 0 0 0 0 0 0 0 127 0" result="hardAlpha"/>
<feOffset dy="1"/>
<feGaussianBlur stdDeviation="1.5"/>
<feComposite in2="hardAlpha" operator="out"/>
<feColorMatrix type="matrix" values="0 0 0 0 0.0533333 0 0 0 0 0.0693333 0 0 0 0 0.106667 0 0 0 0.08 0"/>
<feBlend mode="normal" in2="effect1_dropShadow_5213_15907" result="effect2_dropShadow_5213_15907"/>
<feBlend mode="normal" in="SourceGraphic" in2="effect2_dropShadow_5213_15907" result="shape"/>
<feColorMatrix in="SourceAlpha" type="matrix" values="0 0 0 0 0 0 0 0 0 0 0 0 0 0 0 0 0 0 127 0" result="hardAlpha"/>
<feOffset dy="13"/>
<feGaussianBlur stdDeviation="15.75"/>
<feComposite in2="hardAlpha" operator="arithmetic" k2="-1" k3="1"/>
<feColorMatrix type="matrix" values="0 0 0 0 0.2 0 0 0 0 0.36087 0 0 0 0 1 0 0 0 1 0"/>
<feBlend mode="normal" in2="shape" result="effect3_innerShadow_5213_15907"/>
</filter>
<filter id="filter2_i_5213_15907" x="23.3701" y="8.00391" width="8.10059" height="5.4248" filterUnits="userSpaceOnUse" color-interpolation-filters="sRGB">
<feFlood flood-opacity="0" result="BackgroundImageFix"/>
<feBlend mode="normal" in="SourceGraphic" in2="BackgroundImageFix" result="shape"/>
<feColorMatrix in="SourceAlpha" type="matrix" values="0 0 0 0 0 0 0 0 0 0 0 0 0 0 0 0 0 0 127 0" result="hardAlpha"/>
<feOffset/>
<feGaussianBlur stdDeviation="0.478862"/>
<feComposite in2="hardAlpha" operator="arithmetic" k2="-1" k3="1"/>
<feColorMatrix type="matrix" values="0 0 0 0 0.145098 0 0 0 0 0.278431 0 0 0 0 0.815686 0 0 0 1 0"/>
<feBlend mode="normal" in2="shape" result="effect1_innerShadow_5213_15907"/>
</filter>
<filter id="filter3_i_5213_15907" x="21.6094" y="5.07422" width="2.87305" height="2.87305" filterUnits="userSpaceOnUse" color-interpolation-filters="sRGB">
<feFlood flood-opacity="0" result="BackgroundImageFix"/>
<feBlend mode="normal" in="SourceGraphic" in2="BackgroundImageFix" result="shape"/>
<feColorMatrix in="SourceAlpha" type="matrix" values="0 0 0 0 0 0 0 0 0 0 0 0 0 0 0 0 0 0 127 0" result="hardAlpha"/>
<feOffset/>
<feGaussianBlur stdDeviation="0.718293"/>
<feComposite in2="hardAlpha" operator="arithmetic" k2="-1" k3="1"/>
<feColorMatrix type="matrix" values="0 0 0 0 0.145098 0 0 0 0 0.278431 0 0 0 0 0.815686 0 0 0 1 0"/>
<feBlend mode="normal" in2="shape" result="effect1_innerShadow_5213_15907"/>
</filter>
<filter id="filter4_i_5213_15907" x="21.6094" y="7.89941" width="2.87305" height="0.478516" filterUnits="userSpaceOnUse" color-interpolation-filters="sRGB">
<feFlood flood-opacity="0" result="BackgroundImageFix"/>
<feBlend mode="normal" in="SourceGraphic" in2="BackgroundImageFix" result="shape"/>
<feColorMatrix in="SourceAlpha" type="matrix" values="0 0 0 0 0 0 0 0 0 0 0 0 0 0 0 0 0 0 127 0" result="hardAlpha"/>
<feOffset/>
<feGaussianBlur stdDeviation="0.359146"/>
<feComposite in2="hardAlpha" operator="arithmetic" k2="-1" k3="1"/>
<feColorMatrix type="matrix" values="0 0 0 0 0.145098 0 0 0 0 0.278431 0 0 0 0 0.815686 0 0 0 1 0"/>
<feBlend mode="normal" in2="shape" result="effect1_innerShadow_5213_15907"/>
</filter>
<filter id="filter5_i_5213_15907" x="22.5674" y="8.37793" width="0.958008" height="8.80469" filterUnits="userSpaceOnUse" color-interpolation-filters="sRGB">
<feFlood flood-opacity="0" result="BackgroundImageFix"/>
<feBlend mode="normal" in="SourceGraphic" in2="BackgroundImageFix" result="shape"/>
<feColorMatrix in="SourceAlpha" type="matrix" values="0 0 0 0 0 0 0 0 0 0 0 0 0 0 0 0 0 0 127 0" result="hardAlpha"/>
<feOffset/>
<feGaussianBlur stdDeviation="0.478862"/>
<feComposite in2="hardAlpha" operator="arithmetic" k2="-1" k3="1"/>
<feColorMatrix type="matrix" values="0 0 0 0 0.145098 0 0 0 0 0.278431 0 0 0 0 0.815686 0 0 0 1 0"/>
<feBlend mode="normal" in2="shape" result="effect1_innerShadow_5213_15907"/>
</filter>
<linearGradient id="paint0_linear_5213_15907" x1="23" y1="40.4375" x2="23" y2="44.25" gradientUnits="userSpaceOnUse">
<stop stop-color="#335CFF"/>
<stop offset="1" stop-color="#1F3799"/>
</linearGradient>
<linearGradient id="paint1_linear_5213_15907" x1="23" y1="36.875" x2="23" y2="42.5938" gradientUnits="userSpaceOnUse">
<stop stop-color="#335CFF"/>
<stop offset="1" stop-color="#1F3799"/>
</linearGradient>
<linearGradient id="paint2_linear_5213_15907" x1="23" y1="27.375" x2="23" y2="41.25" gradientUnits="userSpaceOnUse">
<stop stop-color="#5779FF"/>
<stop offset="1" stop-color="#283876"/>
</linearGradient>
<linearGradient id="paint3_linear_5213_15907" x1="23" y1="25" x2="23" y2="28.8125" gradientUnits="userSpaceOnUse">
<stop stop-color="#335CFF"/>
<stop offset="1" stop-color="#1F3799"/>
</linearGradient>
<linearGradient id="paint4_linear_5213_15907" x1="23" y1="22.625" x2="23" y2="26.4375" gradientUnits="userSpaceOnUse">
<stop stop-color="#335CFF"/>
<stop offset="1" stop-color="#1F3799"/>
</linearGradient>
<linearGradient id="paint5_linear_5213_15907" x1="23" y1="34.5" x2="23" y2="38.3125" gradientUnits="userSpaceOnUse">
<stop stop-color="#335CFF"/>
<stop offset="1" stop-color="#1F3799"/>
</linearGradient>
<linearGradient id="paint6_linear_5213_15907" x1="23" y1="14.3125" x2="23" y2="27.6563" gradientUnits="userSpaceOnUse">
<stop stop-color="#335CFF"/>
<stop offset="1" stop-color="#1F3799"/>
</linearGradient>
<clipPath id="clip0_5213_15907">
<path d="M3 6C3 3.79086 4.79086 2 7 2H39C41.2091 2 43 3.79086 43 6V38C43 40.2091 41.2091 42 39 42H7C4.79086 42 3 40.2091 3 38V6Z" fill="white"/>
</clipPath>
</defs>
</svg>
