<svg width="46" height="46" viewBox="0 0 46 46" fill="none" xmlns="http://www.w3.org/2000/svg">
<g filter="url(#filter0_ddi_7342_50972)">
<g clip-path="url(#clip0_7342_50972)">
<path d="M3 6C3 3.79086 4.79086 2 7 2H39C41.2091 2 43 3.79086 43 6V38C43 40.2091 41.2091 42 39 42H7C4.79086 42 3 40.2091 3 38V6Z" fill="white"/>
<g filter="url(#filter1_i_7342_50972)">
<path fill-rule="evenodd" clip-rule="evenodd" d="M8 9.95071C8 9.45046 8.40554 9.04492 8.90579 9.04492C15.9094 9.04492 21.5869 14.7225 21.5869 21.726V57.4542C21.5869 58.1364 21.0339 58.6894 20.3517 58.6894C13.5301 58.6894 8 53.1593 8 46.3377V9.95071ZM13.3564 20.019C12.4184 20.019 11.658 20.7793 11.658 21.7173V39.4848C11.658 40.4228 12.4184 41.1832 13.3564 41.1832C14.2944 41.1832 15.0547 40.4228 15.0547 39.4848V21.7173C15.0547 20.7793 14.2944 20.019 13.3564 20.019ZM11.7887 46.6702C10.5621 46.6702 9.56772 45.6759 9.56772 44.4493C9.56772 43.2227 10.5621 42.2283 11.7887 42.2283H16.7531C17.9797 42.2283 18.974 43.2227 18.974 44.4493C18.974 45.6759 17.9797 46.6702 16.7531 46.6702H12.9644H11.7887Z" fill="#E1E4EA"/>
<path d="M24.7227 27.1958C24.7227 26.6956 25.1282 26.29 25.6284 26.29C32.632 26.29 38.3096 31.9676 38.3096 38.9712V57.4544C38.3096 58.1366 37.7566 58.6896 37.0744 58.6896C30.2527 58.6896 24.7227 53.1595 24.7227 46.3378V27.1958Z" fill="#E1E4EA"/>
<path d="M25.7424 24.9741C26.6031 23.6849 29.1269 21.4343 33.4998 20.2805C37.4609 19.2353 38.3096 16.0999 38.3096 14.5322V9.28399C38.3096 8.59848 37.7163 8.06012 37.0364 8.14798C32.0659 8.7903 24.4695 10.7999 24.7291 24.4611C25.8608 21.4127 28.9164 15.1592 32.0852 14.5322L25.7424 24.9741Z" fill="#E1E4EA"/>
</g>
</g>
</g>
<defs>
<filter id="filter0_ddi_7342_50972" x="0" y="0" width="46" height="46" filterUnits="userSpaceOnUse" color-interpolation-filters="sRGB">
<feFlood flood-opacity="0" result="BackgroundImageFix"/>
<feColorMatrix in="SourceAlpha" type="matrix" values="0 0 0 0 0 0 0 0 0 0 0 0 0 0 0 0 0 0 127 0" result="hardAlpha"/>
<feMorphology radius="1" operator="dilate" in="SourceAlpha" result="effect1_dropShadow_7342_50972"/>
<feOffset/>
<feComposite in2="hardAlpha" operator="out"/>
<feColorMatrix type="matrix" values="0 0 0 0 0.882353 0 0 0 0 0.894118 0 0 0 0 0.917647 0 0 0 0.5 0"/>
<feBlend mode="normal" in2="BackgroundImageFix" result="effect1_dropShadow_7342_50972"/>
<feColorMatrix in="SourceAlpha" type="matrix" values="0 0 0 0 0 0 0 0 0 0 0 0 0 0 0 0 0 0 127 0" result="hardAlpha"/>
<feOffset dy="1"/>
<feGaussianBlur stdDeviation="1.5"/>
<feComposite in2="hardAlpha" operator="out"/>
<feColorMatrix type="matrix" values="0 0 0 0 0.0533333 0 0 0 0 0.0693333 0 0 0 0 0.106667 0 0 0 0.08 0"/>
<feBlend mode="normal" in2="effect1_dropShadow_7342_50972" result="effect2_dropShadow_7342_50972"/>
<feBlend mode="normal" in="SourceGraphic" in2="effect2_dropShadow_7342_50972" result="shape"/>
<feColorMatrix in="SourceAlpha" type="matrix" values="0 0 0 0 0 0 0 0 0 0 0 0 0 0 0 0 0 0 127 0" result="hardAlpha"/>
<feMorphology radius="2" operator="erode" in="SourceAlpha" result="effect3_innerShadow_7342_50972"/>
<feOffset/>
<feGaussianBlur stdDeviation="6"/>
<feComposite in2="hardAlpha" operator="arithmetic" k2="-1" k3="1"/>
<feColorMatrix type="matrix" values="0 0 0 0 0.94902 0 0 0 0 0.960784 0 0 0 0 0.972549 0 0 0 1 0"/>
<feBlend mode="normal" in2="shape" result="effect3_innerShadow_7342_50972"/>
</filter>
<filter id="filter1_i_7342_50972" x="8" y="4.13867" width="30.3096" height="54.5508" filterUnits="userSpaceOnUse" color-interpolation-filters="sRGB">
<feFlood flood-opacity="0" result="BackgroundImageFix"/>
<feBlend mode="normal" in="SourceGraphic" in2="BackgroundImageFix" result="shape"/>
<feColorMatrix in="SourceAlpha" type="matrix" values="0 0 0 0 0 0 0 0 0 0 0 0 0 0 0 0 0 0 127 0" result="hardAlpha"/>
<feOffset dy="-4"/>
<feGaussianBlur stdDeviation="3"/>
<feComposite in2="hardAlpha" operator="arithmetic" k2="-1" k3="1"/>
<feColorMatrix type="matrix" values="0 0 0 0 0 0 0 0 0 0 0 0 0 0 0 0 0 0 0.15 0"/>
<feBlend mode="normal" in2="shape" result="effect1_innerShadow_7342_50972"/>
</filter>
<clipPath id="clip0_7342_50972">
<path d="M3 6C3 3.79086 4.79086 2 7 2H39C41.2091 2 43 3.79086 43 6V38C43 40.2091 41.2091 42 39 42H7C4.79086 42 3 40.2091 3 38V6Z" fill="white"/>
</clipPath>
</defs>
</svg>
