<svg width="46" height="46" viewBox="0 0 46 46" fill="none" xmlns="http://www.w3.org/2000/svg">
<g filter="url(#filter0_dd_5213_16449)">
<g clip-path="url(#clip0_5213_16449)">
<path d="M3 6C3 3.79086 4.79086 2 7 2H39C41.2091 2 43 3.79086 43 6V38C43 40.2091 41.2091 42 39 42H7C4.79086 42 3 40.2091 3 38V6Z" fill="white"/>
<g filter="url(#filter1_ddi_5213_16449)">
<g clip-path="url(#clip1_5213_16449)">
<path d="M3 6C3 3.79086 4.79086 2 7 2H39C41.2091 2 43 3.79086 43 6V38C43 40.2091 41.2091 42 39 42H7C4.79086 42 3 40.2091 3 38V6Z" fill="white"/>
<g filter="url(#filter2_i_5213_16449)">
<circle cx="12.25" cy="13.75" r="15.75" fill="#F2F5F8"/>
</g>
<g filter="url(#filter3_i_5213_16449)">
<circle cx="36.75" cy="8.25" r="15.75" fill="#F2F5F8"/>
</g>
<g filter="url(#filter4_i_5213_16449)">
<circle cx="12.75" cy="-3.75" r="15.75" fill="#F2F5F8"/>
</g>
</g>
</g>
<path d="M17 26.75H35C35.3978 26.75 35.7794 26.908 36.0607 27.1893C36.342 27.4706 36.5 27.8522 36.5 28.25V43.25C36.5 43.6478 36.342 44.0294 36.0607 44.3107C35.7794 44.592 35.3978 44.75 35 44.75H17C16.6022 44.75 16.2206 44.592 15.9393 44.3107C15.658 44.0294 15.5 43.6478 15.5 43.25V28.25C15.5 27.8522 15.658 27.4706 15.9393 27.1893C16.2206 26.908 16.6022 26.75 17 26.75ZM11 44.75C11.3978 44.75 11.7794 44.592 12.0607 44.3107C12.342 44.0294 12.5 43.6478 12.5 43.25V28.25C12.5 27.8522 12.342 27.4706 12.0607 27.1893C11.7794 26.908 11.3978 26.75 11 26.75C10.6022 26.75 10.2206 26.908 9.93934 27.1893C9.65804 27.4706 9.5 27.8522 9.5 28.25V43.25C9.5 43.6478 9.65804 44.0294 9.93934 44.3107C10.2206 44.592 10.6022 44.75 11 44.75Z" fill="#68CDFF"/>
<path d="M23.0001 34.2507H29.0001C29.3979 34.2507 29.7795 34.4087 30.0608 34.69C30.3421 34.9713 30.5001 35.3528 30.5001 35.7507V44.7507H21.5001V35.7507C21.5001 35.3528 21.6582 34.9713 21.9395 34.69C22.2208 34.4087 22.6023 34.2507 23.0001 34.2507ZM9.50012 16.5057V29.7507H36.5001V20.4957C36.5048 20.1361 36.3801 19.7869 36.1488 19.5116C35.9175 19.2363 35.5951 19.0532 35.2401 18.9957L11.2401 15.0057C11.024 14.9706 10.8029 14.9833 10.5922 15.0428C10.3815 15.1024 10.1864 15.2073 10.0206 15.3502C9.85477 15.4932 9.72226 15.6707 9.63234 15.8703C9.54243 16.0699 9.4973 16.2868 9.50012 16.5057Z" fill="#35ADE9"/>
<path d="M36.5 22.25C36.697 22.2668 36.8954 22.2446 37.0838 22.1847C37.2722 22.1247 37.4469 22.0283 37.598 21.9009C37.7492 21.7734 37.8737 21.6174 37.9646 21.4419C38.0554 21.2663 38.1108 21.0745 38.1275 20.8775C38.1443 20.6806 38.1221 20.4822 38.0622 20.2938C38.0022 20.1054 37.9058 19.9307 37.7784 19.7795C37.6509 19.6284 37.4949 19.5039 37.3194 19.413C37.1438 19.3222 36.952 19.2668 36.755 19.25L35.255 18.995L9.75504 14.75C9.35722 14.6824 8.94882 14.7756 8.61969 15.0091C8.29057 15.2426 8.06767 15.5972 8.00004 15.995C7.93241 16.3929 8.02559 16.8013 8.25907 17.1304C8.49255 17.4595 8.84722 17.6824 9.24504 17.75L10.745 18.005L36.245 22.25H36.5Z" fill="#68CDFF"/>
</g>
</g>
<defs>
<filter id="filter0_dd_5213_16449" x="0" y="0" width="46" height="46" filterUnits="userSpaceOnUse" color-interpolation-filters="sRGB">
<feFlood flood-opacity="0" result="BackgroundImageFix"/>
<feColorMatrix in="SourceAlpha" type="matrix" values="0 0 0 0 0 0 0 0 0 0 0 0 0 0 0 0 0 0 127 0" result="hardAlpha"/>
<feMorphology radius="0.5" operator="dilate" in="SourceAlpha" result="effect1_dropShadow_5213_16449"/>
<feOffset/>
<feComposite in2="hardAlpha" operator="out"/>
<feColorMatrix type="matrix" values="0 0 0 0 0.145098 0 0 0 0 0.592157 0 0 0 0 0.815686 0 0 0 0.6 0"/>
<feBlend mode="normal" in2="BackgroundImageFix" result="effect1_dropShadow_5213_16449"/>
<feColorMatrix in="SourceAlpha" type="matrix" values="0 0 0 0 0 0 0 0 0 0 0 0 0 0 0 0 0 0 127 0" result="hardAlpha"/>
<feOffset dy="1"/>
<feGaussianBlur stdDeviation="1.5"/>
<feComposite in2="hardAlpha" operator="out"/>
<feColorMatrix type="matrix" values="0 0 0 0 0.0533333 0 0 0 0 0.0693333 0 0 0 0 0.106667 0 0 0 0.08 0"/>
<feBlend mode="normal" in2="effect1_dropShadow_5213_16449" result="effect2_dropShadow_5213_16449"/>
<feBlend mode="normal" in="SourceGraphic" in2="effect2_dropShadow_5213_16449" result="shape"/>
</filter>
<filter id="filter1_ddi_5213_16449" x="0" y="0" width="46" height="46" filterUnits="userSpaceOnUse" color-interpolation-filters="sRGB">
<feFlood flood-opacity="0" result="BackgroundImageFix"/>
<feColorMatrix in="SourceAlpha" type="matrix" values="0 0 0 0 0 0 0 0 0 0 0 0 0 0 0 0 0 0 127 0" result="hardAlpha"/>
<feMorphology radius="0.5" operator="dilate" in="SourceAlpha" result="effect1_dropShadow_5213_16449"/>
<feOffset/>
<feComposite in2="hardAlpha" operator="out"/>
<feColorMatrix type="matrix" values="0 0 0 0 0.407843 0 0 0 0 0.803922 0 0 0 0 1 0 0 0 1 0"/>
<feBlend mode="normal" in2="BackgroundImageFix" result="effect1_dropShadow_5213_16449"/>
<feColorMatrix in="SourceAlpha" type="matrix" values="0 0 0 0 0 0 0 0 0 0 0 0 0 0 0 0 0 0 127 0" result="hardAlpha"/>
<feOffset dy="1"/>
<feGaussianBlur stdDeviation="1.5"/>
<feComposite in2="hardAlpha" operator="out"/>
<feColorMatrix type="matrix" values="0 0 0 0 0.0533333 0 0 0 0 0.0693333 0 0 0 0 0.106667 0 0 0 0.08 0"/>
<feBlend mode="normal" in2="effect1_dropShadow_5213_16449" result="effect2_dropShadow_5213_16449"/>
<feBlend mode="normal" in="SourceGraphic" in2="effect2_dropShadow_5213_16449" result="shape"/>
<feColorMatrix in="SourceAlpha" type="matrix" values="0 0 0 0 0 0 0 0 0 0 0 0 0 0 0 0 0 0 127 0" result="hardAlpha"/>
<feOffset dy="3.5"/>
<feGaussianBlur stdDeviation="15.75"/>
<feComposite in2="hardAlpha" operator="arithmetic" k2="-1" k3="1"/>
<feColorMatrix type="matrix" values="0 0 0 0 0.278431 0 0 0 0 0.760784 0 0 0 0 1 0 0 0 1 0"/>
<feBlend mode="normal" in2="shape" result="effect3_innerShadow_5213_16449"/>
</filter>
<filter id="filter2_i_5213_16449" x="-3.5" y="-2" width="31.5" height="31.5" filterUnits="userSpaceOnUse" color-interpolation-filters="sRGB">
<feFlood flood-opacity="0" result="BackgroundImageFix"/>
<feBlend mode="normal" in="SourceGraphic" in2="BackgroundImageFix" result="shape"/>
<feColorMatrix in="SourceAlpha" type="matrix" values="0 0 0 0 0 0 0 0 0 0 0 0 0 0 0 0 0 0 127 0" result="hardAlpha"/>
<feMorphology radius="0.4375" operator="erode" in="SourceAlpha" result="effect1_innerShadow_5213_16449"/>
<feOffset/>
<feGaussianBlur stdDeviation="3.5"/>
<feComposite in2="hardAlpha" operator="arithmetic" k2="-1" k3="1"/>
<feColorMatrix type="matrix" values="0 0 0 0 0.884 0 0 0 0 0.893143 0 0 0 0 0.916 0 0 0 1 0"/>
<feBlend mode="normal" in2="shape" result="effect1_innerShadow_5213_16449"/>
</filter>
<filter id="filter3_i_5213_16449" x="21" y="-7.5" width="31.5" height="31.5" filterUnits="userSpaceOnUse" color-interpolation-filters="sRGB">
<feFlood flood-opacity="0" result="BackgroundImageFix"/>
<feBlend mode="normal" in="SourceGraphic" in2="BackgroundImageFix" result="shape"/>
<feColorMatrix in="SourceAlpha" type="matrix" values="0 0 0 0 0 0 0 0 0 0 0 0 0 0 0 0 0 0 127 0" result="hardAlpha"/>
<feMorphology radius="0.4375" operator="erode" in="SourceAlpha" result="effect1_innerShadow_5213_16449"/>
<feOffset/>
<feGaussianBlur stdDeviation="3.5"/>
<feComposite in2="hardAlpha" operator="arithmetic" k2="-1" k3="1"/>
<feColorMatrix type="matrix" values="0 0 0 0 0.884 0 0 0 0 0.893143 0 0 0 0 0.916 0 0 0 1 0"/>
<feBlend mode="normal" in2="shape" result="effect1_innerShadow_5213_16449"/>
</filter>
<filter id="filter4_i_5213_16449" x="-3" y="-19.5" width="31.5" height="31.5" filterUnits="userSpaceOnUse" color-interpolation-filters="sRGB">
<feFlood flood-opacity="0" result="BackgroundImageFix"/>
<feBlend mode="normal" in="SourceGraphic" in2="BackgroundImageFix" result="shape"/>
<feColorMatrix in="SourceAlpha" type="matrix" values="0 0 0 0 0 0 0 0 0 0 0 0 0 0 0 0 0 0 127 0" result="hardAlpha"/>
<feMorphology radius="0.4375" operator="erode" in="SourceAlpha" result="effect1_innerShadow_5213_16449"/>
<feOffset/>
<feGaussianBlur stdDeviation="3.5"/>
<feComposite in2="hardAlpha" operator="arithmetic" k2="-1" k3="1"/>
<feColorMatrix type="matrix" values="0 0 0 0 0.884 0 0 0 0 0.893143 0 0 0 0 0.916 0 0 0 1 0"/>
<feBlend mode="normal" in2="shape" result="effect1_innerShadow_5213_16449"/>
</filter>
<clipPath id="clip0_5213_16449">
<path d="M3 6C3 3.79086 4.79086 2 7 2H39C41.2091 2 43 3.79086 43 6V38C43 40.2091 41.2091 42 39 42H7C4.79086 42 3 40.2091 3 38V6Z" fill="white"/>
</clipPath>
<clipPath id="clip1_5213_16449">
<path d="M3 6C3 3.79086 4.79086 2 7 2H39C41.2091 2 43 3.79086 43 6V38C43 40.2091 41.2091 42 39 42H7C4.79086 42 3 40.2091 3 38V6Z" fill="white"/>
</clipPath>
</defs>
</svg>
