<svg width="227" height="268" viewBox="0 0 227 268" fill="none" xmlns="http://www.w3.org/2000/svg">
<path d="M89.3333 111.665H223.333C226.295 111.665 229.135 112.842 231.229 114.936C233.324 117.03 234.5 119.87 234.5 122.832V234.498C234.5 237.46 233.324 240.3 231.229 242.394C229.135 244.489 226.295 245.665 223.333 245.665H89.3333C86.3717 245.665 83.5315 244.489 81.4373 242.394C79.3432 240.3 78.1667 237.46 78.1667 234.498V122.832C78.1667 119.87 79.3432 117.03 81.4373 114.936C83.5315 112.842 86.3717 111.665 89.3333 111.665ZM44.6667 245.665C47.6283 245.665 50.4685 244.489 52.5627 242.394C54.6568 240.3 55.8333 237.46 55.8333 234.498V122.832C55.8333 119.87 54.6568 117.03 52.5627 114.936C50.4685 112.842 47.6283 111.665 44.6667 111.665C41.7051 111.665 38.8648 112.842 36.7706 114.936C34.6765 117.03 33.5 119.87 33.5 122.832V234.498C33.5 237.46 34.6765 240.3 36.7706 242.394C38.8648 244.489 41.7051 245.665 44.6667 245.665Z" fill="#E1E4EA"/>
<path d="M134.001 167.504H178.668C181.629 167.504 184.469 168.68 186.564 170.774C188.658 172.868 189.834 175.709 189.834 178.67V245.67H122.834V178.67C122.834 175.709 124.011 172.868 126.105 170.774C128.199 168.68 131.039 167.504 134.001 167.504ZM33.5009 35.402V134.004H234.501V65.1053C234.535 62.4288 233.607 59.8289 231.886 57.7793C230.164 55.7297 227.763 54.3667 225.121 53.9387L46.4543 24.2353C44.8455 23.9744 43.1991 24.0688 41.6307 24.5119C40.0623 24.955 38.6099 25.7361 37.3755 26.8002C36.1411 27.8644 35.1546 29.1858 34.4852 30.6718C33.8159 32.1578 33.4799 33.7723 33.5009 35.402Z" fill="#CACFD8"/>
<path d="M234.501 78.1689C235.967 78.2935 237.444 78.1281 238.846 77.6821C240.249 77.2361 241.55 76.5182 242.675 75.5694C243.8 74.6206 244.727 73.4595 245.403 72.1524C246.08 70.8453 246.492 69.4178 246.617 67.9514C246.741 66.485 246.576 65.0083 246.13 63.6058C245.684 62.2033 244.966 60.9024 244.017 59.7773C243.068 58.6523 241.907 57.7251 240.6 57.0488C239.293 56.3725 237.865 55.9602 236.399 55.8355L225.232 53.9372L35.3991 22.3355C32.4375 21.8321 29.3972 22.5257 26.9471 24.2639C24.4969 26.002 22.8376 28.6423 22.3341 31.6039C21.8306 34.5655 22.5243 37.6058 24.2624 40.0559C26.0006 42.5061 28.6408 44.1654 31.6024 44.6689L42.7691 46.5672L232.602 78.1689H234.501Z" fill="#E1E4EA"/>
</svg>
