<svg width="207" height="230" viewBox="0 0 207 230" fill="none" xmlns="http://www.w3.org/2000/svg">
<g clip-path="url(#clip0_5213_16255)">
<path d="M99.6918 175.292C99.8357 174.696 100.023 174.12 100.233 173.556C100.349 173.241 100.45 172.922 100.587 172.619C100.918 171.883 101.303 171.175 101.735 170.506C101.96 170.16 102.229 169.845 102.482 169.518C102.754 169.164 103.034 168.813 103.334 168.483C103.649 168.14 103.976 167.81 104.322 167.499C104.607 167.238 104.914 166.997 105.217 166.759C106.186 166.001 107.233 165.32 108.385 164.798L108.968 164.534C110.766 163.806 112.72 163.386 114.778 163.386C116.692 163.386 118.505 163.779 120.202 164.413L120.311 164.456C120.925 164.689 121.497 164.981 122.066 165.281C122.291 165.401 122.521 165.514 122.739 165.646C123.202 165.919 123.641 166.222 124.069 166.537C124.431 166.81 124.781 167.101 125.12 167.405C125.408 167.662 125.704 167.907 125.972 168.183C126.583 168.817 127.159 169.491 127.657 170.226C127.696 170.285 127.723 170.347 127.762 170.409C128.229 171.114 128.629 171.861 128.976 172.639C129.077 172.861 129.159 173.094 129.248 173.32C129.501 173.974 129.711 174.651 129.879 175.344C129.937 175.597 130.003 175.845 130.054 176.102C130.225 177.028 130.342 177.974 130.342 178.95C130.342 179.865 130.221 180.752 130.07 181.627C130.007 181.973 129.93 182.32 129.844 182.666C129.728 183.141 129.572 183.596 129.412 184.055C129.02 185.145 128.541 186.211 127.907 187.215L127.498 187.869C124.677 191.873 120.039 194.515 114.778 194.515C107.319 194.515 101.078 189.23 99.5725 182.215L99.312 179.919C99.2694 179.6 99.2147 179.281 99.2147 178.95C99.2147 178.005 99.3313 177.091 99.4909 176.196C99.5474 175.891 99.6178 175.591 99.6918 175.292Z" fill="#CACFD8"/>
<path d="M129.952 161.261C129.264 160.67 128.552 160.109 127.797 159.6C130.61 157.067 134.255 155.627 138.127 155.627C146.711 155.627 153.691 162.607 153.691 171.191C153.691 180.214 145.882 187.592 136.789 186.689C137.205 185.506 137.532 184.288 137.754 183.028C137.773 182.903 137.789 182.779 137.808 182.65C138.003 181.447 138.127 180.226 138.127 178.973C138.127 178.066 138.065 177.175 137.964 176.296C137.925 175.977 137.867 175.666 137.82 175.347C137.734 174.806 137.637 174.265 137.517 173.736C137.427 173.347 137.326 172.965 137.217 172.588C137.096 172.152 136.956 171.728 136.809 171.308C136.665 170.891 136.525 170.479 136.357 170.07C136.213 169.724 136.046 169.389 135.886 169.051C135.501 168.237 135.073 167.451 134.598 166.689C134.423 166.408 134.264 166.12 134.077 165.848C133.828 165.482 133.551 165.136 133.279 164.782C133.015 164.436 132.742 164.093 132.454 163.762C132.217 163.482 131.972 163.214 131.715 162.949C131.275 162.482 130.816 162.042 130.342 161.614C130.209 161.499 130.085 161.374 129.952 161.261Z" fill="#CACFD8"/>
<path d="M52.0326 65.2667C47.7721 63.5274 44.7527 59.3485 44.7527 54.4652C44.7527 49.1774 48.3052 44.7533 53.1338 43.3211L38.8888 23.3794C37.5539 21.5078 36.8966 19.2821 37.0482 17.1343L37.0948 16.5196C37.6629 9.94769 41.6436 4.38731 47.7524 1.65174C53.9467 -1.12239 60.8612 -0.379426 66.2387 3.64793C71.122 7.30538 78.7875 11.6636 87.5538 11.6636C93.2931 11.6636 98.41 10.2472 102.756 7.45334C110.071 2.74938 119.518 2.74938 126.826 7.44975C131.172 10.2477 136.289 11.6636 142.028 11.6636C150.794 11.6636 158.46 7.30582 163.343 3.64793C168.717 -0.379426 175.635 -1.12239 181.829 1.65174C187.935 4.38731 191.923 9.94768 192.487 16.5156L192.534 17.1146C192.682 19.2857 192.028 21.5114 190.689 23.383L176.448 43.3207C181.277 44.7524 184.83 49.1765 184.83 54.4647C184.83 59.3481 181.81 63.5229 177.55 65.2662C189.491 78.8459 215.958 115.64 215.958 175.087V182.803C215.958 198.028 207.044 211.701 193.246 217.635C174.846 225.549 148.449 229.561 114.791 229.561C81.1334 229.561 54.7368 225.549 36.3321 217.635C22.5385 211.701 13.6238 198.028 13.6238 182.803V175.087C13.6238 115.64 40.0909 78.8464 52.0326 65.2667ZM87.5538 186.76C89.2541 186.76 90.9391 186.562 92.5967 186.185C95.6435 195.539 104.433 202.325 114.791 202.325C122.036 202.325 128.523 199.006 132.807 193.811C134.581 194.243 136.363 194.543 138.137 194.543C151.013 194.543 161.484 184.072 161.484 171.196C161.484 158.321 151.013 147.85 138.137 147.85C131.137 147.85 124.639 150.959 120.223 156.297C118.48 155.877 116.667 155.632 114.792 155.632C113.021 155.632 111.301 155.846 109.644 156.223C106.593 146.76 97.8074 140.068 87.5542 140.068C74.679 140.068 64.2079 150.538 64.2079 163.414C64.2079 176.29 74.6781 186.76 87.5538 186.76ZM145.028 125.916C144.88 125.737 130.355 107.975 130.355 93.3752C130.343 92.5933 129.981 78.0796 122.686 66.1379H106.896C99.6004 78.0796 99.2386 92.5812 99.227 93.3089C99.227 106.239 90.7212 108.982 90.3593 109.095C88.3205 109.717 87.1377 111.865 87.7327 113.912C88.2268 115.608 89.7639 116.721 91.4484 116.721C91.791 116.721 92.1412 116.674 92.4873 116.577C93.0788 116.413 107.009 112.328 107.009 93.3748C107.013 93.2735 107.409 78.5849 114.791 68.2968C122.211 78.6118 122.573 93.2735 122.573 93.4407C122.573 110.787 138.359 130.063 139.028 130.876C139.798 131.802 140.911 132.285 142.028 132.285C142.904 132.285 143.779 131.993 144.507 131.394C146.164 130.025 146.394 127.574 145.028 125.916ZM56.4254 58.3562H58.8224H114.791H170.759H173.156C175.301 58.3562 177.048 56.6093 177.048 54.4652C177.048 52.321 175.301 50.5741 173.156 50.5741H171.269H58.3126H56.4254C54.2812 50.5741 52.5343 52.321 52.5343 54.4652C52.5343 56.6093 54.2812 58.3562 56.4254 58.3562Z" fill="#CACFD8"/>
<path d="M87.5385 147.868C94.5696 147.868 100.581 152.599 102.43 159.218C99.9824 160.751 97.8459 162.72 96.1183 165.02C96.099 165.047 96.0793 165.075 96.06 165.102C94.3987 167.331 93.1262 169.853 92.3443 172.592C92.3017 172.736 92.2703 172.884 92.2313 173.028C92.0483 173.728 91.8927 174.44 91.7721 175.164C91.7295 175.417 91.6905 175.67 91.6555 175.926C91.5699 176.58 91.5157 177.238 91.4843 177.903C91.4766 178.098 91.4417 178.284 91.4336 178.479C90.1535 178.825 88.85 178.996 87.5385 178.996C78.9547 178.996 71.9743 172.016 71.9743 163.432C71.9743 154.849 78.9547 147.868 87.5385 147.868Z" fill="#CACFD8"/>
</g>
<defs>
<clipPath id="clip0_5213_16255">
<rect width="229.565" height="229.565" fill="white" transform="matrix(-1 0 0 1 229.565 0)"/>
</clipPath>
</defs>
</svg>
