<svg width="46" height="46" viewBox="0 0 46 46" fill="none" xmlns="http://www.w3.org/2000/svg">
<g filter="url(#filter0_dd_5213_16200)">
<g clip-path="url(#clip0_5213_16200)">
<path d="M3 6C3 3.79086 4.79086 2 7 2H39C41.2091 2 43 3.79086 43 6V38C43 40.2091 41.2091 42 39 42H7C4.79086 42 3 40.2091 3 38V6Z" fill="white"/>
<g filter="url(#filter1_ddi_5213_16200)">
<path d="M3 6C3 3.79086 4.79086 2 7 2H39C41.2091 2 43 3.79086 43 6V38C43 40.2091 41.2091 42 39 42H7C4.79086 42 3 40.2091 3 38V6Z" fill="white"/>
</g>
<path d="M22.999 26.3867C22.8804 26.3868 22.766 26.4046 22.6572 26.4375L22.5498 26.4756L22.5049 26.4961H22.5039C22.4173 26.5354 22.3362 26.5878 22.2588 26.6484C22.232 26.6694 22.2101 26.6871 22.1904 26.7051L22.1885 26.7061C22.1629 26.7291 22.1381 26.7543 22.1133 26.7812L22.0469 26.8623L21.9893 26.9385C21.9558 26.9903 21.9261 27.0454 21.9004 27.1025C21.8913 27.1228 21.8864 27.1386 21.873 27.1748C21.8562 27.22 21.8418 27.2641 21.8311 27.3086V27.3096L21.8154 27.3799C21.8025 27.4528 21.7939 27.5229 21.7939 27.5928C21.794 27.6085 21.7961 27.6222 21.8008 27.6572V27.6602L21.8232 27.8516C21.9424 28.3922 22.4249 28.7979 23 28.7979C23.405 28.7977 23.7629 28.5954 23.9824 28.2861L24.0156 28.2324H24.0166C24.0406 28.1944 24.0617 28.1545 24.0811 28.1133L24.1338 27.9863C24.1476 27.9467 24.1579 27.9131 24.166 27.8799C24.1729 27.8521 24.1799 27.8256 24.1846 27.7998H24.1836C24.1962 27.7268 24.205 27.6595 24.2051 27.5928C24.2051 27.5196 24.1965 27.4459 24.1826 27.3711L24.1836 27.3701C24.18 27.3523 24.1751 27.34 24.1689 27.3135C24.1559 27.2593 24.1407 27.2058 24.1211 27.1553C24.1107 27.129 24.1062 27.119 24.0996 27.1045V27.1035C24.0724 27.0424 24.0414 26.9843 24.0059 26.9307L24.0029 26.9268C24.0005 26.9229 23.9985 26.9195 23.9971 26.917C23.96 26.8622 23.9162 26.8098 23.8672 26.7588L23.8008 26.6982C23.7743 26.6745 23.7469 26.6523 23.7197 26.6318C23.6848 26.6061 23.6514 26.5826 23.6172 26.5625L23.6152 26.5615C23.6011 26.5529 23.5903 26.5465 23.5654 26.5332L23.5645 26.5342C23.5156 26.5084 23.4729 26.4865 23.4287 26.4697L23.4268 26.4688L23.418 26.4648C23.2846 26.4152 23.1443 26.3867 22.999 26.3867Z" fill="#F6B51E" stroke="#624C18" stroke-width="0.3"/>
<path d="M25.0332 25.709C24.7966 25.7091 24.5717 25.7793 24.3799 25.9053L24.4189 25.9355C24.4273 25.9427 24.4349 25.95 24.4404 25.9551C24.4464 25.9606 24.4505 25.9636 24.4541 25.9668L24.4561 25.9688C24.499 26.0075 24.5417 26.0481 24.583 26.0918C24.607 26.1165 24.6297 26.1423 24.6523 26.1689L24.7305 26.2646L24.8047 26.3643C24.8226 26.3904 24.8445 26.428 24.8535 26.4424V26.4434L24.9736 26.6641C24.9856 26.6895 25.0033 26.7253 25.0176 26.7598H25.0186C25.035 26.7999 25.0486 26.8403 25.0605 26.875C25.0739 26.913 25.087 26.9531 25.0986 26.9951C25.1087 27.03 25.1185 27.0657 25.127 27.1025C25.1384 27.153 25.1475 27.2039 25.1553 27.2529V27.2549C25.1579 27.2732 25.1645 27.3123 25.168 27.3408L25.1689 27.3418C25.1782 27.4228 25.1836 27.5069 25.1836 27.5928C25.1836 27.7117 25.1721 27.8262 25.1543 27.9365C25.1535 27.9423 25.1504 27.9625 25.1494 27.9688L25.1484 27.9717C25.1398 28.021 25.1291 28.0694 25.1172 28.1172C25.7361 28.0801 26.239 27.5528 26.2393 26.915C26.2393 26.2501 25.6982 25.709 25.0332 25.709Z" fill="#F6B51E" stroke="#624C18" stroke-width="0.3"/>
<path d="M18.6807 12.4385C18.2565 12.1208 17.7123 12.0616 17.2217 12.2812C16.7987 12.4707 16.5065 12.8293 16.4102 13.2627L16.3809 13.4521L16.377 13.5049C16.3667 13.6543 16.4125 13.8138 16.5098 13.9502L17.751 15.6875L17.873 15.8584L17.6719 15.918C17.3119 16.0247 17.049 16.3541 17.0488 16.7451C17.0488 17.1071 17.2727 17.4184 17.5898 17.5479L17.7852 17.627L17.6455 17.7852C16.6207 18.9505 14.337 22.1225 14.3369 27.2539V27.9268C14.3371 29.1942 15.0791 30.3304 16.2246 30.8232C17.8008 31.501 20.0771 31.8496 23.001 31.8496C25.9247 31.8496 28.2006 31.501 29.7764 30.8232C30.9222 30.3304 31.6639 29.1942 31.6641 27.9268V27.2539C31.664 22.1224 29.3802 18.9505 28.3555 17.7852L28.2168 17.627L28.4111 17.5479C28.7285 17.418 28.9521 17.107 28.9521 16.7451C28.952 16.3542 28.6899 16.0248 28.3301 15.918L28.1279 15.8584L28.25 15.6875L29.4912 13.9502C29.5884 13.8142 29.6341 13.6549 29.624 13.5029L29.6201 13.4521C29.5757 12.9354 29.2631 12.4978 28.7803 12.2812C28.2896 12.0615 27.7442 12.1208 27.3203 12.4385C26.8845 12.7649 26.185 13.1659 25.374 13.166C24.8486 13.166 24.3733 13.0365 23.9678 12.7754C23.3807 12.3979 22.621 12.3975 22.0332 12.7754C21.6278 13.036 21.1533 13.166 20.6279 13.166C19.8166 13.166 19.1165 12.7649 18.6807 12.4385ZM20.6279 24.0527C21.5428 24.0528 22.3313 24.6226 22.6504 25.4414C22.7642 25.4224 22.8811 25.4092 23.001 25.4092C23.1456 25.4092 23.285 25.428 23.4199 25.4551C23.8305 24.9981 24.4099 24.7316 25.0342 24.7314C26.2387 24.7314 27.2187 25.7105 27.2188 26.915C27.2188 28.1196 26.2387 29.0996 25.0342 29.0996C24.8945 29.0996 24.7575 29.0763 24.624 29.0479C24.2244 29.4934 23.6461 29.7773 23.001 29.7773C22.0772 29.7773 21.2896 29.1996 20.9707 28.3887C20.8575 28.4074 20.7436 28.4209 20.6279 28.4209C19.4234 28.4209 18.4434 27.4418 18.4434 26.2373C18.4434 25.0327 19.4234 24.0527 20.6279 24.0527ZM28.0859 16.2568C28.3553 16.2571 28.5741 16.4757 28.5742 16.7451C28.5742 17.0146 28.3554 17.2342 28.0859 17.2344H17.916C17.6464 17.2344 17.4268 17.0148 17.4268 16.7451C17.4269 16.4756 17.6465 16.2568 17.916 16.2568H28.0859ZM21.4951 20.127C21.4963 20.057 21.5276 18.7603 22.1846 17.6846L22.2285 17.6123H23.7725L23.8164 17.6846C24.4733 18.76 24.5057 20.0573 24.5068 20.1328V20.1357C24.507 20.7298 24.8058 21.405 25.1211 21.9482C25.277 22.2169 25.4334 22.4481 25.5518 22.6123C25.6108 22.6942 25.6605 22.7597 25.6953 22.8047C25.7126 22.827 25.7259 22.8446 25.7354 22.8564C25.7401 22.8624 25.7445 22.867 25.7471 22.8701C25.7495 22.8731 25.751 22.875 25.751 22.875C25.9222 23.083 25.893 23.3913 25.6846 23.5635C25.5936 23.6382 25.4837 23.6747 25.374 23.6748C25.2338 23.6748 25.0937 23.6142 24.9971 23.498H24.9961C24.9643 23.4594 24.6003 23.0139 24.2432 22.3857C23.8884 21.7617 23.5283 20.9359 23.5283 20.1406C23.528 20.1281 23.52 19.8199 23.4355 19.4072C23.3613 19.0442 23.2303 18.6098 23.002 18.2256C22.7745 18.6092 22.642 19.0433 22.5674 19.4062C22.5241 19.6166 22.5002 19.7998 22.4873 19.9307L22.4727 20.1416C22.4711 21.0052 22.1513 21.5441 21.8135 21.8682C21.5626 22.1088 21.3071 22.2263 21.1787 22.2744L21.0977 22.3008C21.0543 22.3129 21.0101 22.3193 20.9668 22.3193C20.7541 22.3192 20.561 22.1789 20.499 21.9668C20.4239 21.7085 20.5734 21.4392 20.8281 21.3613H20.8271C20.8287 21.3608 20.996 21.3099 21.1611 21.1338C21.3231 20.961 21.495 20.6565 21.4951 20.1299V20.127Z" fill="#F6B51E" stroke="#624C18" stroke-width="0.3"/>
<path d="M20.627 25.0312C19.9621 25.0312 19.4212 25.5716 19.4209 26.2363C19.4209 26.9013 19.962 27.4424 20.627 27.4424C20.6942 27.4424 20.7608 27.4347 20.8271 27.4229C20.8301 27.384 20.8318 27.3447 20.8369 27.3057V27.3047C20.8402 27.2808 20.8438 27.2575 20.8477 27.2344C20.859 27.1665 20.8737 27.1 20.8906 27.0352V27.0332C20.8917 27.0291 20.8927 27.0249 20.8945 27.0176C20.8962 27.011 20.8985 27.0018 20.9014 26.9922C20.9745 26.7368 21.0938 26.5024 21.248 26.2949H21.2471C21.2489 26.2923 21.2499 26.2907 21.251 26.2891L21.2539 26.2852L21.3818 26.1299C21.4907 26.0096 21.614 25.9033 21.7471 25.8096C21.5743 25.3496 21.1343 25.0314 20.627 25.0312Z" fill="#F6B51E" stroke="#624C18" stroke-width="0.3"/>
<path d="M11.75 2V10M11.75 10H3M11.75 10V34M11.75 10H34.5M11.75 34V42M11.75 34H3M11.75 34H34.5M34.5 34H43M34.5 34V42M34.5 34V10M34.5 10H43M34.5 10V2" stroke="#F6B51E" stroke-width="0.5" stroke-dasharray="1 1"/>
</g>
</g>
<defs>
<filter id="filter0_dd_5213_16200" x="0" y="0" width="46" height="46" filterUnits="userSpaceOnUse" color-interpolation-filters="sRGB">
<feFlood flood-opacity="0" result="BackgroundImageFix"/>
<feColorMatrix in="SourceAlpha" type="matrix" values="0 0 0 0 0 0 0 0 0 0 0 0 0 0 0 0 0 0 127 0" result="hardAlpha"/>
<feMorphology radius="0.5" operator="dilate" in="SourceAlpha" result="effect1_dropShadow_5213_16200"/>
<feOffset/>
<feComposite in2="hardAlpha" operator="out"/>
<feColorMatrix type="matrix" values="0 0 0 0 0.815686 0 0 0 0 0.61451 0 0 0 0 0.145098 0 0 0 0.6 0"/>
<feBlend mode="normal" in2="BackgroundImageFix" result="effect1_dropShadow_5213_16200"/>
<feColorMatrix in="SourceAlpha" type="matrix" values="0 0 0 0 0 0 0 0 0 0 0 0 0 0 0 0 0 0 127 0" result="hardAlpha"/>
<feOffset dy="1"/>
<feGaussianBlur stdDeviation="1.5"/>
<feComposite in2="hardAlpha" operator="out"/>
<feColorMatrix type="matrix" values="0 0 0 0 0.0533333 0 0 0 0 0.0693333 0 0 0 0 0.106667 0 0 0 0.08 0"/>
<feBlend mode="normal" in2="effect1_dropShadow_5213_16200" result="effect2_dropShadow_5213_16200"/>
<feBlend mode="normal" in="SourceGraphic" in2="effect2_dropShadow_5213_16200" result="shape"/>
</filter>
<filter id="filter1_ddi_5213_16200" x="0" y="0" width="46" height="46" filterUnits="userSpaceOnUse" color-interpolation-filters="sRGB">
<feFlood flood-opacity="0" result="BackgroundImageFix"/>
<feColorMatrix in="SourceAlpha" type="matrix" values="0 0 0 0 0 0 0 0 0 0 0 0 0 0 0 0 0 0 127 0" result="hardAlpha"/>
<feMorphology radius="0.5" operator="dilate" in="SourceAlpha" result="effect1_dropShadow_5213_16200"/>
<feOffset/>
<feComposite in2="hardAlpha" operator="out"/>
<feColorMatrix type="matrix" values="0 0 0 0 1 0 0 0 0 0.823529 0 0 0 0 0.407843 0 0 0 1 0"/>
<feBlend mode="normal" in2="BackgroundImageFix" result="effect1_dropShadow_5213_16200"/>
<feColorMatrix in="SourceAlpha" type="matrix" values="0 0 0 0 0 0 0 0 0 0 0 0 0 0 0 0 0 0 127 0" result="hardAlpha"/>
<feOffset dy="1"/>
<feGaussianBlur stdDeviation="1.5"/>
<feComposite in2="hardAlpha" operator="out"/>
<feColorMatrix type="matrix" values="0 0 0 0 0.0533333 0 0 0 0 0.0693333 0 0 0 0 0.106667 0 0 0 0.08 0"/>
<feBlend mode="normal" in2="effect1_dropShadow_5213_16200" result="effect2_dropShadow_5213_16200"/>
<feBlend mode="normal" in="SourceGraphic" in2="effect2_dropShadow_5213_16200" result="shape"/>
<feColorMatrix in="SourceAlpha" type="matrix" values="0 0 0 0 0 0 0 0 0 0 0 0 0 0 0 0 0 0 127 0" result="hardAlpha"/>
<feOffset dy="3.5"/>
<feGaussianBlur stdDeviation="15.75"/>
<feComposite in2="hardAlpha" operator="arithmetic" k2="-1" k3="1"/>
<feColorMatrix type="matrix" values="0 0 0 0 0.9632 0 0 0 0 0.708318 0 0 0 0 0.1168 0 0 0 1 0"/>
<feBlend mode="normal" in2="shape" result="effect3_innerShadow_5213_16200"/>
</filter>
<clipPath id="clip0_5213_16200">
<path d="M3 6C3 3.79086 4.79086 2 7 2H39C41.2091 2 43 3.79086 43 6V38C43 40.2091 41.2091 42 39 42H7C4.79086 42 3 40.2091 3 38V6Z" fill="white"/>
</clipPath>
</defs>
</svg>
