<svg width="60" height="60" viewBox="0 0 60 60" fill="none" xmlns="http://www.w3.org/2000/svg">
<g clip-path="url(#clip0_7833_15793)">
<rect width="60" height="60" rx="30" fill="#D5E2FF"/>
<path fill-rule="evenodd" clip-rule="evenodd" d="M7.5 25.427C7.5 24.6767 8.10831 24.0684 8.85869 24.0684C19.3641 24.0684 27.8804 32.5847 27.8804 43.09V96.6823C27.8804 97.7056 27.0508 98.5351 26.0276 98.5351C15.7951 98.5351 7.5 90.24 7.5 80.0075V25.427ZM15.5346 40.5294C14.1276 40.5294 12.987 41.67 12.987 43.077V69.7282C12.987 71.1352 14.1276 72.2757 15.5346 72.2757C16.9415 72.2757 18.0821 71.1352 18.0821 69.7282V43.077C18.0821 41.67 16.9415 40.5294 15.5346 40.5294ZM13.183 80.5063C11.3431 80.5063 9.85158 79.0148 9.85158 77.1749C9.85158 75.335 11.3431 73.8435 13.183 73.8435H20.6297C22.4695 73.8435 23.9611 75.335 23.9611 77.1749C23.9611 79.0148 22.4695 80.5063 20.6297 80.5063H14.9467H13.183Z" fill="#335CFF"/>
<path d="M32.5859 51.2942C32.5859 50.5439 33.1942 49.9355 33.9446 49.9355C44.45 49.9355 52.9663 58.4518 52.9663 68.9572V96.6821C52.9663 97.7054 52.1368 98.5349 51.1135 98.5349C40.881 98.5349 32.5859 90.2398 32.5859 80.0073V51.2942Z" fill="#335CFF"/>
<path d="M34.1155 47.9612C35.4066 46.0273 39.1923 42.6514 45.7517 40.9207C51.6934 39.353 52.9663 34.6498 52.9663 32.2982V24.426C52.9663 23.3977 52.0763 22.5902 51.0565 22.722C43.6008 23.6855 32.2062 26.6999 32.5957 47.1916C34.2932 42.619 38.8766 33.2388 43.6298 32.2982L34.1155 47.9612Z" fill="#335CFF"/>
</g>
<defs>
<clipPath id="clip0_7833_15793">
<rect width="60" height="60" rx="30" fill="white"/>
</clipPath>
</defs>
</svg>
