<svg width="60" height="60" viewBox="0 0 60 60" fill="none" xmlns="http://www.w3.org/2000/svg">
<g clip-path="url(#clip0_7833_15798)">
<rect width="60" height="60" rx="30" fill="#FFE3D5"/>
<path d="M18.959 59.3643C21.6072 56.2085 26.4308 56.1521 29.313 59.0957C32.5173 62.3683 35.6329 65.2479 38.5245 67.6259C35.8448 68.5169 32.979 69.001 30 69.001C24.3634 69.001 19.1313 67.2722 14.802 64.3182L18.959 59.3643Z" fill="#E97135"/>
<path d="M31.2982 44.6588C33.5088 42.0242 37.5757 42.0423 39.6505 44.785C42.7305 48.8563 45.381 52.7712 47.5031 56.3267C48.9311 58.7192 48.5595 61.8034 46.343 63.4917C44.2731 65.0683 41.4044 64.7945 39.4357 63.0933C36.4365 60.5014 33.197 57.3756 29.8777 53.832C27.9705 51.7961 27.9402 48.6607 29.7334 46.5236L31.2982 44.6588Z" fill="#E97135"/>
<path d="M6.22998 29.1839C8.91098 33.9144 12.5403 39.2853 16.8686 44.8338C18.8785 47.4104 18.8855 51.0501 16.785 53.5534L10.6663 60.8456C5.92323 55.9802 3 49.3324 3 42.001C3 37.3625 4.1695 32.9971 6.22998 29.1839Z" fill="#E97135"/>
<path d="M49.3377 23.1603C54.0784 28.0253 57 34.6715 57 42.001C57 47.5136 55.3457 52.6388 52.5097 56.9116C49.8523 52.0955 46.1637 46.563 41.7191 40.8282C39.7219 38.2513 39.7202 34.6216 41.8159 32.1242L49.3377 23.1603Z" fill="#E97135"/>
<path d="M11.6607 22.1838C13.7211 20.276 16.8568 20.443 18.9777 22.2832C21.8533 24.7783 24.9462 27.7603 28.1165 31.1273C30.3998 33.5523 30.4206 37.3045 28.2794 39.8558C25.5687 43.0856 20.573 43.0845 18.0494 39.7064C15.2601 35.9727 12.8408 32.3827 10.8692 29.0953C9.52156 26.8481 9.73811 23.9641 11.6607 22.1838Z" fill="#E97135"/>
<path d="M30 15.001C35.6387 15.001 40.873 16.7304 45.2033 19.6864L39.6817 26.2667C37.028 29.429 32.1916 29.4785 29.3126 26.5199C25.7989 22.9092 22.385 19.7648 19.2501 17.2264C22.5442 15.795 26.1793 15.001 30 15.001Z" fill="#E97135"/>
</g>
<defs>
<clipPath id="clip0_7833_15798">
<rect width="60" height="60" rx="30" fill="white"/>
</clipPath>
</defs>
</svg>
