<svg width="60" height="60" viewBox="0 0 60 60" fill="none" xmlns="http://www.w3.org/2000/svg">
<g clip-path="url(#clip0_7833_15784)">
<rect width="60" height="60" rx="30" fill="#D0FBE9"/>
<path d="M40.5 18.752H39H37.5C37.5 21.1504 36.5843 23.5047 34.7508 25.0509C32.851 26.6529 30.623 28.1219 26.4514 30.2678C25.822 30.5916 25.2081 30.957 24.6773 31.4253C23.6775 32.3072 22.5 33.5812 22.5 34.502V37.502H57V33.752C57 33.1478 56.6197 32.5182 56.1464 31.9782C55.3325 31.0496 54.1402 30.5912 52.9675 30.2048C49.2708 28.9865 46.9052 27.6083 44.521 25.2772C42.7882 23.5829 42 21.1754 42 18.752H40.5Z" fill="#178C4E"/>
<path d="M39.75 -11.998C39.3358 -11.998 39 -11.6623 39 -11.248V15.2141C39 15.5678 38.9176 15.9167 38.7595 16.233C38.4387 16.8745 38.4387 17.6295 38.7595 18.2709L39 18.752H40.5L40.7405 18.2709C41.0613 17.6294 41.0613 16.8745 40.7405 16.233C40.5824 15.9167 40.5 15.5678 40.5 15.2141V-11.248C40.5 -11.6623 40.1642 -11.998 39.75 -11.998Z" fill="#178C4E"/>
<path d="M57 37.502H22.5L5.22761 106.592C3.33417 114.165 9.06246 121.502 16.8693 121.502H61.3952C69.1186 121.502 74.8309 114.312 73.0844 106.788L57 37.502Z" fill="#C2F5DA"/>
<path d="M46.5 37.501C46.5 38.4859 46.306 39.4612 45.9291 40.3711C45.5522 41.281 44.9997 42.1078 44.3033 42.8043C43.6069 43.5007 42.7801 44.0532 41.8701 44.4301C40.9602 44.807 39.9849 45.001 39 45.001C38.0151 45.001 37.0398 44.807 36.1299 44.4301C35.2199 44.0532 34.3931 43.5007 33.6967 42.8043C33.0003 42.1078 32.4478 41.281 32.0709 40.3711C31.694 39.4612 31.5 38.4859 31.5 37.501L39 37.501H46.5Z" fill="white"/>
</g>
<defs>
<clipPath id="clip0_7833_15784">
<rect width="60" height="60" rx="30" fill="white"/>
</clipPath>
</defs>
</svg>
