<svg width="60" height="60" viewBox="0 0 60 60" fill="none" xmlns="http://www.w3.org/2000/svg">
<g clip-path="url(#clip0_7833_15748)">
<rect width="60" height="60" rx="30" fill="#D5F1FF"/>
<circle cx="31.309" cy="13.2055" r="1.98476" fill="#47C2FF"/>
<rect x="29.3242" y="15.124" width="3.96951" height="0.661585" rx="0.264634" fill="#47C2FF"/>
<path d="M30.6484 15.7861H31.9716V27.9508H30.6484V15.7861Z" fill="#47C2FF"/>
<path d="M52.1913 55.1572H10.3087C10.0951 55.1572 9.92188 55.3304 9.92188 55.5441V60.0791H52.5781V55.5441C52.5781 55.3304 52.4049 55.1572 52.1913 55.1572Z" fill="#47C2FF"/>
<path d="M48.9127 42.0312H13.5873C13.3751 42.0312 13.2031 42.2032 13.2031 42.4154V55.1562H49.2969V42.4154C49.2969 42.2032 49.1249 42.0312 48.9127 42.0312Z" fill="#47C2FF"/>
<path d="M45.6288 38.751H16.8712C16.6576 38.751 16.4844 38.9242 16.4844 39.1378V42.0322H46.0156V39.1378C46.0156 38.9242 45.8424 38.751 45.6288 38.751Z" fill="#47C2FF"/>
<path d="M39.0663 35.4688H23.4337C23.2201 35.4688 23.0469 35.6419 23.0469 35.8556V38.75H39.4531V35.8556C39.4531 35.6419 39.2799 35.4688 39.0663 35.4688Z" fill="#47C2FF"/>
<path d="M21.0434 45.3115H17.402C17.0484 45.3115 16.7617 45.5982 16.7617 45.9518V51.874H21.6836V45.9518C21.6836 45.5982 21.3969 45.3115 21.0434 45.3115Z" fill="#EBF8FF"/>
<path d="M28.7309 45.3115H25.0895C24.7359 45.3115 24.4492 45.5982 24.4492 45.9518V51.874H29.3711V45.9518C29.3711 45.5982 29.0844 45.3115 28.7309 45.3115Z" fill="#EBF8FF"/>
<path d="M37.6918 45.3115H34.0504C33.6968 45.3115 33.4102 45.5982 33.4102 45.9518V51.874H38.332V45.9518C38.332 45.5982 38.0454 45.3115 37.6918 45.3115Z" fill="#EBF8FF"/>
<path d="M45.3754 45.3115H41.734C41.3804 45.3115 41.0938 45.5982 41.0938 45.9518V51.874H46.0156V45.9518C46.0156 45.5982 45.729 45.3115 45.3754 45.3115Z" fill="#EBF8FF"/>
<path d="M52.5781 58.4375H9.92188V60.0781H52.5781V58.4375Z" fill="#2597D0"/>
<path d="M46.0156 40.3906H16.4844V42.0312H46.0156V40.3906Z" fill="#2597D0"/>
<path d="M39.4531 37.1084H23.0469V38.749H39.4531V37.1084Z" fill="#2597D0"/>
<path d="M49.2969 51.875H13.2031V55.1562H49.2969V51.875Z" fill="#47C2FF"/>
<path d="M26.3281 35.4688L28.555 25.0765C28.6915 24.4395 29.2545 23.9844 29.906 23.9844H32.594C33.2455 23.9844 33.8085 24.4395 33.945 25.0765L36.1719 35.4688H26.3281Z" fill="#47C2FF"/>
<path d="M26.68 33.8281L26.3281 35.4688H36.1719L35.82 33.8281H26.68Z" fill="#2597D0"/>
<path d="M49.2969 53.5146H13.2031V55.1553H49.2969V53.5146Z" fill="#2597D0"/>
</g>
<defs>
<clipPath id="clip0_7833_15748">
<rect width="60" height="60" rx="30" fill="white"/>
</clipPath>
</defs>
</svg>
