<svg width="60" height="60" viewBox="0 0 60 60" fill="none" xmlns="http://www.w3.org/2000/svg">
<g clip-path="url(#clip0_7833_15788)">
<rect width="60" height="60" rx="30" fill="#FFD5EA"/>
<path d="M21 42.001H48C48.5967 42.001 49.169 42.238 49.591 42.66C50.013 43.0819 50.25 43.6542 50.25 44.251V66.751C50.25 67.3477 50.013 67.92 49.591 68.342C49.169 68.7639 48.5967 69.001 48 69.001H21C20.4033 69.001 19.831 68.7639 19.409 68.342C18.9871 67.92 18.75 67.3477 18.75 66.751V44.251C18.75 43.6542 18.9871 43.0819 19.409 42.66C19.831 42.238 20.4033 42.001 21 42.001ZM12 69.001C12.5967 69.001 13.169 68.7639 13.591 68.342C14.0129 67.92 14.25 67.3477 14.25 66.751V44.251C14.25 43.6542 14.0129 43.0819 13.591 42.66C13.169 42.238 12.5967 42.001 12 42.001C11.4033 42.001 10.831 42.238 10.409 42.66C9.98705 43.0819 9.75 43.6542 9.75 44.251V66.751C9.75 67.3477 9.98705 67.92 10.409 68.342C10.831 68.7639 11.4033 69.001 12 69.001Z" fill="#FF68B3"/>
<path d="M30.0002 53.251H39.0002C39.5969 53.251 40.1692 53.4881 40.5912 53.91C41.0131 54.332 41.2502 54.9043 41.2502 55.501V69.001H27.7502V55.501C27.7502 54.9043 27.9872 54.332 28.4092 53.91C28.8312 53.4881 29.4035 53.251 30.0002 53.251ZM9.75019 26.6335V46.501H50.2502V32.6185C50.2571 32.0792 50.0701 31.5554 49.7232 31.1424C49.3763 30.7294 48.8926 30.4548 48.3602 30.3685L12.3602 24.3835C12.036 24.3309 11.7043 24.35 11.3883 24.4392C11.0723 24.5285 10.7796 24.6859 10.5309 24.9003C10.2822 25.1147 10.0834 25.381 9.94852 25.6804C9.81365 25.9798 9.74595 26.3051 9.75019 26.6335Z" fill="#E9358F"/>
<path d="M50.251 35.2501C50.5465 35.2752 50.844 35.2418 51.1266 35.152C51.4092 35.0621 51.6713 34.9175 51.898 34.7263C52.1247 34.5351 52.3115 34.3012 52.4478 34.0378C52.5841 33.7744 52.6672 33.4868 52.6923 33.1913C52.7174 32.8958 52.6841 32.5983 52.5942 32.3157C52.5043 32.0331 52.3597 31.771 52.1685 31.5443C51.9773 31.3176 51.7434 31.1308 51.48 30.9945C51.2166 30.8582 50.929 30.7752 50.6335 30.7501L48.3835 30.3676L10.1335 24.0001C9.5368 23.8986 8.92421 24.0384 8.43052 24.3886C7.93683 24.7388 7.60249 25.2708 7.50104 25.8676C7.3996 26.4643 7.53936 27.0769 7.88958 27.5706C8.23981 28.0643 8.7718 28.3986 9.36854 28.5001L11.6185 28.8826L49.8685 35.2501H50.251Z" fill="#FF68B3"/>
</g>
<defs>
<clipPath id="clip0_7833_15788">
<rect width="60" height="60" rx="30" fill="white"/>
</clipPath>
</defs>
</svg>
