<svg width="301" height="254" viewBox="0 0 301 254" fill="none" xmlns="http://www.w3.org/2000/svg">
<g filter="url(#filter0_d_7212_22025)">
<g clip-path="url(#clip0_7212_22025)">
<path d="M35.6777 73.3142C35.6777 54.5082 35.6777 45.1053 39.3376 37.9223C42.557 31.604 47.6939 26.4671 54.0122 23.2478C61.1951 19.5879 70.5981 19.5879 89.4041 19.5879H210.951C229.757 19.5879 239.16 19.5879 246.343 23.2478C252.662 26.4671 257.799 31.604 261.018 37.9223C264.678 45.1053 264.678 54.5083 264.678 73.3142V463.737C264.678 482.543 264.678 491.946 261.018 499.129C257.799 505.447 252.662 510.584 246.343 513.804C239.16 517.464 229.757 517.464 210.951 517.464H89.4041C70.5981 517.464 61.1951 517.464 54.0122 513.804C47.6939 510.584 42.557 505.447 39.3376 499.129C35.6777 491.946 35.6777 482.543 35.6777 463.737V73.3142Z" fill="#F5F7FA"/>
<rect width="229" height="36.4577" transform="translate(35.6797 19.5879)" fill="white"/>
<rect x="114.861" y="27.5635" width="70.6368" height="20.5075" rx="10.2537" fill="#F5F7FA"/>
<path d="M35.6797 56.0469H265.249V203.773C265.249 208.807 261.169 212.888 256.135 212.888H44.7941C39.7603 212.888 35.6797 208.807 35.6797 203.773V56.0469Z" fill="white"/>
<path d="M44.7949 69.1434C44.7949 64.4243 48.6206 60.5986 53.3397 60.5986C58.0588 60.5986 61.8845 64.4243 61.8845 69.1434C61.8845 73.8626 58.0588 77.6882 53.3397 77.6882C48.6206 77.6882 44.7949 73.8626 44.7949 69.1434Z" fill="#F5F7FA"/>
<path d="M52.886 69.1438L55.0008 71.2586L54.3967 71.8627L51.6777 69.1438L54.3967 66.4248L55.0008 67.0289L52.886 69.1438Z" fill="#99A0AE"/>
<path d="M143.956 67.5051C143.925 67.2224 143.798 67.0023 143.574 66.8448C143.351 66.6873 143.062 66.6085 142.706 66.6085C142.456 66.6085 142.241 66.6463 142.062 66.7218C141.883 66.7973 141.746 66.8998 141.651 67.0293C141.556 67.1588 141.508 67.3066 141.505 67.4727C141.505 67.6108 141.537 67.7306 141.599 67.832C141.664 67.9334 141.751 68.0197 141.861 68.0909C141.971 68.16 142.093 68.2182 142.227 68.2657C142.361 68.3132 142.496 68.3531 142.632 68.3855L143.253 68.5408C143.503 68.5991 143.744 68.6778 143.975 68.7771C144.208 68.8764 144.416 69.0015 144.6 69.1525C144.785 69.3036 144.932 69.4859 145.04 69.6995C145.148 69.9132 145.202 70.1635 145.202 70.4504C145.202 70.8388 145.102 71.1809 144.904 71.4765C144.705 71.7699 144.418 71.9997 144.043 72.1659C143.67 72.3299 143.218 72.4119 142.687 72.4119C142.171 72.4119 141.723 72.332 141.344 72.1723C140.966 72.0127 140.67 71.7796 140.457 71.4732C140.245 71.1668 140.131 70.7935 140.114 70.3533H141.295C141.312 70.5842 141.383 70.7763 141.509 70.9295C141.634 71.0827 141.797 71.197 141.997 71.2726C142.2 71.3481 142.427 71.3858 142.677 71.3858C142.938 71.3858 143.167 71.347 143.363 71.2693C143.562 71.1895 143.717 71.0794 143.829 70.9392C143.942 70.7968 143.999 70.6306 144.001 70.4407C143.999 70.2681 143.948 70.1257 143.849 70.0135C143.749 69.8991 143.61 69.8042 143.431 69.7287C143.254 69.651 143.047 69.5819 142.81 69.5215L142.056 69.3273C141.51 69.1871 141.078 68.9745 140.761 68.6897C140.446 68.4027 140.288 68.0219 140.288 67.5472C140.288 67.1566 140.394 66.8146 140.606 66.5211C140.819 66.2277 141.109 66 141.476 65.8382C141.843 65.6742 142.258 65.5922 142.722 65.5922C143.193 65.5922 143.605 65.6742 143.959 65.8382C144.315 66 144.594 66.2255 144.797 66.5147C145 66.8017 145.105 67.1318 145.111 67.5051H143.956ZM148.321 72.4086C147.823 72.4086 147.392 72.3051 147.03 72.0979C146.669 71.8886 146.392 71.593 146.198 71.2111C146.004 70.827 145.907 70.3749 145.907 69.8549C145.907 69.3435 146.004 68.8947 146.198 68.5085C146.394 68.1201 146.668 67.818 147.02 67.6022C147.372 67.3843 147.785 67.2753 148.26 67.2753C148.566 67.2753 148.855 67.3249 149.127 67.4242C149.401 67.5213 149.643 67.6723 149.852 67.8773C150.063 68.0823 150.23 68.3434 150.35 68.6606C150.471 68.9756 150.532 69.3511 150.532 69.7869V70.1462H146.457V69.3565H149.409C149.406 69.132 149.358 68.9325 149.263 68.7577C149.168 68.5807 149.035 68.4416 148.865 68.3401C148.697 68.2387 148.5 68.188 148.276 68.188C148.036 68.188 147.826 68.2463 147.645 68.3628C147.463 68.4772 147.322 68.6282 147.221 68.8159C147.121 69.0015 147.071 69.2054 147.068 69.4277V70.1171C147.068 70.4062 147.121 70.6544 147.227 70.8615C147.333 71.0665 147.481 71.224 147.67 71.3341C147.86 71.4419 148.083 71.4959 148.337 71.4959C148.508 71.4959 148.662 71.4722 148.8 71.4247C148.938 71.3751 149.058 71.3028 149.159 71.2078C149.261 71.1129 149.337 70.9953 149.389 70.855L150.483 70.978C150.414 71.2672 150.282 71.5196 150.088 71.7354C149.896 71.949 149.65 72.1152 149.35 72.2338C149.05 72.3504 148.707 72.4086 148.321 72.4086ZM152.594 69.3985V72.3115H151.423V67.34H152.543V68.1848H152.601C152.715 67.9064 152.897 67.6853 153.148 67.5213C153.4 67.3573 153.712 67.2753 154.083 67.2753C154.426 67.2753 154.725 67.3486 154.98 67.4954C155.237 67.6421 155.435 67.8546 155.575 68.133C155.718 68.4114 155.788 68.749 155.786 69.1461V72.3115H154.614V69.3273C154.614 68.995 154.528 68.735 154.355 68.5473C154.185 68.3596 153.948 68.2657 153.646 68.2657C153.441 68.2657 153.259 68.311 153.099 68.4016C152.942 68.4901 152.818 68.6185 152.727 68.7868C152.639 68.9551 152.594 69.159 152.594 69.3985ZM158.721 72.3989C158.331 72.3989 157.981 72.2986 157.673 72.0979C157.364 71.8972 157.12 71.6059 156.941 71.224C156.762 70.8421 156.673 70.3782 156.673 69.8322C156.673 69.2799 156.763 68.8138 156.944 68.434C157.128 68.0521 157.375 67.764 157.686 67.5698C157.996 67.3735 158.343 67.2753 158.725 67.2753C159.016 67.2753 159.255 67.3249 159.443 67.4242C159.631 67.5213 159.78 67.6389 159.89 67.777C160 67.9129 160.085 68.0413 160.146 68.1621H160.194V65.6828H161.369V72.3115H160.217V71.5283H160.146C160.085 71.6491 159.998 71.7775 159.883 71.9134C159.769 72.0472 159.618 72.1616 159.43 72.2565C159.243 72.3514 159.006 72.3989 158.721 72.3989ZM159.048 71.4376C159.296 71.4376 159.508 71.3707 159.683 71.237C159.857 71.101 159.99 70.9122 160.081 70.6705C160.171 70.4289 160.217 70.1473 160.217 69.8258C160.217 69.5043 160.171 69.2248 160.081 68.9875C159.992 68.7501 159.861 68.5656 159.686 68.434C159.513 68.3024 159.301 68.2366 159.048 68.2366C158.787 68.2366 158.569 68.3045 158.395 68.4405C158.22 68.5764 158.088 68.7641 158 69.0037C157.911 69.2432 157.867 69.5172 157.867 69.8258C157.867 70.1365 157.911 70.4138 158 70.6576C158.09 70.8993 158.223 71.0902 158.398 71.2305C158.575 71.3686 158.792 71.4376 159.048 71.4376Z" fill="#0E121B"/>
<path d="M45.9221 98.0869H44.9932L47.0804 92.2868H48.0915L50.1787 98.0869H49.2498L47.61 93.3404H47.5647L45.9221 98.0869ZM46.0779 95.8156H49.0912V96.5519H46.0779V95.8156ZM52.6627 98.1747C52.2417 98.1747 51.8792 98.0794 51.5752 97.8887C51.2731 97.6961 51.0409 97.4308 50.8785 97.0929C50.7161 96.7549 50.635 96.3678 50.635 95.9317C50.635 95.4899 50.718 95.1 50.8842 94.7621C51.0503 94.4222 51.2844 94.1569 51.5865 93.9662C51.8886 93.7756 52.2445 93.6802 52.6542 93.6802C52.9846 93.6802 53.2792 93.7416 53.5378 93.8643C53.7965 93.9851 54.0051 94.155 54.1637 94.3741C54.3242 94.5931 54.4196 94.8489 54.4498 95.1416H53.6256C53.5803 94.9376 53.4765 94.7621 53.3141 94.6148C53.1536 94.4675 52.9384 94.3939 52.6684 94.3939C52.4324 94.3939 52.2256 94.4562 52.0482 94.5808C51.8726 94.7035 51.7357 94.8791 51.6375 95.1076C51.5393 95.3341 51.4902 95.6022 51.4902 95.9119C51.4902 96.2291 51.5384 96.5028 51.6347 96.7332C51.731 96.9635 51.8669 97.1419 52.0425 97.2684C52.22 97.3949 52.4286 97.4582 52.6684 97.4582C52.8289 97.4582 52.9743 97.4289 53.1045 97.3704C53.2367 97.31 53.3471 97.2241 53.4359 97.1127C53.5265 97.0013 53.5898 96.8672 53.6256 96.7105H54.4498C54.4196 96.9918 54.328 97.243 54.1751 97.4639C54.0221 97.6848 53.8173 97.8585 53.5605 97.985C53.3056 98.1115 53.0063 98.1747 52.6627 98.1747ZM57.1398 98.1747C56.7188 98.1747 56.3563 98.0794 56.0523 97.8887C55.7502 97.6961 55.518 97.4308 55.3556 97.0929C55.1932 96.7549 55.1121 96.3678 55.1121 95.9317C55.1121 95.4899 55.1951 95.1 55.3613 94.7621C55.5274 94.4222 55.7615 94.1569 56.0636 93.9662C56.3657 93.7756 56.7216 93.6802 57.1313 93.6802C57.4617 93.6802 57.7563 93.7416 58.0149 93.8643C58.2736 93.9851 58.4822 94.155 58.6408 94.3741C58.8013 94.5931 58.8967 94.8489 58.9269 95.1416H58.1027C58.0574 94.9376 57.9536 94.7621 57.7912 94.6148C57.6307 94.4675 57.4155 94.3939 57.1455 94.3939C56.9095 94.3939 56.7027 94.4562 56.5253 94.5808C56.3497 94.7035 56.2128 94.8791 56.1146 95.1076C56.0164 95.3341 55.9673 95.6022 55.9673 95.9119C55.9673 96.2291 56.0155 96.5028 56.1118 96.7332C56.2081 96.9635 56.344 97.1419 56.5196 97.2684C56.6971 97.3949 56.9057 97.4582 57.1455 97.4582C57.306 97.4582 57.4513 97.4289 57.5816 97.3704C57.7138 97.31 57.8242 97.2241 57.913 97.1127C58.0036 97.0013 58.0669 96.8672 58.1027 96.7105H58.9269C58.8967 96.9918 58.8051 97.243 58.6521 97.4639C58.4992 97.6848 58.2944 97.8585 58.0376 97.985C57.7827 98.1115 57.4834 98.1747 57.1398 98.1747ZM61.6169 98.1747C61.2091 98.1747 60.8532 98.0812 60.5492 97.8943C60.2452 97.7074 60.0092 97.4459 59.8412 97.1098C59.6732 96.7738 59.5892 96.3811 59.5892 95.9317C59.5892 95.4805 59.6732 95.0859 59.8412 94.7479C60.0092 94.4099 60.2452 94.1475 60.5492 93.9606C60.8532 93.7737 61.2091 93.6802 61.6169 93.6802C62.0247 93.6802 62.3806 93.7737 62.6846 93.9606C62.9886 94.1475 63.2246 94.4099 63.3926 94.7479C63.5607 95.0859 63.6447 95.4805 63.6447 95.9317C63.6447 96.3811 63.5607 96.7738 63.3926 97.1098C63.2246 97.4459 62.9886 97.7074 62.6846 97.8943C62.3806 98.0812 62.0247 98.1747 61.6169 98.1747ZM61.6198 97.4639C61.8841 97.4639 62.1031 97.394 62.2768 97.2543C62.4505 97.1146 62.5789 96.9286 62.662 96.6964C62.7469 96.4641 62.7894 96.2083 62.7894 95.9289C62.7894 95.6513 62.7469 95.3964 62.662 95.1642C62.5789 94.9301 62.4505 94.7422 62.2768 94.6006C62.1031 94.459 61.8841 94.3882 61.6198 94.3882C61.3535 94.3882 61.1326 94.459 60.957 94.6006C60.7833 94.7422 60.654 94.9301 60.569 95.1642C60.486 95.3964 60.4444 95.6513 60.4444 95.9289C60.4444 96.2083 60.486 96.4641 60.569 96.6964C60.654 96.9286 60.7833 97.1146 60.957 97.2543C61.1326 97.394 61.3535 97.4639 61.6198 97.4639ZM67.2976 96.2829V93.7368H68.1473V98.0869H67.3146V97.3336H67.2693C67.1693 97.5658 67.0088 97.7593 66.7879 97.9142C66.5689 98.0671 66.296 98.1436 65.9694 98.1436C65.69 98.1436 65.4426 98.0822 65.2274 97.9595C65.0141 97.8349 64.846 97.6508 64.7233 97.4072C64.6025 97.1637 64.542 96.8625 64.542 96.5038V93.7368H65.3888V96.4018C65.3888 96.6983 65.471 96.9343 65.6352 97.1098C65.7995 97.2854 66.0128 97.3732 66.2753 97.3732C66.4339 97.3732 66.5915 97.3336 66.7482 97.2543C66.9068 97.175 67.038 97.0551 67.1419 96.8946C67.2476 96.7341 67.2995 96.5302 67.2976 96.2829ZM70.084 95.5041V98.0869H69.2372V93.7368H70.05V94.4449H70.1038C70.2039 94.2145 70.3606 94.0295 70.5739 93.8898C70.7892 93.7501 71.0601 93.6802 71.3868 93.6802C71.6832 93.6802 71.9428 93.7425 72.1656 93.8671C72.3884 93.9898 72.5611 94.173 72.6838 94.4165C72.8066 94.6601 72.8679 94.9612 72.8679 95.32V98.0869H72.0211V95.4219C72.0211 95.1066 71.939 94.8602 71.7747 94.6828C71.6105 94.5034 71.3849 94.4137 71.0979 94.4137C70.9015 94.4137 70.7269 94.4562 70.5739 94.5412C70.4229 94.6261 70.303 94.7507 70.2143 94.915C70.1274 95.0774 70.084 95.2737 70.084 95.5041ZM75.9863 93.7368V94.4165H73.6102V93.7368H75.9863ZM74.2474 92.6946H75.0942V96.8096C75.0942 96.9739 75.1188 97.0976 75.1679 97.1806C75.217 97.2618 75.2802 97.3175 75.3576 97.3477C75.4369 97.3761 75.5228 97.3902 75.6153 97.3902C75.6833 97.3902 75.7428 97.3855 75.7938 97.3761C75.8447 97.3666 75.8844 97.3591 75.9127 97.3534L76.0656 98.0529C76.0165 98.0718 75.9467 98.0907 75.8561 98.1096C75.7654 98.1303 75.6522 98.1417 75.5162 98.1436C75.2934 98.1473 75.0857 98.1077 74.8932 98.0246C74.7006 97.9415 74.5448 97.8131 74.4259 97.6394C74.3069 97.4657 74.2474 97.2477 74.2474 96.9852V92.6946ZM83.6873 92.2868V98.0869H82.883L79.9348 93.8331H79.881V98.0869H79.0059V92.2868H79.8159L82.7669 96.5463H82.8207V92.2868H83.6873ZM87.6037 96.2829V93.7368H88.4533V98.0869H87.6207V97.3336H87.5754C87.4753 97.5658 87.3148 97.7593 87.0939 97.9142C86.8749 98.0671 86.6021 98.1436 86.2754 98.1436C85.996 98.1436 85.7487 98.0822 85.5334 97.9595C85.3201 97.8349 85.1521 97.6508 85.0293 97.4072C84.9085 97.1637 84.8481 96.8625 84.8481 96.5038V93.7368H85.6949V96.4018C85.6949 96.6983 85.777 96.9343 85.9413 97.1098C86.1055 97.2854 86.3189 97.3732 86.5813 97.3732C86.7399 97.3732 86.8976 97.3336 87.0543 97.2543C87.2129 97.175 87.3441 97.0551 87.4479 96.8946C87.5537 96.7341 87.6056 96.5302 87.6037 96.2829ZM89.5432 98.0869V93.7368H90.3561V94.4449H90.4099C90.5005 94.2051 90.6487 94.0182 90.8545 93.8841C91.0603 93.7482 91.3067 93.6802 91.5937 93.6802C91.8844 93.6802 92.128 93.7482 92.3243 93.8841C92.5226 94.0201 92.6689 94.207 92.7633 94.4449H92.8086C92.9125 94.2126 93.0777 94.0276 93.3042 93.8898C93.5308 93.7501 93.8008 93.6802 94.1142 93.6802C94.5088 93.6802 94.8307 93.8039 95.08 94.0512C95.3311 94.2985 95.4566 94.6714 95.4566 95.1699V98.0869H94.6098V95.2492C94.6098 94.9546 94.5296 94.7413 94.3691 94.6091C94.2086 94.477 94.017 94.4109 93.7942 94.4109C93.5185 94.4109 93.3042 94.4958 93.1513 94.6658C92.9984 94.8338 92.9219 95.05 92.9219 95.3143V98.0869H92.078V95.1954C92.078 94.9594 92.0043 94.7696 91.8571 94.6261C91.7098 94.4826 91.5181 94.4109 91.2821 94.4109C91.1217 94.4109 90.9734 94.4534 90.8375 94.5383C90.7035 94.6214 90.5949 94.7375 90.5118 94.8867C90.4306 95.0358 90.39 95.2086 90.39 95.4049V98.0869H89.5432ZM96.6117 98.0869V92.2868H97.4585V94.442H97.5095C97.5586 94.3514 97.6294 94.2466 97.7219 94.1277C97.8144 94.0087 97.9428 93.9049 98.107 93.8161C98.2713 93.7255 98.4884 93.6802 98.7584 93.6802C99.1096 93.6802 99.423 93.7689 99.6987 93.9464C99.9743 94.1239 100.19 94.3797 100.347 94.7139C100.506 95.0481 100.585 95.4503 100.585 95.9204C100.585 96.3905 100.507 96.7936 100.35 97.1297C100.193 97.4639 99.9781 97.7216 99.7043 97.9028C99.4306 98.0822 99.1181 98.1719 98.7669 98.1719C98.5026 98.1719 98.2864 98.1275 98.1184 98.0388C97.9522 97.95 97.8219 97.8462 97.7275 97.7272C97.6331 97.6083 97.5604 97.5026 97.5095 97.41H97.4387V98.0869H96.6117ZM97.4415 95.9119C97.4415 96.2177 97.4859 96.4858 97.5746 96.7162C97.6633 96.9465 97.7917 97.1268 97.9598 97.2571C98.1278 97.3855 98.3336 97.4497 98.5772 97.4497C98.8302 97.4497 99.0416 97.3827 99.2115 97.2486C99.3815 97.1127 99.5099 96.9286 99.5967 96.6964C99.6854 96.4641 99.7298 96.2026 99.7298 95.9119C99.7298 95.6249 99.6864 95.3672 99.5995 95.1387C99.5146 94.9103 99.3862 94.73 99.2144 94.5978C99.0444 94.4656 98.832 94.3996 98.5772 94.3996C98.3317 94.3996 98.124 94.4628 97.9541 94.5893C97.7861 94.7158 97.6586 94.8923 97.5718 95.1189C97.4849 95.3455 97.4415 95.6098 97.4415 95.9119ZM103.363 98.1747C102.934 98.1747 102.565 98.0831 102.256 97.9C101.948 97.715 101.71 97.4554 101.542 97.1212C101.376 96.7851 101.293 96.3914 101.293 95.9402C101.293 95.4946 101.376 95.1019 101.542 94.7621C101.71 94.4222 101.944 94.1569 102.244 93.9662C102.546 93.7756 102.899 93.6802 103.303 93.6802C103.549 93.6802 103.787 93.7208 104.017 93.802C104.247 93.8832 104.454 94.0106 104.637 94.1843C104.821 94.358 104.965 94.5836 105.071 94.8612C105.176 95.1368 105.229 95.472 105.229 95.8666V96.1668H101.771V95.5324H104.399C104.399 95.3096 104.354 95.1123 104.264 94.9405C104.173 94.7668 104.045 94.6299 103.881 94.5298C103.719 94.4298 103.528 94.3797 103.309 94.3797C103.071 94.3797 102.864 94.4383 102.686 94.5553C102.51 94.6705 102.375 94.8215 102.278 95.0084C102.184 95.1935 102.137 95.3946 102.137 95.6117V96.1073C102.137 96.3981 102.188 96.6454 102.29 96.8493C102.393 97.0532 102.538 97.209 102.723 97.3166C102.908 97.4223 103.124 97.4752 103.371 97.4752C103.532 97.4752 103.678 97.4525 103.81 97.4072C103.943 97.36 104.057 97.2902 104.153 97.1976C104.249 97.1051 104.323 96.9909 104.374 96.855L105.175 96.9994C105.111 97.2354 104.996 97.4421 104.83 97.6196C104.666 97.7952 104.459 97.9321 104.21 98.0303C103.962 98.1266 103.68 98.1747 103.363 98.1747ZM106.121 98.0869V93.7368H106.939V94.4279H106.985C107.064 94.1938 107.204 94.0097 107.404 93.8756C107.606 93.7397 107.834 93.6717 108.089 93.6717C108.142 93.6717 108.204 93.6736 108.276 93.6774C108.35 93.6811 108.407 93.6859 108.449 93.6915V94.5015C108.415 94.4921 108.355 94.4817 108.268 94.4704C108.181 94.4571 108.094 94.4505 108.007 94.4505C107.807 94.4505 107.629 94.493 107.472 94.578C107.317 94.661 107.194 94.7772 107.104 94.9263C107.013 95.0736 106.968 95.2416 106.968 95.4304V98.0869H106.121Z" fill="#0E121B"/>
<g filter="url(#filter1_d_7212_22025)">
<path d="M44.7949 109.062C44.7949 105.916 47.3453 103.365 50.4914 103.365H250.439C253.585 103.365 256.136 105.916 256.136 109.062V121.062C256.136 124.208 253.585 126.758 250.439 126.758H50.4914C47.3453 126.758 44.7949 124.208 44.7949 121.062V109.062Z" fill="white"/>
<path d="M50.4912 103.65H250.439C253.428 103.651 255.85 106.073 255.851 109.062V121.062C255.851 124.05 253.428 126.473 250.439 126.474H50.4912C47.5025 126.474 45.0801 124.05 45.0801 121.062V109.062C45.0802 106.073 47.5026 103.651 50.4912 103.65Z" stroke="#E1E4EA" stroke-width="0.569652"/>
<path d="M52.3332 118.062V112.261H55.811V112.884H53.0356V114.844H55.5505V115.467H53.0356V118.062H52.3332ZM56.8754 118.062V113.711H57.5438V118.062H56.8754ZM57.2153 112.986C57.085 112.986 56.9727 112.942 56.8783 112.853C56.7858 112.765 56.7395 112.658 56.7395 112.533C56.7395 112.409 56.7858 112.302 56.8783 112.213C56.9727 112.125 57.085 112.08 57.2153 112.08C57.3456 112.08 57.457 112.125 57.5495 112.213C57.6439 112.302 57.6911 112.409 57.6911 112.533C57.6911 112.658 57.6439 112.765 57.5495 112.853C57.457 112.942 57.3456 112.986 57.2153 112.986ZM59.3885 112.261V118.062H58.7201V112.261H59.3885ZM61.2332 112.261V118.062H60.5648V112.261H61.2332ZM64.6047 118.062V113.711H65.273V118.062H64.6047ZM64.9445 112.986C64.8142 112.986 64.7019 112.942 64.6075 112.853C64.515 112.765 64.4687 112.658 64.4687 112.533C64.4687 112.409 64.515 112.302 64.6075 112.213C64.7019 112.125 64.8142 112.08 64.9445 112.08C65.0748 112.08 65.1862 112.125 65.2787 112.213C65.3731 112.302 65.4203 112.409 65.4203 112.533C65.4203 112.658 65.3731 112.765 65.2787 112.853C65.1862 112.942 65.0748 112.986 64.9445 112.986ZM67.1177 115.445V118.062H66.4493V113.711H67.0951V114.391H67.1517C67.2536 114.17 67.4085 113.993 67.6162 113.859C67.8238 113.723 68.0919 113.655 68.4205 113.655C68.715 113.655 68.9727 113.715 69.1936 113.836C69.4145 113.955 69.5863 114.136 69.7091 114.38C69.8318 114.621 69.8931 114.927 69.8931 115.297V118.062H69.2248V115.343C69.2248 115.001 69.136 114.735 68.9586 114.544C68.7811 114.352 68.5375 114.255 68.2279 114.255C68.0145 114.255 67.8238 114.301 67.6558 114.394C67.4897 114.486 67.3584 114.621 67.2621 114.799C67.1659 114.976 67.1177 115.192 67.1177 115.445ZM74.5419 118.163C74.2662 118.163 74.0161 118.112 73.7914 118.008C73.5667 117.902 73.3883 117.75 73.2561 117.552C73.1239 117.352 73.0579 117.11 73.0579 116.827C73.0579 116.578 73.107 116.375 73.2051 116.221C73.3033 116.064 73.4345 115.941 73.5988 115.853C73.7631 115.764 73.9443 115.698 74.1426 115.654C74.3427 115.609 74.5438 115.573 74.7458 115.547C75.0101 115.513 75.2244 115.487 75.3887 115.47C75.5548 115.451 75.6756 115.42 75.7512 115.377C75.8286 115.333 75.8673 115.258 75.8673 115.15V115.127C75.8673 114.848 75.7908 114.631 75.6379 114.476C75.4868 114.321 75.2574 114.244 74.9497 114.244C74.6306 114.244 74.3804 114.314 74.1992 114.453C74.0179 114.593 73.8905 114.742 73.8169 114.901L73.1825 114.674C73.2958 114.41 73.4468 114.204 73.6356 114.057C73.8263 113.908 74.034 113.804 74.2587 113.745C74.4852 113.685 74.708 113.655 74.927 113.655C75.0668 113.655 75.2272 113.672 75.4085 113.706C75.5916 113.738 75.7682 113.805 75.9381 113.907C76.1099 114.009 76.2524 114.163 76.3657 114.368C76.479 114.574 76.5357 114.85 76.5357 115.195V118.062H75.8673V117.472H75.8333C75.788 117.567 75.7125 117.668 75.6067 117.775C75.501 117.883 75.3603 117.975 75.1848 118.05C75.0092 118.126 74.7949 118.163 74.5419 118.163ZM74.6438 117.563C74.9082 117.563 75.1309 117.511 75.3122 117.407C75.4953 117.303 75.6332 117.169 75.7257 117.005C75.8201 116.841 75.8673 116.668 75.8673 116.487V115.875C75.839 115.909 75.7767 115.94 75.6804 115.969C75.586 115.995 75.4765 116.019 75.3518 116.039C75.2291 116.058 75.1092 116.075 74.9922 116.09C74.877 116.104 74.7835 116.115 74.7118 116.124C74.5381 116.147 74.3757 116.184 74.2247 116.235C74.0755 116.284 73.9547 116.359 73.8622 116.459C73.7715 116.557 73.7262 116.691 73.7262 116.861C73.7262 117.093 73.8121 117.269 73.984 117.387C74.1577 117.505 74.3776 117.563 74.6438 117.563ZM79.4749 118.152C79.0671 118.152 78.7159 118.056 78.4214 117.863C78.1269 117.671 77.9003 117.405 77.7417 117.067C77.5831 116.73 77.5038 116.343 77.5038 115.909C77.5038 115.467 77.585 115.077 77.7474 114.739C77.9116 114.4 78.1401 114.134 78.4327 113.944C78.7273 113.751 79.0709 113.655 79.4636 113.655C79.7695 113.655 80.0451 113.711 80.2906 113.825C80.536 113.938 80.7371 114.097 80.8938 114.301C81.0505 114.504 81.1477 114.742 81.1855 115.014H80.5171C80.4662 114.816 80.3529 114.64 80.1773 114.487C80.0036 114.333 79.7695 114.255 79.4749 114.255C79.2144 114.255 78.9859 114.323 78.7896 114.459C78.5951 114.593 78.4431 114.783 78.3336 115.028C78.226 115.272 78.1722 115.558 78.1722 115.886C78.1722 116.223 78.225 116.515 78.3308 116.764C78.4384 117.014 78.5894 117.207 78.7839 117.345C78.9803 117.483 79.2106 117.552 79.4749 117.552C79.6486 117.552 79.8063 117.522 79.9479 117.461C80.0895 117.401 80.2094 117.314 80.3076 117.201C80.4057 117.087 80.4756 116.951 80.5171 116.793H81.1855C81.1477 117.05 81.0543 117.281 80.9051 117.487C80.7579 117.691 80.5625 117.853 80.3189 117.974C80.0772 118.093 79.7959 118.152 79.4749 118.152ZM83.8819 118.152C83.4741 118.152 83.1229 118.056 82.8284 117.863C82.5339 117.671 82.3073 117.405 82.1487 117.067C81.9901 116.73 81.9108 116.343 81.9108 115.909C81.9108 115.467 81.992 115.077 82.1544 114.739C82.3186 114.4 82.5471 114.134 82.8397 113.944C83.1343 113.751 83.4779 113.655 83.8706 113.655C84.1765 113.655 84.4521 113.711 84.6976 113.825C84.943 113.938 85.1441 114.097 85.3008 114.301C85.4575 114.504 85.5548 114.742 85.5925 115.014H84.9241C84.8732 114.816 84.7599 114.64 84.5843 114.487C84.4106 114.333 84.1765 114.255 83.8819 114.255C83.6214 114.255 83.3929 114.323 83.1966 114.459C83.0021 114.593 82.8501 114.783 82.7406 115.028C82.633 115.272 82.5792 115.558 82.5792 115.886C82.5792 116.223 82.6321 116.515 82.7378 116.764C82.8454 117.014 82.9964 117.207 83.1909 117.345C83.3873 117.483 83.6176 117.552 83.8819 117.552C84.0556 117.552 84.2133 117.522 84.3549 117.461C84.4965 117.401 84.6164 117.314 84.7146 117.201C84.8128 117.087 84.8826 116.951 84.9241 116.793H85.5925C85.5548 117.05 85.4613 117.281 85.3121 117.487C85.1649 117.691 84.9695 117.853 84.7259 117.974C84.4842 118.093 84.2029 118.152 83.8819 118.152ZM88.2889 118.152C87.8962 118.152 87.5517 118.059 87.2552 117.872C86.9607 117.685 86.7304 117.423 86.5642 117.087C86.3999 116.751 86.3178 116.359 86.3178 115.909C86.3178 115.456 86.3999 115.06 86.5642 114.723C86.7304 114.385 86.9607 114.122 87.2552 113.935C87.5517 113.748 87.8962 113.655 88.2889 113.655C88.6817 113.655 89.0253 113.748 89.3198 113.935C89.6162 114.122 89.8466 114.385 90.0108 114.723C90.177 115.06 90.2601 115.456 90.2601 115.909C90.2601 116.359 90.177 116.751 90.0108 117.087C89.8466 117.423 89.6162 117.685 89.3198 117.872C89.0253 118.059 88.6817 118.152 88.2889 118.152ZM88.2889 117.552C88.5873 117.552 88.8327 117.475 89.0253 117.322C89.2179 117.169 89.3604 116.968 89.4529 116.719C89.5454 116.47 89.5917 116.2 89.5917 115.909C89.5917 115.618 89.5454 115.347 89.4529 115.096C89.3604 114.845 89.2179 114.642 89.0253 114.487C88.8327 114.333 88.5873 114.255 88.2889 114.255C87.9906 114.255 87.7452 114.333 87.5526 114.487C87.36 114.642 87.2175 114.845 87.125 115.096C87.0324 115.347 86.9862 115.618 86.9862 115.909C86.9862 116.2 87.0324 116.47 87.125 116.719C87.2175 116.968 87.36 117.169 87.5526 117.322C87.7452 117.475 87.9906 117.552 88.2889 117.552ZM93.9739 116.283V113.711H94.6423V118.062H93.9739V117.325H93.9286C93.8267 117.546 93.6681 117.734 93.4528 117.889C93.2376 118.042 92.9657 118.118 92.6372 118.118C92.3653 118.118 92.1236 118.059 91.9122 117.94C91.7007 117.819 91.5346 117.638 91.4137 117.396C91.2929 117.152 91.2325 116.846 91.2325 116.476V113.711H91.9008V116.43C91.9008 116.747 91.9896 117 92.1671 117.189C92.3464 117.378 92.5749 117.472 92.8524 117.472C93.0186 117.472 93.1876 117.43 93.3594 117.345C93.5331 117.26 93.6784 117.13 93.7955 116.954C93.9145 116.779 93.9739 116.555 93.9739 116.283ZM96.487 115.445V118.062H95.8186V113.711H96.4643V114.391H96.521C96.6229 114.17 96.7777 113.993 96.9854 113.859C97.1931 113.723 97.4612 113.655 97.7897 113.655C98.0843 113.655 98.342 113.715 98.5629 113.836C98.7838 113.955 98.9556 114.136 99.0783 114.38C99.201 114.621 99.2624 114.927 99.2624 115.297V118.062H98.594V115.343C98.594 115.001 98.5053 114.735 98.3278 114.544C98.1503 114.352 97.9068 114.255 97.5972 114.255C97.3838 114.255 97.1931 114.301 97.0251 114.394C96.8589 114.486 96.7277 114.621 96.6314 114.799C96.5351 114.976 96.487 115.192 96.487 115.445ZM102.328 113.711V114.278H100.073V113.711H102.328ZM100.73 112.669H101.399V116.815C101.399 117.004 101.426 117.146 101.481 117.24C101.538 117.333 101.609 117.395 101.696 117.427C101.785 117.457 101.878 117.472 101.977 117.472C102.05 117.472 102.111 117.469 102.158 117.461C102.205 117.452 102.243 117.444 102.271 117.438L102.407 118.039C102.362 118.056 102.298 118.073 102.217 118.09C102.136 118.109 102.033 118.118 101.909 118.118C101.72 118.118 101.535 118.078 101.353 117.996C101.174 117.915 101.025 117.792 100.906 117.625C100.789 117.459 100.73 117.25 100.73 116.997V112.669ZM106.149 115.445V118.062H105.48V113.711H106.126V114.391H106.183C106.285 114.17 106.44 113.993 106.647 113.859C106.855 113.723 107.123 113.655 107.452 113.655C107.746 113.655 108.004 113.715 108.225 113.836C108.446 113.955 108.617 114.136 108.74 114.38C108.863 114.621 108.924 114.927 108.924 115.297V118.062H108.256V115.343C108.256 115.001 108.167 114.735 107.99 114.544C107.812 114.352 107.569 114.255 107.259 114.255C107.046 114.255 106.855 114.301 106.687 114.394C106.521 114.486 106.39 114.621 106.293 114.799C106.197 114.976 106.149 115.192 106.149 115.445ZM112.839 116.283V113.711H113.508V118.062H112.839V117.325H112.794C112.692 117.546 112.533 117.734 112.318 117.889C112.103 118.042 111.831 118.118 111.502 118.118C111.231 118.118 110.989 118.059 110.777 117.94C110.566 117.819 110.4 117.638 110.279 117.396C110.158 117.152 110.098 116.846 110.098 116.476V113.711H110.766V116.43C110.766 116.747 110.855 117 111.032 117.189C111.212 117.378 111.44 117.472 111.718 117.472C111.884 117.472 112.053 117.43 112.225 117.345C112.398 117.26 112.544 117.13 112.661 116.954C112.78 116.779 112.839 116.555 112.839 116.283ZM114.684 118.062V113.711H115.33V114.391H115.386C115.477 114.159 115.623 113.979 115.825 113.85C116.027 113.72 116.27 113.655 116.553 113.655C116.84 113.655 117.079 113.72 117.27 113.85C117.462 113.979 117.612 114.159 117.72 114.391H117.765C117.877 114.166 118.044 113.988 118.266 113.856C118.489 113.722 118.756 113.655 119.068 113.655C119.457 113.655 119.775 113.777 120.022 114.02C120.27 114.262 120.393 114.638 120.393 115.15V118.062H119.725V115.15C119.725 114.829 119.637 114.6 119.462 114.462C119.286 114.324 119.079 114.255 118.841 114.255C118.535 114.255 118.298 114.348 118.13 114.533C117.962 114.716 117.878 114.948 117.878 115.229V118.062H117.199V115.082C117.199 114.835 117.118 114.636 116.958 114.485C116.797 114.332 116.591 114.255 116.338 114.255C116.164 114.255 116.002 114.301 115.851 114.394C115.701 114.486 115.581 114.615 115.488 114.779C115.398 114.942 115.352 115.129 115.352 115.343V118.062H114.684ZM121.658 118.062V112.261H122.326V114.402H122.383C122.432 114.327 122.5 114.231 122.587 114.114C122.676 113.995 122.802 113.889 122.967 113.796C123.133 113.702 123.357 113.655 123.641 113.655C124.007 113.655 124.33 113.746 124.609 113.93C124.889 114.113 125.107 114.372 125.263 114.708C125.42 115.044 125.498 115.441 125.498 115.898C125.498 116.359 125.42 116.758 125.263 117.096C125.107 117.432 124.89 117.692 124.612 117.877C124.334 118.061 124.014 118.152 123.652 118.152C123.372 118.152 123.149 118.106 122.981 118.013C122.813 117.919 122.683 117.812 122.593 117.693C122.502 117.573 122.432 117.472 122.383 117.393H122.304V118.062H121.658ZM122.315 115.886C122.315 116.215 122.363 116.505 122.46 116.756C122.556 117.005 122.697 117.201 122.882 117.342C123.067 117.482 123.293 117.552 123.561 117.552C123.841 117.552 124.074 117.478 124.261 117.331C124.45 117.182 124.591 116.982 124.686 116.73C124.782 116.477 124.83 116.196 124.83 115.886C124.83 115.581 124.783 115.305 124.688 115.06C124.596 114.812 124.455 114.617 124.266 114.473C124.08 114.328 123.844 114.255 123.561 114.255C123.289 114.255 123.061 114.324 122.876 114.462C122.691 114.598 122.551 114.789 122.457 115.034C122.362 115.278 122.315 115.562 122.315 115.886ZM128.297 118.152C127.878 118.152 127.516 118.06 127.212 117.875C126.91 117.688 126.677 117.427 126.513 117.093C126.35 116.757 126.269 116.366 126.269 115.92C126.269 115.475 126.35 115.082 126.513 114.742C126.677 114.401 126.905 114.134 127.198 113.944C127.492 113.751 127.836 113.655 128.229 113.655C128.455 113.655 128.679 113.693 128.9 113.768C129.121 113.844 129.322 113.966 129.503 114.136C129.685 114.304 129.829 114.527 129.937 114.805C130.044 115.082 130.098 115.424 130.098 115.83V116.113H126.745V115.535H129.418C129.418 115.29 129.369 115.071 129.271 114.878C129.175 114.686 129.037 114.534 128.858 114.422C128.68 114.311 128.47 114.255 128.229 114.255C127.963 114.255 127.732 114.321 127.538 114.453C127.345 114.584 127.197 114.754 127.093 114.963C126.989 115.173 126.937 115.397 126.937 115.637V116.022C126.937 116.351 126.994 116.629 127.107 116.858C127.222 117.084 127.382 117.257 127.586 117.376C127.79 117.493 128.027 117.552 128.297 117.552C128.472 117.552 128.631 117.527 128.773 117.478C128.916 117.427 129.04 117.352 129.144 117.252C129.247 117.15 129.328 117.023 129.384 116.872L130.03 117.053C129.962 117.272 129.848 117.465 129.687 117.631C129.527 117.795 129.329 117.924 129.093 118.016C128.857 118.107 128.591 118.152 128.297 118.152ZM131.067 118.062V113.711H131.713V114.368H131.758C131.837 114.153 131.981 113.979 132.188 113.845C132.396 113.711 132.63 113.643 132.891 113.643C132.94 113.643 133.001 113.644 133.075 113.646C133.148 113.648 133.204 113.651 133.242 113.655V114.335C133.219 114.329 133.167 114.32 133.086 114.309C133.007 114.296 132.923 114.289 132.834 114.289C132.623 114.289 132.434 114.334 132.268 114.422C132.103 114.509 131.973 114.63 131.877 114.785C131.782 114.938 131.735 115.112 131.735 115.309V118.062H131.067Z" fill="#99A0AE"/>
</g>
<path d="M45.4321 144.873V139.073H47.5562C47.9678 139.073 48.3086 139.141 48.5786 139.277C48.8486 139.411 49.0506 139.593 49.1846 139.823C49.3187 140.052 49.3857 140.31 49.3857 140.597C49.3857 140.838 49.3413 141.042 49.2526 141.208C49.1639 141.373 49.0449 141.505 48.8958 141.605C48.7485 141.703 48.5861 141.775 48.4087 141.82V141.877C48.6012 141.886 48.7891 141.948 48.9722 142.064C49.1573 142.177 49.3102 142.338 49.431 142.548C49.5519 142.757 49.6123 143.012 49.6123 143.313C49.6123 143.609 49.5424 143.875 49.4027 144.111C49.2649 144.345 49.0515 144.531 48.7627 144.669C48.4738 144.805 48.1047 144.873 47.6553 144.873H45.4321ZM46.3073 144.123H47.5704C47.9895 144.123 48.2897 144.041 48.471 143.879C48.6522 143.717 48.7428 143.514 48.7428 143.27C48.7428 143.087 48.6966 142.919 48.6041 142.766C48.5115 142.613 48.3794 142.491 48.2076 142.401C48.0376 142.31 47.8356 142.265 47.6015 142.265H46.3073V144.123ZM46.3073 141.582H47.4797C47.6761 141.582 47.8526 141.544 48.0093 141.469C48.1679 141.393 48.2935 141.288 48.386 141.152C48.4804 141.014 48.5276 140.851 48.5276 140.665C48.5276 140.425 48.4436 140.224 48.2755 140.061C48.1075 139.899 47.8498 139.818 47.5024 139.818H46.3073V141.582ZM51.8004 144.969C51.5247 144.969 51.2755 144.918 51.0527 144.816C50.8299 144.713 50.6534 144.562 50.5231 144.366C50.3947 144.17 50.3305 143.929 50.3305 143.644C50.3305 143.398 50.3777 143.196 50.4721 143.038C50.5665 142.879 50.694 142.754 50.8544 142.661C51.0149 142.569 51.1943 142.499 51.3925 142.452C51.5908 142.404 51.7928 142.369 51.9986 142.344C52.2592 142.314 52.4706 142.289 52.633 142.27C52.7954 142.25 52.9134 142.217 52.987 142.171C53.0606 142.126 53.0974 142.052 53.0974 141.95V141.931C53.0974 141.683 53.0276 141.492 52.8879 141.356C52.75 141.22 52.5442 141.152 52.2705 141.152C51.9854 141.152 51.7607 141.215 51.5964 141.341C51.4341 141.466 51.3217 141.605 51.2594 141.758L50.4636 141.577C50.558 141.312 50.6958 141.099 50.8771 140.936C51.0602 140.772 51.2708 140.653 51.5087 140.58C51.7465 140.504 51.9967 140.466 52.2592 140.466C52.4329 140.466 52.6169 140.487 52.8114 140.529C53.0078 140.568 53.1909 140.642 53.3608 140.75C53.5326 140.857 53.6733 141.011 53.7828 141.211C53.8923 141.409 53.9471 141.667 53.9471 141.984V144.873H53.1201V144.278H53.0861C53.0314 144.388 52.9492 144.495 52.8397 144.601C52.7302 144.707 52.5896 144.795 52.4177 144.865C52.2459 144.934 52.0401 144.969 51.8004 144.969ZM51.9844 144.29C52.2186 144.29 52.4187 144.243 52.5848 144.151C52.7529 144.058 52.8803 143.938 52.9672 143.788C53.0559 143.637 53.1003 143.476 53.1003 143.304V142.743C53.0701 142.774 53.0115 142.802 52.9247 142.828C52.8397 142.853 52.7425 142.875 52.633 142.893C52.5235 142.91 52.4168 142.926 52.313 142.942C52.2091 142.955 52.1223 142.966 52.0524 142.976C51.8881 142.996 51.738 143.031 51.6021 143.08C51.4681 143.129 51.3604 143.2 51.2793 143.293C51.2 143.383 51.1603 143.504 51.1603 143.655C51.1603 143.865 51.2377 144.023 51.3925 144.131C51.5474 144.237 51.7447 144.29 51.9844 144.29ZM55.8739 142.29V144.873H55.0271V140.523H55.8399V141.231H55.8937C55.9938 141.001 56.1505 140.816 56.3638 140.676C56.5791 140.536 56.85 140.466 57.1766 140.466C57.4731 140.466 57.7327 140.529 57.9555 140.653C58.1782 140.776 58.351 140.959 58.4737 141.203C58.5965 141.446 58.6578 141.747 58.6578 142.106V144.873H57.811V142.208C57.811 141.893 57.7289 141.646 57.5646 141.469C57.4004 141.29 57.1747 141.2 56.8878 141.2C56.6914 141.2 56.5168 141.242 56.3638 141.327C56.2128 141.412 56.0929 141.537 56.0042 141.701C55.9173 141.863 55.8739 142.06 55.8739 142.29ZM60.5244 143.398L60.5188 142.364H60.666L62.3993 140.523H63.4132L61.4364 142.619H61.3033L60.5244 143.398ZM59.7456 144.873V139.073H60.5924V144.873H59.7456ZM62.4927 144.873L60.9351 142.806L61.5185 142.214L63.5321 144.873H62.4927Z" fill="#0E121B"/>
<g filter="url(#filter2_d_7212_22025)">
<path d="M44.7949 155.848C44.7949 152.702 47.3453 150.151 50.4914 150.151H250.439C253.585 150.151 256.136 152.702 256.136 155.848V167.848C256.136 170.994 253.585 173.544 250.439 173.544H50.4914C47.3453 173.544 44.7949 170.994 44.7949 167.848V155.848Z" fill="white"/>
<path d="M50.4912 150.437H250.439C253.428 150.437 255.85 152.859 255.851 155.848V167.848C255.851 170.836 253.428 173.26 250.439 173.26H50.4912C47.5025 173.26 45.0801 170.836 45.0801 167.848V155.848C45.0802 152.859 47.5026 150.437 50.4912 150.437Z" stroke="#E1E4EA" stroke-width="0.569652"/>
<path d="M52.3332 164.848V159.048H55.811V159.671H53.0356V161.63H55.5505V162.253H53.0356V164.848H52.3332ZM56.8754 164.848V160.498H57.5438V164.848H56.8754ZM57.2153 159.773C57.085 159.773 56.9727 159.728 56.8783 159.639C56.7858 159.551 56.7395 159.444 56.7395 159.319C56.7395 159.195 56.7858 159.088 56.8783 158.999C56.9727 158.911 57.085 158.866 57.2153 158.866C57.3456 158.866 57.457 158.911 57.5495 158.999C57.6439 159.088 57.6911 159.195 57.6911 159.319C57.6911 159.444 57.6439 159.551 57.5495 159.639C57.457 159.728 57.3456 159.773 57.2153 159.773ZM59.3885 159.048V164.848H58.7201V159.048H59.3885ZM61.2332 159.048V164.848H60.5648V159.048H61.2332ZM64.6047 164.848V160.498H65.273V164.848H64.6047ZM64.9445 159.773C64.8142 159.773 64.7019 159.728 64.6075 159.639C64.515 159.551 64.4687 159.444 64.4687 159.319C64.4687 159.195 64.515 159.088 64.6075 158.999C64.7019 158.911 64.8142 158.866 64.9445 158.866C65.0748 158.866 65.1862 158.911 65.2787 158.999C65.3731 159.088 65.4203 159.195 65.4203 159.319C65.4203 159.444 65.3731 159.551 65.2787 159.639C65.1862 159.728 65.0748 159.773 64.9445 159.773ZM67.1177 162.231V164.848H66.4493V160.498H67.0951V161.177H67.1517C67.2536 160.956 67.4085 160.779 67.6162 160.645C67.8238 160.509 68.0919 160.441 68.4205 160.441C68.715 160.441 68.9727 160.501 69.1936 160.622C69.4145 160.741 69.5863 160.922 69.7091 161.166C69.8318 161.408 69.8931 161.713 69.8931 162.084V164.848H69.2248V162.129C69.2248 161.787 69.136 161.521 68.9586 161.33C68.7811 161.138 68.5375 161.041 68.2279 161.041C68.0145 161.041 67.8238 161.088 67.6558 161.18C67.4897 161.273 67.3584 161.408 67.2621 161.585C67.1659 161.763 67.1177 161.978 67.1177 162.231ZM74.5419 164.95C74.2662 164.95 74.0161 164.898 73.7914 164.794C73.5667 164.688 73.3883 164.536 73.2561 164.338C73.1239 164.138 73.0579 163.896 73.0579 163.613C73.0579 163.364 73.107 163.162 73.2051 163.007C73.3033 162.85 73.4345 162.727 73.5988 162.639C73.7631 162.55 73.9443 162.484 74.1426 162.44C74.3427 162.395 74.5438 162.359 74.7458 162.333C75.0101 162.299 75.2244 162.273 75.3887 162.256C75.5548 162.237 75.6756 162.206 75.7512 162.163C75.8286 162.119 75.8673 162.044 75.8673 161.936V161.914C75.8673 161.634 75.7908 161.417 75.6379 161.262C75.4868 161.107 75.2574 161.03 74.9497 161.03C74.6306 161.03 74.3804 161.1 74.1992 161.24C74.0179 161.379 73.8905 161.528 73.8169 161.687L73.1825 161.46C73.2958 161.196 73.4468 160.99 73.6356 160.843C73.8263 160.694 74.034 160.59 74.2587 160.532C74.4852 160.471 74.708 160.441 74.927 160.441C75.0668 160.441 75.2272 160.458 75.4085 160.492C75.5916 160.524 75.7682 160.591 75.9381 160.693C76.1099 160.795 76.2524 160.949 76.3657 161.155C76.479 161.36 76.5357 161.636 76.5357 161.982V164.848H75.8673V164.259H75.8333C75.788 164.353 75.7125 164.454 75.6067 164.562C75.501 164.669 75.3603 164.761 75.1848 164.836C75.0092 164.912 74.7949 164.95 74.5419 164.95ZM74.6438 164.349C74.9082 164.349 75.1309 164.297 75.3122 164.193C75.4953 164.09 75.6332 163.956 75.7257 163.791C75.8201 163.627 75.8673 163.454 75.8673 163.273V162.661C75.839 162.695 75.7767 162.726 75.6804 162.755C75.586 162.781 75.4765 162.805 75.3518 162.826C75.2291 162.844 75.1092 162.861 74.9922 162.877C74.877 162.89 74.7835 162.901 74.7118 162.911C74.5381 162.933 74.3757 162.97 74.2247 163.021C74.0755 163.07 73.9547 163.145 73.8622 163.245C73.7715 163.343 73.7262 163.477 73.7262 163.647C73.7262 163.879 73.8121 164.055 73.984 164.174C74.1577 164.291 74.3776 164.349 74.6438 164.349ZM79.4749 164.938C79.0671 164.938 78.7159 164.842 78.4214 164.649C78.1269 164.457 77.9003 164.192 77.7417 163.854C77.5831 163.516 77.5038 163.13 77.5038 162.695C77.5038 162.253 77.585 161.864 77.7474 161.526C77.9116 161.186 78.1401 160.921 78.4327 160.73C78.7273 160.537 79.0709 160.441 79.4636 160.441C79.7695 160.441 80.0451 160.498 80.2906 160.611C80.536 160.724 80.7371 160.883 80.8938 161.087C81.0505 161.291 81.1477 161.528 81.1855 161.8H80.5171C80.4662 161.602 80.3529 161.427 80.1773 161.274C80.0036 161.119 79.7695 161.041 79.4749 161.041C79.2144 161.041 78.9859 161.109 78.7896 161.245C78.5951 161.379 78.4431 161.569 78.3336 161.815C78.226 162.058 78.1722 162.344 78.1722 162.673C78.1722 163.009 78.225 163.301 78.3308 163.551C78.4384 163.8 78.5894 163.993 78.7839 164.131C78.9803 164.269 79.2106 164.338 79.4749 164.338C79.6486 164.338 79.8063 164.308 79.9479 164.247C80.0895 164.187 80.2094 164.1 80.3076 163.987C80.4057 163.873 80.4756 163.737 80.5171 163.579H81.1855C81.1477 163.836 81.0543 164.067 80.9051 164.273C80.7579 164.477 80.5625 164.639 80.3189 164.76C80.0772 164.879 79.7959 164.938 79.4749 164.938ZM83.8819 164.938C83.4741 164.938 83.1229 164.842 82.8284 164.649C82.5339 164.457 82.3073 164.192 82.1487 163.854C81.9901 163.516 81.9108 163.13 81.9108 162.695C81.9108 162.253 81.992 161.864 82.1544 161.526C82.3186 161.186 82.5471 160.921 82.8397 160.73C83.1343 160.537 83.4779 160.441 83.8706 160.441C84.1765 160.441 84.4521 160.498 84.6976 160.611C84.943 160.724 85.1441 160.883 85.3008 161.087C85.4575 161.291 85.5548 161.528 85.5925 161.8H84.9241C84.8732 161.602 84.7599 161.427 84.5843 161.274C84.4106 161.119 84.1765 161.041 83.8819 161.041C83.6214 161.041 83.3929 161.109 83.1966 161.245C83.0021 161.379 82.8501 161.569 82.7406 161.815C82.633 162.058 82.5792 162.344 82.5792 162.673C82.5792 163.009 82.6321 163.301 82.7378 163.551C82.8454 163.8 82.9964 163.993 83.1909 164.131C83.3873 164.269 83.6176 164.338 83.8819 164.338C84.0556 164.338 84.2133 164.308 84.3549 164.247C84.4965 164.187 84.6164 164.1 84.7146 163.987C84.8128 163.873 84.8826 163.737 84.9241 163.579H85.5925C85.5548 163.836 85.4613 164.067 85.3121 164.273C85.1649 164.477 84.9695 164.639 84.7259 164.76C84.4842 164.879 84.2029 164.938 83.8819 164.938ZM88.2889 164.938C87.8962 164.938 87.5517 164.845 87.2552 164.658C86.9607 164.471 86.7304 164.209 86.5642 163.873C86.3999 163.537 86.3178 163.145 86.3178 162.695C86.3178 162.242 86.3999 161.847 86.5642 161.509C86.7304 161.171 86.9607 160.908 87.2552 160.721C87.5517 160.534 87.8962 160.441 88.2889 160.441C88.6817 160.441 89.0253 160.534 89.3198 160.721C89.6162 160.908 89.8466 161.171 90.0108 161.509C90.177 161.847 90.2601 162.242 90.2601 162.695C90.2601 163.145 90.177 163.537 90.0108 163.873C89.8466 164.209 89.6162 164.471 89.3198 164.658C89.0253 164.845 88.6817 164.938 88.2889 164.938ZM88.2889 164.338C88.5873 164.338 88.8327 164.261 89.0253 164.108C89.2179 163.956 89.3604 163.754 89.4529 163.505C89.5454 163.256 89.5917 162.986 89.5917 162.695C89.5917 162.405 89.5454 162.134 89.4529 161.882C89.3604 161.631 89.2179 161.428 89.0253 161.274C88.8327 161.119 88.5873 161.041 88.2889 161.041C87.9906 161.041 87.7452 161.119 87.5526 161.274C87.36 161.428 87.2175 161.631 87.125 161.882C87.0324 162.134 86.9862 162.405 86.9862 162.695C86.9862 162.986 87.0324 163.256 87.125 163.505C87.2175 163.754 87.36 163.956 87.5526 164.108C87.7452 164.261 87.9906 164.338 88.2889 164.338ZM93.9739 163.069V160.498H94.6423V164.848H93.9739V164.111H93.9286C93.8267 164.332 93.6681 164.52 93.4528 164.675C93.2376 164.828 92.9657 164.904 92.6372 164.904C92.3653 164.904 92.1236 164.845 91.9122 164.726C91.7007 164.605 91.5346 164.424 91.4137 164.182C91.2929 163.939 91.2325 163.632 91.2325 163.262V160.498H91.9008V163.216C91.9008 163.534 91.9896 163.787 92.1671 163.975C92.3464 164.164 92.5749 164.259 92.8524 164.259C93.0186 164.259 93.1876 164.216 93.3594 164.131C93.5331 164.046 93.6784 163.916 93.7955 163.74C93.9145 163.565 93.9739 163.341 93.9739 163.069ZM96.487 162.231V164.848H95.8186V160.498H96.4643V161.177H96.521C96.6229 160.956 96.7777 160.779 96.9854 160.645C97.1931 160.509 97.4612 160.441 97.7897 160.441C98.0843 160.441 98.342 160.501 98.5629 160.622C98.7838 160.741 98.9556 160.922 99.0783 161.166C99.201 161.408 99.2624 161.713 99.2624 162.084V164.848H98.594V162.129C98.594 161.787 98.5053 161.521 98.3278 161.33C98.1503 161.138 97.9068 161.041 97.5972 161.041C97.3838 161.041 97.1931 161.088 97.0251 161.18C96.8589 161.273 96.7277 161.408 96.6314 161.585C96.5351 161.763 96.487 161.978 96.487 162.231ZM102.328 160.498V161.064H100.073V160.498H102.328ZM100.73 159.455H101.399V163.602C101.399 163.79 101.426 163.932 101.481 164.026C101.538 164.119 101.609 164.181 101.696 164.213C101.785 164.243 101.878 164.259 101.977 164.259C102.05 164.259 102.111 164.255 102.158 164.247C102.205 164.238 102.243 164.23 102.271 164.225L102.407 164.825C102.362 164.842 102.298 164.859 102.217 164.876C102.136 164.895 102.033 164.904 101.909 164.904C101.72 164.904 101.535 164.864 101.353 164.783C101.174 164.701 101.025 164.578 100.906 164.412C100.789 164.245 100.73 164.036 100.73 163.783V159.455ZM106.149 162.231V164.848H105.48V160.498H106.126V161.177H106.183C106.285 160.956 106.44 160.779 106.647 160.645C106.855 160.509 107.123 160.441 107.452 160.441C107.746 160.441 108.004 160.501 108.225 160.622C108.446 160.741 108.617 160.922 108.74 161.166C108.863 161.408 108.924 161.713 108.924 162.084V164.848H108.256V162.129C108.256 161.787 108.167 161.521 107.99 161.33C107.812 161.138 107.569 161.041 107.259 161.041C107.046 161.041 106.855 161.088 106.687 161.18C106.521 161.273 106.39 161.408 106.293 161.585C106.197 161.763 106.149 161.978 106.149 162.231ZM112.839 163.069V160.498H113.508V164.848H112.839V164.111H112.794C112.692 164.332 112.533 164.52 112.318 164.675C112.103 164.828 111.831 164.904 111.502 164.904C111.231 164.904 110.989 164.845 110.777 164.726C110.566 164.605 110.4 164.424 110.279 164.182C110.158 163.939 110.098 163.632 110.098 163.262V160.498H110.766V163.216C110.766 163.534 110.855 163.787 111.032 163.975C111.212 164.164 111.44 164.259 111.718 164.259C111.884 164.259 112.053 164.216 112.225 164.131C112.398 164.046 112.544 163.916 112.661 163.74C112.78 163.565 112.839 163.341 112.839 163.069ZM114.684 164.848V160.498H115.33V161.177H115.386C115.477 160.945 115.623 160.765 115.825 160.636C116.027 160.506 116.27 160.441 116.553 160.441C116.84 160.441 117.079 160.506 117.27 160.636C117.462 160.765 117.612 160.945 117.72 161.177H117.765C117.877 160.953 118.044 160.774 118.266 160.642C118.489 160.508 118.756 160.441 119.068 160.441C119.457 160.441 119.775 160.563 120.022 160.806C120.27 161.048 120.393 161.425 120.393 161.936V164.848H119.725V161.936C119.725 161.615 119.637 161.386 119.462 161.248C119.286 161.11 119.079 161.041 118.841 161.041C118.535 161.041 118.298 161.134 118.13 161.319C117.962 161.502 117.878 161.734 117.878 162.016V164.848H117.199V161.868C117.199 161.621 117.118 161.422 116.958 161.271C116.797 161.118 116.591 161.041 116.338 161.041C116.164 161.041 116.002 161.088 115.851 161.18C115.701 161.273 115.581 161.401 115.488 161.565C115.398 161.728 115.352 161.916 115.352 162.129V164.848H114.684ZM121.658 164.848V159.048H122.326V161.189H122.383C122.432 161.113 122.5 161.017 122.587 160.9C122.676 160.781 122.802 160.675 122.967 160.583C123.133 160.488 123.357 160.441 123.641 160.441C124.007 160.441 124.33 160.533 124.609 160.716C124.889 160.899 125.107 161.158 125.263 161.494C125.42 161.831 125.498 162.227 125.498 162.684C125.498 163.145 125.42 163.544 125.263 163.882C125.107 164.218 124.89 164.479 124.612 164.664C124.334 164.847 124.014 164.938 123.652 164.938C123.372 164.938 123.149 164.892 122.981 164.8C122.813 164.705 122.683 164.598 122.593 164.479C122.502 164.359 122.432 164.259 122.383 164.179H122.304V164.848H121.658ZM122.315 162.673C122.315 163.001 122.363 163.291 122.46 163.542C122.556 163.791 122.697 163.987 122.882 164.128C123.067 164.268 123.293 164.338 123.561 164.338C123.841 164.338 124.074 164.264 124.261 164.117C124.45 163.968 124.591 163.768 124.686 163.517C124.782 163.264 124.83 162.982 124.83 162.673C124.83 162.367 124.783 162.091 124.688 161.846C124.596 161.598 124.455 161.403 124.266 161.259C124.08 161.114 123.844 161.041 123.561 161.041C123.289 161.041 123.061 161.11 122.876 161.248C122.691 161.384 122.551 161.575 122.457 161.82C122.362 162.064 122.315 162.348 122.315 162.673ZM128.297 164.938C127.878 164.938 127.516 164.846 127.212 164.661C126.91 164.474 126.677 164.213 126.513 163.879C126.35 163.543 126.269 163.152 126.269 162.707C126.269 162.261 126.35 161.868 126.513 161.528C126.677 161.187 126.905 160.921 127.198 160.73C127.492 160.537 127.836 160.441 128.229 160.441C128.455 160.441 128.679 160.479 128.9 160.554C129.121 160.63 129.322 160.752 129.503 160.922C129.685 161.09 129.829 161.313 129.937 161.591C130.044 161.868 130.098 162.21 130.098 162.616V162.899H126.745V162.321H129.418C129.418 162.076 129.369 161.857 129.271 161.664C129.175 161.472 129.037 161.32 128.858 161.208C128.68 161.097 128.47 161.041 128.229 161.041C127.963 161.041 127.732 161.107 127.538 161.24C127.345 161.37 127.197 161.54 127.093 161.749C126.989 161.959 126.937 162.184 126.937 162.423V162.809C126.937 163.137 126.994 163.416 127.107 163.644C127.222 163.871 127.382 164.043 127.586 164.162C127.79 164.279 128.027 164.338 128.297 164.338C128.472 164.338 128.631 164.313 128.773 164.264C128.916 164.213 129.04 164.138 129.144 164.038C129.247 163.936 129.328 163.809 129.384 163.658L130.03 163.839C129.962 164.058 129.848 164.251 129.687 164.417C129.527 164.581 129.329 164.71 129.093 164.802C128.857 164.893 128.591 164.938 128.297 164.938ZM131.067 164.848V160.498H131.713V161.155H131.758C131.837 160.939 131.981 160.765 132.188 160.631C132.396 160.497 132.63 160.43 132.891 160.43C132.94 160.43 133.001 160.431 133.075 160.432C133.148 160.434 133.204 160.437 133.242 160.441V161.121C133.219 161.115 133.167 161.106 133.086 161.095C133.007 161.082 132.923 161.075 132.834 161.075C132.623 161.075 132.434 161.12 132.268 161.208C132.103 161.295 131.973 161.416 131.877 161.571C131.782 161.724 131.735 161.899 131.735 162.095V164.848H131.067Z" fill="#525866"/>
<path d="M244.744 162.348L246.859 160.233L247.463 160.838L244.744 163.556L242.025 160.838L242.63 160.233L244.744 162.348Z" fill="#99A0AE"/>
</g>
<path d="M44.7949 188.51C44.7949 185.279 47.4143 182.659 50.6454 182.659H250.285C253.516 182.659 256.136 185.279 256.136 188.51V200.202C256.136 203.433 253.516 206.052 250.285 206.052H50.6454C47.4143 206.052 44.7949 203.433 44.7949 200.202V188.51Z" fill="#F5F7FA"/>
<path d="M146.785 191.555V197.355H145.981L143.033 193.102H142.979V197.355H142.104V191.555H142.914L145.865 195.815H145.919V191.555H146.785ZM149.821 197.443C149.392 197.443 149.023 197.352 148.714 197.169C148.406 196.984 148.168 196.724 148 196.39C147.834 196.054 147.751 195.66 147.751 195.209C147.751 194.763 147.834 194.37 148 194.031C148.168 193.691 148.402 193.425 148.702 193.235C149.004 193.044 149.357 192.949 149.762 192.949C150.007 192.949 150.245 192.989 150.475 193.071C150.706 193.152 150.912 193.279 151.095 193.453C151.279 193.627 151.423 193.852 151.529 194.13C151.634 194.405 151.687 194.741 151.687 195.135V195.435H148.229V194.801H150.858C150.858 194.578 150.812 194.381 150.722 194.209C150.631 194.035 150.504 193.898 150.339 193.798C150.177 193.698 149.986 193.648 149.767 193.648C149.529 193.648 149.322 193.707 149.144 193.824C148.969 193.939 148.833 194.09 148.736 194.277C148.642 194.462 148.595 194.663 148.595 194.88V195.376C148.595 195.667 148.646 195.914 148.748 196.118C148.851 196.322 148.996 196.478 149.181 196.585C149.366 196.691 149.582 196.744 149.83 196.744C149.99 196.744 150.136 196.721 150.268 196.676C150.401 196.629 150.515 196.559 150.611 196.466C150.707 196.374 150.781 196.259 150.832 196.124L151.634 196.268C151.569 196.504 151.454 196.711 151.288 196.888C151.124 197.064 150.917 197.201 150.668 197.299C150.42 197.395 150.138 197.443 149.821 197.443ZM153.146 193.005L154.106 194.699L155.075 193.005H156.001L154.644 195.18L156.012 197.355H155.086L154.106 195.73L153.129 197.355H152.2L153.554 195.18L152.217 193.005H153.146ZM158.853 193.005V193.685H156.477V193.005H158.853ZM157.114 191.963H157.961V196.078C157.961 196.242 157.986 196.366 158.035 196.449C158.084 196.53 158.147 196.586 158.224 196.616C158.304 196.645 158.39 196.659 158.482 196.659C158.55 196.659 158.61 196.654 158.661 196.645C158.711 196.635 158.751 196.628 158.779 196.622L158.932 197.321C158.883 197.34 158.813 197.359 158.723 197.378C158.632 197.399 158.519 197.41 158.383 197.412C158.16 197.416 157.952 197.376 157.76 197.293C157.567 197.21 157.412 197.082 157.293 196.908C157.174 196.734 157.114 196.516 157.114 196.254V191.963Z" fill="#CACFD8"/>
<path d="M35.6797 224.28C35.6797 219.247 39.7604 215.166 44.7941 215.166H256.135C261.169 215.166 265.249 219.247 265.249 224.28V551.261H35.6797V224.28Z" fill="white"/>
<path d="M45.4487 232.002V225.373H47.9863C48.4653 225.373 48.8634 225.449 49.1806 225.6C49.4999 225.749 49.7384 225.953 49.8959 226.212C50.0556 226.471 50.1354 226.764 50.1354 227.092C50.1354 227.362 50.0836 227.593 49.98 227.785C49.8765 227.974 49.7373 228.129 49.5625 228.247C49.3877 228.366 49.1925 228.451 48.9767 228.503V228.568C49.2119 228.581 49.4374 228.653 49.6531 228.785C49.8711 228.914 50.0491 229.098 50.1872 229.335C50.3253 229.572 50.3943 229.859 50.3943 230.196C50.3943 230.539 50.3113 230.848 50.1451 231.122C49.979 231.393 49.7287 231.608 49.3942 231.766C49.0598 231.923 48.639 232.002 48.1319 232.002H45.4487ZM46.6495 230.999H47.941C48.3768 230.999 48.6908 230.916 48.8828 230.749C49.077 230.581 49.1741 230.365 49.1741 230.102C49.1741 229.906 49.1256 229.729 49.0285 229.571C48.9314 229.412 48.7933 229.286 48.6142 229.196C48.4351 229.103 48.2215 229.057 47.9733 229.057H46.6495V230.999ZM46.6495 228.192H47.8374C48.0445 228.192 48.2312 228.155 48.3973 228.079C48.5635 228.001 48.694 227.892 48.789 227.752C48.8861 227.61 48.9346 227.442 48.9346 227.247C48.9346 226.991 48.844 226.779 48.6627 226.613C48.4836 226.447 48.2171 226.364 47.8633 226.364H46.6495V228.192ZM53.4879 232.099C52.9894 232.099 52.5589 231.995 52.1964 231.788C51.8361 231.579 51.5588 231.283 51.3646 230.901C51.1704 230.517 51.0733 230.065 51.0733 229.545C51.0733 229.034 51.1704 228.585 51.3646 228.199C51.561 227.81 51.835 227.508 52.1867 227.293C52.5384 227.075 52.9516 226.966 53.4264 226.966C53.7328 226.966 54.0219 227.015 54.2938 227.115C54.5678 227.212 54.8095 227.363 55.0188 227.568C55.2303 227.773 55.3964 228.034 55.5172 228.351C55.6381 228.666 55.6985 229.041 55.6985 229.477V229.837H51.6235V229.047H54.5754C54.5732 228.822 54.5247 228.623 54.4297 228.448C54.3348 228.271 54.2021 228.132 54.0316 228.031C53.8633 227.929 53.6669 227.878 53.4425 227.878C53.203 227.878 52.9926 227.937 52.8114 228.053C52.6301 228.168 52.4888 228.319 52.3874 228.506C52.2881 228.692 52.2374 228.896 52.2353 229.118V229.807C52.2353 230.097 52.2881 230.345 52.3939 230.552C52.4996 230.757 52.6474 230.914 52.8373 231.024C53.0272 231.132 53.2494 231.186 53.504 231.186C53.6745 231.186 53.8288 231.163 53.9669 231.115C54.105 231.065 54.2247 230.993 54.3261 230.898C54.4276 230.803 54.5042 230.686 54.556 230.545L55.6499 230.668C55.5809 230.958 55.4493 231.21 55.2551 231.426C55.063 231.639 54.817 231.806 54.5171 231.924C54.2172 232.041 53.8741 232.099 53.4879 232.099ZM57.7611 229.089V232.002H56.5895V227.03H57.7093V227.875H57.7676C57.882 227.597 58.0643 227.376 58.3146 227.212C58.5671 227.048 58.8789 226.966 59.25 226.966C59.5931 226.966 59.8919 227.039 60.1465 227.186C60.4033 227.333 60.6018 227.545 60.7421 227.823C60.8845 228.102 60.9546 228.439 60.9525 228.837V232.002H59.7808V229.018C59.7808 228.685 59.6945 228.425 59.5219 228.238C59.3514 228.05 59.1151 227.956 58.813 227.956C58.6081 227.956 58.4257 228.001 58.266 228.092C58.1085 228.181 57.9845 228.309 57.8938 228.477C57.8054 228.646 57.7611 228.849 57.7611 229.089ZM64.2442 232.099C63.7458 232.099 63.3153 231.995 62.9528 231.788C62.5925 231.579 62.3152 231.283 62.121 230.901C61.9268 230.517 61.8297 230.065 61.8297 229.545C61.8297 229.034 61.9268 228.585 62.121 228.199C62.3173 227.81 62.5914 227.508 62.9431 227.293C63.2948 227.075 63.708 226.966 64.1827 226.966C64.4891 226.966 64.7783 227.015 65.0502 227.115C65.3242 227.212 65.5659 227.363 65.7752 227.568C65.9866 227.773 66.1528 228.034 66.2736 228.351C66.3945 228.666 66.4549 229.041 66.4549 229.477V229.837H62.3799V229.047H65.3317C65.3296 228.822 65.281 228.623 65.1861 228.448C65.0912 228.271 64.9585 228.132 64.788 228.031C64.6197 227.929 64.4233 227.878 64.1989 227.878C63.9594 227.878 63.749 227.937 63.5678 228.053C63.3865 228.168 63.2452 228.319 63.1438 228.506C63.0445 228.692 62.9938 228.896 62.9916 229.118V229.807C62.9916 230.097 63.0445 230.345 63.1502 230.552C63.256 230.757 63.4038 230.914 63.5937 231.024C63.7835 231.132 64.0058 231.186 64.2604 231.186C64.4309 231.186 64.5852 231.163 64.7233 231.115C64.8614 231.065 64.9811 230.993 65.0825 230.898C65.1839 230.803 65.2605 230.686 65.3123 230.545L66.4063 230.668C66.3373 230.958 66.2056 231.21 66.0114 231.426C65.8194 231.639 65.5734 231.806 65.2735 231.924C64.9736 232.041 64.6305 232.099 64.2442 232.099ZM69.864 227.03V227.937H66.9251V227.03H69.864ZM67.6598 232.002V226.561C67.6598 226.227 67.7288 225.948 67.8669 225.726C68.0072 225.504 68.1949 225.338 68.4301 225.228C68.6653 225.118 68.9264 225.063 69.2134 225.063C69.4162 225.063 69.5964 225.079 69.7539 225.111C69.9114 225.143 70.0279 225.173 70.1035 225.198L69.8704 226.105C69.8208 226.09 69.7582 226.075 69.6827 226.059C69.6072 226.042 69.523 226.034 69.4302 226.034C69.2123 226.034 69.058 226.086 68.9674 226.192C68.8789 226.296 68.8347 226.445 68.8347 226.639V232.002H67.6598ZM70.6813 232.002V227.03H71.853V232.002H70.6813ZM71.2704 226.325C71.0848 226.325 70.9251 226.263 70.7913 226.14C70.6576 226.015 70.5907 225.865 70.5907 225.69C70.5907 225.514 70.6576 225.364 70.7913 225.241C70.9251 225.115 71.0848 225.053 71.2704 225.053C71.4581 225.053 71.6178 225.115 71.7494 225.241C71.8832 225.364 71.9501 225.514 71.9501 225.69C71.9501 225.865 71.8832 226.015 71.7494 226.14C71.6178 226.263 71.4581 226.325 71.2704 226.325ZM75.1261 232.099C74.6298 232.099 74.2037 231.99 73.8476 231.772C73.4938 231.554 73.2208 231.253 73.0288 230.869C72.8389 230.483 72.7439 230.038 72.7439 229.536C72.7439 229.031 72.841 228.585 73.0352 228.199C73.2294 227.81 73.5035 227.508 73.8573 227.293C74.2134 227.075 74.6341 226.966 75.1196 226.966C75.5231 226.966 75.8803 227.04 76.191 227.189C76.5038 227.336 76.7531 227.544 76.9386 227.814C77.1242 228.081 77.2299 228.394 77.2558 228.752H76.1359C76.0906 228.513 75.9827 228.313 75.8123 228.154C75.644 227.992 75.4185 227.911 75.1358 227.911C74.8963 227.911 74.6859 227.976 74.5047 228.105C74.3234 228.232 74.1821 228.416 74.0807 228.655C73.9814 228.895 73.9318 229.182 73.9318 229.516C73.9318 229.855 73.9814 230.146 74.0807 230.39C74.1799 230.632 74.3191 230.818 74.4982 230.95C74.6795 231.08 74.892 231.144 75.1358 231.144C75.3084 231.144 75.4627 231.112 75.5987 231.047C75.7368 230.98 75.8522 230.884 75.945 230.759C76.0378 230.634 76.1014 230.482 76.1359 230.303H77.2558C77.2278 230.654 77.1242 230.966 76.9451 231.238C76.766 231.508 76.5222 231.719 76.2136 231.872C75.9051 232.024 75.5426 232.099 75.1261 232.099ZM78.1177 232.002V227.03H79.2893V232.002H78.1177ZM78.7067 226.325C78.5212 226.325 78.3615 226.263 78.2277 226.14C78.0939 226.015 78.027 225.865 78.027 225.69C78.027 225.514 78.0939 225.364 78.2277 225.241C78.3615 225.115 78.5212 225.053 78.7067 225.053C78.8945 225.053 79.0541 225.115 79.1858 225.241C79.3195 225.364 79.3864 225.514 79.3864 225.69C79.3864 225.865 79.3195 226.015 79.1858 226.14C79.0541 226.263 78.8945 226.325 78.7067 226.325ZM81.8245 232.102C81.5095 232.102 81.2257 232.046 80.9733 231.934C80.723 231.82 80.5245 231.651 80.3777 231.429C80.2332 231.207 80.1609 230.933 80.1609 230.607C80.1609 230.326 80.2127 230.094 80.3162 229.911C80.4198 229.728 80.5612 229.581 80.7402 229.471C80.9193 229.361 81.1211 229.278 81.3455 229.222C81.5721 229.163 81.8062 229.121 82.0479 229.095C82.3392 229.065 82.5754 229.038 82.7567 229.015C82.9379 228.989 83.0696 228.95 83.1516 228.898C83.2357 228.844 83.2778 228.761 83.2778 228.649V228.629C83.2778 228.386 83.2055 228.197 83.0609 228.063C82.9164 227.929 82.7081 227.862 82.4363 227.862C82.1493 227.862 81.9216 227.925 81.7533 228.05C81.5872 228.175 81.475 228.323 81.4167 228.493L80.3227 228.338C80.409 228.036 80.5514 227.784 80.75 227.581C80.9485 227.376 81.1912 227.222 81.4782 227.121C81.7652 227.018 82.0824 226.966 82.4298 226.966C82.6693 226.966 82.9077 226.994 83.1451 227.05C83.3824 227.106 83.5993 227.199 83.7957 227.328C83.992 227.456 84.1495 227.629 84.2682 227.849C84.389 228.069 84.4495 228.345 84.4495 228.675V232.002H83.3231V231.319H83.2843C83.2131 231.457 83.1127 231.587 82.9832 231.707C82.8559 231.826 82.6952 231.922 82.501 231.995C82.3089 232.067 82.0835 232.102 81.8245 232.102ZM82.1288 231.241C82.364 231.241 82.5679 231.195 82.7405 231.102C82.9131 231.007 83.0458 230.882 83.1386 230.727C83.2336 230.571 83.281 230.402 83.281 230.219V229.633C83.2443 229.663 83.1818 229.691 83.0933 229.717C83.007 229.743 82.9099 229.765 82.802 229.785C82.6941 229.804 82.5873 229.822 82.4816 229.837C82.3758 229.852 82.2841 229.865 82.2065 229.875C82.0317 229.899 81.8752 229.938 81.7371 229.992C81.599 230.046 81.4901 230.121 81.4102 230.219C81.3304 230.313 81.2905 230.436 81.2905 230.588C81.2905 230.803 81.3692 230.966 81.5268 231.076C81.6843 231.186 81.8849 231.241 82.1288 231.241ZM85.5273 232.002V227.03H86.6634V227.859H86.7152C86.8058 227.572 86.9612 227.351 87.1813 227.196C87.4035 227.038 87.6571 226.959 87.9419 226.959C88.0066 226.959 88.0789 226.962 88.1587 226.969C88.2407 226.973 88.3087 226.981 88.3627 226.992V228.069C88.313 228.052 88.2343 228.037 88.1264 228.024C88.0206 228.009 87.9182 228.001 87.8189 228.001C87.6053 228.001 87.4132 228.048 87.2428 228.141C87.0745 228.231 86.9418 228.357 86.8447 228.519C86.7476 228.681 86.699 228.868 86.699 229.079V232.002H85.5273ZM89.0408 232.002V227.03H90.2125V232.002H89.0408ZM89.6299 226.325C89.4443 226.325 89.2846 226.263 89.1509 226.14C89.0171 226.015 88.9502 225.865 88.9502 225.69C88.9502 225.514 89.0171 225.364 89.1509 225.241C89.2846 225.115 89.4443 225.053 89.6299 225.053C89.8176 225.053 89.9773 225.115 90.1089 225.241C90.2427 225.364 90.3096 225.514 90.3096 225.69C90.3096 225.865 90.2427 226.015 90.1089 226.14C89.9773 226.263 89.8176 226.325 89.6299 226.325ZM93.518 232.099C93.0196 232.099 92.5891 231.995 92.2266 231.788C91.8662 231.579 91.5889 231.283 91.3947 230.901C91.2005 230.517 91.1034 230.065 91.1034 229.545C91.1034 229.034 91.2005 228.585 91.3947 228.199C91.5911 227.81 91.8651 227.508 92.2169 227.293C92.5686 227.075 92.9818 226.966 93.4565 226.966C93.7629 226.966 94.052 227.015 94.3239 227.115C94.598 227.212 94.8396 227.363 95.0489 227.568C95.2604 227.773 95.4265 228.034 95.5474 228.351C95.6682 228.666 95.7286 229.041 95.7286 229.477V229.837H91.6537V229.047H94.6055C94.6034 228.822 94.5548 228.623 94.4599 228.448C94.3649 228.271 94.2322 228.132 94.0618 228.031C93.8934 227.929 93.6971 227.878 93.4727 227.878C93.2332 227.878 93.0228 227.937 92.8415 228.053C92.6603 228.168 92.5189 228.319 92.4175 228.506C92.3183 228.692 92.2676 228.896 92.2654 229.118V229.807C92.2654 230.097 92.3183 230.345 92.424 230.552C92.5297 230.757 92.6775 230.914 92.8674 231.024C93.0573 231.132 93.2796 231.186 93.5342 231.186C93.7046 231.186 93.8589 231.163 93.997 231.115C94.1351 231.065 94.2549 230.993 94.3563 230.898C94.4577 230.803 94.5343 230.686 94.5861 230.545L95.6801 230.668C95.611 230.958 95.4794 231.21 95.2852 231.426C95.0932 231.639 94.8472 231.806 94.5473 231.924C94.2473 232.041 93.9042 232.099 93.518 232.099ZM100.549 228.345L99.4808 228.461C99.4506 228.353 99.3977 228.252 99.3222 228.157C99.2488 228.062 99.1496 227.985 99.0244 227.927C98.8993 227.869 98.7461 227.84 98.5648 227.84C98.321 227.84 98.116 227.892 97.9499 227.998C97.7859 228.104 97.705 228.241 97.7071 228.409C97.705 228.554 97.7578 228.671 97.8657 228.762C97.9758 228.853 98.157 228.927 98.4095 228.985L99.2575 229.167C99.7279 229.268 100.077 229.429 100.306 229.649C100.537 229.869 100.654 230.157 100.656 230.513C100.654 230.826 100.562 231.102 100.381 231.342C100.202 231.579 99.9523 231.765 99.6329 231.898C99.3136 232.032 98.9468 232.099 98.5325 232.099C97.924 232.099 97.4342 231.972 97.063 231.717C96.6919 231.46 96.4707 231.103 96.3995 230.646L97.542 230.536C97.5938 230.76 97.7039 230.93 97.8722 231.044C98.0405 231.158 98.2595 231.215 98.5292 231.215C98.8076 231.215 99.0309 231.158 99.1992 231.044C99.3697 230.93 99.4549 230.788 99.4549 230.62C99.4549 230.477 99.3999 230.36 99.2898 230.267C99.182 230.174 99.0136 230.103 98.7849 230.053L97.9369 229.875C97.4601 229.776 97.1073 229.609 96.8785 229.374C96.6498 229.136 96.5365 228.837 96.5387 228.474C96.5365 228.168 96.6196 227.902 96.7879 227.678C96.9584 227.451 97.1946 227.276 97.4967 227.153C97.801 227.028 98.1516 226.966 98.5486 226.966C99.1312 226.966 99.5898 227.09 99.9242 227.338C100.261 227.586 100.469 227.922 100.549 228.345Z" fill="#0E121B"/>
<path d="M50.2495 248.924H49.3659C49.3319 248.735 49.2687 248.569 49.1761 248.426C49.0836 248.282 48.9703 248.16 48.8363 248.06C48.7022 247.96 48.5521 247.885 48.386 247.834C48.2217 247.783 48.0471 247.757 47.8621 247.757C47.5279 247.757 47.2286 247.841 46.9643 248.009C46.7019 248.177 46.4942 248.424 46.3412 248.748C46.1902 249.073 46.1147 249.47 46.1147 249.938C46.1147 250.41 46.1902 250.808 46.3412 251.133C46.4942 251.458 46.7028 251.703 46.9671 251.869C47.2315 252.035 47.5288 252.119 47.8592 252.119C48.0424 252.119 48.2161 252.094 48.3803 252.045C48.5465 251.994 48.6966 251.919 48.8306 251.821C48.9647 251.723 49.078 251.603 49.1705 251.462C49.2649 251.318 49.33 251.154 49.3659 250.969L50.2495 250.972C50.2023 251.257 50.1107 251.519 49.9748 251.759C49.8407 251.997 49.668 252.203 49.4565 252.376C49.2469 252.548 49.0072 252.681 48.7372 252.776C48.4672 252.87 48.1726 252.917 47.8536 252.917C47.3513 252.917 46.9039 252.798 46.5112 252.56C46.1184 252.321 45.8088 251.978 45.5822 251.532C45.3576 251.087 45.2452 250.555 45.2452 249.938C45.2452 249.319 45.3585 248.787 45.5851 248.343C45.8116 247.898 46.1213 247.556 46.514 247.318C46.9067 247.078 47.3532 246.959 47.8536 246.959C48.1613 246.959 48.4483 247.003 48.7145 247.092C48.9826 247.178 49.2233 247.307 49.4367 247.477C49.65 247.645 49.8266 247.851 49.9663 248.094C50.106 248.336 50.2004 248.612 50.2495 248.924Z" fill="#99A0AE"/>
</g>
<path d="M89.4043 19.7627H210.951C220.357 19.7627 227.402 19.763 232.992 20.2197C238.58 20.6763 242.701 21.5882 246.264 23.4033C252.549 26.6059 257.66 31.7166 260.862 38.002C262.677 41.5645 263.589 45.6853 264.046 51.2734C264.503 56.864 264.503 63.9086 264.503 73.3145V463.737C264.503 473.143 264.503 480.187 264.046 485.777C263.589 491.366 262.678 495.487 260.862 499.05C257.66 505.335 252.549 510.445 246.264 513.647C242.701 515.463 238.581 516.375 232.992 516.832C227.402 517.289 220.357 517.289 210.951 517.289H89.4043C79.9984 517.289 72.9539 517.289 67.3633 516.832C61.775 516.375 57.6544 515.463 54.0918 513.647C47.8064 510.445 42.6957 505.335 39.4932 499.05C37.6779 495.487 36.7662 491.366 36.3096 485.777C35.8528 480.187 35.8525 473.143 35.8525 463.737V73.3145C35.8525 63.9086 35.8528 56.864 36.3096 51.2734C36.7662 45.6853 37.678 41.5645 39.4932 38.002C42.6957 31.7166 47.8064 26.6059 54.0918 23.4033C57.6543 21.5882 61.7751 20.6763 67.3633 20.2197C72.9539 19.763 79.9984 19.7627 89.4043 19.7627Z" stroke="#E1E4EA" stroke-width="0.349781"/>
</g>
<defs>
<filter id="filter0_d_7212_22025" x="7.67708e-05" y="0.000154972" width="300.355" height="569.231" filterUnits="userSpaceOnUse" color-interpolation-filters="sRGB">
<feFlood flood-opacity="0" result="BackgroundImageFix"/>
<feColorMatrix in="SourceAlpha" type="matrix" values="0 0 0 0 0 0 0 0 0 0 0 0 0 0 0 0 0 0 127 0" result="hardAlpha"/>
<feMorphology radius="1.39912" operator="dilate" in="SourceAlpha" result="effect1_dropShadow_7212_22025"/>
<feOffset dy="16.0899"/>
<feGaussianBlur stdDeviation="17.1393"/>
<feComposite in2="hardAlpha" operator="out"/>
<feColorMatrix type="matrix" values="0 0 0 0 0 0 0 0 0 0 0 0 0 0 0 0 0 0 0.05 0"/>
<feBlend mode="normal" in2="BackgroundImageFix" result="effect1_dropShadow_7212_22025"/>
<feBlend mode="normal" in="SourceGraphic" in2="effect1_dropShadow_7212_22025" result="shape"/>
</filter>
<filter id="filter1_d_7212_22025" x="43.6556" y="102.796" width="213.618" height="25.6712" filterUnits="userSpaceOnUse" color-interpolation-filters="sRGB">
<feFlood flood-opacity="0" result="BackgroundImageFix"/>
<feColorMatrix in="SourceAlpha" type="matrix" values="0 0 0 0 0 0 0 0 0 0 0 0 0 0 0 0 0 0 127 0" result="hardAlpha"/>
<feOffset dy="0.569652"/>
<feGaussianBlur stdDeviation="0.569652"/>
<feComposite in2="hardAlpha" operator="out"/>
<feColorMatrix type="matrix" values="0 0 0 0 0.0392157 0 0 0 0 0.0509804 0 0 0 0 0.0784314 0 0 0 0.03 0"/>
<feBlend mode="normal" in2="BackgroundImageFix" result="effect1_dropShadow_7212_22025"/>
<feBlend mode="normal" in="SourceGraphic" in2="effect1_dropShadow_7212_22025" result="shape"/>
</filter>
<filter id="filter2_d_7212_22025" x="43.6556" y="149.582" width="213.618" height="25.6712" filterUnits="userSpaceOnUse" color-interpolation-filters="sRGB">
<feFlood flood-opacity="0" result="BackgroundImageFix"/>
<feColorMatrix in="SourceAlpha" type="matrix" values="0 0 0 0 0 0 0 0 0 0 0 0 0 0 0 0 0 0 127 0" result="hardAlpha"/>
<feOffset dy="0.569652"/>
<feGaussianBlur stdDeviation="0.569652"/>
<feComposite in2="hardAlpha" operator="out"/>
<feColorMatrix type="matrix" values="0 0 0 0 0.0392157 0 0 0 0 0.0509804 0 0 0 0 0.0784314 0 0 0 0.03 0"/>
<feBlend mode="normal" in2="BackgroundImageFix" result="effect1_dropShadow_7212_22025"/>
<feBlend mode="normal" in="SourceGraphic" in2="effect1_dropShadow_7212_22025" result="shape"/>
</filter>
<clipPath id="clip0_7212_22025">
<path d="M35.6777 73.3142C35.6777 54.5082 35.6777 45.1053 39.3376 37.9223C42.557 31.604 47.6939 26.4671 54.0122 23.2478C61.1951 19.5879 70.5981 19.5879 89.4041 19.5879H210.951C229.757 19.5879 239.16 19.5879 246.343 23.2478C252.662 26.4671 257.799 31.604 261.018 37.9223C264.678 45.1053 264.678 54.5083 264.678 73.3142V463.737C264.678 482.543 264.678 491.946 261.018 499.129C257.799 505.447 252.662 510.584 246.343 513.804C239.16 517.464 229.757 517.464 210.951 517.464H89.4041C70.5981 517.464 61.1951 517.464 54.0122 513.804C47.6939 510.584 42.557 505.447 39.3376 499.129C35.6777 491.946 35.6777 482.543 35.6777 463.737V73.3142Z" fill="white"/>
</clipPath>
</defs>
</svg>
