<svg width="281" height="261" viewBox="0 0 281 261" fill="none" xmlns="http://www.w3.org/2000/svg">
<rect x="45.3711" width="240.205" height="214.633" rx="20.6628" transform="rotate(12.2036 45.3711 0)" fill="white"/>
<rect x="45.3711" width="240.205" height="214.633" rx="20.6628" transform="rotate(12.2036 45.3711 0)" stroke="#E1E4EA" stroke-width="0.430474"/>
<path d="M54.8239 30.4622L53.5515 30.187L55.2586 22.2938L59.1227 23.1295C60.8781 23.5091 61.8632 24.7704 61.4835 26.5258C61.1065 28.2693 59.6857 29.0226 57.9303 28.643L55.3385 28.0824L54.8239 30.4622ZM58.7578 24.2468L56.2838 23.7117L55.5857 26.9397L58.0597 27.4747C59.2495 27.7321 59.959 27.4169 60.2112 26.2506C60.4634 25.0843 59.9477 24.5041 58.7578 24.2468ZM65.2781 32.8465C62.8041 32.3114 61.5131 30.3551 62.0456 27.8929C62.5781 25.4306 64.5622 24.1826 67.0362 24.7177C69.5337 25.2578 70.813 27.2116 70.2805 29.6738C69.748 32.136 67.7757 33.3866 65.2781 32.8465ZM65.5431 31.6213C67.4163 32.0264 68.5119 31.3508 68.9374 29.3834C69.3629 27.416 68.6469 26.3362 66.7737 25.9311C64.9006 25.526 63.8141 26.2159 63.3886 28.1833C62.9631 30.1507 63.6699 31.2162 65.5431 31.6213ZM74.1957 34.6518L72.3225 34.2467L71.9444 25.9025L73.3581 26.2082L73.5619 31.4811L73.5536 33.2304L73.6478 33.2508L74.4337 31.6696L77.1044 27.0185L78.954 27.4185L79.5702 32.7805L79.6561 34.5502L79.7503 34.5706L80.442 32.969L82.7004 28.2287L84.0905 28.5294L80.4042 35.9945L78.5311 35.5894L77.9343 30.6509L77.7953 28.4997L77.6893 28.4768L76.6856 30.3808L74.1957 34.6518ZM89.7417 38.014L83.4271 36.6483L85.1342 28.7551L91.4488 30.1208L91.2017 31.2635L86.1594 30.173L85.6804 32.3878L90.5459 33.4401L90.3013 34.5711L85.4358 33.5188L84.9466 35.7807L89.9889 36.8712L89.7417 38.014ZM92.2995 38.5672L91.0272 38.292L92.7343 30.3988L96.8341 31.2855C98.6247 31.6727 99.5487 32.7605 99.2302 34.2331C98.9474 35.5408 97.9141 36.1559 96.4119 35.9173L96.3941 35.9998C96.971 36.2972 97.1773 36.7118 97.353 37.2677L98.1782 39.8386L96.7174 39.5226L95.9282 37.0705C95.7098 36.3697 95.4006 36.0315 94.4111 35.8175L92.962 35.5041L92.2995 38.5672ZM93.7595 31.8167L93.1735 34.5263L95.9891 35.1353C97.0494 35.3646 97.6585 35.114 97.8725 34.1244C98.0815 33.1584 97.6354 32.655 96.5751 32.4257L93.7595 31.8167ZM105.36 41.5151C102.91 40.9851 101.63 39.0313 102.163 36.5691C102.695 34.1069 104.668 32.8563 107.118 33.3863C109.345 33.8678 110.645 35.3822 110.237 37.2672L110.202 37.4321L108.8 37.1289L108.835 36.964C109.095 35.7623 108.47 34.9488 106.867 34.6023C105.018 34.2022 103.931 34.8922 103.506 36.8596C103.08 38.827 103.787 39.8924 105.637 40.2924C107.239 40.639 108.142 40.1684 108.405 38.955L108.438 38.8018L109.84 39.105L109.807 39.2582C109.396 41.1549 107.598 41.9992 105.36 41.5151ZM114.249 43.4377C111.775 42.9026 110.484 40.9462 111.017 38.484C111.549 36.0218 113.533 34.7738 116.007 35.3088C118.505 35.849 119.784 37.8028 119.252 40.265C118.719 42.7272 116.747 43.9778 114.249 43.4377ZM114.514 42.2124C116.388 42.6176 117.483 41.942 117.909 39.9745C118.334 38.0071 117.618 36.9274 115.745 36.5223C113.872 36.1171 112.785 36.8071 112.36 38.7745C111.934 40.7419 112.641 41.8073 114.514 42.2124ZM120.905 44.7538L119.633 44.4786L121.34 36.5854L122.706 36.8809L125.242 42.2634L125.948 43.9577L126.043 43.9781L126.292 42.5399L127.301 37.8746L128.573 38.1498L126.866 46.043L125.5 45.7474L122.938 40.3717L122.249 38.7675L122.155 38.7471L121.906 40.1239L120.905 44.7538ZM131.622 47.1949C129.266 46.6853 128.289 45.3887 128.648 43.7276L128.663 43.6569L129.935 43.9321L129.895 44.1206C129.691 45.0631 130.143 45.6541 131.874 46.0286C133.382 46.3547 133.984 46.1395 134.144 45.3973C134.292 44.714 133.948 44.3682 132.987 43.9632L131.124 43.2272C129.843 42.7037 129.034 41.8873 129.314 40.5914C129.561 39.4486 130.753 38.4979 133.204 39.0279C135.513 39.5273 136.311 40.9086 135.978 42.4519L135.962 42.5225L134.702 42.2499L134.735 42.0968C134.944 41.1307 134.471 40.5229 132.833 40.1687C131.396 39.8579 130.754 40.089 130.601 40.7958C130.454 41.4791 130.806 41.7896 131.693 42.1912L133.542 42.9363C135.06 43.5605 135.682 44.4473 135.432 45.6018C135.172 46.8035 133.955 47.6994 131.622 47.1949ZM139.782 48.9598C137.426 48.4502 136.353 46.911 136.817 44.7668L137.816 40.1487L139.076 40.4213L138.095 44.957C137.752 46.5474 138.316 47.36 140.047 47.7346C141.779 48.1091 142.629 47.6022 142.973 46.0118L143.954 41.4762L145.226 41.7513L144.227 46.3695C143.764 48.5136 142.15 49.4719 139.782 48.9598ZM146.213 50.2273L144.941 49.9521L146.648 42.0589L148.38 42.4334L149.665 47.4962L150.029 49.2891L150.124 49.3095L151.173 47.8223L154.412 43.7379L156.143 44.1125L154.436 52.0057L153.164 51.7305L154.211 46.8886L154.505 45.756L154.411 45.7356L153.681 46.7739L150.556 50.6733L149.025 50.342L147.791 45.5L147.555 44.2528L147.46 44.2324L147.26 45.3853L146.213 50.2273ZM157.184 52.6L155.912 52.3248L157.619 44.4316L161.483 45.2673C163.238 45.647 164.224 46.9082 163.844 48.6636C163.467 50.4071 162.046 51.1604 160.291 50.7808L157.699 50.2202L157.184 52.6ZM161.118 46.3846L158.644 45.8495L157.946 49.0775L160.42 49.6126C161.61 49.8699 162.319 49.5547 162.572 48.3884C162.824 47.2221 162.308 46.6419 161.118 46.3846ZM167.711 54.8767L166.451 54.604L167.911 47.8536L164.8 47.1809L165.047 46.0382L172.517 47.6536L172.269 48.7963L169.171 48.1262L167.711 54.8767ZM173.121 56.0466L171.848 55.7714L173.555 47.8782L174.828 48.1534L173.121 56.0466ZM178.444 57.3212C175.97 56.7861 174.679 54.8298 175.211 52.3676C175.744 49.9053 177.728 48.6573 180.202 49.1924C182.699 49.7325 183.979 51.6863 183.446 54.1485C182.914 56.6107 180.941 57.8613 178.444 57.3212ZM178.709 56.096C180.582 56.5011 181.678 55.8255 182.103 53.8581C182.529 51.8907 181.813 50.8109 179.939 50.4058C178.066 50.0007 176.98 50.6906 176.554 52.658C176.129 54.6254 176.836 55.6909 178.709 56.096ZM185.099 58.6373L183.827 58.3621L185.534 50.4689L186.901 50.7645L189.436 56.147L190.143 57.8412L190.237 57.8616L190.486 56.4234L191.495 51.7582L192.768 52.0333L191.061 59.9265L189.694 59.631L187.132 54.2552L186.443 52.651L186.349 52.6306L186.101 54.0074L185.099 58.6373Z" fill="#0E121B"/>
<g clip-path="url(#clip0_7343_51138)">
<rect x="53.0078" y="58.3721" width="10.3314" height="106.758" rx="5.16569" transform="rotate(12.2036 53.0078 58.3721)" fill="#F2F5F8"/>
<rect x="38.8125" y="124.008" width="10.3314" height="39.6036" rx="5.16569" transform="rotate(12.2036 38.8125 124.008)" fill="#47C2FF"/>
</g>
<g clip-path="url(#clip1_7343_51138)">
<rect x="84.1445" y="65.1055" width="10.3314" height="106.758" rx="5.16569" transform="rotate(12.2036 84.1445 65.1055)" fill="#F2F5F8"/>
<rect x="77.1484" y="98.8252" width="10.3314" height="72.3196" rx="5.16569" transform="rotate(12.2036 77.1484 98.8252)" fill="#47C2FF"/>
</g>
<g clip-path="url(#clip2_7343_51138)">
<rect x="115.277" y="71.8398" width="10.3314" height="106.758" rx="5.16569" transform="rotate(12.2036 115.277 71.8398)" fill="#F2F5F8"/>
<rect x="103.711" y="123.95" width="10.3314" height="53.3788" rx="5.16569" transform="rotate(12.2036 103.711 123.95)" fill="#47C2FF"/>
</g>
<g clip-path="url(#clip3_7343_51138)">
<rect x="146.41" y="78.5713" width="10.3314" height="106.758" rx="5.16569" transform="rotate(12.2036 146.41 78.5713)" fill="#F2F5F8"/>
<rect x="143.5" y="92.0352" width="10.3314" height="92.9824" rx="5.16569" transform="rotate(12.2036 143.5 92.0352)" fill="#47C2FF"/>
</g>
<g clip-path="url(#clip4_7343_51138)">
<rect x="177.547" y="85.3047" width="10.3314" height="106.758" rx="5.16569" transform="rotate(12.2036 177.547 85.3047)" fill="#F2F5F8"/>
<rect x="161.445" y="161.1" width="10.3314" height="29.2722" rx="5.16569" transform="rotate(12.2036 161.445 161.1)" fill="#47C2FF"/>
</g>
<g clip-path="url(#clip5_7343_51138)">
<rect x="208.684" y="92.0391" width="10.3314" height="106.758" rx="5.16569" transform="rotate(12.2036 208.684 92.0391)" fill="#F2F5F8"/>
<rect x="198.211" y="139.102" width="10.3314" height="58.5445" rx="5.16569" transform="rotate(12.2036 198.211 139.102)" fill="#47C2FF"/>
</g>
<g clip-path="url(#clip6_7343_51138)">
<rect x="239.816" y="98.7725" width="10.3314" height="106.758" rx="5.16569" transform="rotate(12.2036 239.816 98.7725)" fill="#F2F5F8"/>
<rect x="232.539" y="132.433" width="10.3314" height="72.3196" rx="5.16569" transform="rotate(12.2036 232.539 132.433)" fill="#47C2FF"/>
</g>
<path d="M22.3672 171.54L230.216 216.492" stroke="#F2F5F8" stroke-width="0.430474" stroke-linecap="round"/>
<path d="M24.7459 189.198C24.7874 188.764 24.6549 188.391 24.3486 188.079C24.0423 187.768 23.6297 187.556 23.111 187.443C22.7317 187.361 22.3865 187.351 22.0755 187.412C21.7673 187.474 21.5104 187.595 21.305 187.775C21.1024 187.956 20.9715 188.184 20.9124 188.457C20.8629 188.686 20.8748 188.894 20.948 189.082C21.0245 189.268 21.1375 189.434 21.2869 189.58C21.4369 189.724 21.5992 189.851 21.7738 189.961C21.949 190.069 22.1115 190.161 22.2614 190.238L23.081 190.66C23.2914 190.767 23.5221 190.902 23.7732 191.064C24.027 191.227 24.2601 191.425 24.4725 191.657C24.6883 191.888 24.8486 192.159 24.9534 192.471C25.0583 192.783 25.0672 193.139 24.9804 193.541C24.8803 194.004 24.6685 194.396 24.345 194.717C24.0243 195.039 23.6086 195.26 23.098 195.38C22.5902 195.501 22.0071 195.49 21.3489 195.348C20.7353 195.215 20.2254 195.001 19.8192 194.706C19.4158 194.412 19.1241 194.06 18.9441 193.65C18.7669 193.241 18.7123 192.798 18.7801 192.322L19.8511 192.554C19.809 192.884 19.8599 193.175 20.0037 193.428C20.1509 193.679 20.3598 193.887 20.6303 194.054C20.9042 194.218 21.2113 194.337 21.5516 194.411C21.9476 194.496 22.3171 194.509 22.66 194.449C23.0035 194.386 23.2924 194.259 23.5265 194.067C23.7612 193.873 23.9124 193.619 23.98 193.307C24.0415 193.022 24.0121 192.774 23.8917 192.561C23.7713 192.348 23.5935 192.158 23.3582 191.99C23.123 191.822 22.8638 191.664 22.5807 191.515L21.5916 190.986C20.9638 190.649 20.4933 190.26 20.1801 189.818C19.8668 189.377 19.7726 188.867 19.8975 188.29C20.0012 187.81 20.2214 187.42 20.558 187.119C20.898 186.816 21.3097 186.613 21.7932 186.51C22.2801 186.405 22.7969 186.412 23.3435 186.53C23.8957 186.65 24.3652 186.855 24.7519 187.146C25.1392 187.434 25.4215 187.775 25.5989 188.17C25.7792 188.565 25.8295 188.98 25.7499 189.416L24.7459 189.198ZM30.5965 194.44L31.4181 190.641L32.4054 190.855L31.0156 197.281L30.0283 197.067L30.2635 195.98L30.1966 195.965C29.9754 196.259 29.6811 196.486 29.3137 196.646C28.9469 196.803 28.5209 196.829 28.0356 196.724C27.6339 196.637 27.2959 196.472 27.0216 196.229C26.7478 195.983 26.5603 195.662 26.459 195.266C26.3583 194.868 26.3671 194.395 26.4853 193.849L27.3684 189.766L28.3557 189.979L27.4871 193.995C27.3858 194.464 27.436 194.866 27.6379 195.202C27.8425 195.538 28.1498 195.75 28.5598 195.839C28.8052 195.892 29.0684 195.883 29.3494 195.813C29.6331 195.743 29.8895 195.597 30.1185 195.375C30.3503 195.153 30.5096 194.842 30.5965 194.44ZM34.5766 194.005L33.7406 197.87L32.7533 197.657L34.143 191.231L35.0969 191.437L34.8797 192.441L34.9634 192.459C35.1846 192.165 35.47 191.953 35.8196 191.821C36.1698 191.687 36.5876 191.672 37.0729 191.777C37.508 191.871 37.8694 192.043 38.1571 192.292C38.4454 192.538 38.6413 192.861 38.7448 193.26C38.8489 193.656 38.8418 194.127 38.7236 194.674L37.8405 198.757L36.8532 198.543L37.7218 194.527C37.8309 194.022 37.7849 193.601 37.5837 193.262C37.383 192.921 37.054 192.701 36.5966 192.602C36.2814 192.534 35.985 192.541 35.7072 192.624C35.4322 192.708 35.1952 192.866 34.9963 193.097C34.7973 193.328 34.6574 193.631 34.5766 194.005Z" fill="#717784"/>
<path d="M52.0151 192.853L53.2534 193.121L54.627 200.863L54.7274 200.885L59.1773 194.402L60.4157 194.67L58.5626 203.238L57.5921 203.028L58.9999 196.518L58.9162 196.5L54.8309 202.431L53.8938 202.228L52.6242 195.14L52.5405 195.121L51.1326 201.631L50.1621 201.421L52.0151 192.853ZM63.0199 204.342C62.4398 204.217 61.9607 203.969 61.5825 203.598C61.2071 203.228 60.9504 202.768 60.8124 202.218C60.6771 201.669 60.6812 201.063 60.8248 200.399C60.9695 199.73 61.2172 199.172 61.5679 198.725C61.9213 198.279 62.3454 197.965 62.8402 197.783C63.3378 197.601 63.8766 197.573 64.4568 197.699C65.0369 197.824 65.5146 198.072 65.89 198.442C66.2682 198.813 66.5246 199.274 66.6592 199.826C66.7967 200.378 66.7931 200.989 66.6483 201.659C66.5047 202.322 66.2566 202.876 65.9037 203.319C65.5537 203.763 65.1299 204.076 64.6323 204.257C64.1375 204.439 63.6001 204.468 63.0199 204.342ZM63.2118 203.455C63.6524 203.551 64.0394 203.516 64.3728 203.352C64.7061 203.187 64.9809 202.936 65.1972 202.597C65.4135 202.259 65.5681 201.874 65.661 201.445C65.7539 201.015 65.7721 200.6 65.7157 200.2C65.6592 199.799 65.5135 199.454 65.2785 199.164C65.0434 198.874 64.7056 198.681 64.2649 198.586C63.8243 198.49 63.437 198.526 63.103 198.693C62.7691 198.861 62.4937 199.115 62.2768 199.456C62.0599 199.798 61.905 200.183 61.8121 200.613C61.7192 201.042 61.7013 201.456 61.7583 201.853C61.8154 202.251 61.9617 202.594 62.1973 202.881C62.4329 203.169 62.7711 203.36 63.2118 203.455ZM69.2204 201.497L68.3844 205.362L67.3971 205.149L68.7869 198.723L69.7407 198.929L69.5236 199.933L69.6072 199.951C69.8284 199.657 70.1138 199.445 70.4634 199.313C70.8137 199.179 71.2314 199.164 71.7167 199.269C72.1518 199.363 72.5132 199.534 72.8009 199.784C73.0892 200.03 73.2851 200.352 73.3886 200.751C73.4927 201.148 73.4856 201.619 73.3674 202.166L72.4843 206.249L71.497 206.035L72.3656 202.019C72.4748 201.514 72.4287 201.093 72.2275 200.754C72.0268 200.413 71.6978 200.193 71.2404 200.094C70.9252 200.026 70.6288 200.033 70.351 200.116C70.076 200.2 69.839 200.357 69.6401 200.589C69.4412 200.82 69.3013 201.123 69.2204 201.497Z" fill="#717784"/>
<path d="M85.9315 201.152L86.1305 200.232L92.5565 201.622L92.3574 202.542L89.6632 201.96L88.0093 209.607L86.9717 209.383L88.6257 201.735L85.9315 201.152ZM95.8437 208.551L96.6653 204.753L97.6526 204.966L96.2628 211.392L95.2755 211.179L95.5107 210.091L95.4438 210.076C95.2226 210.37 94.9283 210.597 94.5609 210.757C94.1941 210.914 93.768 210.94 93.2828 210.835C92.8811 210.748 92.5431 210.583 92.2688 210.34C91.995 210.094 91.8075 209.773 91.7062 209.378C91.6055 208.979 91.6143 208.507 91.7325 207.96L92.6156 203.877L93.6029 204.09L92.7343 208.107C92.6329 208.575 92.6832 208.977 92.8851 209.313C93.0897 209.649 93.397 209.861 93.807 209.95C94.0524 210.003 94.3156 209.994 94.5966 209.924C94.8803 209.854 95.1367 209.708 95.3657 209.486C95.5975 209.264 95.7568 208.953 95.8437 208.551ZM100.666 212.484C100.047 212.351 99.542 212.098 99.1521 211.728C98.7656 211.355 98.5044 210.896 98.3685 210.35C98.236 209.802 98.2409 209.198 98.3833 208.54C98.5256 207.882 98.771 207.328 99.1195 206.877C99.4713 206.425 99.8938 206.105 100.387 205.917C100.884 205.726 101.422 205.694 102.002 205.819C102.337 205.892 102.655 206.019 102.957 206.201C103.26 206.383 103.517 206.629 103.731 206.938C103.945 207.244 104.087 207.619 104.157 208.063C104.228 208.508 104.198 209.03 104.068 209.629L103.978 210.048L99.0246 208.977L99.2092 208.123L103.158 208.977C103.237 208.615 103.234 208.275 103.151 207.96C103.07 207.644 102.915 207.376 102.686 207.154C102.459 206.933 102.167 206.783 101.81 206.706C101.417 206.621 101.056 206.645 100.726 206.778C100.4 206.909 100.127 207.113 99.9065 207.389C99.6862 207.666 99.5377 207.981 99.4611 208.335L99.338 208.904C99.2331 209.389 99.2278 209.819 99.3221 210.193C99.4199 210.564 99.6004 210.87 99.8636 211.111C100.127 211.349 100.459 211.511 100.858 211.598C101.117 211.654 101.359 211.668 101.584 211.641C101.812 211.611 102.019 211.539 102.204 211.425C102.39 211.307 102.549 211.146 102.681 210.941L103.577 211.415C103.407 211.717 103.176 211.965 102.886 212.159C102.597 212.35 102.263 212.477 101.885 212.538C101.507 212.596 101.101 212.579 100.666 212.484Z" fill="#717784"/>
<path d="M117.185 215.917L116.695 206.842L117.749 207.07L118.031 214.436L118.114 214.454L121.448 207.87L122.619 208.123L122.934 215.496L123.018 215.514L126.317 208.923L127.372 209.151L123.176 217.212L122.105 216.981L121.69 209.744L121.624 209.73L118.256 216.148L117.185 215.917ZM128.674 218.542C128.055 218.408 127.55 218.155 127.16 217.785C126.774 217.412 126.512 216.953 126.377 216.407C126.244 215.859 126.249 215.255 126.391 214.597C126.534 213.939 126.779 213.385 127.128 212.935C127.479 212.482 127.902 212.162 128.395 211.974C128.892 211.783 129.43 211.751 130.01 211.876C130.345 211.949 130.663 212.076 130.965 212.258C131.268 212.44 131.526 212.686 131.739 212.995C131.953 213.301 132.095 213.676 132.166 214.12C132.236 214.565 132.206 215.087 132.076 215.686L131.986 216.105L127.033 215.034L127.217 214.18L131.167 215.034C131.245 214.672 131.242 214.332 131.159 214.017C131.078 213.701 130.923 213.433 130.694 213.211C130.467 212.99 130.175 212.84 129.818 212.763C129.425 212.678 129.064 212.702 128.734 212.835C128.408 212.966 128.135 213.17 127.915 213.446C127.694 213.723 127.546 214.038 127.469 214.392L127.346 214.961C127.241 215.447 127.236 215.876 127.33 216.25C127.428 216.621 127.608 216.927 127.872 217.168C128.135 217.406 128.467 217.568 128.866 217.655C129.125 217.711 129.367 217.725 129.592 217.698C129.82 217.668 130.027 217.596 130.212 217.482C130.398 217.364 130.557 217.203 130.689 216.998L131.585 217.472C131.415 217.774 131.185 218.022 130.894 218.216C130.605 218.407 130.271 218.534 129.893 218.595C129.515 218.653 129.109 218.636 128.674 218.542ZM135.192 219.951C134.657 219.836 134.213 219.598 133.862 219.239C133.511 218.877 133.273 218.423 133.149 217.876C133.026 217.327 133.038 216.712 133.185 216.031C133.331 215.356 133.573 214.796 133.912 214.349C134.251 213.903 134.656 213.589 135.127 213.408C135.598 213.227 136.105 213.194 136.646 213.311C137.064 213.402 137.38 213.543 137.592 213.735C137.808 213.925 137.961 214.121 138.051 214.325C138.145 214.526 138.216 214.69 138.264 214.818L138.348 214.836L139.032 211.673L140.019 211.886L138.166 220.454L137.213 220.248L137.426 219.261L137.309 219.235C137.211 219.337 137.076 219.462 136.903 219.612C136.732 219.759 136.506 219.875 136.228 219.961C135.95 220.044 135.605 220.041 135.192 219.951ZM135.518 219.093C135.914 219.179 136.271 219.148 136.589 219.001C136.907 218.851 137.178 218.607 137.4 218.27C137.622 217.93 137.786 217.517 137.891 217.032C137.994 216.552 138.015 216.117 137.954 215.727C137.893 215.334 137.747 215.008 137.517 214.748C137.288 214.485 136.973 214.311 136.571 214.224C136.153 214.133 135.781 214.165 135.456 214.32C135.134 214.472 134.863 214.716 134.645 215.051C134.43 215.384 134.273 215.776 134.176 216.228C134.077 216.685 134.057 217.116 134.115 217.52C134.177 217.922 134.322 218.263 134.551 218.543C134.783 218.821 135.105 219.004 135.518 219.093Z" fill="#717784"/>
<path d="M152.064 215.455L152.263 214.535L158.689 215.925L158.49 216.845L155.796 216.262L154.142 223.91L153.104 223.685L154.758 216.038L152.064 215.455ZM160.056 221.142L159.22 225.008L158.233 224.795L160.086 216.227L161.073 216.44L160.393 219.586L160.476 219.604C160.699 219.305 160.982 219.09 161.325 218.96C161.672 218.828 162.098 218.816 162.603 218.926C163.04 219.02 163.405 219.191 163.696 219.438C163.988 219.682 164.185 220.004 164.289 220.403C164.396 220.799 164.389 221.274 164.27 221.826L163.387 225.909L162.4 225.696L163.268 221.679C163.379 221.169 163.331 220.746 163.127 220.41C162.926 220.071 162.592 219.852 162.126 219.751C161.803 219.681 161.498 219.687 161.212 219.768C160.928 219.849 160.684 220.005 160.48 220.236C160.278 220.466 160.137 220.769 160.056 221.142ZM169.74 224.533L170.562 220.734L171.549 220.948L170.159 227.374L169.172 227.16L169.407 226.073L169.34 226.058C169.119 226.352 168.825 226.579 168.458 226.739C168.091 226.896 167.665 226.922 167.179 226.817C166.778 226.73 166.44 226.565 166.165 226.322C165.892 226.076 165.704 225.755 165.603 225.359C165.502 224.961 165.511 224.488 165.629 223.942L166.512 219.859L167.5 220.072L166.631 224.088C166.53 224.557 166.58 224.959 166.782 225.295C166.986 225.631 167.294 225.843 167.704 225.932C167.949 225.985 168.212 225.976 168.493 225.906C168.777 225.836 169.033 225.69 169.262 225.468C169.494 225.246 169.653 224.935 169.74 224.533Z" fill="#717784"/>
<path d="M182.729 230.093L184.582 221.525L189.72 222.636L189.521 223.556L185.421 222.67L184.795 225.565L188.51 226.368L188.311 227.289L184.596 226.485L183.767 230.317L182.729 230.093ZM189.37 231.529L190.76 225.103L191.714 225.309L191.504 226.28L191.571 226.295C191.757 226.002 192.024 225.79 192.374 225.658C192.724 225.526 193.091 225.502 193.476 225.585C193.548 225.601 193.639 225.622 193.747 225.648C193.855 225.675 193.936 225.697 193.991 225.714L193.774 226.718C193.742 226.703 193.668 226.674 193.552 226.631C193.439 226.586 193.317 226.55 193.186 226.521C192.873 226.454 192.58 226.459 192.307 226.537C192.036 226.613 191.805 226.75 191.613 226.948C191.425 227.143 191.3 227.386 191.237 227.676L190.357 231.743L189.37 231.529ZM193.683 232.462L195.073 226.036L196.06 226.249L194.67 232.675L193.683 232.462ZM195.806 225.073C195.614 225.032 195.462 224.93 195.351 224.769C195.243 224.609 195.208 224.436 195.248 224.252C195.288 224.068 195.39 223.925 195.555 223.824C195.723 223.723 195.903 223.693 196.096 223.735C196.288 223.776 196.439 223.877 196.547 224.038C196.658 224.199 196.694 224.372 196.654 224.556C196.614 224.74 196.51 224.883 196.342 224.984C196.177 225.085 195.999 225.115 195.806 225.073Z" fill="#717784"/>
<path d="M213.318 229.981C213.36 229.546 213.227 229.173 212.921 228.862C212.614 228.55 212.202 228.338 211.683 228.226C211.304 228.144 210.959 228.134 210.648 228.195C210.339 228.257 210.083 228.378 209.877 228.558C209.675 228.739 209.544 228.966 209.485 229.24C209.435 229.468 209.447 229.677 209.52 229.865C209.597 230.051 209.71 230.217 209.859 230.363C210.009 230.506 210.171 230.633 210.346 230.744C210.521 230.852 210.684 230.944 210.834 231.02L211.653 231.443C211.864 231.55 212.094 231.684 212.345 231.846C212.599 232.009 212.832 232.207 213.045 232.44C213.26 232.671 213.421 232.942 213.526 233.253C213.63 233.565 213.639 233.922 213.553 234.323C213.452 234.786 213.241 235.179 212.917 235.5C212.596 235.822 212.181 236.043 211.67 236.163C211.162 236.284 210.579 236.273 209.921 236.131C209.307 235.998 208.798 235.784 208.391 235.489C207.988 235.194 207.696 234.842 207.516 234.432C207.339 234.023 207.284 233.581 207.352 233.105L208.423 233.337C208.381 233.666 208.432 233.958 208.576 234.211C208.723 234.461 208.932 234.67 209.202 234.837C209.476 235.001 209.783 235.12 210.124 235.193C210.52 235.279 210.889 235.292 211.232 235.232C211.576 235.169 211.864 235.042 212.099 234.85C212.333 234.655 212.485 234.402 212.552 234.09C212.614 233.805 212.584 233.556 212.464 233.344C212.343 233.131 212.166 232.94 211.93 232.773C211.695 232.605 211.436 232.447 211.153 232.298L210.164 231.769C209.536 231.432 209.065 231.042 208.752 230.601C208.439 230.159 208.345 229.65 208.47 229.073C208.573 228.593 208.794 228.203 209.13 227.902C209.47 227.599 209.882 227.396 210.365 227.293C210.852 227.188 211.369 227.195 211.916 227.313C212.468 227.432 212.937 227.638 213.324 227.929C213.711 228.217 213.994 228.558 214.171 228.953C214.351 229.348 214.402 229.763 214.322 230.198L213.318 229.981ZM216.409 237.534C216.002 237.446 215.649 237.289 215.35 237.064C215.052 236.836 214.837 236.554 214.705 236.219C214.574 235.881 214.554 235.503 214.644 235.085C214.724 234.717 214.861 234.434 215.055 234.237C215.25 234.037 215.483 233.897 215.754 233.819C216.025 233.74 216.314 233.7 216.621 233.7C216.931 233.697 217.24 233.708 217.546 233.733C217.948 233.768 218.272 233.798 218.52 233.826C218.772 233.851 218.96 233.844 219.086 233.804C219.214 233.764 219.295 233.665 219.33 233.506L219.337 233.472C219.426 233.06 219.383 232.714 219.206 232.437C219.033 232.16 218.718 231.972 218.264 231.874C217.792 231.772 217.401 231.795 217.088 231.944C216.776 232.092 216.54 232.272 216.38 232.483L215.516 231.945C215.768 231.591 216.056 231.335 216.382 231.178C216.712 231.019 217.052 230.932 217.402 230.917C217.756 230.9 218.095 230.927 218.419 230.997C218.625 231.041 218.857 231.118 219.113 231.226C219.374 231.332 219.613 231.487 219.832 231.692C220.053 231.897 220.214 232.17 220.316 232.51C220.417 232.851 220.413 233.276 220.303 233.786L219.387 238.02L218.4 237.807L218.588 236.936L218.538 236.926C218.441 237.051 218.297 237.176 218.106 237.301C217.916 237.426 217.679 237.516 217.395 237.572C217.111 237.627 216.783 237.615 216.409 237.534ZM216.752 236.679C217.142 236.764 217.488 236.758 217.789 236.663C218.092 236.568 218.339 236.414 218.528 236.201C218.72 235.988 218.845 235.748 218.903 235.481L219.098 234.577C219.045 234.618 218.943 234.644 218.792 234.655C218.644 234.664 218.475 234.664 218.284 234.655C218.097 234.644 217.914 234.63 217.737 234.615C217.562 234.598 217.421 234.585 217.312 234.576C217.048 234.554 216.796 234.556 216.557 234.583C216.321 234.608 216.118 234.68 215.95 234.798C215.785 234.914 215.675 235.098 215.62 235.349C215.546 235.692 215.617 235.979 215.833 236.209C216.052 236.438 216.358 236.594 216.752 236.679ZM225.303 232.573L225.122 233.41L221.792 232.69L221.973 231.853L225.303 232.573ZM223.276 230.523L224.263 230.737L222.939 236.861C222.879 237.14 222.874 237.358 222.924 237.515C222.979 237.67 223.065 237.785 223.183 237.86C223.304 237.933 223.437 237.985 223.582 238.017C223.691 238.04 223.782 238.054 223.854 238.058C223.926 238.059 223.985 238.06 224.028 238.061L224.037 238.991C223.965 239.001 223.866 239.006 223.741 239.006C223.615 239.007 223.46 238.989 223.276 238.949C222.997 238.888 222.736 238.769 222.495 238.592C222.256 238.414 222.075 238.184 221.952 237.901C221.832 237.618 221.813 237.289 221.894 236.916L223.276 230.523Z" fill="#717784"/>
<defs>
<clipPath id="clip0_7343_51138">
<rect x="47.1172" y="57.0967" width="21.5237" height="106.758" rx="6.88759" transform="rotate(12.2036 47.1172 57.0967)" fill="white"/>
</clipPath>
<clipPath id="clip1_7343_51138">
<rect x="78.2539" y="63.8301" width="21.5237" height="106.758" rx="6.88759" transform="rotate(12.2036 78.2539 63.8301)" fill="white"/>
</clipPath>
<clipPath id="clip2_7343_51138">
<rect x="109.387" y="70.5645" width="21.5237" height="106.758" rx="6.88759" transform="rotate(12.2036 109.387 70.5645)" fill="white"/>
</clipPath>
<clipPath id="clip3_7343_51138">
<rect x="140.523" y="77.2979" width="21.5237" height="106.758" rx="6.88759" transform="rotate(12.2036 140.523 77.2979)" fill="white"/>
</clipPath>
<clipPath id="clip4_7343_51138">
<rect x="171.656" y="84.0312" width="21.5237" height="106.758" rx="6.88759" transform="rotate(12.2036 171.656 84.0312)" fill="white"/>
</clipPath>
<clipPath id="clip5_7343_51138">
<rect x="202.793" y="90.7656" width="21.5237" height="106.758" rx="6.88759" transform="rotate(12.2036 202.793 90.7656)" fill="white"/>
</clipPath>
<clipPath id="clip6_7343_51138">
<rect x="233.93" y="97.499" width="21.5237" height="106.758" rx="6.88759" transform="rotate(12.2036 233.93 97.499)" fill="white"/>
</clipPath>
</defs>
</svg>
