<svg width="230" height="201" viewBox="0 0 230 201" fill="none" xmlns="http://www.w3.org/2000/svg">
<g clip-path="url(#clip0_7291_48931)">
<rect x="0.25" y="0.25" width="229" height="200" rx="12" fill="white"/>
<rect x="86.25" y="12.25" width="57" height="20" rx="10" fill="#EBF8FF"/>
<path d="M99.9691 22.3409C99.9691 22.9545 99.8583 23.4848 99.6367 23.9318C99.4151 24.3788 99.1112 24.7235 98.7248 24.9659C98.3384 25.2083 97.8971 25.3295 97.4009 25.3295C96.9047 25.3295 96.4634 25.2083 96.0771 24.9659C95.6907 24.7235 95.3867 24.3788 95.1651 23.9318C94.9435 23.4848 94.8327 22.9545 94.8327 22.3409C94.8327 21.7273 94.9435 21.197 95.1651 20.75C95.3867 20.303 95.6907 19.9583 96.0771 19.7159C96.4634 19.4735 96.9047 19.3523 97.4009 19.3523C97.8971 19.3523 98.3384 19.4735 98.7248 19.7159C99.1112 19.9583 99.4151 20.303 99.6367 20.75C99.8583 21.197 99.9691 21.7273 99.9691 22.3409ZM99.2873 22.3409C99.2873 21.8371 99.203 21.4119 99.0344 21.0653C98.8678 20.7188 98.6415 20.4564 98.3555 20.2784C98.0714 20.1004 97.7532 20.0114 97.4009 20.0114C97.0487 20.0114 96.7295 20.1004 96.4435 20.2784C96.1594 20.4564 95.9331 20.7188 95.7646 21.0653C95.5979 21.4119 95.5146 21.8371 95.5146 22.3409C95.5146 22.8447 95.5979 23.2699 95.7646 23.6165C95.9331 23.9631 96.1594 24.2254 96.4435 24.4034C96.7295 24.5814 97.0487 24.6705 97.4009 24.6705C97.7532 24.6705 98.0714 24.5814 98.3555 24.4034C98.6415 24.2254 98.8678 23.9631 99.0344 23.6165C99.203 23.2699 99.2873 22.8447 99.2873 22.3409ZM105.767 19.4318V25.25H105.086L101.915 20.6818H101.858V25.25H101.154V19.4318H101.836L105.017 24.0114H105.074V19.4318H105.767ZM109.109 20.0568V19.4318H113.473V20.0568H111.643V25.25H110.939V20.0568H109.109ZM114.56 25.25V19.4318H116.526C116.98 19.4318 117.354 19.5095 117.645 19.6648C117.937 19.8182 118.153 20.0294 118.293 20.2983C118.433 20.5672 118.503 20.8731 118.503 21.2159C118.503 21.5587 118.433 21.8627 118.293 22.1278C118.153 22.393 117.938 22.6013 117.648 22.7528C117.358 22.9025 116.988 22.9773 116.537 22.9773H114.946V22.3409H116.515C116.825 22.3409 117.075 22.2955 117.265 22.2045C117.456 22.1136 117.594 21.9848 117.679 21.8182C117.766 21.6496 117.81 21.4489 117.81 21.2159C117.81 20.983 117.766 20.7794 117.679 20.6051C117.592 20.4309 117.453 20.2964 117.262 20.2017C117.07 20.1051 116.818 20.0568 116.503 20.0568H115.265V25.25H114.56ZM117.299 22.6364L118.73 25.25H117.912L116.503 22.6364H117.299ZM119.916 25.25H119.177L121.314 19.4318H122.041L124.177 25.25H123.439L121.7 20.3523H121.654L119.916 25.25ZM120.189 22.9773H123.166V23.6023H120.189V22.9773ZM129.492 21.25H128.787C128.746 21.0473 128.673 20.8693 128.569 20.7159C128.466 20.5625 128.341 20.4337 128.194 20.3295C128.048 20.2235 127.886 20.1439 127.708 20.0909C127.53 20.0379 127.344 20.0114 127.151 20.0114C126.799 20.0114 126.48 20.1004 126.194 20.2784C125.909 20.4564 125.683 20.7188 125.515 21.0653C125.348 21.4119 125.265 21.8371 125.265 22.3409C125.265 22.8447 125.348 23.2699 125.515 23.6165C125.683 23.9631 125.909 24.2254 126.194 24.4034C126.48 24.5814 126.799 24.6705 127.151 24.6705C127.344 24.6705 127.53 24.6439 127.708 24.5909C127.886 24.5379 128.048 24.4593 128.194 24.3551C128.341 24.2491 128.466 24.1193 128.569 23.9659C128.673 23.8106 128.746 23.6326 128.787 23.4318H129.492C129.439 23.7292 129.342 23.9953 129.202 24.2301C129.062 24.465 128.888 24.6648 128.679 24.8295C128.471 24.9924 128.237 25.1165 127.978 25.2017C127.72 25.2869 127.444 25.3295 127.151 25.3295C126.655 25.3295 126.213 25.2083 125.827 24.9659C125.441 24.7235 125.137 24.3788 124.915 23.9318C124.694 23.4848 124.583 22.9545 124.583 22.3409C124.583 21.7273 124.694 21.197 124.915 20.75C125.137 20.303 125.441 19.9583 125.827 19.7159C126.213 19.4735 126.655 19.3523 127.151 19.3523C127.444 19.3523 127.72 19.3949 127.978 19.4801C128.237 19.5653 128.471 19.6903 128.679 19.8551C128.888 20.018 129.062 20.2169 129.202 20.4517C129.342 20.6847 129.439 20.9508 129.492 21.25ZM130.63 25.25V19.4318H131.335V22.3182H131.403L134.017 19.4318H134.937L132.494 22.0568L134.937 25.25H134.085L132.062 22.5455L131.335 23.3636V25.25H130.63Z" fill="#47C2FF"/>
<path d="M69.8652 56.05H67.3452V54.358C64.4832 54.052 62.8992 52.648 62.8992 50.182V50.074H65.5992V50.398C65.5992 51.514 66.1572 51.964 68.6052 51.964C70.7652 51.964 71.2692 51.64 71.2692 50.83C71.2692 50.092 70.8552 49.822 69.6132 49.606L66.2292 49.12C64.0692 48.778 62.7912 47.698 62.7912 45.736C62.7912 44.08 64.0332 42.334 67.3452 42.046V40.39H69.8652V42.118C72.5112 42.55 73.7532 44.098 73.7532 46.258V46.366H71.0352V46.114C71.0352 44.962 70.4412 44.476 68.0472 44.476C66.1032 44.476 65.5092 44.854 65.5092 45.628C65.5092 46.33 65.9052 46.582 66.9132 46.762L70.2972 47.302C72.9972 47.734 73.9692 49.048 73.9692 50.704C73.9692 52.432 72.7812 54.016 69.8652 54.358V56.05ZM80.2528 54.43C76.3108 54.43 74.5288 52.828 74.5288 50.164V49.876H77.3908V50.164C77.3908 51.388 77.7328 51.838 80.1268 51.838C82.3948 51.838 83.0968 51.478 83.0968 50.434C83.0968 49.534 82.5208 49.156 81.3868 49.156H77.9128V46.942H81.1348C82.1788 46.942 82.6468 46.564 82.6468 45.808C82.6468 44.962 82.1428 44.602 80.0908 44.602C77.9308 44.602 77.3908 45.052 77.3908 46.276V46.366H74.5288V46.276C74.5288 43.738 76.4008 42.01 80.3248 42.01C83.5468 42.01 85.3288 43.108 85.3288 45.232C85.3288 46.618 84.5008 47.554 82.9348 47.752V47.95C84.6988 48.202 85.8508 49.102 85.8508 50.866C85.8508 53.206 83.7628 54.43 80.2528 54.43ZM92.221 54.43C88.441 54.43 86.461 53.152 86.461 50.506V50.344H89.251V50.506C89.251 51.532 89.971 51.964 92.257 51.964C94.327 51.964 94.957 51.478 94.957 50.164C94.957 48.832 94.327 48.346 92.275 48.346C90.619 48.346 89.719 48.544 89.287 49.174L89.089 49.156V49.174L86.551 49.102L87.235 42.19H97.171V44.62H89.629L89.251 47.77L89.413 47.788C89.845 47.086 91.123 46.204 93.373 46.204C96.343 46.204 97.819 47.644 97.819 50.128C97.819 52.738 96.055 54.43 92.221 54.43ZM99.7326 56.788H98.7786V55.114H99.6606C100.021 55.114 100.201 55.024 100.201 54.556V54.25H98.6706V51.1H102.145V54.538C102.145 56.05 101.263 56.788 99.7326 56.788ZM108.893 54.43C105.005 54.43 102.863 51.982 102.863 48.22C102.863 44.476 105.005 42.01 108.893 42.01C112.763 42.01 114.923 44.476 114.923 48.22C114.923 51.982 112.763 54.43 108.893 54.43ZM108.893 51.802C111.179 51.802 112.025 50.812 112.025 48.22C112.025 45.628 111.179 44.638 108.893 44.638C106.589 44.638 105.761 45.628 105.761 48.22C105.761 50.812 106.589 51.802 108.893 51.802ZM126.205 54.25H115.495V52.522C115.495 50.398 116.413 49.3 118.951 48.454L122.047 47.446C123.127 47.068 123.523 46.708 123.523 45.916C123.523 44.998 123.019 44.476 121.039 44.476C118.825 44.476 118.159 45.142 118.159 46.474V46.708H115.513V46.474C115.513 44.134 117.115 42.01 121.129 42.01C124.765 42.01 126.241 43.666 126.241 45.952C126.241 48.094 124.837 49.156 122.695 49.75L120.067 50.47C118.897 50.83 118.339 51.172 118.339 52.126L121.489 51.82H126.205V54.25ZM132.677 54.43C129.365 54.43 127.259 52.846 127.259 50.38V50.236H130.265V50.38C130.265 51.424 130.931 51.838 132.677 51.838C134.801 51.838 135.647 51.118 135.647 48.634V47.842H135.449C134.945 48.832 133.649 49.642 131.489 49.642C128.519 49.642 126.863 48.436 126.863 45.97C126.863 43.558 128.753 42.01 132.335 42.01C136.727 42.01 138.527 43.918 138.527 48.148C138.527 52.378 136.205 54.43 132.677 54.43ZM132.479 47.77C134.729 47.77 135.431 47.266 135.431 46.168C135.431 45.124 134.711 44.602 132.479 44.602C130.337 44.602 129.689 45.106 129.689 46.168C129.689 47.284 130.319 47.77 132.479 47.77ZM142.813 54.25H139.339V51.1H142.813V54.25ZM149.255 54.43C145.313 54.43 143.531 52.828 143.531 50.164V49.876H146.393V50.164C146.393 51.388 146.735 51.838 149.129 51.838C151.397 51.838 152.099 51.478 152.099 50.434C152.099 49.534 151.523 49.156 150.389 49.156H146.915V46.942H150.137C151.181 46.942 151.649 46.564 151.649 45.808C151.649 44.962 151.145 44.602 149.093 44.602C146.933 44.602 146.393 45.052 146.393 46.276V46.366H143.531V46.276C143.531 43.738 145.403 42.01 149.327 42.01C152.549 42.01 154.331 43.108 154.331 45.232C154.331 46.618 153.503 47.554 151.937 47.752V47.95C153.701 48.202 154.853 49.102 154.853 50.866C154.853 53.206 152.765 54.43 149.255 54.43ZM161.008 54.43C157.48 54.43 155.23 53.332 155.23 50.938C155.23 49.12 156.526 48.274 158.092 47.95V47.752C156.508 47.482 155.59 46.6 155.59 45.178C155.59 43.234 157.444 42.01 160.99 42.01C164.572 42.01 166.408 43.234 166.408 45.178C166.408 46.6 165.508 47.482 163.888 47.752V47.95C165.58 48.274 166.75 49.12 166.75 50.938C166.75 53.332 164.482 54.43 161.008 54.43ZM160.99 47.104C163.078 47.104 163.708 46.708 163.708 45.862C163.708 44.998 163.168 44.602 160.99 44.602C158.866 44.602 158.29 44.998 158.29 45.862C158.29 46.708 158.938 47.104 160.99 47.104ZM160.99 51.838C163.312 51.838 164.014 51.424 164.014 50.38C164.014 49.372 163.348 48.958 160.99 48.958C158.632 48.958 157.966 49.372 157.966 50.38C157.966 51.424 158.65 51.838 160.99 51.838Z" fill="#0E121B"/>
<path d="M82.0291 67.1136L79.2166 77.5625H78.2962L81.1087 67.1136H82.0291ZM89.1531 77.3409V66.4318H89.8519V77.3409H89.1531ZM91.5053 69.7045C91.4542 69.2727 91.2468 68.9375 90.8832 68.6989C90.5195 68.4602 90.0735 68.3409 89.5451 68.3409C89.1587 68.3409 88.8207 68.4034 88.5309 68.5284C88.244 68.6534 88.0195 68.8253 87.8576 69.044C87.6985 69.2628 87.619 69.5114 87.619 69.7898C87.619 70.0227 87.6744 70.223 87.7852 70.3906C87.8988 70.5554 88.0437 70.6932 88.2198 70.804C88.396 70.9119 88.5806 71.0014 88.7738 71.0724C88.967 71.1406 89.1445 71.196 89.3065 71.2386L90.1928 71.4773C90.4201 71.5369 90.6729 71.6193 90.9513 71.7244C91.2326 71.8295 91.5011 71.973 91.7567 72.1548C92.0153 72.3338 92.2283 72.5639 92.396 72.8452C92.5636 73.1264 92.6474 73.4716 92.6474 73.8807C92.6474 74.3523 92.5238 74.7784 92.2766 75.1591C92.0323 75.5398 91.6744 75.8423 91.2028 76.0668C90.734 76.2912 90.1644 76.4034 89.494 76.4034C88.869 76.4034 88.3278 76.3026 87.8704 76.1009C87.4158 75.8991 87.0579 75.6179 86.7965 75.2571C86.538 74.8963 86.3917 74.4773 86.3576 74H87.4485C87.4769 74.3295 87.5877 74.6023 87.7809 74.8182C87.9769 75.0312 88.2241 75.1903 88.5224 75.2955C88.8235 75.3977 89.1474 75.4489 89.494 75.4489C89.8974 75.4489 90.2596 75.3835 90.5806 75.2528C90.9016 75.1193 91.1559 74.9347 91.3434 74.6989C91.5309 74.4602 91.6246 74.1818 91.6246 73.8636C91.6246 73.5739 91.5437 73.3381 91.3817 73.1562C91.2198 72.9744 91.0067 72.8267 90.7425 72.7131C90.4783 72.5994 90.1928 72.5 89.886 72.4148L88.8121 72.108C88.1303 71.9119 87.5906 71.6321 87.1928 71.2685C86.7951 70.9048 86.5962 70.429 86.5962 69.8409C86.5962 69.3523 86.7283 68.9261 86.9925 68.5625C87.2596 68.196 87.6175 67.9119 88.0664 67.7102C88.5181 67.5057 89.0224 67.4034 89.5792 67.4034C90.1417 67.4034 90.6417 67.5043 91.0792 67.706C91.5167 67.9048 91.8633 68.1776 92.119 68.5241C92.3775 68.8707 92.5138 69.2642 92.5281 69.7045H91.5053ZM94.027 74.4602V73.5909L97.8622 67.5227H98.4929V68.8693H98.0668L95.169 73.4545V73.5227H100.334V74.4602H94.027ZM98.1349 76.25V74.196V73.7912V67.5227H99.1406V76.25H98.1349ZM104.777 76.3693C104.135 76.3693 103.588 76.1946 103.137 75.8452C102.685 75.4929 102.34 74.983 102.101 74.3153C101.863 73.6449 101.743 72.8352 101.743 71.8864C101.743 70.9432 101.863 70.1378 102.101 69.4702C102.343 68.7997 102.689 68.2884 103.141 67.9361C103.596 67.581 104.141 67.4034 104.777 67.4034C105.414 67.4034 105.958 67.581 106.409 67.9361C106.864 68.2884 107.211 68.7997 107.449 69.4702C107.691 70.1378 107.811 70.9432 107.811 71.8864C107.811 72.8352 107.692 73.6449 107.453 74.3153C107.215 74.983 106.87 75.4929 106.418 75.8452C105.966 76.1946 105.419 76.3693 104.777 76.3693ZM104.777 75.4318C105.414 75.4318 105.908 75.125 106.26 74.5114C106.613 73.8977 106.789 73.0227 106.789 71.8864C106.789 71.1307 106.708 70.4872 106.546 69.956C106.387 69.4247 106.157 69.0199 105.855 68.7415C105.557 68.4631 105.198 68.3239 104.777 68.3239C104.147 68.3239 103.654 68.6349 103.299 69.2571C102.944 69.8764 102.766 70.7528 102.766 71.8864C102.766 72.642 102.846 73.2841 103.005 73.8125C103.164 74.3409 103.392 74.7429 103.691 75.0185C103.992 75.294 104.354 75.4318 104.777 75.4318ZM110.643 75.0568L110.575 75.517C110.527 75.8409 110.453 76.1875 110.353 76.5568C110.257 76.9261 110.156 77.2741 110.051 77.6009C109.946 77.9276 109.859 78.1875 109.791 78.3807H109.024C109.061 78.1989 109.109 77.9588 109.169 77.6605C109.228 77.3622 109.288 77.0284 109.348 76.6591C109.41 76.2926 109.461 75.9176 109.501 75.5341L109.552 75.0568H110.643ZM115.031 76.3693C114.389 76.3693 113.842 76.1946 113.391 75.8452C112.939 75.4929 112.594 74.983 112.355 74.3153C112.116 73.6449 111.997 72.8352 111.997 71.8864C111.997 70.9432 112.116 70.1378 112.355 69.4702C112.597 68.7997 112.943 68.2884 113.395 67.9361C113.849 67.581 114.395 67.4034 115.031 67.4034C115.668 67.4034 116.212 67.581 116.663 67.9361C117.118 68.2884 117.464 68.7997 117.703 69.4702C117.945 70.1378 118.065 70.9432 118.065 71.8864C118.065 72.8352 117.946 73.6449 117.707 74.3153C117.469 74.983 117.124 75.4929 116.672 75.8452C116.22 76.1946 115.673 76.3693 115.031 76.3693ZM115.031 75.4318C115.668 75.4318 116.162 75.125 116.514 74.5114C116.866 73.8977 117.043 73.0227 117.043 71.8864C117.043 71.1307 116.962 70.4872 116.8 69.956C116.641 69.4247 116.411 69.0199 116.109 68.7415C115.811 68.4631 115.452 68.3239 115.031 68.3239C114.401 68.3239 113.908 68.6349 113.553 69.2571C113.197 69.8764 113.02 70.7528 113.02 71.8864C113.02 72.642 113.099 73.2841 113.259 73.8125C113.418 74.3409 113.646 74.7429 113.945 75.0185C114.246 75.294 114.608 75.4318 115.031 75.4318ZM122.531 76.3693C121.889 76.3693 121.342 76.1946 120.891 75.8452C120.439 75.4929 120.094 74.983 119.855 74.3153C119.616 73.6449 119.497 72.8352 119.497 71.8864C119.497 70.9432 119.616 70.1378 119.855 69.4702C120.097 68.7997 120.443 68.2884 120.895 67.9361C121.349 67.581 121.895 67.4034 122.531 67.4034C123.168 67.4034 123.712 67.581 124.163 67.9361C124.618 68.2884 124.964 68.7997 125.203 69.4702C125.445 70.1378 125.565 70.9432 125.565 71.8864C125.565 72.8352 125.446 73.6449 125.207 74.3153C124.969 74.983 124.624 75.4929 124.172 75.8452C123.72 76.1946 123.173 76.3693 122.531 76.3693ZM122.531 75.4318C123.168 75.4318 123.662 75.125 124.014 74.5114C124.366 73.8977 124.543 73.0227 124.543 71.8864C124.543 71.1307 124.462 70.4872 124.3 69.956C124.141 69.4247 123.911 69.0199 123.609 68.7415C123.311 68.4631 122.952 68.3239 122.531 68.3239C121.901 68.3239 121.408 68.6349 121.053 69.2571C120.697 69.8764 120.52 70.7528 120.52 71.8864C120.52 72.642 120.599 73.2841 120.759 73.8125C120.918 74.3409 121.146 74.7429 121.445 75.0185C121.746 75.294 122.108 75.4318 122.531 75.4318ZM130.031 76.3693C129.389 76.3693 128.842 76.1946 128.391 75.8452C127.939 75.4929 127.594 74.983 127.355 74.3153C127.116 73.6449 126.997 72.8352 126.997 71.8864C126.997 70.9432 127.116 70.1378 127.355 69.4702C127.597 68.7997 127.943 68.2884 128.395 67.9361C128.849 67.581 129.395 67.4034 130.031 67.4034C130.668 67.4034 131.212 67.581 131.663 67.9361C132.118 68.2884 132.464 68.7997 132.703 69.4702C132.945 70.1378 133.065 70.9432 133.065 71.8864C133.065 72.8352 132.946 73.6449 132.707 74.3153C132.469 74.983 132.124 75.4929 131.672 75.8452C131.22 76.1946 130.673 76.3693 130.031 76.3693ZM130.031 75.4318C130.668 75.4318 131.162 75.125 131.514 74.5114C131.866 73.8977 132.043 73.0227 132.043 71.8864C132.043 71.1307 131.962 70.4872 131.8 69.956C131.641 69.4247 131.411 69.0199 131.109 68.7415C130.811 68.4631 130.452 68.3239 130.031 68.3239C129.401 68.3239 128.908 68.6349 128.553 69.2571C128.197 69.8764 128.02 70.7528 128.02 71.8864C128.02 72.642 128.099 73.2841 128.259 73.8125C128.418 74.3409 128.646 74.7429 128.945 75.0185C129.246 75.294 129.608 75.4318 130.031 75.4318ZM135.13 76.3182C134.92 76.3182 134.739 76.2429 134.589 76.0923C134.438 75.9418 134.363 75.7614 134.363 75.5511C134.363 75.3409 134.438 75.1605 134.589 75.0099C134.739 74.8594 134.92 74.7841 135.13 74.7841C135.34 74.7841 135.521 74.8594 135.671 75.0099C135.822 75.1605 135.897 75.3409 135.897 75.5511C135.897 75.6903 135.862 75.8182 135.79 75.9347C135.722 76.0511 135.63 76.1449 135.513 76.2159C135.4 76.2841 135.272 76.3182 135.13 76.3182ZM140.227 76.3693C139.585 76.3693 139.038 76.1946 138.586 75.8452C138.134 75.4929 137.789 74.983 137.55 74.3153C137.312 73.6449 137.192 72.8352 137.192 71.8864C137.192 70.9432 137.312 70.1378 137.55 69.4702C137.792 68.7997 138.138 68.2884 138.59 67.9361C139.045 67.581 139.59 67.4034 140.227 67.4034C140.863 67.4034 141.407 67.581 141.859 67.9361C142.313 68.2884 142.66 68.7997 142.898 69.4702C143.14 70.1378 143.261 70.9432 143.261 71.8864C143.261 72.8352 143.141 73.6449 142.903 74.3153C142.664 74.983 142.319 75.4929 141.867 75.8452C141.415 76.1946 140.869 76.3693 140.227 76.3693ZM140.227 75.4318C140.863 75.4318 141.357 75.125 141.71 74.5114C142.062 73.8977 142.238 73.0227 142.238 71.8864C142.238 71.1307 142.157 70.4872 141.995 69.956C141.836 69.4247 141.606 69.0199 141.305 68.7415C141.006 68.4631 140.647 68.3239 140.227 68.3239C139.596 68.3239 139.103 68.6349 138.748 69.2571C138.393 69.8764 138.215 70.7528 138.215 71.8864C138.215 72.642 138.295 73.2841 138.454 73.8125C138.613 74.3409 138.842 74.7429 139.14 75.0185C139.441 75.294 139.803 75.4318 140.227 75.4318ZM147.727 76.3693C147.085 76.3693 146.538 76.1946 146.086 75.8452C145.634 75.4929 145.289 74.983 145.05 74.3153C144.812 73.6449 144.692 72.8352 144.692 71.8864C144.692 70.9432 144.812 70.1378 145.05 69.4702C145.292 68.7997 145.638 68.2884 146.09 67.9361C146.545 67.581 147.09 67.4034 147.727 67.4034C148.363 67.4034 148.907 67.581 149.359 67.9361C149.813 68.2884 150.16 68.7997 150.398 69.4702C150.64 70.1378 150.761 70.9432 150.761 71.8864C150.761 72.8352 150.641 73.6449 150.403 74.3153C150.164 74.983 149.819 75.4929 149.367 75.8452C148.915 76.1946 148.369 76.3693 147.727 76.3693ZM147.727 75.4318C148.363 75.4318 148.857 75.125 149.21 74.5114C149.562 73.8977 149.738 73.0227 149.738 71.8864C149.738 71.1307 149.657 70.4872 149.495 69.956C149.336 69.4247 149.106 69.0199 148.805 68.7415C148.506 68.4631 148.147 68.3239 147.727 68.3239C147.096 68.3239 146.603 68.6349 146.248 69.2571C145.893 69.8764 145.715 70.7528 145.715 71.8864C145.715 72.642 145.795 73.2841 145.954 73.8125C146.113 74.3409 146.342 74.7429 146.64 75.0185C146.941 75.294 147.303 75.4318 147.727 75.4318Z" fill="#525866"/>
<path d="M209.169 194.75C213.632 194.75 217.283 191.126 216.932 186.677C215.018 162.447 204.539 139.582 187.228 122.272C168.006 103.049 141.935 92.25 114.75 92.25C87.5653 92.25 61.494 103.049 42.2716 122.272C24.9611 139.582 14.4817 162.447 12.5682 186.677C12.2168 191.126 15.8681 194.75 20.3312 194.75C24.7942 194.75 28.373 191.124 28.79 186.68C30.6611 166.743 39.4218 147.978 53.7 133.7C69.8915 117.509 91.8518 108.412 114.75 108.412C137.648 108.412 159.609 117.509 175.8 133.7C190.078 147.978 198.839 166.743 200.71 186.68C201.127 191.124 204.706 194.75 209.169 194.75Z" fill="#EBF8FF"/>
<g filter="url(#filter0_d_7291_48931)">
<path d="M20.3311 194.75C15.8681 194.75 12.2169 191.126 12.5683 186.677C14.3354 164.303 23.4101 143.042 38.5106 126.239C55.4179 107.424 78.6851 95.5259 103.836 92.8327C128.988 90.1394 154.247 96.8413 174.754 111.649C193.07 124.875 206.441 143.732 212.905 165.224C214.191 169.498 211.39 173.813 207.028 174.758C202.666 175.703 198.401 172.917 197.052 168.662C191.475 151.065 180.374 135.642 165.293 124.753C148.019 112.28 126.743 106.634 105.557 108.903C84.3719 111.172 64.7735 121.194 50.5321 137.042C38.0986 150.878 30.515 168.301 28.7901 186.68C28.373 191.124 24.7943 194.75 20.3311 194.75Z" fill="#47C2FF"/>
</g>
</g>
<rect x="0.25" y="0.25" width="229" height="200" rx="12" stroke="#E1E4EA" stroke-width="0.5"/>
<defs>
<filter id="filter0_d_7291_48931" x="0.16561" y="79.0991" width="230.072" height="131.896" filterUnits="userSpaceOnUse" color-interpolation-filters="sRGB">
<feFlood flood-opacity="0" result="BackgroundImageFix"/>
<feColorMatrix in="SourceAlpha" type="matrix" values="0 0 0 0 0 0 0 0 0 0 0 0 0 0 0 0 0 0 127 0" result="hardAlpha"/>
<feOffset dx="2.32075" dy="1.54717"/>
<feGaussianBlur stdDeviation="7.34906"/>
<feComposite in2="hardAlpha" operator="out"/>
<feColorMatrix type="matrix" values="0 0 0 0 0 0 0 0 0 0 0 0 0 0 0 0 0 0 0.05 0"/>
<feBlend mode="normal" in2="BackgroundImageFix" result="effect1_dropShadow_7291_48931"/>
<feBlend mode="normal" in="SourceGraphic" in2="effect1_dropShadow_7291_48931" result="shape"/>
</filter>
<clipPath id="clip0_7291_48931">
<rect x="0.25" y="0.25" width="229" height="200" rx="12" fill="white"/>
</clipPath>
</defs>
</svg>
