<svg width="266" height="108" viewBox="0 0 266 108" fill="none" xmlns="http://www.w3.org/2000/svg">
<path d="M12 0.25H254C260.489 0.25 265.75 5.51065 265.75 12V96C265.75 102.489 260.489 107.75 254 107.75H12C5.51065 107.75 0.25 102.489 0.25 96V12C0.25 5.51065 5.51065 0.25 12 0.25Z" fill="white"/>
<path d="M12 0.25H254C260.489 0.25 265.75 5.51065 265.75 12V96C265.75 102.489 260.489 107.75 254 107.75H12C5.51065 107.75 0.25 102.489 0.25 96V12C0.25 5.51065 5.51065 0.25 12 0.25Z" stroke="#E1E4EA" stroke-width="0.5"/>
<rect x="12" y="12" width="36" height="36" rx="18" fill="#47C2FF"/>
<path d="M29.25 22.5379V24.8029C26.706 25.1681 24.75 27.3566 24.75 30.0004C24.75 32.8999 27.1005 35.2504 30 35.2504C31.179 35.2504 32.268 34.8619 33.144 34.2049L34.7468 35.8076C33.4538 36.8651 31.8 37.5004 30 37.5004C25.8578 37.5004 22.5 34.1426 22.5 30.0004C22.5 26.1116 25.4603 22.9136 29.25 22.5379ZM37.4625 30.7504C37.3125 32.2586 36.717 33.6356 35.8073 34.7464L34.2045 33.1444C34.7198 32.4574 35.0693 31.6399 35.1968 30.7504H37.4633H37.4625ZM30.7515 22.5379C34.2945 22.8896 37.1115 25.7074 37.464 29.2504H35.1975C34.869 26.9516 33.0503 25.1329 30.7515 24.8036V22.5371V22.5379Z" fill="white"/>
<path d="M58.212 24H56.7V14.62H58.212V24ZM60.9701 24H59.4581V17.042H60.8441V19.198H60.9421C61.1521 18.022 62.0761 16.902 63.8401 16.902C65.7721 16.902 66.7241 18.204 66.7241 19.814V24H65.2121V20.22C65.2121 18.918 64.6241 18.26 63.1821 18.26C61.6561 18.26 60.9701 19.044 60.9701 20.556V24ZM72.3834 24H70.5354L67.2874 17.042H68.9534L71.4314 22.53H71.5434L74.0214 17.042H75.6594L72.3834 24ZM79.781 24.14C77.499 24.14 76.001 22.852 76.001 20.528C76.001 18.358 77.485 16.902 79.753 16.902C81.909 16.902 83.379 18.092 83.379 20.206C83.379 20.458 83.365 20.654 83.323 20.864H77.415C77.471 22.208 78.129 22.922 79.739 22.922C81.195 22.922 81.797 22.446 81.797 21.62V21.508H83.309V21.634C83.309 23.118 81.853 24.14 79.781 24.14ZM79.725 18.092C78.185 18.092 77.513 18.778 77.429 20.024H81.951V19.996C81.951 18.708 81.209 18.092 79.725 18.092ZM87.6474 24.14C85.4074 24.14 84.1334 23.258 84.1334 21.648V21.606H85.6454V21.718C85.6454 22.628 86.1914 22.922 87.6474 22.922C89.0054 22.922 89.4114 22.642 89.4114 22.026C89.4114 21.452 89.0754 21.27 88.0814 21.13L86.1774 20.878C84.8614 20.71 84.0634 20.15 84.0634 18.988C84.0634 17.77 85.1694 16.902 87.3114 16.902C89.4394 16.902 90.7274 17.756 90.7274 19.408V19.45H89.2294V19.366C89.2294 18.54 88.8094 18.106 87.2694 18.106C85.9954 18.106 85.5474 18.386 85.5474 19.044C85.5474 19.59 85.8274 19.786 86.8774 19.926L88.4874 20.15C90.1394 20.36 90.8954 20.92 90.8954 22.068C90.8954 23.37 89.6074 24.14 87.6474 24.14ZM96.3963 24H94.8003C93.3023 24 92.3783 23.342 92.3783 21.648V18.302H91.2023V17.042H92.3783V15.516H93.8763V17.042H96.3963V18.302H93.8763V21.564C93.8763 22.418 94.2683 22.642 95.1363 22.642H96.3963V24ZM98.7001 24H97.1881V17.042H98.5741V19.142H98.6581C98.8401 17.98 99.5961 16.902 101.332 16.902C102.914 16.902 103.768 17.868 103.964 19.198H104.048C104.23 18.008 105.014 16.902 106.778 16.902C108.584 16.902 109.494 18.134 109.494 19.814V24H107.996V20.22C107.996 18.848 107.45 18.26 106.106 18.26C104.622 18.26 104.09 19.016 104.09 20.556V24H102.592V20.22C102.592 18.848 102.06 18.26 100.716 18.26C99.2181 18.26 98.7001 19.016 98.7001 20.556V24ZM114.192 24.14C111.91 24.14 110.412 22.852 110.412 20.528C110.412 18.358 111.896 16.902 114.164 16.902C116.32 16.902 117.79 18.092 117.79 20.206C117.79 20.458 117.776 20.654 117.734 20.864H111.826C111.882 22.208 112.54 22.922 114.15 22.922C115.606 22.922 116.208 22.446 116.208 21.62V21.508H117.72V21.634C117.72 23.118 116.264 24.14 114.192 24.14ZM114.136 18.092C112.596 18.092 111.924 18.778 111.84 20.024H116.362V19.996C116.362 18.708 115.62 18.092 114.136 18.092ZM120.281 24H118.769V17.042H120.155V19.198H120.253C120.463 18.022 121.387 16.902 123.151 16.902C125.083 16.902 126.035 18.204 126.035 19.814V24H124.523V20.22C124.523 18.918 123.935 18.26 122.493 18.26C120.967 18.26 120.281 19.044 120.281 20.556V24ZM131.792 24H130.196C128.698 24 127.774 23.342 127.774 21.648V18.302H126.598V17.042H127.774V15.516H129.272V17.042H131.792V18.302H129.272V21.564C129.272 22.418 129.664 22.642 130.532 22.642H131.792V24ZM137.888 24.14C135.69 24.14 134.472 22.67 134.472 20.528C134.472 18.358 135.676 16.902 137.79 16.902C139.442 16.902 140.38 17.756 140.66 18.932H140.744V14.62H142.256V24H140.87V21.998H140.772C140.478 23.384 139.456 24.14 137.888 24.14ZM135.998 20.528C135.998 22.194 136.852 22.754 138.35 22.754C139.834 22.754 140.744 22.054 140.744 20.598V20.486C140.744 19.002 139.876 18.274 138.322 18.274C136.866 18.274 135.998 18.848 135.998 20.528ZM147 24.14C144.718 24.14 143.22 22.852 143.22 20.528C143.22 18.358 144.704 16.902 146.972 16.902C149.128 16.902 150.598 18.092 150.598 20.206C150.598 20.458 150.584 20.654 150.542 20.864H144.634C144.69 22.208 145.348 22.922 146.958 22.922C148.414 22.922 149.016 22.446 149.016 21.62V21.508H150.528V21.634C150.528 23.118 149.072 24.14 147 24.14ZM146.944 18.092C145.404 18.092 144.732 18.778 144.648 20.024H149.17V19.996C149.17 18.708 148.428 18.092 146.944 18.092ZM156.043 24H154.195L150.947 17.042H152.613L155.091 22.53H155.203L157.681 17.042H159.319L156.043 24ZM163.44 24.14C161.158 24.14 159.66 22.852 159.66 20.528C159.66 18.358 161.144 16.902 163.412 16.902C165.568 16.902 167.038 18.092 167.038 20.206C167.038 20.458 167.024 20.654 166.982 20.864H161.074C161.13 22.208 161.788 22.922 163.398 22.922C164.854 22.922 165.456 22.446 165.456 21.62V21.508H166.968V21.634C166.968 23.118 165.512 24.14 163.44 24.14ZM163.384 18.092C161.844 18.092 161.172 18.778 161.088 20.024H165.61V19.996C165.61 18.708 164.868 18.092 163.384 18.092ZM169.529 24H168.017V14.62H169.529V24ZM174.331 24.14C172.021 24.14 170.467 22.67 170.467 20.528C170.467 18.358 172.021 16.902 174.331 16.902C176.655 16.902 178.209 18.358 178.209 20.528C178.209 22.67 176.655 24.14 174.331 24.14ZM174.331 22.796C176.025 22.796 176.725 21.998 176.725 20.528C176.725 19.044 176.025 18.232 174.331 18.232C172.651 18.232 171.951 19.044 171.951 20.528C171.951 21.998 172.651 22.796 174.331 22.796ZM180.664 26.38H179.152V17.042H180.538V18.974H180.664C180.944 17.686 181.924 16.902 183.562 16.902C185.718 16.902 186.936 18.372 186.936 20.528C186.936 22.684 185.746 24.14 183.576 24.14C182.008 24.14 181 23.314 180.72 22.04H180.664V26.38ZM180.664 20.64C180.664 22.068 181.574 22.768 183.058 22.768C184.556 22.768 185.424 22.194 185.424 20.528C185.424 18.848 184.542 18.288 183.086 18.288C181.532 18.288 180.664 19.016 180.664 20.514V20.64ZM189.342 24H187.83V17.042H189.216V19.142H189.3C189.482 17.98 190.238 16.902 191.974 16.902C193.556 16.902 194.41 17.868 194.606 19.198H194.69C194.872 18.008 195.656 16.902 197.42 16.902C199.226 16.902 200.136 18.134 200.136 19.814V24H198.638V20.22C198.638 18.848 198.092 18.26 196.748 18.26C195.264 18.26 194.732 19.016 194.732 20.556V24H193.234V20.22C193.234 18.848 192.702 18.26 191.358 18.26C189.86 18.26 189.342 19.016 189.342 20.556V24ZM204.835 24.14C202.553 24.14 201.055 22.852 201.055 20.528C201.055 18.358 202.539 16.902 204.807 16.902C206.963 16.902 208.433 18.092 208.433 20.206C208.433 20.458 208.419 20.654 208.377 20.864H202.469C202.525 22.208 203.183 22.922 204.793 22.922C206.249 22.922 206.851 22.446 206.851 21.62V21.508H208.363V21.634C208.363 23.118 206.907 24.14 204.835 24.14ZM204.779 18.092C203.239 18.092 202.567 18.778 202.483 20.024H207.005V19.996C207.005 18.708 206.263 18.092 204.779 18.092ZM210.923 24H209.411V17.042H210.797V19.198H210.895C211.105 18.022 212.029 16.902 213.793 16.902C215.725 16.902 216.677 18.204 216.677 19.814V24H215.165V20.22C215.165 18.918 214.577 18.26 213.135 18.26C211.609 18.26 210.923 19.044 210.923 20.556V24ZM222.434 24H220.838C219.34 24 218.416 23.342 218.416 21.648V18.302H217.24V17.042H218.416V15.516H219.914V17.042H222.434V18.302H219.914V21.564C219.914 22.418 220.306 22.642 221.174 22.642H222.434V24Z" fill="#0E121B"/>
<path d="M58.1136 35.2727V44H57.0568V35.2727H58.1136ZM61.1019 40.0625V44H60.0962V37.4545H61.0678V38.4773H61.1531C61.3065 38.1449 61.5394 37.8778 61.8519 37.6761C62.1644 37.4716 62.5678 37.3693 63.0621 37.3693C63.5053 37.3693 63.8931 37.4602 64.2255 37.642C64.5579 37.821 64.8164 38.0938 65.0011 38.4602C65.1857 38.8239 65.2781 39.2841 65.2781 39.8409V44H64.2724V39.9091C64.2724 39.3949 64.1388 38.9943 63.8718 38.7074C63.6048 38.4176 63.2383 38.2727 62.7724 38.2727C62.4513 38.2727 62.1644 38.3423 61.9116 38.4815C61.6616 38.6207 61.4641 38.8239 61.3192 39.0909C61.1744 39.358 61.1019 39.6818 61.1019 40.0625ZM72.2337 37.4545L69.8132 44H68.7905L66.37 37.4545H67.4609L69.2678 42.6705H69.3359L71.1428 37.4545H72.2337ZM76.071 44.1364C75.4403 44.1364 74.8963 43.9972 74.4389 43.7188C73.9844 43.4375 73.6335 43.0455 73.3864 42.5426C73.142 42.0369 73.0199 41.4489 73.0199 40.7784C73.0199 40.108 73.142 39.517 73.3864 39.0057C73.6335 38.4915 73.9773 38.0909 74.4176 37.804C74.8608 37.5142 75.3778 37.3693 75.9688 37.3693C76.3097 37.3693 76.6463 37.4261 76.9787 37.5398C77.3111 37.6534 77.6136 37.8381 77.8864 38.0938C78.1591 38.3466 78.3764 38.6818 78.5384 39.0994C78.7003 39.517 78.7812 40.0312 78.7812 40.642V41.0682H73.7358V40.1989H77.7585C77.7585 39.8295 77.6847 39.5 77.5369 39.2102C77.392 38.9205 77.1847 38.6918 76.9148 38.5241C76.6477 38.3565 76.3324 38.2727 75.9688 38.2727C75.5682 38.2727 75.2216 38.3722 74.929 38.571C74.6392 38.767 74.4162 39.0227 74.2599 39.3381C74.1037 39.6534 74.0256 39.9915 74.0256 40.3523V40.9318C74.0256 41.4261 74.1108 41.8452 74.2812 42.1889C74.4545 42.5298 74.6946 42.7898 75.0014 42.9688C75.3082 43.1449 75.6648 43.233 76.071 43.233C76.3352 43.233 76.5739 43.196 76.7869 43.1222C77.0028 43.0455 77.1889 42.9318 77.3452 42.7812C77.5014 42.6278 77.6222 42.4375 77.7074 42.2102L78.679 42.483C78.5767 42.8125 78.4048 43.1023 78.1634 43.3523C77.9219 43.5994 77.6236 43.7926 77.2685 43.9318C76.9134 44.0682 76.5142 44.1364 76.071 44.1364ZM84.9474 38.9205L84.044 39.1761C83.9872 39.0256 83.9034 38.8793 83.7926 38.7372C83.6847 38.5923 83.5369 38.473 83.3494 38.3793C83.1619 38.2855 82.9219 38.2386 82.6293 38.2386C82.2287 38.2386 81.8949 38.331 81.6278 38.5156C81.3636 38.6974 81.2315 38.929 81.2315 39.2102C81.2315 39.4602 81.3224 39.6577 81.5043 39.8026C81.6861 39.9474 81.9702 40.0682 82.3565 40.1648L83.3281 40.4034C83.9134 40.5455 84.3494 40.7628 84.6364 41.0554C84.9233 41.3452 85.0668 41.7187 85.0668 42.1761C85.0668 42.5511 84.9588 42.8864 84.7429 43.1818C84.5298 43.4773 84.2315 43.7102 83.848 43.8807C83.4645 44.0511 83.0185 44.1364 82.5099 44.1364C81.8423 44.1364 81.2898 43.9915 80.8523 43.7017C80.4148 43.4119 80.1378 42.9886 80.0213 42.4318L80.9759 42.1932C81.0668 42.5455 81.2386 42.8097 81.4915 42.9858C81.7472 43.1619 82.081 43.25 82.4929 43.25C82.9616 43.25 83.3338 43.1506 83.6094 42.9517C83.8878 42.75 84.027 42.5085 84.027 42.2273C84.027 42 83.9474 41.8097 83.7884 41.6562C83.6293 41.5 83.3849 41.3835 83.0554 41.3068L81.9645 41.0511C81.3651 40.9091 80.9247 40.6889 80.6435 40.3906C80.3651 40.0895 80.2259 39.7131 80.2259 39.2614C80.2259 38.892 80.3295 38.5653 80.5369 38.2812C80.7472 37.9972 81.0327 37.7741 81.3935 37.6122C81.7571 37.4503 82.169 37.3693 82.6293 37.3693C83.277 37.3693 83.7855 37.5114 84.1548 37.7955C84.527 38.0795 84.7912 38.4545 84.9474 38.9205ZM89.4272 37.4545V38.3068H86.0352V37.4545H89.4272ZM87.0238 35.8864H88.0295V42.125C88.0295 42.4091 88.0707 42.6222 88.1531 42.7642C88.2383 42.9034 88.3462 42.9972 88.4769 43.0455C88.6104 43.0909 88.7511 43.1136 88.8988 43.1136C89.0096 43.1136 89.1005 43.108 89.1715 43.0966C89.2425 43.0824 89.2994 43.071 89.342 43.0625L89.5465 43.9659C89.4783 43.9915 89.3832 44.017 89.261 44.0426C89.1388 44.071 88.984 44.0852 88.7965 44.0852C88.5124 44.0852 88.234 44.0241 87.9613 43.902C87.6914 43.7798 87.467 43.5938 87.288 43.3438C87.1119 43.0938 87.0238 42.7784 87.0238 42.3977V35.8864ZM90.94 44V37.4545H91.9116V38.4773H91.9968C92.1332 38.1278 92.3533 37.8565 92.6573 37.6634C92.9613 37.4673 93.3263 37.3693 93.7525 37.3693C94.1843 37.3693 94.5437 37.4673 94.8306 37.6634C95.1204 37.8565 95.3462 38.1278 95.5082 38.4773H95.5763C95.744 38.1392 95.9954 37.8707 96.3306 37.6719C96.6658 37.4702 97.0678 37.3693 97.5366 37.3693C98.1218 37.3693 98.6005 37.5526 98.9727 37.919C99.3448 38.2827 99.5309 38.8494 99.5309 39.6193V44H98.5252V39.6193C98.5252 39.1364 98.3931 38.7912 98.1289 38.5838C97.8647 38.3764 97.5536 38.2727 97.1957 38.2727C96.7354 38.2727 96.3789 38.4119 96.1261 38.6903C95.8732 38.9659 95.7468 39.3153 95.7468 39.7386V44H94.7241V39.517C94.7241 39.1449 94.6033 38.8452 94.3619 38.6179C94.1204 38.3878 93.8093 38.2727 93.4286 38.2727C93.1673 38.2727 92.9229 38.3423 92.6957 38.4815C92.4712 38.6207 92.2894 38.8139 92.1502 39.0611C92.0138 39.3054 91.9457 39.5881 91.9457 39.9091V44H90.94ZM104.114 44.1364C103.483 44.1364 102.939 43.9972 102.482 43.7188C102.027 43.4375 101.676 43.0455 101.429 42.5426C101.185 42.0369 101.063 41.4489 101.063 40.7784C101.063 40.108 101.185 39.517 101.429 39.0057C101.676 38.4915 102.02 38.0909 102.461 37.804C102.904 37.5142 103.421 37.3693 104.012 37.3693C104.353 37.3693 104.689 37.4261 105.022 37.5398C105.354 37.6534 105.657 37.8381 105.929 38.0938C106.202 38.3466 106.419 38.6818 106.581 39.0994C106.743 39.517 106.824 40.0312 106.824 40.642V41.0682H101.779V40.1989H105.801C105.801 39.8295 105.728 39.5 105.58 39.2102C105.435 38.9205 105.228 38.6918 104.958 38.5241C104.691 38.3565 104.375 38.2727 104.012 38.2727C103.611 38.2727 103.265 38.3722 102.972 38.571C102.682 38.767 102.459 39.0227 102.303 39.3381C102.147 39.6534 102.069 39.9915 102.069 40.3523V40.9318C102.069 41.4261 102.154 41.8452 102.324 42.1889C102.498 42.5298 102.738 42.7898 103.044 42.9688C103.351 43.1449 103.708 43.233 104.114 43.233C104.378 43.233 104.617 43.196 104.83 43.1222C105.046 43.0455 105.232 42.9318 105.388 42.7812C105.544 42.6278 105.665 42.4375 105.75 42.2102L106.722 42.483C106.62 42.8125 106.448 43.1023 106.206 43.3523C105.965 43.5994 105.667 43.7926 105.311 43.9318C104.956 44.0682 104.557 44.1364 104.114 44.1364ZM109.36 40.0625V44H108.354V37.4545H109.326V38.4773H109.411C109.564 38.1449 109.797 37.8778 110.11 37.6761C110.422 37.4716 110.826 37.3693 111.32 37.3693C111.763 37.3693 112.151 37.4602 112.483 37.642C112.816 37.821 113.074 38.0938 113.259 38.4602C113.444 38.8239 113.536 39.2841 113.536 39.8409V44H112.53V39.9091C112.53 39.3949 112.397 38.9943 112.13 38.7074C111.863 38.4176 111.496 38.2727 111.03 38.2727C110.709 38.2727 110.422 38.3423 110.169 38.4815C109.919 38.6207 109.722 38.8239 109.577 39.0909C109.432 39.358 109.36 39.6818 109.36 40.0625ZM118.22 37.4545V38.3068H114.828V37.4545H118.22ZM115.817 35.8864H116.822V42.125C116.822 42.4091 116.864 42.6222 116.946 42.7642C117.031 42.9034 117.139 42.9972 117.27 43.0455C117.403 43.0909 117.544 43.1136 117.692 43.1136C117.803 43.1136 117.893 43.108 117.964 43.0966C118.036 43.0824 118.092 43.071 118.135 43.0625L118.339 43.9659C118.271 43.9915 118.176 44.017 118.054 44.0426C117.932 44.071 117.777 44.0852 117.589 44.0852C117.305 44.0852 117.027 44.0241 116.754 43.902C116.484 43.7798 116.26 43.5938 116.081 43.3438C115.905 43.0938 115.817 42.7784 115.817 42.3977V35.8864ZM125.58 44.1364C125.034 44.1364 124.553 43.9986 124.135 43.723C123.717 43.4446 123.391 43.0526 123.155 42.5469C122.919 42.0384 122.801 41.4375 122.801 40.7443C122.801 40.0568 122.919 39.4602 123.155 38.9545C123.391 38.4489 123.719 38.0582 124.139 37.7827C124.56 37.5071 125.045 37.3693 125.597 37.3693C126.023 37.3693 126.359 37.4403 126.607 37.5824C126.857 37.7216 127.047 37.8807 127.178 38.0597C127.311 38.2358 127.415 38.3807 127.489 38.4943H127.574V35.2727H128.58V44H127.608V42.9943H127.489C127.415 43.1136 127.31 43.2642 127.173 43.446C127.037 43.625 126.842 43.7855 126.589 43.9276C126.337 44.0668 126 44.1364 125.58 44.1364ZM125.716 43.233C126.119 43.233 126.46 43.1278 126.739 42.9176C127.017 42.7045 127.229 42.4105 127.374 42.0355C127.518 41.6577 127.591 41.2216 127.591 40.7273C127.591 40.2386 127.52 39.8111 127.378 39.4446C127.236 39.0753 127.026 38.7884 126.747 38.5838C126.469 38.3764 126.125 38.2727 125.716 38.2727C125.29 38.2727 124.935 38.3821 124.651 38.6009C124.369 38.8168 124.158 39.1108 124.016 39.483C123.876 39.8523 123.807 40.267 123.807 40.7273C123.807 41.1932 123.878 41.6165 124.02 41.9972C124.165 42.375 124.378 42.6761 124.659 42.9006C124.943 43.1222 125.295 43.233 125.716 43.233ZM133.305 44.1364C132.675 44.1364 132.131 43.9972 131.673 43.7188C131.219 43.4375 130.868 43.0455 130.621 42.5426C130.376 42.0369 130.254 41.4489 130.254 40.7784C130.254 40.108 130.376 39.517 130.621 39.0057C130.868 38.4915 131.212 38.0909 131.652 37.804C132.095 37.5142 132.612 37.3693 133.203 37.3693C133.544 37.3693 133.881 37.4261 134.213 37.5398C134.545 37.6534 134.848 37.8381 135.121 38.0938C135.393 38.3466 135.611 38.6818 135.773 39.0994C135.935 39.517 136.016 40.0312 136.016 40.642V41.0682H130.97V40.1989H134.993C134.993 39.8295 134.919 39.5 134.771 39.2102C134.626 38.9205 134.419 38.6918 134.149 38.5241C133.882 38.3565 133.567 38.2727 133.203 38.2727C132.803 38.2727 132.456 38.3722 132.163 38.571C131.874 38.767 131.651 39.0227 131.494 39.3381C131.338 39.6534 131.26 39.9915 131.26 40.3523V40.9318C131.26 41.4261 131.345 41.8452 131.516 42.1889C131.689 42.5298 131.929 42.7898 132.236 42.9688C132.543 43.1449 132.899 43.233 133.305 43.233C133.57 43.233 133.808 43.196 134.021 43.1222C134.237 43.0455 134.423 42.9318 134.58 42.7812C134.736 42.6278 134.857 42.4375 134.942 42.2102L135.913 42.483C135.811 42.8125 135.639 43.1023 135.398 43.3523C135.156 43.5994 134.858 43.7926 134.503 43.9318C134.148 44.0682 133.749 44.1364 133.305 44.1364ZM142.699 37.4545L140.278 44H139.255L136.835 37.4545H137.926L139.733 42.6705H139.801L141.608 37.4545H142.699ZM146.536 44.1364C145.905 44.1364 145.361 43.9972 144.904 43.7188C144.449 43.4375 144.098 43.0455 143.851 42.5426C143.607 42.0369 143.485 41.4489 143.485 40.7784C143.485 40.108 143.607 39.517 143.851 39.0057C144.098 38.4915 144.442 38.0909 144.882 37.804C145.326 37.5142 145.843 37.3693 146.434 37.3693C146.775 37.3693 147.111 37.4261 147.444 37.5398C147.776 37.6534 148.078 37.8381 148.351 38.0938C148.624 38.3466 148.841 38.6818 149.003 39.0994C149.165 39.517 149.246 40.0312 149.246 40.642V41.0682H144.201V40.1989H148.223C148.223 39.8295 148.15 39.5 148.002 39.2102C147.857 38.9205 147.65 38.6918 147.38 38.5241C147.113 38.3565 146.797 38.2727 146.434 38.2727C146.033 38.2727 145.686 38.3722 145.394 38.571C145.104 38.767 144.881 39.0227 144.725 39.3381C144.569 39.6534 144.49 39.9915 144.49 40.3523V40.9318C144.49 41.4261 144.576 41.8452 144.746 42.1889C144.919 42.5298 145.159 42.7898 145.466 42.9688C145.773 43.1449 146.13 43.233 146.536 43.233C146.8 43.233 147.039 43.196 147.252 43.1222C147.468 43.0455 147.654 42.9318 147.81 42.7812C147.966 42.6278 148.087 42.4375 148.172 42.2102L149.144 42.483C149.042 42.8125 148.87 43.1023 148.628 43.3523C148.387 43.5994 148.088 43.7926 147.733 43.9318C147.378 44.0682 146.979 44.1364 146.536 44.1364ZM151.782 35.2727V44H150.776V35.2727H151.782ZM156.283 44.1364C155.692 44.1364 155.173 43.9957 154.727 43.7145C154.284 43.4332 153.938 43.0398 153.688 42.5341C153.44 42.0284 153.317 41.4375 153.317 40.7614C153.317 40.0795 153.44 39.4844 153.688 38.9759C153.938 38.4673 154.284 38.0724 154.727 37.7912C155.173 37.5099 155.692 37.3693 156.283 37.3693C156.874 37.3693 157.391 37.5099 157.834 37.7912C158.28 38.0724 158.626 38.4673 158.874 38.9759C159.124 39.4844 159.249 40.0795 159.249 40.7614C159.249 41.4375 159.124 42.0284 158.874 42.5341C158.626 43.0398 158.28 43.4332 157.834 43.7145C157.391 43.9957 156.874 44.1364 156.283 44.1364ZM156.283 43.233C156.732 43.233 157.101 43.1179 157.391 42.8878C157.68 42.6577 157.895 42.3551 158.034 41.9801C158.173 41.6051 158.243 41.1989 158.243 40.7614C158.243 40.3239 158.173 39.9162 158.034 39.5384C157.895 39.1605 157.68 38.8551 157.391 38.6222C157.101 38.3892 156.732 38.2727 156.283 38.2727C155.834 38.2727 155.464 38.3892 155.175 38.6222C154.885 38.8551 154.67 39.1605 154.531 39.5384C154.392 39.9162 154.322 40.3239 154.322 40.7614C154.322 41.1989 154.392 41.6051 154.531 41.9801C154.67 42.3551 154.885 42.6577 155.175 42.8878C155.464 43.1179 155.834 43.233 156.283 43.233ZM160.784 46.4545V37.4545H161.755V38.4943H161.875C161.949 38.3807 162.051 38.2358 162.181 38.0597C162.315 37.8807 162.505 37.7216 162.752 37.5824C163.002 37.4403 163.341 37.3693 163.767 37.3693C164.318 37.3693 164.804 37.5071 165.224 37.7827C165.645 38.0582 165.973 38.4489 166.208 38.9545C166.444 39.4602 166.562 40.0568 166.562 40.7443C166.562 41.4375 166.444 42.0384 166.208 42.5469C165.973 43.0526 165.646 43.4446 165.228 43.723C164.811 43.9986 164.329 44.1364 163.784 44.1364C163.363 44.1364 163.027 44.0668 162.774 43.9276C162.521 43.7855 162.326 43.625 162.19 43.446C162.054 43.2642 161.949 43.1136 161.875 42.9943H161.789V46.4545H160.784ZM161.772 40.7273C161.772 41.2216 161.845 41.6577 161.99 42.0355C162.135 42.4105 162.346 42.7045 162.625 42.9176C162.903 43.1278 163.244 43.233 163.647 43.233C164.068 43.233 164.419 43.1222 164.7 42.9006C164.984 42.6761 165.197 42.375 165.339 41.9972C165.484 41.6165 165.556 41.1932 165.556 40.7273C165.556 40.267 165.485 39.8523 165.343 39.483C165.204 39.1108 164.993 38.8168 164.708 38.6009C164.427 38.3821 164.074 38.2727 163.647 38.2727C163.238 38.2727 162.895 38.3764 162.616 38.5838C162.338 38.7884 162.127 39.0753 161.985 39.4446C161.843 39.8111 161.772 40.2386 161.772 40.7273ZM168.096 44V37.4545H169.068V38.4773H169.153C169.289 38.1278 169.51 37.8565 169.814 37.6634C170.118 37.4673 170.483 37.3693 170.909 37.3693C171.341 37.3693 171.7 37.4673 171.987 37.6634C172.277 37.8565 172.502 38.1278 172.664 38.4773H172.733C172.9 38.1392 173.152 37.8707 173.487 37.6719C173.822 37.4702 174.224 37.3693 174.693 37.3693C175.278 37.3693 175.757 37.5526 176.129 37.919C176.501 38.2827 176.687 38.8494 176.687 39.6193V44H175.681V39.6193C175.681 39.1364 175.549 38.7912 175.285 38.5838C175.021 38.3764 174.71 38.2727 174.352 38.2727C173.892 38.2727 173.535 38.4119 173.282 38.6903C173.029 38.9659 172.903 39.3153 172.903 39.7386V44H171.88V39.517C171.88 39.1449 171.76 38.8452 171.518 38.6179C171.277 38.3878 170.966 38.2727 170.585 38.2727C170.324 38.2727 170.079 38.3423 169.852 38.4815C169.627 38.6207 169.446 38.8139 169.306 39.0611C169.17 39.3054 169.102 39.5881 169.102 39.9091V44H168.096ZM181.27 44.1364C180.64 44.1364 180.096 43.9972 179.638 43.7188C179.184 43.4375 178.833 43.0455 178.586 42.5426C178.341 42.0369 178.219 41.4489 178.219 40.7784C178.219 40.108 178.341 39.517 178.586 39.0057C178.833 38.4915 179.176 38.0909 179.617 37.804C180.06 37.5142 180.577 37.3693 181.168 37.3693C181.509 37.3693 181.846 37.4261 182.178 37.5398C182.51 37.6534 182.813 37.8381 183.086 38.0938C183.358 38.3466 183.576 38.6818 183.738 39.0994C183.9 39.517 183.98 40.0312 183.98 40.642V41.0682H178.935V40.1989H182.958C182.958 39.8295 182.884 39.5 182.736 39.2102C182.591 38.9205 182.384 38.6918 182.114 38.5241C181.847 38.3565 181.532 38.2727 181.168 38.2727C180.767 38.2727 180.421 38.3722 180.128 38.571C179.838 38.767 179.615 39.0227 179.459 39.3381C179.303 39.6534 179.225 39.9915 179.225 40.3523V40.9318C179.225 41.4261 179.31 41.8452 179.48 42.1889C179.654 42.5298 179.894 42.7898 180.201 42.9688C180.507 43.1449 180.864 43.233 181.27 43.233C181.534 43.233 181.773 43.196 181.986 43.1222C182.202 43.0455 182.388 42.9318 182.544 42.7812C182.701 42.6278 182.821 42.4375 182.907 42.2102L183.878 42.483C183.776 42.8125 183.604 43.1023 183.363 43.3523C183.121 43.5994 182.823 43.7926 182.468 43.9318C182.113 44.0682 181.713 44.1364 181.27 44.1364ZM186.516 40.0625V44H185.51V37.4545H186.482V38.4773H186.567C186.721 38.1449 186.953 37.8778 187.266 37.6761C187.578 37.4716 187.982 37.3693 188.476 37.3693C188.919 37.3693 189.307 37.4602 189.64 37.642C189.972 37.821 190.23 38.0938 190.415 38.4602C190.6 38.8239 190.692 39.2841 190.692 39.8409V44H189.686V39.9091C189.686 39.3949 189.553 38.9943 189.286 38.7074C189.019 38.4176 188.652 38.2727 188.186 38.2727C187.865 38.2727 187.578 38.3423 187.326 38.4815C187.076 38.6207 186.878 38.8239 186.733 39.0909C186.588 39.358 186.516 39.6818 186.516 40.0625ZM195.376 37.4545V38.3068H191.984V37.4545H195.376ZM192.973 35.8864H193.979V42.125C193.979 42.4091 194.02 42.6222 194.102 42.7642C194.188 42.9034 194.295 42.9972 194.426 43.0455C194.56 43.0909 194.7 43.1136 194.848 43.1136C194.959 43.1136 195.05 43.108 195.121 43.0966C195.192 43.0824 195.249 43.071 195.291 43.0625L195.496 43.9659C195.428 43.9915 195.332 44.017 195.21 44.0426C195.088 44.071 194.933 44.0852 194.746 44.0852C194.462 44.0852 194.183 44.0241 193.911 43.902C193.641 43.7798 193.416 43.5938 193.237 43.3438C193.061 43.0938 192.973 42.7784 192.973 42.3977V35.8864Z" fill="#717784"/>
<rect x="12" y="72" width="190" height="24" rx="8" fill="#84EBB4"/>
<path d="M21.8778 88.1193C21.2443 88.1193 20.6818 88.0128 20.1903 87.7997C19.7017 87.5866 19.3182 87.2955 19.0398 86.9261C18.7642 86.554 18.6278 86.1321 18.6307 85.6605C18.6278 85.294 18.7074 84.9574 18.8693 84.6506C19.0313 84.3438 19.25 84.0881 19.5256 83.8835C19.804 83.6761 20.1136 83.544 20.4545 83.4872V83.4276C20.0057 83.3281 19.642 83.0994 19.3636 82.7415C19.0881 82.3807 18.9517 81.9645 18.9545 81.4929C18.9517 81.044 19.0767 80.6435 19.3295 80.2912C19.5824 79.9389 19.929 79.6619 20.3693 79.4602C20.8097 79.2557 21.3125 79.1534 21.8778 79.1534C22.4375 79.1534 22.9361 79.2557 23.3736 79.4602C23.8139 79.6619 24.1605 79.9389 24.4134 80.2912C24.669 80.6435 24.7969 81.044 24.7969 81.4929C24.7969 81.9645 24.6562 82.3807 24.375 82.7415C24.0966 83.0994 23.7372 83.3281 23.2969 83.4276V83.4872C23.6378 83.544 23.9446 83.6761 24.2173 83.8835C24.4929 84.0881 24.7116 84.3438 24.8736 84.6506C25.0384 84.9574 25.1207 85.294 25.1207 85.6605C25.1207 86.1321 24.9815 86.554 24.7031 86.9261C24.4247 87.2955 24.0412 87.5866 23.5526 87.7997C23.0668 88.0128 22.5085 88.1193 21.8778 88.1193ZM21.8778 86.9006C22.2045 86.9006 22.4886 86.8452 22.7301 86.7344C22.9716 86.6207 23.1591 86.4616 23.2926 86.2571C23.4261 86.0526 23.4943 85.8168 23.4972 85.5497C23.4943 85.2713 23.4219 85.0256 23.2798 84.8125C23.1406 84.5966 22.9489 84.4276 22.7045 84.3054C22.4631 84.1832 22.1875 84.1222 21.8778 84.1222C21.5653 84.1222 21.2869 84.1832 21.0426 84.3054C20.7983 84.4276 20.6051 84.5966 20.4631 84.8125C20.3239 85.0256 20.2557 85.2713 20.2585 85.5497C20.2557 85.8168 20.321 86.0526 20.4545 86.2571C20.5881 86.4588 20.7756 86.6165 21.017 86.7301C21.2614 86.8437 21.5483 86.9006 21.8778 86.9006ZM21.8778 82.9247C22.1449 82.9247 22.3807 82.8707 22.5852 82.7628C22.7926 82.6548 22.956 82.5043 23.0753 82.3111C23.1946 82.1179 23.2557 81.8949 23.2585 81.642C23.2557 81.392 23.196 81.1733 23.0795 80.9858C22.9631 80.7955 22.8011 80.6491 22.5938 80.5469C22.3864 80.4418 22.1477 80.3892 21.8778 80.3892C21.6023 80.3892 21.3594 80.4418 21.1491 80.5469C20.9418 80.6491 20.7798 80.7955 20.6634 80.9858C20.5497 81.1733 20.4943 81.392 20.4972 81.642C20.4943 81.8949 20.5511 82.1179 20.6676 82.3111C20.7869 82.5014 20.9503 82.652 21.1577 82.7628C21.3679 82.8707 21.608 82.9247 21.8778 82.9247ZM29.6755 88.1662C28.9738 88.1662 28.3715 87.9886 27.8687 87.6335C27.3687 87.2756 26.9838 86.7599 26.7139 86.0866C26.4468 85.4105 26.3133 84.5966 26.3133 83.6449C26.3161 82.6932 26.4511 81.8835 26.7181 81.2159C26.988 80.5455 27.373 80.0341 27.873 79.6818C28.3758 79.3295 28.9767 79.1534 29.6755 79.1534C30.3744 79.1534 30.9752 79.3295 31.4781 79.6818C31.9809 80.0341 32.3659 80.5455 32.6329 81.2159C32.9028 81.8864 33.0377 82.696 33.0377 83.6449C33.0377 84.5994 32.9028 85.4148 32.6329 86.0909C32.3659 86.7642 31.9809 87.2784 31.4781 87.6335C30.9781 87.9886 30.3772 88.1662 29.6755 88.1662ZM29.6755 86.8324C30.221 86.8324 30.6514 86.5639 30.9667 86.027C31.2849 85.4872 31.444 84.6932 31.444 83.6449C31.444 82.9517 31.3715 82.3693 31.2267 81.8977C31.0818 81.4261 30.8772 81.071 30.613 80.8324C30.3488 80.5909 30.0363 80.4702 29.6755 80.4702C29.1329 80.4702 28.7039 80.7401 28.3886 81.2798C28.0732 81.8168 27.9142 82.6051 27.9113 83.6449C27.9085 84.3409 27.9781 84.9261 28.1201 85.4006C28.265 85.875 28.4695 86.233 28.7338 86.4744C28.998 86.7131 29.3119 86.8324 29.6755 86.8324ZM39.0478 86.3636V85.9034C39.0478 85.5653 39.1188 85.2543 39.2608 84.9702C39.4057 84.6861 39.6159 84.4574 39.8915 84.2841C40.1671 84.1108 40.5009 84.0241 40.8929 84.0241C41.2963 84.0241 41.6344 84.1108 41.9071 84.2841C42.1799 84.4545 42.3858 84.6818 42.525 84.9659C42.6671 85.25 42.7381 85.5625 42.7381 85.9034V86.3636C42.7381 86.7017 42.6671 87.0128 42.525 87.2969C42.383 87.581 42.1742 87.8097 41.8986 87.983C41.6259 88.1563 41.2907 88.2429 40.8929 88.2429C40.4952 88.2429 40.1586 88.1563 39.883 87.983C39.6074 87.8097 39.3986 87.581 39.2566 87.2969C39.1174 87.0128 39.0478 86.7017 39.0478 86.3636ZM40.16 85.9034V86.3636C40.16 86.5881 40.214 86.794 40.3219 86.9815C40.4299 87.169 40.6202 87.2628 40.8929 87.2628C41.1685 87.2628 41.3574 87.1705 41.4597 86.9858C41.5648 86.7983 41.6174 86.5909 41.6174 86.3636V85.9034C41.6174 85.6761 41.5676 85.4688 41.4682 85.2812C41.3688 85.0909 41.177 84.9957 40.8929 84.9957C40.6259 84.9957 40.437 85.0909 40.3262 85.2812C40.2154 85.4688 40.16 85.6761 40.16 85.9034ZM34.6117 81.3693V80.9091C34.6117 80.5682 34.6841 80.2557 34.829 79.9716C34.9739 79.6875 35.1841 79.4602 35.4597 79.2898C35.7353 79.1165 36.0691 79.0298 36.4611 79.0298C36.8617 79.0298 37.1983 79.1165 37.4711 79.2898C37.7466 79.4602 37.954 79.6875 38.0932 79.9716C38.2324 80.2557 38.302 80.5682 38.302 80.9091V81.3693C38.302 81.7102 38.231 82.0227 38.089 82.3068C37.9498 82.5881 37.7424 82.8139 37.4668 82.9844C37.1912 83.1548 36.856 83.2401 36.4611 83.2401C36.0605 83.2401 35.7225 83.1548 35.4469 82.9844C35.1742 82.8139 34.9668 82.5866 34.8247 82.3026C34.6827 82.0185 34.6117 81.7074 34.6117 81.3693ZM35.7324 80.9091V81.3693C35.7324 81.5966 35.785 81.804 35.8901 81.9915C35.998 82.1761 36.1884 82.2685 36.4611 82.2685C36.7338 82.2685 36.9213 82.1761 37.0236 81.9915C37.1287 81.804 37.1813 81.5966 37.1813 81.3693V80.9091C37.1813 80.6818 37.1316 80.4744 37.0321 80.2869C36.9327 80.0966 36.7424 80.0014 36.4611 80.0014C36.1912 80.0014 36.0023 80.0966 35.8944 80.2869C35.7864 80.4773 35.7324 80.6847 35.7324 80.9091ZM35.0975 88L41.0975 79.2727H42.1628L36.1628 88H35.0975Z" fill="#0B4627"/>
<rect x="206" y="72" width="44" height="24" rx="8" fill="#E0FAEC"/>
</svg>
