<svg width="215" height="73" viewBox="0 0 215 73" fill="none" xmlns="http://www.w3.org/2000/svg">
<rect y="32.92" width="211" height="40" rx="20" transform="rotate(-8.97591 0 32.92)" fill="#E0F5FF"/>
<path d="M30.4675 41.5218L30.7015 43.0034C31.828 50.1353 28.3593 54.0036 23.4499 54.779L22.0409 55.0016C21.8455 52.7454 22.3271 51.2852 23.8871 49.3941C24.6545 48.4643 24.5069 48.0206 24.1089 48.3515C21.3678 50.6296 20.2497 53.2997 20.7966 57.1951L20.8377 57.4695L19.3561 57.7035C19.1966 56.6938 19.1378 55.7639 19.1757 54.8983C18.8539 53.9666 18.5625 52.6793 18.303 51.0362C17.6567 46.9447 20.4494 43.1042 24.541 42.4579C26.0226 42.2239 27.6212 42.7307 30.4675 41.5218Z" fill="#50BFF6"/>
<path d="M52.7445 49.8986L44.2736 51.2366L42.601 40.6479L51.072 39.3099L51.3142 40.8429L44.55 41.9113L45.0193 44.8824L51.5464 43.8515L51.786 45.3687L45.259 46.3996L45.7383 49.434L52.5024 48.3656L52.7445 49.8986ZM55.6069 49.4465L53.9001 49.7161L52.6594 41.8615L54.224 41.6143L54.6085 44.0481L54.7191 44.0307C54.7465 42.6657 55.5898 41.2366 57.5811 40.9221C59.7621 40.5776 61.0689 41.8776 61.356 43.6951L62.1024 48.4205L60.3956 48.6901L59.7216 44.423C59.4894 42.9532 58.7083 42.3153 57.0805 42.5724C55.3578 42.8445 54.7232 43.8518 54.9928 45.5587L55.6069 49.4465ZM67.4254 47.7417C64.8494 48.1486 62.9287 46.9617 62.5143 44.3382C62.1274 41.8886 63.543 39.9804 66.1032 39.576C68.5371 39.1915 70.4087 40.2728 70.7856 42.6592C70.8305 42.9437 70.8497 43.1674 70.8397 43.412L64.1704 44.4654C64.4733 45.9726 65.3434 46.6613 67.1608 46.3742C68.8045 46.1146 69.3992 45.4699 69.2519 44.5375L69.2319 44.411L70.9387 44.1414L70.9612 44.2837C71.2258 45.9589 69.7644 47.3722 67.4254 47.7417ZM66.2838 40.9243C64.5454 41.1989 63.9091 42.0931 64.0364 43.5147L69.1411 42.7084L69.1362 42.6768C68.9065 41.2228 67.959 40.6597 66.2838 40.9243ZM74.2735 46.498L72.5667 46.7676L71.326 38.913L72.8906 38.6659L73.2251 40.7836L73.3357 40.7661C73.3731 39.4644 74.0667 38.3181 75.6788 38.0635C77.4646 37.7814 78.4412 38.9392 78.6759 40.4248L78.8381 41.4521L77.1471 41.7192L77.0373 41.0238C76.86 39.9017 76.3035 39.455 75.134 39.6398C73.7907 39.852 73.3549 40.6821 73.577 42.0887L74.2735 46.498ZM83.7042 44.2795C81.3652 44.6489 79.7423 43.3988 79.3978 41.2179C79.0533 39.0369 80.2752 37.3375 82.6616 36.9605C84.3052 36.7009 85.6552 37.249 86.1569 38.579L86.2517 38.564L85.9422 36.6043L87.5068 36.3572L88.6026 43.2952C89.0195 45.9345 87.5531 47.3162 84.9771 47.7231C82.6539 48.09 80.8696 47.2542 80.5701 45.3577L82.2611 45.0906C82.4408 46.2285 83.172 46.5503 84.8472 46.2857C86.6331 46.0036 87.2037 45.4114 86.9266 43.6571L86.622 41.729L86.5114 41.7465C86.4142 42.9767 85.4901 43.9974 83.7042 44.2795ZM81.1205 40.9458C81.3751 42.5578 82.4132 42.977 84.0252 42.7223C85.7637 42.4477 86.5971 41.571 86.3774 40.1802L86.3425 39.959C86.1328 38.6314 85.0456 38.1066 83.3861 38.3687C81.7425 38.6283 80.8658 39.3338 81.1205 40.9458ZM91.8416 46.4768L90.7195 46.654L90.4749 45.1052L92.0078 44.8631C92.7032 44.7533 92.9577 44.5187 93.1099 43.9439L93.2347 43.503L88.122 36.26L90.0343 35.958L92.7004 39.8132L93.7719 41.5716L93.8983 41.5516L94.3416 39.5378L95.5341 35.0892L97.4148 34.7922L94.697 44.1468C94.2712 45.6557 93.4536 46.2222 91.8416 46.4768ZM105.582 41.7147C103.054 42.1141 101.458 41.3456 101.171 39.5281L101.164 39.4807L102.871 39.2111L102.891 39.3375C103.053 40.3648 103.722 40.5993 105.365 40.3397C106.898 40.0976 107.307 39.7091 107.197 39.0137C107.094 38.3657 106.683 38.2202 105.536 38.2394L103.341 38.2944C101.826 38.3394 100.825 37.8496 100.618 36.5378C100.401 35.1629 101.494 33.9858 103.912 33.6039C106.315 33.2244 107.921 33.9588 108.216 35.8237L108.223 35.8711L106.532 36.1382L106.517 36.0434C106.37 35.111 105.818 34.6959 104.08 34.9705C102.642 35.1977 102.186 35.5936 102.303 36.3364C102.4 36.9528 102.751 37.1241 103.962 37.0949L105.819 37.0607C107.721 37.0032 108.675 37.5006 108.879 38.7965C109.112 40.2663 107.795 41.3652 105.582 41.7147ZM112.614 40.604C110.986 40.8611 109.839 40.2648 109.634 38.9689C109.442 37.7519 110.322 36.965 111.843 36.5465L115.355 35.6031L115.283 35.1447C115.078 33.8488 114.437 33.4804 112.935 33.7175C111.481 33.9472 110.845 34.5336 111.027 35.6873L111.037 35.7505L109.346 36.0176L109.336 35.9544C109.054 34.1686 110.328 32.5906 112.825 32.1961C115.322 31.8017 116.659 32.9836 116.956 34.8643L117.709 39.6372L116.145 39.8843L115.835 37.9246L115.725 37.9421C115.524 39.3345 114.4 40.3219 112.614 40.604ZM111.324 38.5886C111.424 39.2208 111.898 39.4537 112.878 39.2989C114.663 39.0168 115.76 38.1633 115.515 36.6145L112.488 37.449C111.621 37.6994 111.226 37.9723 111.324 38.5886ZM124.101 38.6276L122.015 38.9571L117.107 31.6817L118.988 31.3846L122.764 37.138L122.89 37.118L124.709 30.4809L126.558 30.1889L124.101 38.6276ZM128.822 28.8918L127.115 29.1614L126.828 27.3439L128.535 27.0743L128.822 28.8918ZM130.207 37.6631L128.501 37.9327L127.26 30.078L128.967 29.8084L130.207 37.6631ZM133.321 37.1713L131.614 37.4409L130.373 29.5863L131.938 29.3391L132.322 31.7729L132.433 31.7555C132.46 30.3905 133.304 28.9614 135.295 28.6469C137.476 28.3024 138.783 29.6024 139.07 31.4199L139.816 36.1453L138.11 36.4149L137.436 32.1478C137.203 30.678 136.422 30.0401 134.795 30.2972C133.072 30.5693 132.437 31.5766 132.707 33.2835L133.321 37.1713ZM144.465 34.6821C142.126 35.0516 140.503 33.8015 140.158 31.6205C139.814 29.4396 141.036 27.7401 143.422 27.3632C145.066 27.1036 146.416 27.6516 146.917 28.9817L147.012 28.9667L146.703 27.007L148.267 26.7598L149.363 33.6978C149.78 36.3371 148.314 37.7188 145.738 38.1257C143.414 38.4927 141.63 37.6568 141.331 35.7603L143.022 35.4932C143.201 36.6311 143.933 36.953 145.608 36.6884C147.394 36.4063 147.964 35.814 147.687 34.0598L147.383 32.1317L147.272 32.1491C147.175 33.3794 146.251 34.4001 144.465 34.6821ZM141.881 31.3484C142.136 32.9604 143.174 33.3796 144.786 33.125C146.524 32.8504 147.358 31.9736 147.138 30.5829L147.103 30.3616C146.893 29.0341 145.806 28.5093 144.147 28.7714C142.503 29.031 141.626 29.7364 141.881 31.3484ZM155.147 33.7237L153.441 33.9933L152.2 26.1387L153.764 25.8916L154.139 28.2622L154.234 28.2472C154.232 26.903 154.893 25.5513 156.853 25.2417C158.639 24.9597 159.775 25.8979 160.233 27.3643L160.328 27.3493C160.322 25.9735 161.009 24.5852 163.001 24.2707C165.039 23.9487 166.286 25.1772 166.586 27.0736L167.332 31.7991L165.641 32.0662L164.967 27.7991C164.723 26.2503 164.001 25.6839 162.484 25.9235C160.809 26.1881 160.343 27.1364 160.618 28.8748L161.232 32.7626L159.541 33.0297L158.867 28.7626C158.622 27.2138 157.917 26.6449 156.4 26.8846C154.709 27.1517 154.259 28.0975 154.533 29.8359L155.147 33.7237ZM172.724 31.1094C170.116 31.5213 168.1 30.1389 167.718 27.7209C167.331 25.2713 168.826 23.3506 171.433 22.9387C174.057 22.5243 176.071 23.8908 176.458 26.3405C176.84 28.7585 175.348 30.695 172.724 31.1094ZM172.484 29.5922C174.397 29.2902 175.045 28.2645 174.783 26.6051C174.518 24.9298 173.583 24.138 171.671 24.4401C169.774 24.7396 169.129 25.7811 169.393 27.4563C169.655 29.1157 170.588 29.8918 172.484 29.5922ZM181.628 29.703C179.146 30.095 177.509 28.6527 177.127 26.2347C176.741 23.7851 177.84 21.9268 180.226 21.5498C182.091 21.2552 183.303 22.052 183.828 23.3297L183.923 23.3147L183.154 18.447L184.861 18.1774L186.534 28.7661L184.969 29.0133L184.612 26.7533L184.501 26.7708C184.417 28.3878 183.398 29.4235 181.628 29.703ZM178.85 25.9626C179.147 27.8433 180.211 28.3232 181.902 28.0561C183.577 27.7914 184.48 26.839 184.22 25.1954L184.2 25.0689C183.936 23.3937 182.826 22.7267 181.072 23.0037C179.428 23.2634 178.551 24.0661 178.85 25.9626ZM191.914 28.0783C189.338 28.4852 187.417 27.2983 187.003 24.6748C186.616 22.2252 188.031 20.317 190.592 19.9126C193.026 19.5282 194.897 20.6094 195.274 22.9958C195.319 23.2803 195.338 23.504 195.328 23.7486L188.659 24.802C188.962 26.3092 189.832 26.9979 191.649 26.7108C193.293 26.4512 193.888 25.8065 193.74 24.8741L193.72 24.7477L195.427 24.4781L195.45 24.6203C195.714 26.2955 194.253 27.7088 191.914 28.0783ZM190.772 21.2609C189.034 21.5355 188.398 22.4297 188.525 23.8513L193.63 23.045L193.625 23.0134C193.395 21.5594 192.448 20.9963 190.772 21.2609Z" fill="#50BFF6"/>
</svg>
