<svg width="148" height="183" viewBox="0 0 148 183" fill="none" xmlns="http://www.w3.org/2000/svg">
<rect y="22.749" width="118.796" height="163.186" rx="21.597" transform="rotate(-11.0401 0 22.749)" fill="white"/>
<rect y="22.749" width="118.796" height="163.186" rx="21.597" transform="rotate(-11.0401 0 22.749)" stroke="#E1E4EA" stroke-width="0.618234"/>
<g filter="url(#filter0_d_7343_51160)">
<rect x="39.8594" y="29.6416" width="43.194" height="43.194" rx="21.597" transform="rotate(-11.0401 39.8594 29.6416)" fill="#47C2FF"/>
<path d="M62.4227 51.7782C61.9892 50.8124 60.7626 50.1927 60.219 49.7327C59.2879 48.9434 58.5986 47.9071 58.2307 46.7432C57.8628 45.5793 57.8312 44.3352 58.1394 43.1541C58.4477 41.973 59.0833 40.903 59.9731 40.0674C60.8629 39.2318 61.9707 38.6645 63.1688 38.431C64.3669 38.1974 65.6066 38.307 66.7451 38.7473C67.8837 39.1875 68.8746 39.9404 69.604 40.9192C70.3333 41.898 70.7713 43.063 70.8674 44.2798C70.9636 45.4967 70.7141 46.716 70.1476 47.7972C69.8166 48.427 68.9145 49.462 68.8757 50.5192L62.4219 51.7784L62.4227 51.7782ZM69.139 52.1181L69.2941 52.913C69.3763 53.3347 69.2877 53.7717 69.0478 54.128C68.8078 54.4844 68.4361 54.7308 68.0145 54.813L64.8349 55.4334C64.4132 55.5156 63.9762 55.427 63.6199 55.1871C63.2635 54.9471 63.0172 54.5754 62.9349 54.1538L62.7798 53.3589L69.139 52.1181ZM65.2042 44.6384L64.583 41.4548L61.9373 46.9261L63.9246 46.5384L64.5449 49.718L67.1914 44.2507L65.2042 44.6384Z" fill="white"/>
</g>
<path d="M45.9213 108.533L43.2751 109.049L42.6189 105.686L32.0344 107.751L31.6726 105.896L39.5973 92.5667L42.6885 91.9636L44.797 102.771L47.641 102.216L48.109 104.615L45.2651 105.17L45.9213 108.533ZM35.2512 104.633L42.1509 103.287L40.6503 95.5959L40.4525 95.6345L35.2126 104.435L35.2512 104.633ZM53.6724 107.021L51.0016 107.542L47.7688 90.9724L50.4397 90.4513L52.0078 98.4886L52.1562 98.4597C52.1713 96.3003 53.3035 94.077 56.4442 93.4643C59.8323 92.8032 61.9234 94.7057 62.5073 97.698L63.9355 105.018L61.2893 105.534L59.9866 98.8573C59.5041 96.3843 58.1982 95.6122 55.651 96.1092C52.7329 96.6785 52.003 98.4639 52.5096 101.061L53.6724 107.021ZM77.2901 102.413L74.6193 102.934L72.1585 90.3213L68.1028 91.1126L67.7313 89.2084L68.5226 89.054C70.3527 88.6969 71.2997 88.0244 71.708 86.3017L74.0574 85.8434L77.2901 102.413ZM87.4044 100.696C82.5572 101.642 79.5643 100.249 78.9129 96.9103L78.8599 96.6383L81.5802 96.1075L81.6333 96.3796C82.0144 98.3332 83.6671 98.9093 86.981 98.2627C89.9486 97.6837 91.135 96.5281 90.6815 94.2034C90.2376 91.9283 88.758 91.3184 85.7409 91.9071C83.3668 92.3703 82.0591 93.0362 81.2835 94.0603L81.1007 94.0447L81.1103 94.0941L78.6035 94.4035L77.7182 85.1291L90.5037 82.6346L90.9718 85.0334L80.5109 87.0744L80.974 92.6061L81.1767 92.5922C81.839 91.5132 83.5701 90.1229 86.3152 89.5873C90.1731 88.8346 92.8102 90.2455 93.476 93.6582C94.1467 97.0957 92.0784 99.784 87.4044 100.696ZM99.7981 98.0211L97.1272 98.5422L94.7292 86.2513L97.1775 85.7737L97.9012 89.4832L98.0496 89.4542C97.9706 87.3389 98.9345 85.1741 102.001 84.5758C104.796 84.0306 106.637 85.4427 107.442 87.7245L107.59 87.6955C107.501 85.5307 108.505 83.3069 111.621 82.6989C114.811 82.0765 116.843 83.9391 117.422 86.9067L118.865 94.3011L116.219 94.8173L114.916 88.1402C114.443 85.7166 113.276 84.8661 110.902 85.3293C108.281 85.8408 107.602 87.3596 108.132 90.0799L109.319 96.1635L106.673 96.6798L105.37 90.0026C104.897 87.5791 103.755 86.7238 101.381 87.187C98.7349 87.7032 98.0804 89.2172 98.6111 91.9375L99.7981 98.0211Z" fill="black"/>
<path d="M51.708 134.025L53.4751 133.68C53.5825 134.03 53.7643 134.311 54.0205 134.523C54.2797 134.73 54.5912 134.865 54.9549 134.927C55.3186 134.988 55.7074 134.979 56.1214 134.898C56.5655 134.812 56.9479 134.659 57.2686 134.44C57.593 134.22 57.8282 133.944 57.9742 133.611C58.1201 133.278 58.1512 132.896 58.0675 132.467C57.9926 132.083 57.8314 131.748 57.5838 131.46C57.3362 131.172 56.9958 130.969 56.5624 130.85C56.129 130.732 55.5943 130.735 54.9582 130.859L53.9251 131.06L53.6673 129.739L55.8193 125.991L55.8028 125.906L50.9024 126.862L50.6105 125.366L57.7917 123.965L58.0385 125.229L55.6364 129.378L55.654 129.469C56.1951 129.398 56.7004 129.415 57.1699 129.519C57.6432 129.622 58.0643 129.798 58.4332 130.046C58.8013 130.291 59.1067 130.594 59.3494 130.957C59.5921 131.32 59.7575 131.727 59.8456 132.179C59.9756 132.845 59.914 133.471 59.6608 134.055C59.4076 134.64 58.9992 135.14 58.4354 135.554C57.8747 135.965 57.1954 136.248 56.3975 136.403C55.656 136.548 54.9592 136.551 54.3071 136.413C53.6587 136.273 53.1039 136.003 52.6425 135.6C52.1849 135.197 51.8734 134.672 51.708 134.025ZM63.175 135.028C62.8664 135.088 62.5798 135.031 62.3151 134.856C62.0497 134.677 61.8866 134.432 61.8256 134.119C61.7654 133.811 61.825 133.526 62.0045 133.264C62.1832 132.999 62.4269 132.836 62.7355 132.776C63.0442 132.715 63.3312 132.775 63.5966 132.953C63.8612 133.128 64.0236 133.37 64.0839 133.679C64.1242 133.886 64.1086 134.086 64.037 134.28C63.9685 134.469 63.8594 134.631 63.7099 134.766C63.5603 134.9 63.382 134.988 63.175 135.028ZM69.8327 133.782C69.0235 133.94 68.2812 133.94 67.6058 133.783C66.9343 133.625 66.3757 133.335 65.9302 132.914C65.4847 132.493 65.2029 131.97 65.0848 131.344C64.9856 130.856 64.9976 130.387 65.1208 129.937C65.247 129.482 65.4602 129.083 65.7604 128.739C66.0598 128.392 66.4205 128.138 66.8424 127.977L66.8292 127.91C66.2262 127.883 65.7049 127.664 65.2654 127.254C64.8259 126.843 64.5474 126.327 64.43 125.705C64.3109 125.115 64.3643 124.558 64.5902 124.033C64.819 123.504 65.1859 123.052 65.6908 122.676C66.1957 122.3 66.8038 122.042 67.5152 121.904C68.219 121.766 68.8739 121.779 69.4801 121.942C70.0893 122.101 70.5993 122.382 71.0103 122.786C71.4205 123.187 71.6848 123.68 71.8031 124.267C71.9205 124.889 71.8508 125.473 71.5941 126.019C71.3373 126.565 70.9421 126.963 70.4085 127.211L70.4217 127.279C70.8692 127.27 71.2933 127.371 71.6939 127.582C72.0975 127.788 72.4432 128.078 72.731 128.452C73.0218 128.821 73.2168 129.25 73.3161 129.738C73.4342 130.364 73.366 130.955 73.1114 131.513C72.8569 132.071 72.4462 132.549 71.8796 132.949C71.3166 133.348 70.6344 133.626 69.8327 133.782ZM69.554 132.354C70.032 132.26 70.4306 132.101 70.7498 131.874C71.0682 131.644 71.2955 131.367 71.4317 131.044C71.5671 130.716 71.5988 130.359 71.527 129.97C71.4446 129.568 71.2698 129.233 71.0026 128.965C70.7392 128.696 70.4152 128.507 70.0306 128.399C69.6461 128.29 69.228 128.28 68.7764 128.368C68.3209 128.457 67.9336 128.624 67.6143 128.87C67.295 129.116 67.0639 129.413 66.9209 129.761C66.7778 130.11 66.7475 130.485 66.8298 130.887C66.9017 131.275 67.06 131.596 67.3047 131.849C67.5525 132.098 67.8691 132.268 68.2544 132.361C68.6391 132.45 69.0722 132.448 69.554 132.354ZM68.5043 126.973C68.8882 126.898 69.2138 126.755 69.481 126.543C69.7482 126.33 69.9397 126.07 70.0555 125.762C70.175 125.454 70.2007 125.115 70.1325 124.745C70.0582 124.385 69.9099 124.085 69.6877 123.847C69.4692 123.609 69.197 123.445 68.871 123.356C68.5443 123.264 68.1853 123.256 67.7938 123.332C67.3949 123.41 67.0595 123.553 66.7878 123.763C66.5191 123.967 66.3284 124.222 66.2157 124.525C66.1029 124.828 66.0837 125.16 66.158 125.521C66.2262 125.89 66.3717 126.196 66.5947 126.438C66.8177 126.679 67.0929 126.848 67.4203 126.945C67.7515 127.04 68.1129 127.05 68.5043 126.973ZM80.6717 128.45L80.2583 126.391L80.5519 126.334L83.2911 121.99L85.3122 121.596L82.1867 126.543L81.9213 126.594L80.6717 128.45ZM79.693 131.694L77.4372 120.132L79.1252 119.803L81.3811 131.365L79.693 131.694ZM85.1692 130.626L81.2601 127.11L82.1929 125.703L87.2412 130.221L85.1692 130.626ZM90.7034 129.546L85.2408 118.609L87.0757 118.251L91.0752 126.766L91.1825 126.745L91.7784 117.334L93.5963 116.979L97.6873 125.482L97.7946 125.461L98.2934 116.063L100.134 115.704L99.1774 127.893L97.4216 128.235L93.2987 120.05L93.2084 120.067L92.4648 129.202L90.7034 129.546ZM104.29 121.55L105.294 126.699L103.606 127.028L101.351 115.466L103.016 115.141L103.855 119.443L103.963 119.422C104.075 118.916 104.313 118.485 104.677 118.128C105.041 117.772 105.56 117.528 106.234 117.397C106.829 117.281 107.372 117.302 107.864 117.46C108.359 117.617 108.777 117.915 109.116 118.352C109.459 118.786 109.7 119.364 109.841 120.086L110.917 125.602L109.229 125.931L108.193 120.619C108.069 119.983 107.809 119.522 107.413 119.236C107.017 118.946 106.527 118.858 105.943 118.971C105.544 119.049 105.203 119.204 104.92 119.435C104.641 119.665 104.443 119.962 104.326 120.324C104.212 120.682 104.2 121.091 104.29 121.55Z" fill="#525866"/>
<path d="M51.8415 160.154L50.087 151.161L51.176 150.949L52.742 158.975L56.9223 158.16L57.1107 159.126L51.8415 160.154ZM58.5822 158.839L57.2663 152.094L58.3026 151.892L59.6185 158.637L58.5822 158.839ZM57.5739 150.867C57.3719 150.907 57.1843 150.872 57.0111 150.763C56.8408 150.653 56.7368 150.502 56.6991 150.309C56.6614 150.115 56.7009 149.936 56.8175 149.77C56.937 149.604 57.0977 149.502 57.2997 149.462C57.5017 149.423 57.6879 149.458 57.8581 149.567C58.0313 149.676 58.1368 149.828 58.1745 150.021C58.2122 150.214 58.1713 150.394 58.0518 150.56C57.9352 150.725 57.7759 150.828 57.5739 150.867ZM65.6415 150.46L64.4633 157.691L63.4095 157.897L59.5995 151.639L60.7236 151.42L63.634 156.431L63.7042 156.417L64.5174 150.679L65.6415 150.46ZM68.251 156.952L66.9351 150.208L67.9714 150.006L69.2873 156.75L68.251 156.952ZM67.2427 148.981C67.0407 149.02 66.8531 148.985 66.6799 148.876C66.5096 148.767 66.4056 148.615 66.3679 148.422C66.3302 148.229 66.3697 148.05 66.4863 147.884C66.6058 147.718 66.7666 147.615 66.9686 147.576C67.1705 147.536 67.3567 147.571 67.527 147.681C67.7002 147.79 67.8056 147.941 67.8433 148.134C67.881 148.328 67.8401 148.507 67.7206 148.673C67.604 148.839 67.4447 148.941 67.2427 148.981ZM71.3558 152.135L72.1474 156.192L71.1111 156.394L69.7952 149.65L70.7963 149.454L71.002 150.508L71.0898 150.491C71.181 150.118 71.3674 149.796 71.6488 149.525C71.9297 149.251 72.3249 149.065 72.8342 148.966C73.2909 148.877 73.7087 148.892 74.0878 149.013C74.4663 149.13 74.7875 149.359 75.0514 149.7C75.3148 150.038 75.5025 150.493 75.6144 151.067L76.4506 155.353L75.4143 155.555L74.5919 151.339C74.4885 150.81 74.2704 150.424 73.9375 150.182C73.6041 149.937 73.1973 149.861 72.7172 149.955C72.3865 150.019 72.1048 150.149 71.8722 150.343C71.6426 150.537 71.48 150.786 71.3844 151.09C71.2888 151.394 71.2793 151.743 71.3558 152.135ZM81.5133 157.136C81.0127 157.234 80.5699 157.253 80.1847 157.195C79.8 157.139 79.4674 157.031 79.1868 156.87C78.9097 156.711 78.6781 156.529 78.4919 156.322L79.2043 155.581C79.322 155.686 79.468 155.803 79.6422 155.933C79.8171 156.066 80.0403 156.167 80.312 156.236C80.5872 156.306 80.9282 156.302 81.3351 156.223C81.8796 156.117 82.3033 155.897 82.6061 155.565C82.9089 155.232 83.0054 154.785 82.8958 154.223L82.6285 152.853L82.5407 152.87C82.4885 153.008 82.4099 153.181 82.3048 153.39C82.2021 153.595 82.0341 153.794 81.801 153.985C81.5703 154.173 81.2353 154.31 80.7962 154.395C80.2518 154.502 79.7378 154.468 79.2542 154.295C78.7737 154.121 78.3595 153.813 78.0118 153.371C77.667 152.927 77.4261 152.354 77.289 151.652C77.1543 150.961 77.1584 150.336 77.3014 149.776C77.4438 149.213 77.7043 148.749 78.0827 148.384C78.4605 148.015 78.9334 147.776 79.5013 147.665C79.9404 147.579 80.303 147.584 80.5892 147.68C80.8777 147.773 81.1088 147.898 81.2823 148.056C81.4583 148.21 81.5957 148.338 81.6947 148.44L81.8 148.42L81.591 147.348L82.5922 147.153L83.9458 154.091C84.0589 154.67 84.0191 155.167 83.8264 155.582C83.6373 155.999 83.3383 156.335 82.9294 156.591C82.524 156.849 82.0519 157.031 81.5133 157.136ZM80.7551 153.437C81.1708 153.356 81.5035 153.192 81.7533 152.946C82.003 152.7 82.1677 152.383 82.2473 151.997C82.327 151.611 82.3182 151.169 82.2211 150.671C82.1263 150.185 81.9695 149.771 81.7506 149.428C81.5316 149.084 81.2582 148.835 80.9302 148.681C80.6022 148.526 80.2274 148.49 79.8059 148.572C79.3668 148.657 79.0226 148.84 78.7732 149.12C78.5268 149.399 78.367 149.74 78.2938 150.143C78.2234 150.546 78.2328 150.975 78.3219 151.432C78.4133 151.9 78.5673 152.3 78.7839 152.632C79.0029 152.96 79.2773 153.198 79.607 153.346C79.9392 153.491 80.3219 153.522 80.7551 153.437ZM89.2748 152.85L87.5203 143.858L90.5588 143.265C91.2614 143.128 91.8615 143.135 92.3591 143.287C92.8562 143.437 93.2536 143.698 93.5513 144.071C93.8491 144.445 94.0496 144.896 94.153 145.426C94.2564 145.956 94.2397 146.447 94.1031 146.899C93.9664 147.351 93.697 147.738 93.2948 148.06C92.892 148.378 92.3423 148.605 91.6456 148.741L89.1866 149.221L88.9947 148.238L91.4185 147.765C91.8986 147.671 92.2713 147.525 92.5366 147.328C92.8049 147.13 92.9798 146.889 93.0612 146.605C93.145 146.319 93.1518 145.995 93.0816 145.635C93.0113 145.275 92.8826 144.974 92.6954 144.731C92.5082 144.487 92.2525 144.322 91.9283 144.233C91.6035 144.141 91.1981 144.143 90.7122 144.238L88.7977 144.611L90.3638 152.638L89.2748 152.85ZM92.7196 147.985L95.7208 151.593L94.4562 151.84L91.4901 148.225L92.7196 147.985ZM99.6644 150.969C99.0555 151.088 98.493 151.047 97.9768 150.847C97.4636 150.647 97.0274 150.311 96.6681 149.84C96.3118 149.369 96.0656 148.785 95.9297 148.088C95.7926 147.385 95.8003 146.747 95.9528 146.173C96.1081 145.599 96.3859 145.123 96.786 144.744C97.189 144.364 97.695 144.115 98.3039 143.996C98.9128 143.878 99.4738 143.919 99.987 144.119C100.503 144.319 100.94 144.657 101.297 145.131C101.656 145.605 101.905 146.193 102.042 146.895C102.178 147.592 102.168 148.226 102.012 148.797C101.859 149.368 101.581 149.843 101.178 150.223C100.778 150.602 100.273 150.85 99.6644 150.969ZM99.4827 150.038C99.9453 149.948 100.303 149.755 100.555 149.46C100.807 149.165 100.968 148.81 101.036 148.395C101.104 147.981 101.094 147.548 101.006 147.098C100.918 146.647 100.764 146.241 100.545 145.879C100.325 145.518 100.043 145.246 99.6974 145.065C99.352 144.883 98.948 144.837 98.4855 144.927C98.023 145.017 97.6659 145.212 97.4141 145.51C97.1624 145.808 97.0027 146.166 96.9353 146.583C96.8678 147.001 96.878 147.435 96.966 147.886C97.0539 148.336 97.2073 148.741 97.4262 149.1C97.645 149.458 97.9268 149.727 98.2717 149.905C98.6165 150.084 99.0202 150.129 99.4827 150.038ZM106.968 149.544C106.359 149.663 105.797 149.622 105.281 149.422C104.767 149.222 104.331 148.886 103.972 148.415C103.616 147.944 103.369 147.36 103.234 146.663C103.096 145.96 103.104 145.322 103.257 144.748C103.412 144.174 103.69 143.698 104.09 143.319C104.493 142.939 104.999 142.69 105.608 142.571C106.217 142.453 106.778 142.493 107.291 142.694C107.807 142.894 108.244 143.232 108.6 143.706C108.96 144.18 109.209 144.768 109.346 145.47C109.482 146.167 109.472 146.801 109.316 147.372C109.163 147.943 108.885 148.418 108.482 148.798C108.082 149.177 107.577 149.425 106.968 149.544ZM106.787 148.613C107.249 148.523 107.606 148.33 107.859 148.035C108.111 147.74 108.271 147.385 108.339 146.97C108.407 146.556 108.397 146.123 108.31 145.672C108.222 145.222 108.068 144.816 107.848 144.454C107.629 144.093 107.347 143.821 107.001 143.64C106.656 143.458 106.252 143.412 105.789 143.502C105.327 143.592 104.97 143.787 104.718 144.085C104.466 144.383 104.307 144.741 104.239 145.158C104.172 145.576 104.182 146.01 104.27 146.461C104.358 146.911 104.511 147.316 104.73 147.675C104.949 148.033 105.231 148.302 105.575 148.48C105.92 148.659 106.324 148.704 106.787 148.613ZM111.505 148.513L110.189 141.769L111.19 141.573L111.395 142.627L111.483 142.61C111.553 142.223 111.726 141.899 112 141.639C112.274 141.376 112.63 141.201 113.07 141.115C113.515 141.029 113.905 141.057 114.24 141.202C114.577 141.343 114.864 141.577 115.101 141.904L115.172 141.89C115.276 141.508 115.482 141.181 115.787 140.909C116.092 140.634 116.486 140.449 116.969 140.355C117.572 140.237 118.102 140.33 118.559 140.632C119.016 140.932 119.321 141.479 119.476 142.272L120.357 146.786L119.321 146.988L118.44 142.474C118.343 141.977 118.137 141.648 117.823 141.487C117.509 141.326 117.168 141.282 116.799 141.354C116.325 141.447 115.986 141.662 115.781 141.999C115.576 142.334 115.516 142.72 115.601 143.156L116.458 147.547L115.404 147.753L114.503 143.133C114.428 142.75 114.243 142.465 113.949 142.28C113.653 142.091 113.31 142.035 112.917 142.111C112.648 142.164 112.41 142.285 112.204 142.474C112.001 142.663 111.852 142.898 111.759 143.181C111.667 143.46 111.654 143.765 111.718 144.096L112.541 148.311L111.505 148.513Z" fill="#99A0AE"/>
<defs>
<filter id="filter0_d_7343_51160" x="37.1598" y="18.6705" width="56.0672" height="56.0653" filterUnits="userSpaceOnUse" color-interpolation-filters="sRGB">
<feFlood flood-opacity="0" result="BackgroundImageFix"/>
<feColorMatrix in="SourceAlpha" type="matrix" values="0 0 0 0 0 0 0 0 0 0 0 0 0 0 0 0 0 0 127 0" result="hardAlpha"/>
<feMorphology radius="2.69962" operator="dilate" in="SourceAlpha" result="effect1_dropShadow_7343_51160"/>
<feOffset/>
<feComposite in2="hardAlpha" operator="out"/>
<feColorMatrix type="matrix" values="0 0 0 0 0.278431 0 0 0 0 0.760784 0 0 0 0 1 0 0 0 0.2 0"/>
<feBlend mode="normal" in2="BackgroundImageFix" result="effect1_dropShadow_7343_51160"/>
<feBlend mode="normal" in="SourceGraphic" in2="effect1_dropShadow_7343_51160" result="shape"/>
</filter>
</defs>
</svg>
